G04 #@! TF.GenerationSoftware,KiCad,Pcbnew,(5.1.5)-3*
G04 #@! TF.CreationDate,2020-05-19T22:12:29-06:00*
G04 #@! TF.ProjectId,GarageDoorOpener,47617261-6765-4446-9f6f-724f70656e65,1b*
G04 #@! TF.SameCoordinates,Original*
G04 #@! TF.FileFunction,Paste,Top*
G04 #@! TF.FilePolarity,Positive*
%FSLAX46Y46*%
G04 Gerber Fmt 4.6, Leading zero omitted, Abs format (unit mm)*
G04 Created by KiCad (PCBNEW (5.1.5)-3) date 2020-05-19 22:12:29*
%MOMM*%
%LPD*%
G04 APERTURE LIST*
%ADD10R,0.700000X0.450000*%
%ADD11R,0.250000X0.750000*%
%ADD12C,0.100000*%
%ADD13R,0.800000X0.900000*%
%ADD14R,0.510000X0.400000*%
%ADD15R,0.250000X0.600000*%
%ADD16R,0.600000X0.250000*%
%ADD17R,0.500000X0.500000*%
%ADD18R,0.400000X0.510000*%
%ADD19R,3.900000X1.200000*%
G04 APERTURE END LIST*
D10*
X120329200Y-89535000D03*
X118329200Y-90185000D03*
X118329200Y-88885000D03*
X120329200Y-93091000D03*
X118329200Y-93741000D03*
X118329200Y-92441000D03*
X120329200Y-96621600D03*
X118329200Y-97271600D03*
X118329200Y-95971600D03*
D11*
X160262000Y-86589200D03*
X159762000Y-86589200D03*
X159262000Y-86589200D03*
X158762000Y-86589200D03*
X158762000Y-83489200D03*
X159262000Y-83489200D03*
X159762000Y-83489200D03*
X160262000Y-83489200D03*
D12*
G36*
X160627891Y-97125053D02*
G01*
X160649126Y-97128203D01*
X160669950Y-97133419D01*
X160690162Y-97140651D01*
X160709568Y-97149830D01*
X160727981Y-97160866D01*
X160745224Y-97173654D01*
X160761130Y-97188070D01*
X160775546Y-97203976D01*
X160788334Y-97221219D01*
X160799370Y-97239632D01*
X160808549Y-97259038D01*
X160815781Y-97279250D01*
X160820997Y-97300074D01*
X160824147Y-97321309D01*
X160825200Y-97342750D01*
X160825200Y-97780250D01*
X160824147Y-97801691D01*
X160820997Y-97822926D01*
X160815781Y-97843750D01*
X160808549Y-97863962D01*
X160799370Y-97883368D01*
X160788334Y-97901781D01*
X160775546Y-97919024D01*
X160761130Y-97934930D01*
X160745224Y-97949346D01*
X160727981Y-97962134D01*
X160709568Y-97973170D01*
X160690162Y-97982349D01*
X160669950Y-97989581D01*
X160649126Y-97994797D01*
X160627891Y-97997947D01*
X160606450Y-97999000D01*
X160093950Y-97999000D01*
X160072509Y-97997947D01*
X160051274Y-97994797D01*
X160030450Y-97989581D01*
X160010238Y-97982349D01*
X159990832Y-97973170D01*
X159972419Y-97962134D01*
X159955176Y-97949346D01*
X159939270Y-97934930D01*
X159924854Y-97919024D01*
X159912066Y-97901781D01*
X159901030Y-97883368D01*
X159891851Y-97863962D01*
X159884619Y-97843750D01*
X159879403Y-97822926D01*
X159876253Y-97801691D01*
X159875200Y-97780250D01*
X159875200Y-97342750D01*
X159876253Y-97321309D01*
X159879403Y-97300074D01*
X159884619Y-97279250D01*
X159891851Y-97259038D01*
X159901030Y-97239632D01*
X159912066Y-97221219D01*
X159924854Y-97203976D01*
X159939270Y-97188070D01*
X159955176Y-97173654D01*
X159972419Y-97160866D01*
X159990832Y-97149830D01*
X160010238Y-97140651D01*
X160030450Y-97133419D01*
X160051274Y-97128203D01*
X160072509Y-97125053D01*
X160093950Y-97124000D01*
X160606450Y-97124000D01*
X160627891Y-97125053D01*
G37*
G36*
X160627891Y-95550053D02*
G01*
X160649126Y-95553203D01*
X160669950Y-95558419D01*
X160690162Y-95565651D01*
X160709568Y-95574830D01*
X160727981Y-95585866D01*
X160745224Y-95598654D01*
X160761130Y-95613070D01*
X160775546Y-95628976D01*
X160788334Y-95646219D01*
X160799370Y-95664632D01*
X160808549Y-95684038D01*
X160815781Y-95704250D01*
X160820997Y-95725074D01*
X160824147Y-95746309D01*
X160825200Y-95767750D01*
X160825200Y-96205250D01*
X160824147Y-96226691D01*
X160820997Y-96247926D01*
X160815781Y-96268750D01*
X160808549Y-96288962D01*
X160799370Y-96308368D01*
X160788334Y-96326781D01*
X160775546Y-96344024D01*
X160761130Y-96359930D01*
X160745224Y-96374346D01*
X160727981Y-96387134D01*
X160709568Y-96398170D01*
X160690162Y-96407349D01*
X160669950Y-96414581D01*
X160649126Y-96419797D01*
X160627891Y-96422947D01*
X160606450Y-96424000D01*
X160093950Y-96424000D01*
X160072509Y-96422947D01*
X160051274Y-96419797D01*
X160030450Y-96414581D01*
X160010238Y-96407349D01*
X159990832Y-96398170D01*
X159972419Y-96387134D01*
X159955176Y-96374346D01*
X159939270Y-96359930D01*
X159924854Y-96344024D01*
X159912066Y-96326781D01*
X159901030Y-96308368D01*
X159891851Y-96288962D01*
X159884619Y-96268750D01*
X159879403Y-96247926D01*
X159876253Y-96226691D01*
X159875200Y-96205250D01*
X159875200Y-95767750D01*
X159876253Y-95746309D01*
X159879403Y-95725074D01*
X159884619Y-95704250D01*
X159891851Y-95684038D01*
X159901030Y-95664632D01*
X159912066Y-95646219D01*
X159924854Y-95628976D01*
X159939270Y-95613070D01*
X159955176Y-95598654D01*
X159972419Y-95585866D01*
X159990832Y-95574830D01*
X160010238Y-95565651D01*
X160030450Y-95558419D01*
X160051274Y-95553203D01*
X160072509Y-95550053D01*
X160093950Y-95549000D01*
X160606450Y-95549000D01*
X160627891Y-95550053D01*
G37*
G36*
X160615891Y-98713053D02*
G01*
X160637126Y-98716203D01*
X160657950Y-98721419D01*
X160678162Y-98728651D01*
X160697568Y-98737830D01*
X160715981Y-98748866D01*
X160733224Y-98761654D01*
X160749130Y-98776070D01*
X160763546Y-98791976D01*
X160776334Y-98809219D01*
X160787370Y-98827632D01*
X160796549Y-98847038D01*
X160803781Y-98867250D01*
X160808997Y-98888074D01*
X160812147Y-98909309D01*
X160813200Y-98930750D01*
X160813200Y-99443250D01*
X160812147Y-99464691D01*
X160808997Y-99485926D01*
X160803781Y-99506750D01*
X160796549Y-99526962D01*
X160787370Y-99546368D01*
X160776334Y-99564781D01*
X160763546Y-99582024D01*
X160749130Y-99597930D01*
X160733224Y-99612346D01*
X160715981Y-99625134D01*
X160697568Y-99636170D01*
X160678162Y-99645349D01*
X160657950Y-99652581D01*
X160637126Y-99657797D01*
X160615891Y-99660947D01*
X160594450Y-99662000D01*
X160156950Y-99662000D01*
X160135509Y-99660947D01*
X160114274Y-99657797D01*
X160093450Y-99652581D01*
X160073238Y-99645349D01*
X160053832Y-99636170D01*
X160035419Y-99625134D01*
X160018176Y-99612346D01*
X160002270Y-99597930D01*
X159987854Y-99582024D01*
X159975066Y-99564781D01*
X159964030Y-99546368D01*
X159954851Y-99526962D01*
X159947619Y-99506750D01*
X159942403Y-99485926D01*
X159939253Y-99464691D01*
X159938200Y-99443250D01*
X159938200Y-98930750D01*
X159939253Y-98909309D01*
X159942403Y-98888074D01*
X159947619Y-98867250D01*
X159954851Y-98847038D01*
X159964030Y-98827632D01*
X159975066Y-98809219D01*
X159987854Y-98791976D01*
X160002270Y-98776070D01*
X160018176Y-98761654D01*
X160035419Y-98748866D01*
X160053832Y-98737830D01*
X160073238Y-98728651D01*
X160093450Y-98721419D01*
X160114274Y-98716203D01*
X160135509Y-98713053D01*
X160156950Y-98712000D01*
X160594450Y-98712000D01*
X160615891Y-98713053D01*
G37*
G36*
X159040891Y-98713053D02*
G01*
X159062126Y-98716203D01*
X159082950Y-98721419D01*
X159103162Y-98728651D01*
X159122568Y-98737830D01*
X159140981Y-98748866D01*
X159158224Y-98761654D01*
X159174130Y-98776070D01*
X159188546Y-98791976D01*
X159201334Y-98809219D01*
X159212370Y-98827632D01*
X159221549Y-98847038D01*
X159228781Y-98867250D01*
X159233997Y-98888074D01*
X159237147Y-98909309D01*
X159238200Y-98930750D01*
X159238200Y-99443250D01*
X159237147Y-99464691D01*
X159233997Y-99485926D01*
X159228781Y-99506750D01*
X159221549Y-99526962D01*
X159212370Y-99546368D01*
X159201334Y-99564781D01*
X159188546Y-99582024D01*
X159174130Y-99597930D01*
X159158224Y-99612346D01*
X159140981Y-99625134D01*
X159122568Y-99636170D01*
X159103162Y-99645349D01*
X159082950Y-99652581D01*
X159062126Y-99657797D01*
X159040891Y-99660947D01*
X159019450Y-99662000D01*
X158581950Y-99662000D01*
X158560509Y-99660947D01*
X158539274Y-99657797D01*
X158518450Y-99652581D01*
X158498238Y-99645349D01*
X158478832Y-99636170D01*
X158460419Y-99625134D01*
X158443176Y-99612346D01*
X158427270Y-99597930D01*
X158412854Y-99582024D01*
X158400066Y-99564781D01*
X158389030Y-99546368D01*
X158379851Y-99526962D01*
X158372619Y-99506750D01*
X158367403Y-99485926D01*
X158364253Y-99464691D01*
X158363200Y-99443250D01*
X158363200Y-98930750D01*
X158364253Y-98909309D01*
X158367403Y-98888074D01*
X158372619Y-98867250D01*
X158379851Y-98847038D01*
X158389030Y-98827632D01*
X158400066Y-98809219D01*
X158412854Y-98791976D01*
X158427270Y-98776070D01*
X158443176Y-98761654D01*
X158460419Y-98748866D01*
X158478832Y-98737830D01*
X158498238Y-98728651D01*
X158518450Y-98721419D01*
X158539274Y-98716203D01*
X158560509Y-98713053D01*
X158581950Y-98712000D01*
X159019450Y-98712000D01*
X159040891Y-98713053D01*
G37*
G36*
X160678691Y-100325253D02*
G01*
X160699926Y-100328403D01*
X160720750Y-100333619D01*
X160740962Y-100340851D01*
X160760368Y-100350030D01*
X160778781Y-100361066D01*
X160796024Y-100373854D01*
X160811930Y-100388270D01*
X160826346Y-100404176D01*
X160839134Y-100421419D01*
X160850170Y-100439832D01*
X160859349Y-100459238D01*
X160866581Y-100479450D01*
X160871797Y-100500274D01*
X160874947Y-100521509D01*
X160876000Y-100542950D01*
X160876000Y-100980450D01*
X160874947Y-101001891D01*
X160871797Y-101023126D01*
X160866581Y-101043950D01*
X160859349Y-101064162D01*
X160850170Y-101083568D01*
X160839134Y-101101981D01*
X160826346Y-101119224D01*
X160811930Y-101135130D01*
X160796024Y-101149546D01*
X160778781Y-101162334D01*
X160760368Y-101173370D01*
X160740962Y-101182549D01*
X160720750Y-101189781D01*
X160699926Y-101194997D01*
X160678691Y-101198147D01*
X160657250Y-101199200D01*
X160144750Y-101199200D01*
X160123309Y-101198147D01*
X160102074Y-101194997D01*
X160081250Y-101189781D01*
X160061038Y-101182549D01*
X160041632Y-101173370D01*
X160023219Y-101162334D01*
X160005976Y-101149546D01*
X159990070Y-101135130D01*
X159975654Y-101119224D01*
X159962866Y-101101981D01*
X159951830Y-101083568D01*
X159942651Y-101064162D01*
X159935419Y-101043950D01*
X159930203Y-101023126D01*
X159927053Y-101001891D01*
X159926000Y-100980450D01*
X159926000Y-100542950D01*
X159927053Y-100521509D01*
X159930203Y-100500274D01*
X159935419Y-100479450D01*
X159942651Y-100459238D01*
X159951830Y-100439832D01*
X159962866Y-100421419D01*
X159975654Y-100404176D01*
X159990070Y-100388270D01*
X160005976Y-100373854D01*
X160023219Y-100361066D01*
X160041632Y-100350030D01*
X160061038Y-100340851D01*
X160081250Y-100333619D01*
X160102074Y-100328403D01*
X160123309Y-100325253D01*
X160144750Y-100324200D01*
X160657250Y-100324200D01*
X160678691Y-100325253D01*
G37*
G36*
X160678691Y-101900253D02*
G01*
X160699926Y-101903403D01*
X160720750Y-101908619D01*
X160740962Y-101915851D01*
X160760368Y-101925030D01*
X160778781Y-101936066D01*
X160796024Y-101948854D01*
X160811930Y-101963270D01*
X160826346Y-101979176D01*
X160839134Y-101996419D01*
X160850170Y-102014832D01*
X160859349Y-102034238D01*
X160866581Y-102054450D01*
X160871797Y-102075274D01*
X160874947Y-102096509D01*
X160876000Y-102117950D01*
X160876000Y-102555450D01*
X160874947Y-102576891D01*
X160871797Y-102598126D01*
X160866581Y-102618950D01*
X160859349Y-102639162D01*
X160850170Y-102658568D01*
X160839134Y-102676981D01*
X160826346Y-102694224D01*
X160811930Y-102710130D01*
X160796024Y-102724546D01*
X160778781Y-102737334D01*
X160760368Y-102748370D01*
X160740962Y-102757549D01*
X160720750Y-102764781D01*
X160699926Y-102769997D01*
X160678691Y-102773147D01*
X160657250Y-102774200D01*
X160144750Y-102774200D01*
X160123309Y-102773147D01*
X160102074Y-102769997D01*
X160081250Y-102764781D01*
X160061038Y-102757549D01*
X160041632Y-102748370D01*
X160023219Y-102737334D01*
X160005976Y-102724546D01*
X159990070Y-102710130D01*
X159975654Y-102694224D01*
X159962866Y-102676981D01*
X159951830Y-102658568D01*
X159942651Y-102639162D01*
X159935419Y-102618950D01*
X159930203Y-102598126D01*
X159927053Y-102576891D01*
X159926000Y-102555450D01*
X159926000Y-102117950D01*
X159927053Y-102096509D01*
X159930203Y-102075274D01*
X159935419Y-102054450D01*
X159942651Y-102034238D01*
X159951830Y-102014832D01*
X159962866Y-101996419D01*
X159975654Y-101979176D01*
X159990070Y-101963270D01*
X160005976Y-101948854D01*
X160023219Y-101936066D01*
X160041632Y-101925030D01*
X160061038Y-101915851D01*
X160081250Y-101908619D01*
X160102074Y-101903403D01*
X160123309Y-101900253D01*
X160144750Y-101899200D01*
X160657250Y-101899200D01*
X160678691Y-101900253D01*
G37*
G36*
X162038091Y-86114653D02*
G01*
X162059326Y-86117803D01*
X162080150Y-86123019D01*
X162100362Y-86130251D01*
X162119768Y-86139430D01*
X162138181Y-86150466D01*
X162155424Y-86163254D01*
X162171330Y-86177670D01*
X162185746Y-86193576D01*
X162198534Y-86210819D01*
X162209570Y-86229232D01*
X162218749Y-86248638D01*
X162225981Y-86268850D01*
X162231197Y-86289674D01*
X162234347Y-86310909D01*
X162235400Y-86332350D01*
X162235400Y-86844850D01*
X162234347Y-86866291D01*
X162231197Y-86887526D01*
X162225981Y-86908350D01*
X162218749Y-86928562D01*
X162209570Y-86947968D01*
X162198534Y-86966381D01*
X162185746Y-86983624D01*
X162171330Y-86999530D01*
X162155424Y-87013946D01*
X162138181Y-87026734D01*
X162119768Y-87037770D01*
X162100362Y-87046949D01*
X162080150Y-87054181D01*
X162059326Y-87059397D01*
X162038091Y-87062547D01*
X162016650Y-87063600D01*
X161579150Y-87063600D01*
X161557709Y-87062547D01*
X161536474Y-87059397D01*
X161515650Y-87054181D01*
X161495438Y-87046949D01*
X161476032Y-87037770D01*
X161457619Y-87026734D01*
X161440376Y-87013946D01*
X161424470Y-86999530D01*
X161410054Y-86983624D01*
X161397266Y-86966381D01*
X161386230Y-86947968D01*
X161377051Y-86928562D01*
X161369819Y-86908350D01*
X161364603Y-86887526D01*
X161361453Y-86866291D01*
X161360400Y-86844850D01*
X161360400Y-86332350D01*
X161361453Y-86310909D01*
X161364603Y-86289674D01*
X161369819Y-86268850D01*
X161377051Y-86248638D01*
X161386230Y-86229232D01*
X161397266Y-86210819D01*
X161410054Y-86193576D01*
X161424470Y-86177670D01*
X161440376Y-86163254D01*
X161457619Y-86150466D01*
X161476032Y-86139430D01*
X161495438Y-86130251D01*
X161515650Y-86123019D01*
X161536474Y-86117803D01*
X161557709Y-86114653D01*
X161579150Y-86113600D01*
X162016650Y-86113600D01*
X162038091Y-86114653D01*
G37*
G36*
X163613091Y-86114653D02*
G01*
X163634326Y-86117803D01*
X163655150Y-86123019D01*
X163675362Y-86130251D01*
X163694768Y-86139430D01*
X163713181Y-86150466D01*
X163730424Y-86163254D01*
X163746330Y-86177670D01*
X163760746Y-86193576D01*
X163773534Y-86210819D01*
X163784570Y-86229232D01*
X163793749Y-86248638D01*
X163800981Y-86268850D01*
X163806197Y-86289674D01*
X163809347Y-86310909D01*
X163810400Y-86332350D01*
X163810400Y-86844850D01*
X163809347Y-86866291D01*
X163806197Y-86887526D01*
X163800981Y-86908350D01*
X163793749Y-86928562D01*
X163784570Y-86947968D01*
X163773534Y-86966381D01*
X163760746Y-86983624D01*
X163746330Y-86999530D01*
X163730424Y-87013946D01*
X163713181Y-87026734D01*
X163694768Y-87037770D01*
X163675362Y-87046949D01*
X163655150Y-87054181D01*
X163634326Y-87059397D01*
X163613091Y-87062547D01*
X163591650Y-87063600D01*
X163154150Y-87063600D01*
X163132709Y-87062547D01*
X163111474Y-87059397D01*
X163090650Y-87054181D01*
X163070438Y-87046949D01*
X163051032Y-87037770D01*
X163032619Y-87026734D01*
X163015376Y-87013946D01*
X162999470Y-86999530D01*
X162985054Y-86983624D01*
X162972266Y-86966381D01*
X162961230Y-86947968D01*
X162952051Y-86928562D01*
X162944819Y-86908350D01*
X162939603Y-86887526D01*
X162936453Y-86866291D01*
X162935400Y-86844850D01*
X162935400Y-86332350D01*
X162936453Y-86310909D01*
X162939603Y-86289674D01*
X162944819Y-86268850D01*
X162952051Y-86248638D01*
X162961230Y-86229232D01*
X162972266Y-86210819D01*
X162985054Y-86193576D01*
X162999470Y-86177670D01*
X163015376Y-86163254D01*
X163032619Y-86150466D01*
X163051032Y-86139430D01*
X163070438Y-86130251D01*
X163090650Y-86123019D01*
X163111474Y-86117803D01*
X163132709Y-86114653D01*
X163154150Y-86113600D01*
X163591650Y-86113600D01*
X163613091Y-86114653D01*
G37*
G36*
X160488891Y-89213453D02*
G01*
X160510126Y-89216603D01*
X160530950Y-89221819D01*
X160551162Y-89229051D01*
X160570568Y-89238230D01*
X160588981Y-89249266D01*
X160606224Y-89262054D01*
X160622130Y-89276470D01*
X160636546Y-89292376D01*
X160649334Y-89309619D01*
X160660370Y-89328032D01*
X160669549Y-89347438D01*
X160676781Y-89367650D01*
X160681997Y-89388474D01*
X160685147Y-89409709D01*
X160686200Y-89431150D01*
X160686200Y-89943650D01*
X160685147Y-89965091D01*
X160681997Y-89986326D01*
X160676781Y-90007150D01*
X160669549Y-90027362D01*
X160660370Y-90046768D01*
X160649334Y-90065181D01*
X160636546Y-90082424D01*
X160622130Y-90098330D01*
X160606224Y-90112746D01*
X160588981Y-90125534D01*
X160570568Y-90136570D01*
X160551162Y-90145749D01*
X160530950Y-90152981D01*
X160510126Y-90158197D01*
X160488891Y-90161347D01*
X160467450Y-90162400D01*
X160029950Y-90162400D01*
X160008509Y-90161347D01*
X159987274Y-90158197D01*
X159966450Y-90152981D01*
X159946238Y-90145749D01*
X159926832Y-90136570D01*
X159908419Y-90125534D01*
X159891176Y-90112746D01*
X159875270Y-90098330D01*
X159860854Y-90082424D01*
X159848066Y-90065181D01*
X159837030Y-90046768D01*
X159827851Y-90027362D01*
X159820619Y-90007150D01*
X159815403Y-89986326D01*
X159812253Y-89965091D01*
X159811200Y-89943650D01*
X159811200Y-89431150D01*
X159812253Y-89409709D01*
X159815403Y-89388474D01*
X159820619Y-89367650D01*
X159827851Y-89347438D01*
X159837030Y-89328032D01*
X159848066Y-89309619D01*
X159860854Y-89292376D01*
X159875270Y-89276470D01*
X159891176Y-89262054D01*
X159908419Y-89249266D01*
X159926832Y-89238230D01*
X159946238Y-89229051D01*
X159966450Y-89221819D01*
X159987274Y-89216603D01*
X160008509Y-89213453D01*
X160029950Y-89212400D01*
X160467450Y-89212400D01*
X160488891Y-89213453D01*
G37*
G36*
X158913891Y-89213453D02*
G01*
X158935126Y-89216603D01*
X158955950Y-89221819D01*
X158976162Y-89229051D01*
X158995568Y-89238230D01*
X159013981Y-89249266D01*
X159031224Y-89262054D01*
X159047130Y-89276470D01*
X159061546Y-89292376D01*
X159074334Y-89309619D01*
X159085370Y-89328032D01*
X159094549Y-89347438D01*
X159101781Y-89367650D01*
X159106997Y-89388474D01*
X159110147Y-89409709D01*
X159111200Y-89431150D01*
X159111200Y-89943650D01*
X159110147Y-89965091D01*
X159106997Y-89986326D01*
X159101781Y-90007150D01*
X159094549Y-90027362D01*
X159085370Y-90046768D01*
X159074334Y-90065181D01*
X159061546Y-90082424D01*
X159047130Y-90098330D01*
X159031224Y-90112746D01*
X159013981Y-90125534D01*
X158995568Y-90136570D01*
X158976162Y-90145749D01*
X158955950Y-90152981D01*
X158935126Y-90158197D01*
X158913891Y-90161347D01*
X158892450Y-90162400D01*
X158454950Y-90162400D01*
X158433509Y-90161347D01*
X158412274Y-90158197D01*
X158391450Y-90152981D01*
X158371238Y-90145749D01*
X158351832Y-90136570D01*
X158333419Y-90125534D01*
X158316176Y-90112746D01*
X158300270Y-90098330D01*
X158285854Y-90082424D01*
X158273066Y-90065181D01*
X158262030Y-90046768D01*
X158252851Y-90027362D01*
X158245619Y-90007150D01*
X158240403Y-89986326D01*
X158237253Y-89965091D01*
X158236200Y-89943650D01*
X158236200Y-89431150D01*
X158237253Y-89409709D01*
X158240403Y-89388474D01*
X158245619Y-89367650D01*
X158252851Y-89347438D01*
X158262030Y-89328032D01*
X158273066Y-89309619D01*
X158285854Y-89292376D01*
X158300270Y-89276470D01*
X158316176Y-89262054D01*
X158333419Y-89249266D01*
X158351832Y-89238230D01*
X158371238Y-89229051D01*
X158391450Y-89221819D01*
X158412274Y-89216603D01*
X158433509Y-89213453D01*
X158454950Y-89212400D01*
X158892450Y-89212400D01*
X158913891Y-89213453D01*
G37*
G36*
X123839291Y-91732253D02*
G01*
X123860526Y-91735403D01*
X123881350Y-91740619D01*
X123901562Y-91747851D01*
X123920968Y-91757030D01*
X123939381Y-91768066D01*
X123956624Y-91780854D01*
X123972530Y-91795270D01*
X123986946Y-91811176D01*
X123999734Y-91828419D01*
X124010770Y-91846832D01*
X124019949Y-91866238D01*
X124027181Y-91886450D01*
X124032397Y-91907274D01*
X124035547Y-91928509D01*
X124036600Y-91949950D01*
X124036600Y-92462450D01*
X124035547Y-92483891D01*
X124032397Y-92505126D01*
X124027181Y-92525950D01*
X124019949Y-92546162D01*
X124010770Y-92565568D01*
X123999734Y-92583981D01*
X123986946Y-92601224D01*
X123972530Y-92617130D01*
X123956624Y-92631546D01*
X123939381Y-92644334D01*
X123920968Y-92655370D01*
X123901562Y-92664549D01*
X123881350Y-92671781D01*
X123860526Y-92676997D01*
X123839291Y-92680147D01*
X123817850Y-92681200D01*
X123380350Y-92681200D01*
X123358909Y-92680147D01*
X123337674Y-92676997D01*
X123316850Y-92671781D01*
X123296638Y-92664549D01*
X123277232Y-92655370D01*
X123258819Y-92644334D01*
X123241576Y-92631546D01*
X123225670Y-92617130D01*
X123211254Y-92601224D01*
X123198466Y-92583981D01*
X123187430Y-92565568D01*
X123178251Y-92546162D01*
X123171019Y-92525950D01*
X123165803Y-92505126D01*
X123162653Y-92483891D01*
X123161600Y-92462450D01*
X123161600Y-91949950D01*
X123162653Y-91928509D01*
X123165803Y-91907274D01*
X123171019Y-91886450D01*
X123178251Y-91866238D01*
X123187430Y-91846832D01*
X123198466Y-91828419D01*
X123211254Y-91811176D01*
X123225670Y-91795270D01*
X123241576Y-91780854D01*
X123258819Y-91768066D01*
X123277232Y-91757030D01*
X123296638Y-91747851D01*
X123316850Y-91740619D01*
X123337674Y-91735403D01*
X123358909Y-91732253D01*
X123380350Y-91731200D01*
X123817850Y-91731200D01*
X123839291Y-91732253D01*
G37*
G36*
X122264291Y-91732253D02*
G01*
X122285526Y-91735403D01*
X122306350Y-91740619D01*
X122326562Y-91747851D01*
X122345968Y-91757030D01*
X122364381Y-91768066D01*
X122381624Y-91780854D01*
X122397530Y-91795270D01*
X122411946Y-91811176D01*
X122424734Y-91828419D01*
X122435770Y-91846832D01*
X122444949Y-91866238D01*
X122452181Y-91886450D01*
X122457397Y-91907274D01*
X122460547Y-91928509D01*
X122461600Y-91949950D01*
X122461600Y-92462450D01*
X122460547Y-92483891D01*
X122457397Y-92505126D01*
X122452181Y-92525950D01*
X122444949Y-92546162D01*
X122435770Y-92565568D01*
X122424734Y-92583981D01*
X122411946Y-92601224D01*
X122397530Y-92617130D01*
X122381624Y-92631546D01*
X122364381Y-92644334D01*
X122345968Y-92655370D01*
X122326562Y-92664549D01*
X122306350Y-92671781D01*
X122285526Y-92676997D01*
X122264291Y-92680147D01*
X122242850Y-92681200D01*
X121805350Y-92681200D01*
X121783909Y-92680147D01*
X121762674Y-92676997D01*
X121741850Y-92671781D01*
X121721638Y-92664549D01*
X121702232Y-92655370D01*
X121683819Y-92644334D01*
X121666576Y-92631546D01*
X121650670Y-92617130D01*
X121636254Y-92601224D01*
X121623466Y-92583981D01*
X121612430Y-92565568D01*
X121603251Y-92546162D01*
X121596019Y-92525950D01*
X121590803Y-92505126D01*
X121587653Y-92483891D01*
X121586600Y-92462450D01*
X121586600Y-91949950D01*
X121587653Y-91928509D01*
X121590803Y-91907274D01*
X121596019Y-91886450D01*
X121603251Y-91866238D01*
X121612430Y-91846832D01*
X121623466Y-91828419D01*
X121636254Y-91811176D01*
X121650670Y-91795270D01*
X121666576Y-91780854D01*
X121683819Y-91768066D01*
X121702232Y-91757030D01*
X121721638Y-91747851D01*
X121741850Y-91740619D01*
X121762674Y-91735403D01*
X121783909Y-91732253D01*
X121805350Y-91731200D01*
X122242850Y-91731200D01*
X122264291Y-91732253D01*
G37*
G36*
X123836691Y-95309453D02*
G01*
X123857926Y-95312603D01*
X123878750Y-95317819D01*
X123898962Y-95325051D01*
X123918368Y-95334230D01*
X123936781Y-95345266D01*
X123954024Y-95358054D01*
X123969930Y-95372470D01*
X123984346Y-95388376D01*
X123997134Y-95405619D01*
X124008170Y-95424032D01*
X124017349Y-95443438D01*
X124024581Y-95463650D01*
X124029797Y-95484474D01*
X124032947Y-95505709D01*
X124034000Y-95527150D01*
X124034000Y-96039650D01*
X124032947Y-96061091D01*
X124029797Y-96082326D01*
X124024581Y-96103150D01*
X124017349Y-96123362D01*
X124008170Y-96142768D01*
X123997134Y-96161181D01*
X123984346Y-96178424D01*
X123969930Y-96194330D01*
X123954024Y-96208746D01*
X123936781Y-96221534D01*
X123918368Y-96232570D01*
X123898962Y-96241749D01*
X123878750Y-96248981D01*
X123857926Y-96254197D01*
X123836691Y-96257347D01*
X123815250Y-96258400D01*
X123377750Y-96258400D01*
X123356309Y-96257347D01*
X123335074Y-96254197D01*
X123314250Y-96248981D01*
X123294038Y-96241749D01*
X123274632Y-96232570D01*
X123256219Y-96221534D01*
X123238976Y-96208746D01*
X123223070Y-96194330D01*
X123208654Y-96178424D01*
X123195866Y-96161181D01*
X123184830Y-96142768D01*
X123175651Y-96123362D01*
X123168419Y-96103150D01*
X123163203Y-96082326D01*
X123160053Y-96061091D01*
X123159000Y-96039650D01*
X123159000Y-95527150D01*
X123160053Y-95505709D01*
X123163203Y-95484474D01*
X123168419Y-95463650D01*
X123175651Y-95443438D01*
X123184830Y-95424032D01*
X123195866Y-95405619D01*
X123208654Y-95388376D01*
X123223070Y-95372470D01*
X123238976Y-95358054D01*
X123256219Y-95345266D01*
X123274632Y-95334230D01*
X123294038Y-95325051D01*
X123314250Y-95317819D01*
X123335074Y-95312603D01*
X123356309Y-95309453D01*
X123377750Y-95308400D01*
X123815250Y-95308400D01*
X123836691Y-95309453D01*
G37*
G36*
X122261691Y-95309453D02*
G01*
X122282926Y-95312603D01*
X122303750Y-95317819D01*
X122323962Y-95325051D01*
X122343368Y-95334230D01*
X122361781Y-95345266D01*
X122379024Y-95358054D01*
X122394930Y-95372470D01*
X122409346Y-95388376D01*
X122422134Y-95405619D01*
X122433170Y-95424032D01*
X122442349Y-95443438D01*
X122449581Y-95463650D01*
X122454797Y-95484474D01*
X122457947Y-95505709D01*
X122459000Y-95527150D01*
X122459000Y-96039650D01*
X122457947Y-96061091D01*
X122454797Y-96082326D01*
X122449581Y-96103150D01*
X122442349Y-96123362D01*
X122433170Y-96142768D01*
X122422134Y-96161181D01*
X122409346Y-96178424D01*
X122394930Y-96194330D01*
X122379024Y-96208746D01*
X122361781Y-96221534D01*
X122343368Y-96232570D01*
X122323962Y-96241749D01*
X122303750Y-96248981D01*
X122282926Y-96254197D01*
X122261691Y-96257347D01*
X122240250Y-96258400D01*
X121802750Y-96258400D01*
X121781309Y-96257347D01*
X121760074Y-96254197D01*
X121739250Y-96248981D01*
X121719038Y-96241749D01*
X121699632Y-96232570D01*
X121681219Y-96221534D01*
X121663976Y-96208746D01*
X121648070Y-96194330D01*
X121633654Y-96178424D01*
X121620866Y-96161181D01*
X121609830Y-96142768D01*
X121600651Y-96123362D01*
X121593419Y-96103150D01*
X121588203Y-96082326D01*
X121585053Y-96061091D01*
X121584000Y-96039650D01*
X121584000Y-95527150D01*
X121585053Y-95505709D01*
X121588203Y-95484474D01*
X121593419Y-95463650D01*
X121600651Y-95443438D01*
X121609830Y-95424032D01*
X121620866Y-95405619D01*
X121633654Y-95388376D01*
X121648070Y-95372470D01*
X121663976Y-95358054D01*
X121681219Y-95345266D01*
X121699632Y-95334230D01*
X121719038Y-95325051D01*
X121739250Y-95317819D01*
X121760074Y-95312603D01*
X121781309Y-95309453D01*
X121802750Y-95308400D01*
X122240250Y-95308400D01*
X122261691Y-95309453D01*
G37*
D13*
X163042600Y-102752400D03*
X162092600Y-100752400D03*
X163992600Y-100752400D03*
D14*
X158937800Y-96274000D03*
X157647800Y-96774000D03*
X158937800Y-97274000D03*
D12*
G36*
X160514291Y-81415653D02*
G01*
X160535526Y-81418803D01*
X160556350Y-81424019D01*
X160576562Y-81431251D01*
X160595968Y-81440430D01*
X160614381Y-81451466D01*
X160631624Y-81464254D01*
X160647530Y-81478670D01*
X160661946Y-81494576D01*
X160674734Y-81511819D01*
X160685770Y-81530232D01*
X160694949Y-81549638D01*
X160702181Y-81569850D01*
X160707397Y-81590674D01*
X160710547Y-81611909D01*
X160711600Y-81633350D01*
X160711600Y-82145850D01*
X160710547Y-82167291D01*
X160707397Y-82188526D01*
X160702181Y-82209350D01*
X160694949Y-82229562D01*
X160685770Y-82248968D01*
X160674734Y-82267381D01*
X160661946Y-82284624D01*
X160647530Y-82300530D01*
X160631624Y-82314946D01*
X160614381Y-82327734D01*
X160595968Y-82338770D01*
X160576562Y-82347949D01*
X160556350Y-82355181D01*
X160535526Y-82360397D01*
X160514291Y-82363547D01*
X160492850Y-82364600D01*
X160055350Y-82364600D01*
X160033909Y-82363547D01*
X160012674Y-82360397D01*
X159991850Y-82355181D01*
X159971638Y-82347949D01*
X159952232Y-82338770D01*
X159933819Y-82327734D01*
X159916576Y-82314946D01*
X159900670Y-82300530D01*
X159886254Y-82284624D01*
X159873466Y-82267381D01*
X159862430Y-82248968D01*
X159853251Y-82229562D01*
X159846019Y-82209350D01*
X159840803Y-82188526D01*
X159837653Y-82167291D01*
X159836600Y-82145850D01*
X159836600Y-81633350D01*
X159837653Y-81611909D01*
X159840803Y-81590674D01*
X159846019Y-81569850D01*
X159853251Y-81549638D01*
X159862430Y-81530232D01*
X159873466Y-81511819D01*
X159886254Y-81494576D01*
X159900670Y-81478670D01*
X159916576Y-81464254D01*
X159933819Y-81451466D01*
X159952232Y-81440430D01*
X159971638Y-81431251D01*
X159991850Y-81424019D01*
X160012674Y-81418803D01*
X160033909Y-81415653D01*
X160055350Y-81414600D01*
X160492850Y-81414600D01*
X160514291Y-81415653D01*
G37*
G36*
X158939291Y-81415653D02*
G01*
X158960526Y-81418803D01*
X158981350Y-81424019D01*
X159001562Y-81431251D01*
X159020968Y-81440430D01*
X159039381Y-81451466D01*
X159056624Y-81464254D01*
X159072530Y-81478670D01*
X159086946Y-81494576D01*
X159099734Y-81511819D01*
X159110770Y-81530232D01*
X159119949Y-81549638D01*
X159127181Y-81569850D01*
X159132397Y-81590674D01*
X159135547Y-81611909D01*
X159136600Y-81633350D01*
X159136600Y-82145850D01*
X159135547Y-82167291D01*
X159132397Y-82188526D01*
X159127181Y-82209350D01*
X159119949Y-82229562D01*
X159110770Y-82248968D01*
X159099734Y-82267381D01*
X159086946Y-82284624D01*
X159072530Y-82300530D01*
X159056624Y-82314946D01*
X159039381Y-82327734D01*
X159020968Y-82338770D01*
X159001562Y-82347949D01*
X158981350Y-82355181D01*
X158960526Y-82360397D01*
X158939291Y-82363547D01*
X158917850Y-82364600D01*
X158480350Y-82364600D01*
X158458909Y-82363547D01*
X158437674Y-82360397D01*
X158416850Y-82355181D01*
X158396638Y-82347949D01*
X158377232Y-82338770D01*
X158358819Y-82327734D01*
X158341576Y-82314946D01*
X158325670Y-82300530D01*
X158311254Y-82284624D01*
X158298466Y-82267381D01*
X158287430Y-82248968D01*
X158278251Y-82229562D01*
X158271019Y-82209350D01*
X158265803Y-82188526D01*
X158262653Y-82167291D01*
X158261600Y-82145850D01*
X158261600Y-81633350D01*
X158262653Y-81611909D01*
X158265803Y-81590674D01*
X158271019Y-81569850D01*
X158278251Y-81549638D01*
X158287430Y-81530232D01*
X158298466Y-81511819D01*
X158311254Y-81494576D01*
X158325670Y-81478670D01*
X158341576Y-81464254D01*
X158358819Y-81451466D01*
X158377232Y-81440430D01*
X158396638Y-81431251D01*
X158416850Y-81424019D01*
X158437674Y-81418803D01*
X158458909Y-81415653D01*
X158480350Y-81414600D01*
X158917850Y-81414600D01*
X158939291Y-81415653D01*
G37*
G36*
X158913891Y-87689453D02*
G01*
X158935126Y-87692603D01*
X158955950Y-87697819D01*
X158976162Y-87705051D01*
X158995568Y-87714230D01*
X159013981Y-87725266D01*
X159031224Y-87738054D01*
X159047130Y-87752470D01*
X159061546Y-87768376D01*
X159074334Y-87785619D01*
X159085370Y-87804032D01*
X159094549Y-87823438D01*
X159101781Y-87843650D01*
X159106997Y-87864474D01*
X159110147Y-87885709D01*
X159111200Y-87907150D01*
X159111200Y-88419650D01*
X159110147Y-88441091D01*
X159106997Y-88462326D01*
X159101781Y-88483150D01*
X159094549Y-88503362D01*
X159085370Y-88522768D01*
X159074334Y-88541181D01*
X159061546Y-88558424D01*
X159047130Y-88574330D01*
X159031224Y-88588746D01*
X159013981Y-88601534D01*
X158995568Y-88612570D01*
X158976162Y-88621749D01*
X158955950Y-88628981D01*
X158935126Y-88634197D01*
X158913891Y-88637347D01*
X158892450Y-88638400D01*
X158454950Y-88638400D01*
X158433509Y-88637347D01*
X158412274Y-88634197D01*
X158391450Y-88628981D01*
X158371238Y-88621749D01*
X158351832Y-88612570D01*
X158333419Y-88601534D01*
X158316176Y-88588746D01*
X158300270Y-88574330D01*
X158285854Y-88558424D01*
X158273066Y-88541181D01*
X158262030Y-88522768D01*
X158252851Y-88503362D01*
X158245619Y-88483150D01*
X158240403Y-88462326D01*
X158237253Y-88441091D01*
X158236200Y-88419650D01*
X158236200Y-87907150D01*
X158237253Y-87885709D01*
X158240403Y-87864474D01*
X158245619Y-87843650D01*
X158252851Y-87823438D01*
X158262030Y-87804032D01*
X158273066Y-87785619D01*
X158285854Y-87768376D01*
X158300270Y-87752470D01*
X158316176Y-87738054D01*
X158333419Y-87725266D01*
X158351832Y-87714230D01*
X158371238Y-87705051D01*
X158391450Y-87697819D01*
X158412274Y-87692603D01*
X158433509Y-87689453D01*
X158454950Y-87688400D01*
X158892450Y-87688400D01*
X158913891Y-87689453D01*
G37*
G36*
X160488891Y-87689453D02*
G01*
X160510126Y-87692603D01*
X160530950Y-87697819D01*
X160551162Y-87705051D01*
X160570568Y-87714230D01*
X160588981Y-87725266D01*
X160606224Y-87738054D01*
X160622130Y-87752470D01*
X160636546Y-87768376D01*
X160649334Y-87785619D01*
X160660370Y-87804032D01*
X160669549Y-87823438D01*
X160676781Y-87843650D01*
X160681997Y-87864474D01*
X160685147Y-87885709D01*
X160686200Y-87907150D01*
X160686200Y-88419650D01*
X160685147Y-88441091D01*
X160681997Y-88462326D01*
X160676781Y-88483150D01*
X160669549Y-88503362D01*
X160660370Y-88522768D01*
X160649334Y-88541181D01*
X160636546Y-88558424D01*
X160622130Y-88574330D01*
X160606224Y-88588746D01*
X160588981Y-88601534D01*
X160570568Y-88612570D01*
X160551162Y-88621749D01*
X160530950Y-88628981D01*
X160510126Y-88634197D01*
X160488891Y-88637347D01*
X160467450Y-88638400D01*
X160029950Y-88638400D01*
X160008509Y-88637347D01*
X159987274Y-88634197D01*
X159966450Y-88628981D01*
X159946238Y-88621749D01*
X159926832Y-88612570D01*
X159908419Y-88601534D01*
X159891176Y-88588746D01*
X159875270Y-88574330D01*
X159860854Y-88558424D01*
X159848066Y-88541181D01*
X159837030Y-88522768D01*
X159827851Y-88503362D01*
X159820619Y-88483150D01*
X159815403Y-88462326D01*
X159812253Y-88441091D01*
X159811200Y-88419650D01*
X159811200Y-87907150D01*
X159812253Y-87885709D01*
X159815403Y-87864474D01*
X159820619Y-87843650D01*
X159827851Y-87823438D01*
X159837030Y-87804032D01*
X159848066Y-87785619D01*
X159860854Y-87768376D01*
X159875270Y-87752470D01*
X159891176Y-87738054D01*
X159908419Y-87725266D01*
X159926832Y-87714230D01*
X159946238Y-87705051D01*
X159966450Y-87697819D01*
X159987274Y-87692603D01*
X160008509Y-87689453D01*
X160029950Y-87688400D01*
X160467450Y-87688400D01*
X160488891Y-87689453D01*
G37*
G36*
X123836691Y-93353653D02*
G01*
X123857926Y-93356803D01*
X123878750Y-93362019D01*
X123898962Y-93369251D01*
X123918368Y-93378430D01*
X123936781Y-93389466D01*
X123954024Y-93402254D01*
X123969930Y-93416670D01*
X123984346Y-93432576D01*
X123997134Y-93449819D01*
X124008170Y-93468232D01*
X124017349Y-93487638D01*
X124024581Y-93507850D01*
X124029797Y-93528674D01*
X124032947Y-93549909D01*
X124034000Y-93571350D01*
X124034000Y-94083850D01*
X124032947Y-94105291D01*
X124029797Y-94126526D01*
X124024581Y-94147350D01*
X124017349Y-94167562D01*
X124008170Y-94186968D01*
X123997134Y-94205381D01*
X123984346Y-94222624D01*
X123969930Y-94238530D01*
X123954024Y-94252946D01*
X123936781Y-94265734D01*
X123918368Y-94276770D01*
X123898962Y-94285949D01*
X123878750Y-94293181D01*
X123857926Y-94298397D01*
X123836691Y-94301547D01*
X123815250Y-94302600D01*
X123377750Y-94302600D01*
X123356309Y-94301547D01*
X123335074Y-94298397D01*
X123314250Y-94293181D01*
X123294038Y-94285949D01*
X123274632Y-94276770D01*
X123256219Y-94265734D01*
X123238976Y-94252946D01*
X123223070Y-94238530D01*
X123208654Y-94222624D01*
X123195866Y-94205381D01*
X123184830Y-94186968D01*
X123175651Y-94167562D01*
X123168419Y-94147350D01*
X123163203Y-94126526D01*
X123160053Y-94105291D01*
X123159000Y-94083850D01*
X123159000Y-93571350D01*
X123160053Y-93549909D01*
X123163203Y-93528674D01*
X123168419Y-93507850D01*
X123175651Y-93487638D01*
X123184830Y-93468232D01*
X123195866Y-93449819D01*
X123208654Y-93432576D01*
X123223070Y-93416670D01*
X123238976Y-93402254D01*
X123256219Y-93389466D01*
X123274632Y-93378430D01*
X123294038Y-93369251D01*
X123314250Y-93362019D01*
X123335074Y-93356803D01*
X123356309Y-93353653D01*
X123377750Y-93352600D01*
X123815250Y-93352600D01*
X123836691Y-93353653D01*
G37*
G36*
X122261691Y-93353653D02*
G01*
X122282926Y-93356803D01*
X122303750Y-93362019D01*
X122323962Y-93369251D01*
X122343368Y-93378430D01*
X122361781Y-93389466D01*
X122379024Y-93402254D01*
X122394930Y-93416670D01*
X122409346Y-93432576D01*
X122422134Y-93449819D01*
X122433170Y-93468232D01*
X122442349Y-93487638D01*
X122449581Y-93507850D01*
X122454797Y-93528674D01*
X122457947Y-93549909D01*
X122459000Y-93571350D01*
X122459000Y-94083850D01*
X122457947Y-94105291D01*
X122454797Y-94126526D01*
X122449581Y-94147350D01*
X122442349Y-94167562D01*
X122433170Y-94186968D01*
X122422134Y-94205381D01*
X122409346Y-94222624D01*
X122394930Y-94238530D01*
X122379024Y-94252946D01*
X122361781Y-94265734D01*
X122343368Y-94276770D01*
X122323962Y-94285949D01*
X122303750Y-94293181D01*
X122282926Y-94298397D01*
X122261691Y-94301547D01*
X122240250Y-94302600D01*
X121802750Y-94302600D01*
X121781309Y-94301547D01*
X121760074Y-94298397D01*
X121739250Y-94293181D01*
X121719038Y-94285949D01*
X121699632Y-94276770D01*
X121681219Y-94265734D01*
X121663976Y-94252946D01*
X121648070Y-94238530D01*
X121633654Y-94222624D01*
X121620866Y-94205381D01*
X121609830Y-94186968D01*
X121600651Y-94167562D01*
X121593419Y-94147350D01*
X121588203Y-94126526D01*
X121585053Y-94105291D01*
X121584000Y-94083850D01*
X121584000Y-93571350D01*
X121585053Y-93549909D01*
X121588203Y-93528674D01*
X121593419Y-93507850D01*
X121600651Y-93487638D01*
X121609830Y-93468232D01*
X121620866Y-93449819D01*
X121633654Y-93432576D01*
X121648070Y-93416670D01*
X121663976Y-93402254D01*
X121681219Y-93389466D01*
X121699632Y-93378430D01*
X121719038Y-93369251D01*
X121739250Y-93362019D01*
X121760074Y-93356803D01*
X121781309Y-93353653D01*
X121802750Y-93352600D01*
X122240250Y-93352600D01*
X122261691Y-93353653D01*
G37*
G36*
X123836691Y-96884253D02*
G01*
X123857926Y-96887403D01*
X123878750Y-96892619D01*
X123898962Y-96899851D01*
X123918368Y-96909030D01*
X123936781Y-96920066D01*
X123954024Y-96932854D01*
X123969930Y-96947270D01*
X123984346Y-96963176D01*
X123997134Y-96980419D01*
X124008170Y-96998832D01*
X124017349Y-97018238D01*
X124024581Y-97038450D01*
X124029797Y-97059274D01*
X124032947Y-97080509D01*
X124034000Y-97101950D01*
X124034000Y-97614450D01*
X124032947Y-97635891D01*
X124029797Y-97657126D01*
X124024581Y-97677950D01*
X124017349Y-97698162D01*
X124008170Y-97717568D01*
X123997134Y-97735981D01*
X123984346Y-97753224D01*
X123969930Y-97769130D01*
X123954024Y-97783546D01*
X123936781Y-97796334D01*
X123918368Y-97807370D01*
X123898962Y-97816549D01*
X123878750Y-97823781D01*
X123857926Y-97828997D01*
X123836691Y-97832147D01*
X123815250Y-97833200D01*
X123377750Y-97833200D01*
X123356309Y-97832147D01*
X123335074Y-97828997D01*
X123314250Y-97823781D01*
X123294038Y-97816549D01*
X123274632Y-97807370D01*
X123256219Y-97796334D01*
X123238976Y-97783546D01*
X123223070Y-97769130D01*
X123208654Y-97753224D01*
X123195866Y-97735981D01*
X123184830Y-97717568D01*
X123175651Y-97698162D01*
X123168419Y-97677950D01*
X123163203Y-97657126D01*
X123160053Y-97635891D01*
X123159000Y-97614450D01*
X123159000Y-97101950D01*
X123160053Y-97080509D01*
X123163203Y-97059274D01*
X123168419Y-97038450D01*
X123175651Y-97018238D01*
X123184830Y-96998832D01*
X123195866Y-96980419D01*
X123208654Y-96963176D01*
X123223070Y-96947270D01*
X123238976Y-96932854D01*
X123256219Y-96920066D01*
X123274632Y-96909030D01*
X123294038Y-96899851D01*
X123314250Y-96892619D01*
X123335074Y-96887403D01*
X123356309Y-96884253D01*
X123377750Y-96883200D01*
X123815250Y-96883200D01*
X123836691Y-96884253D01*
G37*
G36*
X122261691Y-96884253D02*
G01*
X122282926Y-96887403D01*
X122303750Y-96892619D01*
X122323962Y-96899851D01*
X122343368Y-96909030D01*
X122361781Y-96920066D01*
X122379024Y-96932854D01*
X122394930Y-96947270D01*
X122409346Y-96963176D01*
X122422134Y-96980419D01*
X122433170Y-96998832D01*
X122442349Y-97018238D01*
X122449581Y-97038450D01*
X122454797Y-97059274D01*
X122457947Y-97080509D01*
X122459000Y-97101950D01*
X122459000Y-97614450D01*
X122457947Y-97635891D01*
X122454797Y-97657126D01*
X122449581Y-97677950D01*
X122442349Y-97698162D01*
X122433170Y-97717568D01*
X122422134Y-97735981D01*
X122409346Y-97753224D01*
X122394930Y-97769130D01*
X122379024Y-97783546D01*
X122361781Y-97796334D01*
X122343368Y-97807370D01*
X122323962Y-97816549D01*
X122303750Y-97823781D01*
X122282926Y-97828997D01*
X122261691Y-97832147D01*
X122240250Y-97833200D01*
X121802750Y-97833200D01*
X121781309Y-97832147D01*
X121760074Y-97828997D01*
X121739250Y-97823781D01*
X121719038Y-97816549D01*
X121699632Y-97807370D01*
X121681219Y-97796334D01*
X121663976Y-97783546D01*
X121648070Y-97769130D01*
X121633654Y-97753224D01*
X121620866Y-97735981D01*
X121609830Y-97717568D01*
X121600651Y-97698162D01*
X121593419Y-97677950D01*
X121588203Y-97657126D01*
X121585053Y-97635891D01*
X121584000Y-97614450D01*
X121584000Y-97101950D01*
X121585053Y-97080509D01*
X121588203Y-97059274D01*
X121593419Y-97038450D01*
X121600651Y-97018238D01*
X121609830Y-96998832D01*
X121620866Y-96980419D01*
X121633654Y-96963176D01*
X121648070Y-96947270D01*
X121663976Y-96932854D01*
X121681219Y-96920066D01*
X121699632Y-96909030D01*
X121719038Y-96899851D01*
X121739250Y-96892619D01*
X121760074Y-96887403D01*
X121781309Y-96884253D01*
X121802750Y-96883200D01*
X122240250Y-96883200D01*
X122261691Y-96884253D01*
G37*
D15*
X115963000Y-77981000D03*
X116463000Y-77981000D03*
X116963000Y-77981000D03*
X117463000Y-77981000D03*
D16*
X118113000Y-77511000D03*
X118113000Y-75711000D03*
X115313000Y-77511000D03*
D15*
X116963000Y-75181000D03*
X116463000Y-75181000D03*
X115963000Y-75181000D03*
D12*
G36*
X122058691Y-82126853D02*
G01*
X122079926Y-82130003D01*
X122100750Y-82135219D01*
X122120962Y-82142451D01*
X122140368Y-82151630D01*
X122158781Y-82162666D01*
X122176024Y-82175454D01*
X122191930Y-82189870D01*
X122206346Y-82205776D01*
X122219134Y-82223019D01*
X122230170Y-82241432D01*
X122239349Y-82260838D01*
X122246581Y-82281050D01*
X122251797Y-82301874D01*
X122254947Y-82323109D01*
X122256000Y-82344550D01*
X122256000Y-82857050D01*
X122254947Y-82878491D01*
X122251797Y-82899726D01*
X122246581Y-82920550D01*
X122239349Y-82940762D01*
X122230170Y-82960168D01*
X122219134Y-82978581D01*
X122206346Y-82995824D01*
X122191930Y-83011730D01*
X122176024Y-83026146D01*
X122158781Y-83038934D01*
X122140368Y-83049970D01*
X122120962Y-83059149D01*
X122100750Y-83066381D01*
X122079926Y-83071597D01*
X122058691Y-83074747D01*
X122037250Y-83075800D01*
X121599750Y-83075800D01*
X121578309Y-83074747D01*
X121557074Y-83071597D01*
X121536250Y-83066381D01*
X121516038Y-83059149D01*
X121496632Y-83049970D01*
X121478219Y-83038934D01*
X121460976Y-83026146D01*
X121445070Y-83011730D01*
X121430654Y-82995824D01*
X121417866Y-82978581D01*
X121406830Y-82960168D01*
X121397651Y-82940762D01*
X121390419Y-82920550D01*
X121385203Y-82899726D01*
X121382053Y-82878491D01*
X121381000Y-82857050D01*
X121381000Y-82344550D01*
X121382053Y-82323109D01*
X121385203Y-82301874D01*
X121390419Y-82281050D01*
X121397651Y-82260838D01*
X121406830Y-82241432D01*
X121417866Y-82223019D01*
X121430654Y-82205776D01*
X121445070Y-82189870D01*
X121460976Y-82175454D01*
X121478219Y-82162666D01*
X121496632Y-82151630D01*
X121516038Y-82142451D01*
X121536250Y-82135219D01*
X121557074Y-82130003D01*
X121578309Y-82126853D01*
X121599750Y-82125800D01*
X122037250Y-82125800D01*
X122058691Y-82126853D01*
G37*
G36*
X120483691Y-82126853D02*
G01*
X120504926Y-82130003D01*
X120525750Y-82135219D01*
X120545962Y-82142451D01*
X120565368Y-82151630D01*
X120583781Y-82162666D01*
X120601024Y-82175454D01*
X120616930Y-82189870D01*
X120631346Y-82205776D01*
X120644134Y-82223019D01*
X120655170Y-82241432D01*
X120664349Y-82260838D01*
X120671581Y-82281050D01*
X120676797Y-82301874D01*
X120679947Y-82323109D01*
X120681000Y-82344550D01*
X120681000Y-82857050D01*
X120679947Y-82878491D01*
X120676797Y-82899726D01*
X120671581Y-82920550D01*
X120664349Y-82940762D01*
X120655170Y-82960168D01*
X120644134Y-82978581D01*
X120631346Y-82995824D01*
X120616930Y-83011730D01*
X120601024Y-83026146D01*
X120583781Y-83038934D01*
X120565368Y-83049970D01*
X120545962Y-83059149D01*
X120525750Y-83066381D01*
X120504926Y-83071597D01*
X120483691Y-83074747D01*
X120462250Y-83075800D01*
X120024750Y-83075800D01*
X120003309Y-83074747D01*
X119982074Y-83071597D01*
X119961250Y-83066381D01*
X119941038Y-83059149D01*
X119921632Y-83049970D01*
X119903219Y-83038934D01*
X119885976Y-83026146D01*
X119870070Y-83011730D01*
X119855654Y-82995824D01*
X119842866Y-82978581D01*
X119831830Y-82960168D01*
X119822651Y-82940762D01*
X119815419Y-82920550D01*
X119810203Y-82899726D01*
X119807053Y-82878491D01*
X119806000Y-82857050D01*
X119806000Y-82344550D01*
X119807053Y-82323109D01*
X119810203Y-82301874D01*
X119815419Y-82281050D01*
X119822651Y-82260838D01*
X119831830Y-82241432D01*
X119842866Y-82223019D01*
X119855654Y-82205776D01*
X119870070Y-82189870D01*
X119885976Y-82175454D01*
X119903219Y-82162666D01*
X119921632Y-82151630D01*
X119941038Y-82142451D01*
X119961250Y-82135219D01*
X119982074Y-82130003D01*
X120003309Y-82126853D01*
X120024750Y-82125800D01*
X120462250Y-82125800D01*
X120483691Y-82126853D01*
G37*
G36*
X113282291Y-72867853D02*
G01*
X113303526Y-72871003D01*
X113324350Y-72876219D01*
X113344562Y-72883451D01*
X113363968Y-72892630D01*
X113382381Y-72903666D01*
X113399624Y-72916454D01*
X113415530Y-72930870D01*
X113429946Y-72946776D01*
X113442734Y-72964019D01*
X113453770Y-72982432D01*
X113462949Y-73001838D01*
X113470181Y-73022050D01*
X113475397Y-73042874D01*
X113478547Y-73064109D01*
X113479600Y-73085550D01*
X113479600Y-73523050D01*
X113478547Y-73544491D01*
X113475397Y-73565726D01*
X113470181Y-73586550D01*
X113462949Y-73606762D01*
X113453770Y-73626168D01*
X113442734Y-73644581D01*
X113429946Y-73661824D01*
X113415530Y-73677730D01*
X113399624Y-73692146D01*
X113382381Y-73704934D01*
X113363968Y-73715970D01*
X113344562Y-73725149D01*
X113324350Y-73732381D01*
X113303526Y-73737597D01*
X113282291Y-73740747D01*
X113260850Y-73741800D01*
X112748350Y-73741800D01*
X112726909Y-73740747D01*
X112705674Y-73737597D01*
X112684850Y-73732381D01*
X112664638Y-73725149D01*
X112645232Y-73715970D01*
X112626819Y-73704934D01*
X112609576Y-73692146D01*
X112593670Y-73677730D01*
X112579254Y-73661824D01*
X112566466Y-73644581D01*
X112555430Y-73626168D01*
X112546251Y-73606762D01*
X112539019Y-73586550D01*
X112533803Y-73565726D01*
X112530653Y-73544491D01*
X112529600Y-73523050D01*
X112529600Y-73085550D01*
X112530653Y-73064109D01*
X112533803Y-73042874D01*
X112539019Y-73022050D01*
X112546251Y-73001838D01*
X112555430Y-72982432D01*
X112566466Y-72964019D01*
X112579254Y-72946776D01*
X112593670Y-72930870D01*
X112609576Y-72916454D01*
X112626819Y-72903666D01*
X112645232Y-72892630D01*
X112664638Y-72883451D01*
X112684850Y-72876219D01*
X112705674Y-72871003D01*
X112726909Y-72867853D01*
X112748350Y-72866800D01*
X113260850Y-72866800D01*
X113282291Y-72867853D01*
G37*
G36*
X113282291Y-74442853D02*
G01*
X113303526Y-74446003D01*
X113324350Y-74451219D01*
X113344562Y-74458451D01*
X113363968Y-74467630D01*
X113382381Y-74478666D01*
X113399624Y-74491454D01*
X113415530Y-74505870D01*
X113429946Y-74521776D01*
X113442734Y-74539019D01*
X113453770Y-74557432D01*
X113462949Y-74576838D01*
X113470181Y-74597050D01*
X113475397Y-74617874D01*
X113478547Y-74639109D01*
X113479600Y-74660550D01*
X113479600Y-75098050D01*
X113478547Y-75119491D01*
X113475397Y-75140726D01*
X113470181Y-75161550D01*
X113462949Y-75181762D01*
X113453770Y-75201168D01*
X113442734Y-75219581D01*
X113429946Y-75236824D01*
X113415530Y-75252730D01*
X113399624Y-75267146D01*
X113382381Y-75279934D01*
X113363968Y-75290970D01*
X113344562Y-75300149D01*
X113324350Y-75307381D01*
X113303526Y-75312597D01*
X113282291Y-75315747D01*
X113260850Y-75316800D01*
X112748350Y-75316800D01*
X112726909Y-75315747D01*
X112705674Y-75312597D01*
X112684850Y-75307381D01*
X112664638Y-75300149D01*
X112645232Y-75290970D01*
X112626819Y-75279934D01*
X112609576Y-75267146D01*
X112593670Y-75252730D01*
X112579254Y-75236824D01*
X112566466Y-75219581D01*
X112555430Y-75201168D01*
X112546251Y-75181762D01*
X112539019Y-75161550D01*
X112533803Y-75140726D01*
X112530653Y-75119491D01*
X112529600Y-75098050D01*
X112529600Y-74660550D01*
X112530653Y-74639109D01*
X112533803Y-74617874D01*
X112539019Y-74597050D01*
X112546251Y-74576838D01*
X112555430Y-74557432D01*
X112566466Y-74539019D01*
X112579254Y-74521776D01*
X112593670Y-74505870D01*
X112609576Y-74491454D01*
X112626819Y-74478666D01*
X112645232Y-74467630D01*
X112664638Y-74458451D01*
X112684850Y-74451219D01*
X112705674Y-74446003D01*
X112726909Y-74442853D01*
X112748350Y-74441800D01*
X113260850Y-74441800D01*
X113282291Y-74442853D01*
G37*
G36*
X129145091Y-72144653D02*
G01*
X129166326Y-72147803D01*
X129187150Y-72153019D01*
X129207362Y-72160251D01*
X129226768Y-72169430D01*
X129245181Y-72180466D01*
X129262424Y-72193254D01*
X129278330Y-72207670D01*
X129292746Y-72223576D01*
X129305534Y-72240819D01*
X129316570Y-72259232D01*
X129325749Y-72278638D01*
X129332981Y-72298850D01*
X129338197Y-72319674D01*
X129341347Y-72340909D01*
X129342400Y-72362350D01*
X129342400Y-72874850D01*
X129341347Y-72896291D01*
X129338197Y-72917526D01*
X129332981Y-72938350D01*
X129325749Y-72958562D01*
X129316570Y-72977968D01*
X129305534Y-72996381D01*
X129292746Y-73013624D01*
X129278330Y-73029530D01*
X129262424Y-73043946D01*
X129245181Y-73056734D01*
X129226768Y-73067770D01*
X129207362Y-73076949D01*
X129187150Y-73084181D01*
X129166326Y-73089397D01*
X129145091Y-73092547D01*
X129123650Y-73093600D01*
X128686150Y-73093600D01*
X128664709Y-73092547D01*
X128643474Y-73089397D01*
X128622650Y-73084181D01*
X128602438Y-73076949D01*
X128583032Y-73067770D01*
X128564619Y-73056734D01*
X128547376Y-73043946D01*
X128531470Y-73029530D01*
X128517054Y-73013624D01*
X128504266Y-72996381D01*
X128493230Y-72977968D01*
X128484051Y-72958562D01*
X128476819Y-72938350D01*
X128471603Y-72917526D01*
X128468453Y-72896291D01*
X128467400Y-72874850D01*
X128467400Y-72362350D01*
X128468453Y-72340909D01*
X128471603Y-72319674D01*
X128476819Y-72298850D01*
X128484051Y-72278638D01*
X128493230Y-72259232D01*
X128504266Y-72240819D01*
X128517054Y-72223576D01*
X128531470Y-72207670D01*
X128547376Y-72193254D01*
X128564619Y-72180466D01*
X128583032Y-72169430D01*
X128602438Y-72160251D01*
X128622650Y-72153019D01*
X128643474Y-72147803D01*
X128664709Y-72144653D01*
X128686150Y-72143600D01*
X129123650Y-72143600D01*
X129145091Y-72144653D01*
G37*
G36*
X130720091Y-72144653D02*
G01*
X130741326Y-72147803D01*
X130762150Y-72153019D01*
X130782362Y-72160251D01*
X130801768Y-72169430D01*
X130820181Y-72180466D01*
X130837424Y-72193254D01*
X130853330Y-72207670D01*
X130867746Y-72223576D01*
X130880534Y-72240819D01*
X130891570Y-72259232D01*
X130900749Y-72278638D01*
X130907981Y-72298850D01*
X130913197Y-72319674D01*
X130916347Y-72340909D01*
X130917400Y-72362350D01*
X130917400Y-72874850D01*
X130916347Y-72896291D01*
X130913197Y-72917526D01*
X130907981Y-72938350D01*
X130900749Y-72958562D01*
X130891570Y-72977968D01*
X130880534Y-72996381D01*
X130867746Y-73013624D01*
X130853330Y-73029530D01*
X130837424Y-73043946D01*
X130820181Y-73056734D01*
X130801768Y-73067770D01*
X130782362Y-73076949D01*
X130762150Y-73084181D01*
X130741326Y-73089397D01*
X130720091Y-73092547D01*
X130698650Y-73093600D01*
X130261150Y-73093600D01*
X130239709Y-73092547D01*
X130218474Y-73089397D01*
X130197650Y-73084181D01*
X130177438Y-73076949D01*
X130158032Y-73067770D01*
X130139619Y-73056734D01*
X130122376Y-73043946D01*
X130106470Y-73029530D01*
X130092054Y-73013624D01*
X130079266Y-72996381D01*
X130068230Y-72977968D01*
X130059051Y-72958562D01*
X130051819Y-72938350D01*
X130046603Y-72917526D01*
X130043453Y-72896291D01*
X130042400Y-72874850D01*
X130042400Y-72362350D01*
X130043453Y-72340909D01*
X130046603Y-72319674D01*
X130051819Y-72298850D01*
X130059051Y-72278638D01*
X130068230Y-72259232D01*
X130079266Y-72240819D01*
X130092054Y-72223576D01*
X130106470Y-72207670D01*
X130122376Y-72193254D01*
X130139619Y-72180466D01*
X130158032Y-72169430D01*
X130177438Y-72160251D01*
X130197650Y-72153019D01*
X130218474Y-72147803D01*
X130239709Y-72144653D01*
X130261150Y-72143600D01*
X130698650Y-72143600D01*
X130720091Y-72144653D01*
G37*
G36*
X129145091Y-69096653D02*
G01*
X129166326Y-69099803D01*
X129187150Y-69105019D01*
X129207362Y-69112251D01*
X129226768Y-69121430D01*
X129245181Y-69132466D01*
X129262424Y-69145254D01*
X129278330Y-69159670D01*
X129292746Y-69175576D01*
X129305534Y-69192819D01*
X129316570Y-69211232D01*
X129325749Y-69230638D01*
X129332981Y-69250850D01*
X129338197Y-69271674D01*
X129341347Y-69292909D01*
X129342400Y-69314350D01*
X129342400Y-69826850D01*
X129341347Y-69848291D01*
X129338197Y-69869526D01*
X129332981Y-69890350D01*
X129325749Y-69910562D01*
X129316570Y-69929968D01*
X129305534Y-69948381D01*
X129292746Y-69965624D01*
X129278330Y-69981530D01*
X129262424Y-69995946D01*
X129245181Y-70008734D01*
X129226768Y-70019770D01*
X129207362Y-70028949D01*
X129187150Y-70036181D01*
X129166326Y-70041397D01*
X129145091Y-70044547D01*
X129123650Y-70045600D01*
X128686150Y-70045600D01*
X128664709Y-70044547D01*
X128643474Y-70041397D01*
X128622650Y-70036181D01*
X128602438Y-70028949D01*
X128583032Y-70019770D01*
X128564619Y-70008734D01*
X128547376Y-69995946D01*
X128531470Y-69981530D01*
X128517054Y-69965624D01*
X128504266Y-69948381D01*
X128493230Y-69929968D01*
X128484051Y-69910562D01*
X128476819Y-69890350D01*
X128471603Y-69869526D01*
X128468453Y-69848291D01*
X128467400Y-69826850D01*
X128467400Y-69314350D01*
X128468453Y-69292909D01*
X128471603Y-69271674D01*
X128476819Y-69250850D01*
X128484051Y-69230638D01*
X128493230Y-69211232D01*
X128504266Y-69192819D01*
X128517054Y-69175576D01*
X128531470Y-69159670D01*
X128547376Y-69145254D01*
X128564619Y-69132466D01*
X128583032Y-69121430D01*
X128602438Y-69112251D01*
X128622650Y-69105019D01*
X128643474Y-69099803D01*
X128664709Y-69096653D01*
X128686150Y-69095600D01*
X129123650Y-69095600D01*
X129145091Y-69096653D01*
G37*
G36*
X130720091Y-69096653D02*
G01*
X130741326Y-69099803D01*
X130762150Y-69105019D01*
X130782362Y-69112251D01*
X130801768Y-69121430D01*
X130820181Y-69132466D01*
X130837424Y-69145254D01*
X130853330Y-69159670D01*
X130867746Y-69175576D01*
X130880534Y-69192819D01*
X130891570Y-69211232D01*
X130900749Y-69230638D01*
X130907981Y-69250850D01*
X130913197Y-69271674D01*
X130916347Y-69292909D01*
X130917400Y-69314350D01*
X130917400Y-69826850D01*
X130916347Y-69848291D01*
X130913197Y-69869526D01*
X130907981Y-69890350D01*
X130900749Y-69910562D01*
X130891570Y-69929968D01*
X130880534Y-69948381D01*
X130867746Y-69965624D01*
X130853330Y-69981530D01*
X130837424Y-69995946D01*
X130820181Y-70008734D01*
X130801768Y-70019770D01*
X130782362Y-70028949D01*
X130762150Y-70036181D01*
X130741326Y-70041397D01*
X130720091Y-70044547D01*
X130698650Y-70045600D01*
X130261150Y-70045600D01*
X130239709Y-70044547D01*
X130218474Y-70041397D01*
X130197650Y-70036181D01*
X130177438Y-70028949D01*
X130158032Y-70019770D01*
X130139619Y-70008734D01*
X130122376Y-69995946D01*
X130106470Y-69981530D01*
X130092054Y-69965624D01*
X130079266Y-69948381D01*
X130068230Y-69929968D01*
X130059051Y-69910562D01*
X130051819Y-69890350D01*
X130046603Y-69869526D01*
X130043453Y-69848291D01*
X130042400Y-69826850D01*
X130042400Y-69314350D01*
X130043453Y-69292909D01*
X130046603Y-69271674D01*
X130051819Y-69250850D01*
X130059051Y-69230638D01*
X130068230Y-69211232D01*
X130079266Y-69192819D01*
X130092054Y-69175576D01*
X130106470Y-69159670D01*
X130122376Y-69145254D01*
X130139619Y-69132466D01*
X130158032Y-69121430D01*
X130177438Y-69112251D01*
X130197650Y-69105019D01*
X130218474Y-69099803D01*
X130239709Y-69096653D01*
X130261150Y-69095600D01*
X130698650Y-69095600D01*
X130720091Y-69096653D01*
G37*
G36*
X127366942Y-71919774D02*
G01*
X127390603Y-71923284D01*
X127413807Y-71929096D01*
X127436329Y-71937154D01*
X127457953Y-71947382D01*
X127478470Y-71959679D01*
X127497683Y-71973929D01*
X127515407Y-71989993D01*
X127531471Y-72007717D01*
X127545721Y-72026930D01*
X127558018Y-72047447D01*
X127568246Y-72069071D01*
X127576304Y-72091593D01*
X127582116Y-72114797D01*
X127585626Y-72138458D01*
X127586800Y-72162350D01*
X127586800Y-73074850D01*
X127585626Y-73098742D01*
X127582116Y-73122403D01*
X127576304Y-73145607D01*
X127568246Y-73168129D01*
X127558018Y-73189753D01*
X127545721Y-73210270D01*
X127531471Y-73229483D01*
X127515407Y-73247207D01*
X127497683Y-73263271D01*
X127478470Y-73277521D01*
X127457953Y-73289818D01*
X127436329Y-73300046D01*
X127413807Y-73308104D01*
X127390603Y-73313916D01*
X127366942Y-73317426D01*
X127343050Y-73318600D01*
X126855550Y-73318600D01*
X126831658Y-73317426D01*
X126807997Y-73313916D01*
X126784793Y-73308104D01*
X126762271Y-73300046D01*
X126740647Y-73289818D01*
X126720130Y-73277521D01*
X126700917Y-73263271D01*
X126683193Y-73247207D01*
X126667129Y-73229483D01*
X126652879Y-73210270D01*
X126640582Y-73189753D01*
X126630354Y-73168129D01*
X126622296Y-73145607D01*
X126616484Y-73122403D01*
X126612974Y-73098742D01*
X126611800Y-73074850D01*
X126611800Y-72162350D01*
X126612974Y-72138458D01*
X126616484Y-72114797D01*
X126622296Y-72091593D01*
X126630354Y-72069071D01*
X126640582Y-72047447D01*
X126652879Y-72026930D01*
X126667129Y-72007717D01*
X126683193Y-71989993D01*
X126700917Y-71973929D01*
X126720130Y-71959679D01*
X126740647Y-71947382D01*
X126762271Y-71937154D01*
X126784793Y-71929096D01*
X126807997Y-71923284D01*
X126831658Y-71919774D01*
X126855550Y-71918600D01*
X127343050Y-71918600D01*
X127366942Y-71919774D01*
G37*
G36*
X125491942Y-71919774D02*
G01*
X125515603Y-71923284D01*
X125538807Y-71929096D01*
X125561329Y-71937154D01*
X125582953Y-71947382D01*
X125603470Y-71959679D01*
X125622683Y-71973929D01*
X125640407Y-71989993D01*
X125656471Y-72007717D01*
X125670721Y-72026930D01*
X125683018Y-72047447D01*
X125693246Y-72069071D01*
X125701304Y-72091593D01*
X125707116Y-72114797D01*
X125710626Y-72138458D01*
X125711800Y-72162350D01*
X125711800Y-73074850D01*
X125710626Y-73098742D01*
X125707116Y-73122403D01*
X125701304Y-73145607D01*
X125693246Y-73168129D01*
X125683018Y-73189753D01*
X125670721Y-73210270D01*
X125656471Y-73229483D01*
X125640407Y-73247207D01*
X125622683Y-73263271D01*
X125603470Y-73277521D01*
X125582953Y-73289818D01*
X125561329Y-73300046D01*
X125538807Y-73308104D01*
X125515603Y-73313916D01*
X125491942Y-73317426D01*
X125468050Y-73318600D01*
X124980550Y-73318600D01*
X124956658Y-73317426D01*
X124932997Y-73313916D01*
X124909793Y-73308104D01*
X124887271Y-73300046D01*
X124865647Y-73289818D01*
X124845130Y-73277521D01*
X124825917Y-73263271D01*
X124808193Y-73247207D01*
X124792129Y-73229483D01*
X124777879Y-73210270D01*
X124765582Y-73189753D01*
X124755354Y-73168129D01*
X124747296Y-73145607D01*
X124741484Y-73122403D01*
X124737974Y-73098742D01*
X124736800Y-73074850D01*
X124736800Y-72162350D01*
X124737974Y-72138458D01*
X124741484Y-72114797D01*
X124747296Y-72091593D01*
X124755354Y-72069071D01*
X124765582Y-72047447D01*
X124777879Y-72026930D01*
X124792129Y-72007717D01*
X124808193Y-71989993D01*
X124825917Y-71973929D01*
X124845130Y-71959679D01*
X124865647Y-71947382D01*
X124887271Y-71937154D01*
X124909793Y-71929096D01*
X124932997Y-71923284D01*
X124956658Y-71919774D01*
X124980550Y-71918600D01*
X125468050Y-71918600D01*
X125491942Y-71919774D01*
G37*
G36*
X127366942Y-68871774D02*
G01*
X127390603Y-68875284D01*
X127413807Y-68881096D01*
X127436329Y-68889154D01*
X127457953Y-68899382D01*
X127478470Y-68911679D01*
X127497683Y-68925929D01*
X127515407Y-68941993D01*
X127531471Y-68959717D01*
X127545721Y-68978930D01*
X127558018Y-68999447D01*
X127568246Y-69021071D01*
X127576304Y-69043593D01*
X127582116Y-69066797D01*
X127585626Y-69090458D01*
X127586800Y-69114350D01*
X127586800Y-70026850D01*
X127585626Y-70050742D01*
X127582116Y-70074403D01*
X127576304Y-70097607D01*
X127568246Y-70120129D01*
X127558018Y-70141753D01*
X127545721Y-70162270D01*
X127531471Y-70181483D01*
X127515407Y-70199207D01*
X127497683Y-70215271D01*
X127478470Y-70229521D01*
X127457953Y-70241818D01*
X127436329Y-70252046D01*
X127413807Y-70260104D01*
X127390603Y-70265916D01*
X127366942Y-70269426D01*
X127343050Y-70270600D01*
X126855550Y-70270600D01*
X126831658Y-70269426D01*
X126807997Y-70265916D01*
X126784793Y-70260104D01*
X126762271Y-70252046D01*
X126740647Y-70241818D01*
X126720130Y-70229521D01*
X126700917Y-70215271D01*
X126683193Y-70199207D01*
X126667129Y-70181483D01*
X126652879Y-70162270D01*
X126640582Y-70141753D01*
X126630354Y-70120129D01*
X126622296Y-70097607D01*
X126616484Y-70074403D01*
X126612974Y-70050742D01*
X126611800Y-70026850D01*
X126611800Y-69114350D01*
X126612974Y-69090458D01*
X126616484Y-69066797D01*
X126622296Y-69043593D01*
X126630354Y-69021071D01*
X126640582Y-68999447D01*
X126652879Y-68978930D01*
X126667129Y-68959717D01*
X126683193Y-68941993D01*
X126700917Y-68925929D01*
X126720130Y-68911679D01*
X126740647Y-68899382D01*
X126762271Y-68889154D01*
X126784793Y-68881096D01*
X126807997Y-68875284D01*
X126831658Y-68871774D01*
X126855550Y-68870600D01*
X127343050Y-68870600D01*
X127366942Y-68871774D01*
G37*
G36*
X125491942Y-68871774D02*
G01*
X125515603Y-68875284D01*
X125538807Y-68881096D01*
X125561329Y-68889154D01*
X125582953Y-68899382D01*
X125603470Y-68911679D01*
X125622683Y-68925929D01*
X125640407Y-68941993D01*
X125656471Y-68959717D01*
X125670721Y-68978930D01*
X125683018Y-68999447D01*
X125693246Y-69021071D01*
X125701304Y-69043593D01*
X125707116Y-69066797D01*
X125710626Y-69090458D01*
X125711800Y-69114350D01*
X125711800Y-70026850D01*
X125710626Y-70050742D01*
X125707116Y-70074403D01*
X125701304Y-70097607D01*
X125693246Y-70120129D01*
X125683018Y-70141753D01*
X125670721Y-70162270D01*
X125656471Y-70181483D01*
X125640407Y-70199207D01*
X125622683Y-70215271D01*
X125603470Y-70229521D01*
X125582953Y-70241818D01*
X125561329Y-70252046D01*
X125538807Y-70260104D01*
X125515603Y-70265916D01*
X125491942Y-70269426D01*
X125468050Y-70270600D01*
X124980550Y-70270600D01*
X124956658Y-70269426D01*
X124932997Y-70265916D01*
X124909793Y-70260104D01*
X124887271Y-70252046D01*
X124865647Y-70241818D01*
X124845130Y-70229521D01*
X124825917Y-70215271D01*
X124808193Y-70199207D01*
X124792129Y-70181483D01*
X124777879Y-70162270D01*
X124765582Y-70141753D01*
X124755354Y-70120129D01*
X124747296Y-70097607D01*
X124741484Y-70074403D01*
X124737974Y-70050742D01*
X124736800Y-70026850D01*
X124736800Y-69114350D01*
X124737974Y-69090458D01*
X124741484Y-69066797D01*
X124747296Y-69043593D01*
X124755354Y-69021071D01*
X124765582Y-68999447D01*
X124777879Y-68978930D01*
X124792129Y-68959717D01*
X124808193Y-68941993D01*
X124825917Y-68925929D01*
X124845130Y-68911679D01*
X124865647Y-68899382D01*
X124887271Y-68889154D01*
X124909793Y-68881096D01*
X124932997Y-68875284D01*
X124956658Y-68871774D01*
X124980550Y-68870600D01*
X125468050Y-68870600D01*
X125491942Y-68871774D01*
G37*
G36*
X157757691Y-108021453D02*
G01*
X157778926Y-108024603D01*
X157799750Y-108029819D01*
X157819962Y-108037051D01*
X157839368Y-108046230D01*
X157857781Y-108057266D01*
X157875024Y-108070054D01*
X157890930Y-108084470D01*
X157905346Y-108100376D01*
X157918134Y-108117619D01*
X157929170Y-108136032D01*
X157938349Y-108155438D01*
X157945581Y-108175650D01*
X157950797Y-108196474D01*
X157953947Y-108217709D01*
X157955000Y-108239150D01*
X157955000Y-108676650D01*
X157953947Y-108698091D01*
X157950797Y-108719326D01*
X157945581Y-108740150D01*
X157938349Y-108760362D01*
X157929170Y-108779768D01*
X157918134Y-108798181D01*
X157905346Y-108815424D01*
X157890930Y-108831330D01*
X157875024Y-108845746D01*
X157857781Y-108858534D01*
X157839368Y-108869570D01*
X157819962Y-108878749D01*
X157799750Y-108885981D01*
X157778926Y-108891197D01*
X157757691Y-108894347D01*
X157736250Y-108895400D01*
X157223750Y-108895400D01*
X157202309Y-108894347D01*
X157181074Y-108891197D01*
X157160250Y-108885981D01*
X157140038Y-108878749D01*
X157120632Y-108869570D01*
X157102219Y-108858534D01*
X157084976Y-108845746D01*
X157069070Y-108831330D01*
X157054654Y-108815424D01*
X157041866Y-108798181D01*
X157030830Y-108779768D01*
X157021651Y-108760362D01*
X157014419Y-108740150D01*
X157009203Y-108719326D01*
X157006053Y-108698091D01*
X157005000Y-108676650D01*
X157005000Y-108239150D01*
X157006053Y-108217709D01*
X157009203Y-108196474D01*
X157014419Y-108175650D01*
X157021651Y-108155438D01*
X157030830Y-108136032D01*
X157041866Y-108117619D01*
X157054654Y-108100376D01*
X157069070Y-108084470D01*
X157084976Y-108070054D01*
X157102219Y-108057266D01*
X157120632Y-108046230D01*
X157140038Y-108037051D01*
X157160250Y-108029819D01*
X157181074Y-108024603D01*
X157202309Y-108021453D01*
X157223750Y-108020400D01*
X157736250Y-108020400D01*
X157757691Y-108021453D01*
G37*
G36*
X157757691Y-109596453D02*
G01*
X157778926Y-109599603D01*
X157799750Y-109604819D01*
X157819962Y-109612051D01*
X157839368Y-109621230D01*
X157857781Y-109632266D01*
X157875024Y-109645054D01*
X157890930Y-109659470D01*
X157905346Y-109675376D01*
X157918134Y-109692619D01*
X157929170Y-109711032D01*
X157938349Y-109730438D01*
X157945581Y-109750650D01*
X157950797Y-109771474D01*
X157953947Y-109792709D01*
X157955000Y-109814150D01*
X157955000Y-110251650D01*
X157953947Y-110273091D01*
X157950797Y-110294326D01*
X157945581Y-110315150D01*
X157938349Y-110335362D01*
X157929170Y-110354768D01*
X157918134Y-110373181D01*
X157905346Y-110390424D01*
X157890930Y-110406330D01*
X157875024Y-110420746D01*
X157857781Y-110433534D01*
X157839368Y-110444570D01*
X157819962Y-110453749D01*
X157799750Y-110460981D01*
X157778926Y-110466197D01*
X157757691Y-110469347D01*
X157736250Y-110470400D01*
X157223750Y-110470400D01*
X157202309Y-110469347D01*
X157181074Y-110466197D01*
X157160250Y-110460981D01*
X157140038Y-110453749D01*
X157120632Y-110444570D01*
X157102219Y-110433534D01*
X157084976Y-110420746D01*
X157069070Y-110406330D01*
X157054654Y-110390424D01*
X157041866Y-110373181D01*
X157030830Y-110354768D01*
X157021651Y-110335362D01*
X157014419Y-110315150D01*
X157009203Y-110294326D01*
X157006053Y-110273091D01*
X157005000Y-110251650D01*
X157005000Y-109814150D01*
X157006053Y-109792709D01*
X157009203Y-109771474D01*
X157014419Y-109750650D01*
X157021651Y-109730438D01*
X157030830Y-109711032D01*
X157041866Y-109692619D01*
X157054654Y-109675376D01*
X157069070Y-109659470D01*
X157084976Y-109645054D01*
X157102219Y-109632266D01*
X157120632Y-109621230D01*
X157140038Y-109612051D01*
X157160250Y-109604819D01*
X157181074Y-109599603D01*
X157202309Y-109596453D01*
X157223750Y-109595400D01*
X157736250Y-109595400D01*
X157757691Y-109596453D01*
G37*
G36*
X132687891Y-98471253D02*
G01*
X132709126Y-98474403D01*
X132729950Y-98479619D01*
X132750162Y-98486851D01*
X132769568Y-98496030D01*
X132787981Y-98507066D01*
X132805224Y-98519854D01*
X132821130Y-98534270D01*
X132835546Y-98550176D01*
X132848334Y-98567419D01*
X132859370Y-98585832D01*
X132868549Y-98605238D01*
X132875781Y-98625450D01*
X132880997Y-98646274D01*
X132884147Y-98667509D01*
X132885200Y-98688950D01*
X132885200Y-99126450D01*
X132884147Y-99147891D01*
X132880997Y-99169126D01*
X132875781Y-99189950D01*
X132868549Y-99210162D01*
X132859370Y-99229568D01*
X132848334Y-99247981D01*
X132835546Y-99265224D01*
X132821130Y-99281130D01*
X132805224Y-99295546D01*
X132787981Y-99308334D01*
X132769568Y-99319370D01*
X132750162Y-99328549D01*
X132729950Y-99335781D01*
X132709126Y-99340997D01*
X132687891Y-99344147D01*
X132666450Y-99345200D01*
X132153950Y-99345200D01*
X132132509Y-99344147D01*
X132111274Y-99340997D01*
X132090450Y-99335781D01*
X132070238Y-99328549D01*
X132050832Y-99319370D01*
X132032419Y-99308334D01*
X132015176Y-99295546D01*
X131999270Y-99281130D01*
X131984854Y-99265224D01*
X131972066Y-99247981D01*
X131961030Y-99229568D01*
X131951851Y-99210162D01*
X131944619Y-99189950D01*
X131939403Y-99169126D01*
X131936253Y-99147891D01*
X131935200Y-99126450D01*
X131935200Y-98688950D01*
X131936253Y-98667509D01*
X131939403Y-98646274D01*
X131944619Y-98625450D01*
X131951851Y-98605238D01*
X131961030Y-98585832D01*
X131972066Y-98567419D01*
X131984854Y-98550176D01*
X131999270Y-98534270D01*
X132015176Y-98519854D01*
X132032419Y-98507066D01*
X132050832Y-98496030D01*
X132070238Y-98486851D01*
X132090450Y-98479619D01*
X132111274Y-98474403D01*
X132132509Y-98471253D01*
X132153950Y-98470200D01*
X132666450Y-98470200D01*
X132687891Y-98471253D01*
G37*
G36*
X132687891Y-96896253D02*
G01*
X132709126Y-96899403D01*
X132729950Y-96904619D01*
X132750162Y-96911851D01*
X132769568Y-96921030D01*
X132787981Y-96932066D01*
X132805224Y-96944854D01*
X132821130Y-96959270D01*
X132835546Y-96975176D01*
X132848334Y-96992419D01*
X132859370Y-97010832D01*
X132868549Y-97030238D01*
X132875781Y-97050450D01*
X132880997Y-97071274D01*
X132884147Y-97092509D01*
X132885200Y-97113950D01*
X132885200Y-97551450D01*
X132884147Y-97572891D01*
X132880997Y-97594126D01*
X132875781Y-97614950D01*
X132868549Y-97635162D01*
X132859370Y-97654568D01*
X132848334Y-97672981D01*
X132835546Y-97690224D01*
X132821130Y-97706130D01*
X132805224Y-97720546D01*
X132787981Y-97733334D01*
X132769568Y-97744370D01*
X132750162Y-97753549D01*
X132729950Y-97760781D01*
X132709126Y-97765997D01*
X132687891Y-97769147D01*
X132666450Y-97770200D01*
X132153950Y-97770200D01*
X132132509Y-97769147D01*
X132111274Y-97765997D01*
X132090450Y-97760781D01*
X132070238Y-97753549D01*
X132050832Y-97744370D01*
X132032419Y-97733334D01*
X132015176Y-97720546D01*
X131999270Y-97706130D01*
X131984854Y-97690224D01*
X131972066Y-97672981D01*
X131961030Y-97654568D01*
X131951851Y-97635162D01*
X131944619Y-97614950D01*
X131939403Y-97594126D01*
X131936253Y-97572891D01*
X131935200Y-97551450D01*
X131935200Y-97113950D01*
X131936253Y-97092509D01*
X131939403Y-97071274D01*
X131944619Y-97050450D01*
X131951851Y-97030238D01*
X131961030Y-97010832D01*
X131972066Y-96992419D01*
X131984854Y-96975176D01*
X131999270Y-96959270D01*
X132015176Y-96944854D01*
X132032419Y-96932066D01*
X132050832Y-96921030D01*
X132070238Y-96911851D01*
X132090450Y-96904619D01*
X132111274Y-96899403D01*
X132132509Y-96896253D01*
X132153950Y-96895200D01*
X132666450Y-96895200D01*
X132687891Y-96896253D01*
G37*
D17*
X118491000Y-108826400D03*
X118491000Y-110426400D03*
X119291000Y-110426400D03*
X119291000Y-108826400D03*
X120091000Y-108826400D03*
X120091000Y-110426400D03*
X117691000Y-108826400D03*
X116891000Y-108826400D03*
X117691000Y-110426400D03*
X116891000Y-110426400D03*
X120091000Y-109626400D03*
X116891000Y-109626400D03*
D12*
G36*
X126693777Y-90200862D02*
G01*
X126707125Y-90202842D01*
X126720214Y-90206121D01*
X126732919Y-90210667D01*
X126745117Y-90216436D01*
X126756691Y-90223373D01*
X126767529Y-90231411D01*
X126777527Y-90240473D01*
X126786589Y-90250471D01*
X126794627Y-90261309D01*
X126801564Y-90272883D01*
X126807333Y-90285081D01*
X126811879Y-90297786D01*
X126815158Y-90310875D01*
X126817138Y-90324223D01*
X126817800Y-90337700D01*
X126817800Y-91512700D01*
X126817138Y-91526177D01*
X126815158Y-91539525D01*
X126811879Y-91552614D01*
X126807333Y-91565319D01*
X126801564Y-91577517D01*
X126794627Y-91589091D01*
X126786589Y-91599929D01*
X126777527Y-91609927D01*
X126767529Y-91618989D01*
X126756691Y-91627027D01*
X126745117Y-91633964D01*
X126732919Y-91639733D01*
X126720214Y-91644279D01*
X126707125Y-91647558D01*
X126693777Y-91649538D01*
X126680300Y-91650200D01*
X126405300Y-91650200D01*
X126391823Y-91649538D01*
X126378475Y-91647558D01*
X126365386Y-91644279D01*
X126352681Y-91639733D01*
X126340483Y-91633964D01*
X126328909Y-91627027D01*
X126318071Y-91618989D01*
X126308073Y-91609927D01*
X126299011Y-91599929D01*
X126290973Y-91589091D01*
X126284036Y-91577517D01*
X126278267Y-91565319D01*
X126273721Y-91552614D01*
X126270442Y-91539525D01*
X126268462Y-91526177D01*
X126267800Y-91512700D01*
X126267800Y-90337700D01*
X126268462Y-90324223D01*
X126270442Y-90310875D01*
X126273721Y-90297786D01*
X126278267Y-90285081D01*
X126284036Y-90272883D01*
X126290973Y-90261309D01*
X126299011Y-90250471D01*
X126308073Y-90240473D01*
X126318071Y-90231411D01*
X126328909Y-90223373D01*
X126340483Y-90216436D01*
X126352681Y-90210667D01*
X126365386Y-90206121D01*
X126378475Y-90202842D01*
X126391823Y-90200862D01*
X126405300Y-90200200D01*
X126680300Y-90200200D01*
X126693777Y-90200862D01*
G37*
G36*
X129233777Y-90200862D02*
G01*
X129247125Y-90202842D01*
X129260214Y-90206121D01*
X129272919Y-90210667D01*
X129285117Y-90216436D01*
X129296691Y-90223373D01*
X129307529Y-90231411D01*
X129317527Y-90240473D01*
X129326589Y-90250471D01*
X129334627Y-90261309D01*
X129341564Y-90272883D01*
X129347333Y-90285081D01*
X129351879Y-90297786D01*
X129355158Y-90310875D01*
X129357138Y-90324223D01*
X129357800Y-90337700D01*
X129357800Y-91512700D01*
X129357138Y-91526177D01*
X129355158Y-91539525D01*
X129351879Y-91552614D01*
X129347333Y-91565319D01*
X129341564Y-91577517D01*
X129334627Y-91589091D01*
X129326589Y-91599929D01*
X129317527Y-91609927D01*
X129307529Y-91618989D01*
X129296691Y-91627027D01*
X129285117Y-91633964D01*
X129272919Y-91639733D01*
X129260214Y-91644279D01*
X129247125Y-91647558D01*
X129233777Y-91649538D01*
X129220300Y-91650200D01*
X128945300Y-91650200D01*
X128931823Y-91649538D01*
X128918475Y-91647558D01*
X128905386Y-91644279D01*
X128892681Y-91639733D01*
X128880483Y-91633964D01*
X128868909Y-91627027D01*
X128858071Y-91618989D01*
X128848073Y-91609927D01*
X128839011Y-91599929D01*
X128830973Y-91589091D01*
X128824036Y-91577517D01*
X128818267Y-91565319D01*
X128813721Y-91552614D01*
X128810442Y-91539525D01*
X128808462Y-91526177D01*
X128807800Y-91512700D01*
X128807800Y-90337700D01*
X128808462Y-90324223D01*
X128810442Y-90310875D01*
X128813721Y-90297786D01*
X128818267Y-90285081D01*
X128824036Y-90272883D01*
X128830973Y-90261309D01*
X128839011Y-90250471D01*
X128848073Y-90240473D01*
X128858071Y-90231411D01*
X128868909Y-90223373D01*
X128880483Y-90216436D01*
X128892681Y-90210667D01*
X128905386Y-90206121D01*
X128918475Y-90202842D01*
X128931823Y-90200862D01*
X128945300Y-90200200D01*
X129220300Y-90200200D01*
X129233777Y-90200862D01*
G37*
G36*
X129233777Y-95700862D02*
G01*
X129247125Y-95702842D01*
X129260214Y-95706121D01*
X129272919Y-95710667D01*
X129285117Y-95716436D01*
X129296691Y-95723373D01*
X129307529Y-95731411D01*
X129317527Y-95740473D01*
X129326589Y-95750471D01*
X129334627Y-95761309D01*
X129341564Y-95772883D01*
X129347333Y-95785081D01*
X129351879Y-95797786D01*
X129355158Y-95810875D01*
X129357138Y-95824223D01*
X129357800Y-95837700D01*
X129357800Y-97012700D01*
X129357138Y-97026177D01*
X129355158Y-97039525D01*
X129351879Y-97052614D01*
X129347333Y-97065319D01*
X129341564Y-97077517D01*
X129334627Y-97089091D01*
X129326589Y-97099929D01*
X129317527Y-97109927D01*
X129307529Y-97118989D01*
X129296691Y-97127027D01*
X129285117Y-97133964D01*
X129272919Y-97139733D01*
X129260214Y-97144279D01*
X129247125Y-97147558D01*
X129233777Y-97149538D01*
X129220300Y-97150200D01*
X128945300Y-97150200D01*
X128931823Y-97149538D01*
X128918475Y-97147558D01*
X128905386Y-97144279D01*
X128892681Y-97139733D01*
X128880483Y-97133964D01*
X128868909Y-97127027D01*
X128858071Y-97118989D01*
X128848073Y-97109927D01*
X128839011Y-97099929D01*
X128830973Y-97089091D01*
X128824036Y-97077517D01*
X128818267Y-97065319D01*
X128813721Y-97052614D01*
X128810442Y-97039525D01*
X128808462Y-97026177D01*
X128807800Y-97012700D01*
X128807800Y-95837700D01*
X128808462Y-95824223D01*
X128810442Y-95810875D01*
X128813721Y-95797786D01*
X128818267Y-95785081D01*
X128824036Y-95772883D01*
X128830973Y-95761309D01*
X128839011Y-95750471D01*
X128848073Y-95740473D01*
X128858071Y-95731411D01*
X128868909Y-95723373D01*
X128880483Y-95716436D01*
X128892681Y-95710667D01*
X128905386Y-95706121D01*
X128918475Y-95702842D01*
X128931823Y-95700862D01*
X128945300Y-95700200D01*
X129220300Y-95700200D01*
X129233777Y-95700862D01*
G37*
G36*
X126693777Y-95700862D02*
G01*
X126707125Y-95702842D01*
X126720214Y-95706121D01*
X126732919Y-95710667D01*
X126745117Y-95716436D01*
X126756691Y-95723373D01*
X126767529Y-95731411D01*
X126777527Y-95740473D01*
X126786589Y-95750471D01*
X126794627Y-95761309D01*
X126801564Y-95772883D01*
X126807333Y-95785081D01*
X126811879Y-95797786D01*
X126815158Y-95810875D01*
X126817138Y-95824223D01*
X126817800Y-95837700D01*
X126817800Y-97012700D01*
X126817138Y-97026177D01*
X126815158Y-97039525D01*
X126811879Y-97052614D01*
X126807333Y-97065319D01*
X126801564Y-97077517D01*
X126794627Y-97089091D01*
X126786589Y-97099929D01*
X126777527Y-97109927D01*
X126767529Y-97118989D01*
X126756691Y-97127027D01*
X126745117Y-97133964D01*
X126732919Y-97139733D01*
X126720214Y-97144279D01*
X126707125Y-97147558D01*
X126693777Y-97149538D01*
X126680300Y-97150200D01*
X126405300Y-97150200D01*
X126391823Y-97149538D01*
X126378475Y-97147558D01*
X126365386Y-97144279D01*
X126352681Y-97139733D01*
X126340483Y-97133964D01*
X126328909Y-97127027D01*
X126318071Y-97118989D01*
X126308073Y-97109927D01*
X126299011Y-97099929D01*
X126290973Y-97089091D01*
X126284036Y-97077517D01*
X126278267Y-97065319D01*
X126273721Y-97052614D01*
X126270442Y-97039525D01*
X126268462Y-97026177D01*
X126267800Y-97012700D01*
X126267800Y-95837700D01*
X126268462Y-95824223D01*
X126270442Y-95810875D01*
X126273721Y-95797786D01*
X126278267Y-95785081D01*
X126284036Y-95772883D01*
X126290973Y-95761309D01*
X126299011Y-95750471D01*
X126308073Y-95740473D01*
X126318071Y-95731411D01*
X126328909Y-95723373D01*
X126340483Y-95716436D01*
X126352681Y-95710667D01*
X126365386Y-95706121D01*
X126378475Y-95702842D01*
X126391823Y-95700862D01*
X126405300Y-95700200D01*
X126680300Y-95700200D01*
X126693777Y-95700862D01*
G37*
G36*
X116826291Y-97062053D02*
G01*
X116847526Y-97065203D01*
X116868350Y-97070419D01*
X116888562Y-97077651D01*
X116907968Y-97086830D01*
X116926381Y-97097866D01*
X116943624Y-97110654D01*
X116959530Y-97125070D01*
X116973946Y-97140976D01*
X116986734Y-97158219D01*
X116997770Y-97176632D01*
X117006949Y-97196038D01*
X117014181Y-97216250D01*
X117019397Y-97237074D01*
X117022547Y-97258309D01*
X117023600Y-97279750D01*
X117023600Y-97792250D01*
X117022547Y-97813691D01*
X117019397Y-97834926D01*
X117014181Y-97855750D01*
X117006949Y-97875962D01*
X116997770Y-97895368D01*
X116986734Y-97913781D01*
X116973946Y-97931024D01*
X116959530Y-97946930D01*
X116943624Y-97961346D01*
X116926381Y-97974134D01*
X116907968Y-97985170D01*
X116888562Y-97994349D01*
X116868350Y-98001581D01*
X116847526Y-98006797D01*
X116826291Y-98009947D01*
X116804850Y-98011000D01*
X116367350Y-98011000D01*
X116345909Y-98009947D01*
X116324674Y-98006797D01*
X116303850Y-98001581D01*
X116283638Y-97994349D01*
X116264232Y-97985170D01*
X116245819Y-97974134D01*
X116228576Y-97961346D01*
X116212670Y-97946930D01*
X116198254Y-97931024D01*
X116185466Y-97913781D01*
X116174430Y-97895368D01*
X116165251Y-97875962D01*
X116158019Y-97855750D01*
X116152803Y-97834926D01*
X116149653Y-97813691D01*
X116148600Y-97792250D01*
X116148600Y-97279750D01*
X116149653Y-97258309D01*
X116152803Y-97237074D01*
X116158019Y-97216250D01*
X116165251Y-97196038D01*
X116174430Y-97176632D01*
X116185466Y-97158219D01*
X116198254Y-97140976D01*
X116212670Y-97125070D01*
X116228576Y-97110654D01*
X116245819Y-97097866D01*
X116264232Y-97086830D01*
X116283638Y-97077651D01*
X116303850Y-97070419D01*
X116324674Y-97065203D01*
X116345909Y-97062053D01*
X116367350Y-97061000D01*
X116804850Y-97061000D01*
X116826291Y-97062053D01*
G37*
G36*
X115251291Y-97062053D02*
G01*
X115272526Y-97065203D01*
X115293350Y-97070419D01*
X115313562Y-97077651D01*
X115332968Y-97086830D01*
X115351381Y-97097866D01*
X115368624Y-97110654D01*
X115384530Y-97125070D01*
X115398946Y-97140976D01*
X115411734Y-97158219D01*
X115422770Y-97176632D01*
X115431949Y-97196038D01*
X115439181Y-97216250D01*
X115444397Y-97237074D01*
X115447547Y-97258309D01*
X115448600Y-97279750D01*
X115448600Y-97792250D01*
X115447547Y-97813691D01*
X115444397Y-97834926D01*
X115439181Y-97855750D01*
X115431949Y-97875962D01*
X115422770Y-97895368D01*
X115411734Y-97913781D01*
X115398946Y-97931024D01*
X115384530Y-97946930D01*
X115368624Y-97961346D01*
X115351381Y-97974134D01*
X115332968Y-97985170D01*
X115313562Y-97994349D01*
X115293350Y-98001581D01*
X115272526Y-98006797D01*
X115251291Y-98009947D01*
X115229850Y-98011000D01*
X114792350Y-98011000D01*
X114770909Y-98009947D01*
X114749674Y-98006797D01*
X114728850Y-98001581D01*
X114708638Y-97994349D01*
X114689232Y-97985170D01*
X114670819Y-97974134D01*
X114653576Y-97961346D01*
X114637670Y-97946930D01*
X114623254Y-97931024D01*
X114610466Y-97913781D01*
X114599430Y-97895368D01*
X114590251Y-97875962D01*
X114583019Y-97855750D01*
X114577803Y-97834926D01*
X114574653Y-97813691D01*
X114573600Y-97792250D01*
X114573600Y-97279750D01*
X114574653Y-97258309D01*
X114577803Y-97237074D01*
X114583019Y-97216250D01*
X114590251Y-97196038D01*
X114599430Y-97176632D01*
X114610466Y-97158219D01*
X114623254Y-97140976D01*
X114637670Y-97125070D01*
X114653576Y-97110654D01*
X114670819Y-97097866D01*
X114689232Y-97086830D01*
X114708638Y-97077651D01*
X114728850Y-97070419D01*
X114749674Y-97065203D01*
X114770909Y-97062053D01*
X114792350Y-97061000D01*
X115229850Y-97061000D01*
X115251291Y-97062053D01*
G37*
G36*
X116826291Y-95284053D02*
G01*
X116847526Y-95287203D01*
X116868350Y-95292419D01*
X116888562Y-95299651D01*
X116907968Y-95308830D01*
X116926381Y-95319866D01*
X116943624Y-95332654D01*
X116959530Y-95347070D01*
X116973946Y-95362976D01*
X116986734Y-95380219D01*
X116997770Y-95398632D01*
X117006949Y-95418038D01*
X117014181Y-95438250D01*
X117019397Y-95459074D01*
X117022547Y-95480309D01*
X117023600Y-95501750D01*
X117023600Y-96014250D01*
X117022547Y-96035691D01*
X117019397Y-96056926D01*
X117014181Y-96077750D01*
X117006949Y-96097962D01*
X116997770Y-96117368D01*
X116986734Y-96135781D01*
X116973946Y-96153024D01*
X116959530Y-96168930D01*
X116943624Y-96183346D01*
X116926381Y-96196134D01*
X116907968Y-96207170D01*
X116888562Y-96216349D01*
X116868350Y-96223581D01*
X116847526Y-96228797D01*
X116826291Y-96231947D01*
X116804850Y-96233000D01*
X116367350Y-96233000D01*
X116345909Y-96231947D01*
X116324674Y-96228797D01*
X116303850Y-96223581D01*
X116283638Y-96216349D01*
X116264232Y-96207170D01*
X116245819Y-96196134D01*
X116228576Y-96183346D01*
X116212670Y-96168930D01*
X116198254Y-96153024D01*
X116185466Y-96135781D01*
X116174430Y-96117368D01*
X116165251Y-96097962D01*
X116158019Y-96077750D01*
X116152803Y-96056926D01*
X116149653Y-96035691D01*
X116148600Y-96014250D01*
X116148600Y-95501750D01*
X116149653Y-95480309D01*
X116152803Y-95459074D01*
X116158019Y-95438250D01*
X116165251Y-95418038D01*
X116174430Y-95398632D01*
X116185466Y-95380219D01*
X116198254Y-95362976D01*
X116212670Y-95347070D01*
X116228576Y-95332654D01*
X116245819Y-95319866D01*
X116264232Y-95308830D01*
X116283638Y-95299651D01*
X116303850Y-95292419D01*
X116324674Y-95287203D01*
X116345909Y-95284053D01*
X116367350Y-95283000D01*
X116804850Y-95283000D01*
X116826291Y-95284053D01*
G37*
G36*
X115251291Y-95284053D02*
G01*
X115272526Y-95287203D01*
X115293350Y-95292419D01*
X115313562Y-95299651D01*
X115332968Y-95308830D01*
X115351381Y-95319866D01*
X115368624Y-95332654D01*
X115384530Y-95347070D01*
X115398946Y-95362976D01*
X115411734Y-95380219D01*
X115422770Y-95398632D01*
X115431949Y-95418038D01*
X115439181Y-95438250D01*
X115444397Y-95459074D01*
X115447547Y-95480309D01*
X115448600Y-95501750D01*
X115448600Y-96014250D01*
X115447547Y-96035691D01*
X115444397Y-96056926D01*
X115439181Y-96077750D01*
X115431949Y-96097962D01*
X115422770Y-96117368D01*
X115411734Y-96135781D01*
X115398946Y-96153024D01*
X115384530Y-96168930D01*
X115368624Y-96183346D01*
X115351381Y-96196134D01*
X115332968Y-96207170D01*
X115313562Y-96216349D01*
X115293350Y-96223581D01*
X115272526Y-96228797D01*
X115251291Y-96231947D01*
X115229850Y-96233000D01*
X114792350Y-96233000D01*
X114770909Y-96231947D01*
X114749674Y-96228797D01*
X114728850Y-96223581D01*
X114708638Y-96216349D01*
X114689232Y-96207170D01*
X114670819Y-96196134D01*
X114653576Y-96183346D01*
X114637670Y-96168930D01*
X114623254Y-96153024D01*
X114610466Y-96135781D01*
X114599430Y-96117368D01*
X114590251Y-96097962D01*
X114583019Y-96077750D01*
X114577803Y-96056926D01*
X114574653Y-96035691D01*
X114573600Y-96014250D01*
X114573600Y-95501750D01*
X114574653Y-95480309D01*
X114577803Y-95459074D01*
X114583019Y-95438250D01*
X114590251Y-95418038D01*
X114599430Y-95398632D01*
X114610466Y-95380219D01*
X114623254Y-95362976D01*
X114637670Y-95347070D01*
X114653576Y-95332654D01*
X114670819Y-95319866D01*
X114689232Y-95308830D01*
X114708638Y-95299651D01*
X114728850Y-95292419D01*
X114749674Y-95287203D01*
X114770909Y-95284053D01*
X114792350Y-95283000D01*
X115229850Y-95283000D01*
X115251291Y-95284053D01*
G37*
G36*
X116826291Y-93506053D02*
G01*
X116847526Y-93509203D01*
X116868350Y-93514419D01*
X116888562Y-93521651D01*
X116907968Y-93530830D01*
X116926381Y-93541866D01*
X116943624Y-93554654D01*
X116959530Y-93569070D01*
X116973946Y-93584976D01*
X116986734Y-93602219D01*
X116997770Y-93620632D01*
X117006949Y-93640038D01*
X117014181Y-93660250D01*
X117019397Y-93681074D01*
X117022547Y-93702309D01*
X117023600Y-93723750D01*
X117023600Y-94236250D01*
X117022547Y-94257691D01*
X117019397Y-94278926D01*
X117014181Y-94299750D01*
X117006949Y-94319962D01*
X116997770Y-94339368D01*
X116986734Y-94357781D01*
X116973946Y-94375024D01*
X116959530Y-94390930D01*
X116943624Y-94405346D01*
X116926381Y-94418134D01*
X116907968Y-94429170D01*
X116888562Y-94438349D01*
X116868350Y-94445581D01*
X116847526Y-94450797D01*
X116826291Y-94453947D01*
X116804850Y-94455000D01*
X116367350Y-94455000D01*
X116345909Y-94453947D01*
X116324674Y-94450797D01*
X116303850Y-94445581D01*
X116283638Y-94438349D01*
X116264232Y-94429170D01*
X116245819Y-94418134D01*
X116228576Y-94405346D01*
X116212670Y-94390930D01*
X116198254Y-94375024D01*
X116185466Y-94357781D01*
X116174430Y-94339368D01*
X116165251Y-94319962D01*
X116158019Y-94299750D01*
X116152803Y-94278926D01*
X116149653Y-94257691D01*
X116148600Y-94236250D01*
X116148600Y-93723750D01*
X116149653Y-93702309D01*
X116152803Y-93681074D01*
X116158019Y-93660250D01*
X116165251Y-93640038D01*
X116174430Y-93620632D01*
X116185466Y-93602219D01*
X116198254Y-93584976D01*
X116212670Y-93569070D01*
X116228576Y-93554654D01*
X116245819Y-93541866D01*
X116264232Y-93530830D01*
X116283638Y-93521651D01*
X116303850Y-93514419D01*
X116324674Y-93509203D01*
X116345909Y-93506053D01*
X116367350Y-93505000D01*
X116804850Y-93505000D01*
X116826291Y-93506053D01*
G37*
G36*
X115251291Y-93506053D02*
G01*
X115272526Y-93509203D01*
X115293350Y-93514419D01*
X115313562Y-93521651D01*
X115332968Y-93530830D01*
X115351381Y-93541866D01*
X115368624Y-93554654D01*
X115384530Y-93569070D01*
X115398946Y-93584976D01*
X115411734Y-93602219D01*
X115422770Y-93620632D01*
X115431949Y-93640038D01*
X115439181Y-93660250D01*
X115444397Y-93681074D01*
X115447547Y-93702309D01*
X115448600Y-93723750D01*
X115448600Y-94236250D01*
X115447547Y-94257691D01*
X115444397Y-94278926D01*
X115439181Y-94299750D01*
X115431949Y-94319962D01*
X115422770Y-94339368D01*
X115411734Y-94357781D01*
X115398946Y-94375024D01*
X115384530Y-94390930D01*
X115368624Y-94405346D01*
X115351381Y-94418134D01*
X115332968Y-94429170D01*
X115313562Y-94438349D01*
X115293350Y-94445581D01*
X115272526Y-94450797D01*
X115251291Y-94453947D01*
X115229850Y-94455000D01*
X114792350Y-94455000D01*
X114770909Y-94453947D01*
X114749674Y-94450797D01*
X114728850Y-94445581D01*
X114708638Y-94438349D01*
X114689232Y-94429170D01*
X114670819Y-94418134D01*
X114653576Y-94405346D01*
X114637670Y-94390930D01*
X114623254Y-94375024D01*
X114610466Y-94357781D01*
X114599430Y-94339368D01*
X114590251Y-94319962D01*
X114583019Y-94299750D01*
X114577803Y-94278926D01*
X114574653Y-94257691D01*
X114573600Y-94236250D01*
X114573600Y-93723750D01*
X114574653Y-93702309D01*
X114577803Y-93681074D01*
X114583019Y-93660250D01*
X114590251Y-93640038D01*
X114599430Y-93620632D01*
X114610466Y-93602219D01*
X114623254Y-93584976D01*
X114637670Y-93569070D01*
X114653576Y-93554654D01*
X114670819Y-93541866D01*
X114689232Y-93530830D01*
X114708638Y-93521651D01*
X114728850Y-93514419D01*
X114749674Y-93509203D01*
X114770909Y-93506053D01*
X114792350Y-93505000D01*
X115229850Y-93505000D01*
X115251291Y-93506053D01*
G37*
G36*
X116826291Y-91728053D02*
G01*
X116847526Y-91731203D01*
X116868350Y-91736419D01*
X116888562Y-91743651D01*
X116907968Y-91752830D01*
X116926381Y-91763866D01*
X116943624Y-91776654D01*
X116959530Y-91791070D01*
X116973946Y-91806976D01*
X116986734Y-91824219D01*
X116997770Y-91842632D01*
X117006949Y-91862038D01*
X117014181Y-91882250D01*
X117019397Y-91903074D01*
X117022547Y-91924309D01*
X117023600Y-91945750D01*
X117023600Y-92458250D01*
X117022547Y-92479691D01*
X117019397Y-92500926D01*
X117014181Y-92521750D01*
X117006949Y-92541962D01*
X116997770Y-92561368D01*
X116986734Y-92579781D01*
X116973946Y-92597024D01*
X116959530Y-92612930D01*
X116943624Y-92627346D01*
X116926381Y-92640134D01*
X116907968Y-92651170D01*
X116888562Y-92660349D01*
X116868350Y-92667581D01*
X116847526Y-92672797D01*
X116826291Y-92675947D01*
X116804850Y-92677000D01*
X116367350Y-92677000D01*
X116345909Y-92675947D01*
X116324674Y-92672797D01*
X116303850Y-92667581D01*
X116283638Y-92660349D01*
X116264232Y-92651170D01*
X116245819Y-92640134D01*
X116228576Y-92627346D01*
X116212670Y-92612930D01*
X116198254Y-92597024D01*
X116185466Y-92579781D01*
X116174430Y-92561368D01*
X116165251Y-92541962D01*
X116158019Y-92521750D01*
X116152803Y-92500926D01*
X116149653Y-92479691D01*
X116148600Y-92458250D01*
X116148600Y-91945750D01*
X116149653Y-91924309D01*
X116152803Y-91903074D01*
X116158019Y-91882250D01*
X116165251Y-91862038D01*
X116174430Y-91842632D01*
X116185466Y-91824219D01*
X116198254Y-91806976D01*
X116212670Y-91791070D01*
X116228576Y-91776654D01*
X116245819Y-91763866D01*
X116264232Y-91752830D01*
X116283638Y-91743651D01*
X116303850Y-91736419D01*
X116324674Y-91731203D01*
X116345909Y-91728053D01*
X116367350Y-91727000D01*
X116804850Y-91727000D01*
X116826291Y-91728053D01*
G37*
G36*
X115251291Y-91728053D02*
G01*
X115272526Y-91731203D01*
X115293350Y-91736419D01*
X115313562Y-91743651D01*
X115332968Y-91752830D01*
X115351381Y-91763866D01*
X115368624Y-91776654D01*
X115384530Y-91791070D01*
X115398946Y-91806976D01*
X115411734Y-91824219D01*
X115422770Y-91842632D01*
X115431949Y-91862038D01*
X115439181Y-91882250D01*
X115444397Y-91903074D01*
X115447547Y-91924309D01*
X115448600Y-91945750D01*
X115448600Y-92458250D01*
X115447547Y-92479691D01*
X115444397Y-92500926D01*
X115439181Y-92521750D01*
X115431949Y-92541962D01*
X115422770Y-92561368D01*
X115411734Y-92579781D01*
X115398946Y-92597024D01*
X115384530Y-92612930D01*
X115368624Y-92627346D01*
X115351381Y-92640134D01*
X115332968Y-92651170D01*
X115313562Y-92660349D01*
X115293350Y-92667581D01*
X115272526Y-92672797D01*
X115251291Y-92675947D01*
X115229850Y-92677000D01*
X114792350Y-92677000D01*
X114770909Y-92675947D01*
X114749674Y-92672797D01*
X114728850Y-92667581D01*
X114708638Y-92660349D01*
X114689232Y-92651170D01*
X114670819Y-92640134D01*
X114653576Y-92627346D01*
X114637670Y-92612930D01*
X114623254Y-92597024D01*
X114610466Y-92579781D01*
X114599430Y-92561368D01*
X114590251Y-92541962D01*
X114583019Y-92521750D01*
X114577803Y-92500926D01*
X114574653Y-92479691D01*
X114573600Y-92458250D01*
X114573600Y-91945750D01*
X114574653Y-91924309D01*
X114577803Y-91903074D01*
X114583019Y-91882250D01*
X114590251Y-91862038D01*
X114599430Y-91842632D01*
X114610466Y-91824219D01*
X114623254Y-91806976D01*
X114637670Y-91791070D01*
X114653576Y-91776654D01*
X114670819Y-91763866D01*
X114689232Y-91752830D01*
X114708638Y-91743651D01*
X114728850Y-91736419D01*
X114749674Y-91731203D01*
X114770909Y-91728053D01*
X114792350Y-91727000D01*
X115229850Y-91727000D01*
X115251291Y-91728053D01*
G37*
G36*
X116826291Y-89950053D02*
G01*
X116847526Y-89953203D01*
X116868350Y-89958419D01*
X116888562Y-89965651D01*
X116907968Y-89974830D01*
X116926381Y-89985866D01*
X116943624Y-89998654D01*
X116959530Y-90013070D01*
X116973946Y-90028976D01*
X116986734Y-90046219D01*
X116997770Y-90064632D01*
X117006949Y-90084038D01*
X117014181Y-90104250D01*
X117019397Y-90125074D01*
X117022547Y-90146309D01*
X117023600Y-90167750D01*
X117023600Y-90680250D01*
X117022547Y-90701691D01*
X117019397Y-90722926D01*
X117014181Y-90743750D01*
X117006949Y-90763962D01*
X116997770Y-90783368D01*
X116986734Y-90801781D01*
X116973946Y-90819024D01*
X116959530Y-90834930D01*
X116943624Y-90849346D01*
X116926381Y-90862134D01*
X116907968Y-90873170D01*
X116888562Y-90882349D01*
X116868350Y-90889581D01*
X116847526Y-90894797D01*
X116826291Y-90897947D01*
X116804850Y-90899000D01*
X116367350Y-90899000D01*
X116345909Y-90897947D01*
X116324674Y-90894797D01*
X116303850Y-90889581D01*
X116283638Y-90882349D01*
X116264232Y-90873170D01*
X116245819Y-90862134D01*
X116228576Y-90849346D01*
X116212670Y-90834930D01*
X116198254Y-90819024D01*
X116185466Y-90801781D01*
X116174430Y-90783368D01*
X116165251Y-90763962D01*
X116158019Y-90743750D01*
X116152803Y-90722926D01*
X116149653Y-90701691D01*
X116148600Y-90680250D01*
X116148600Y-90167750D01*
X116149653Y-90146309D01*
X116152803Y-90125074D01*
X116158019Y-90104250D01*
X116165251Y-90084038D01*
X116174430Y-90064632D01*
X116185466Y-90046219D01*
X116198254Y-90028976D01*
X116212670Y-90013070D01*
X116228576Y-89998654D01*
X116245819Y-89985866D01*
X116264232Y-89974830D01*
X116283638Y-89965651D01*
X116303850Y-89958419D01*
X116324674Y-89953203D01*
X116345909Y-89950053D01*
X116367350Y-89949000D01*
X116804850Y-89949000D01*
X116826291Y-89950053D01*
G37*
G36*
X115251291Y-89950053D02*
G01*
X115272526Y-89953203D01*
X115293350Y-89958419D01*
X115313562Y-89965651D01*
X115332968Y-89974830D01*
X115351381Y-89985866D01*
X115368624Y-89998654D01*
X115384530Y-90013070D01*
X115398946Y-90028976D01*
X115411734Y-90046219D01*
X115422770Y-90064632D01*
X115431949Y-90084038D01*
X115439181Y-90104250D01*
X115444397Y-90125074D01*
X115447547Y-90146309D01*
X115448600Y-90167750D01*
X115448600Y-90680250D01*
X115447547Y-90701691D01*
X115444397Y-90722926D01*
X115439181Y-90743750D01*
X115431949Y-90763962D01*
X115422770Y-90783368D01*
X115411734Y-90801781D01*
X115398946Y-90819024D01*
X115384530Y-90834930D01*
X115368624Y-90849346D01*
X115351381Y-90862134D01*
X115332968Y-90873170D01*
X115313562Y-90882349D01*
X115293350Y-90889581D01*
X115272526Y-90894797D01*
X115251291Y-90897947D01*
X115229850Y-90899000D01*
X114792350Y-90899000D01*
X114770909Y-90897947D01*
X114749674Y-90894797D01*
X114728850Y-90889581D01*
X114708638Y-90882349D01*
X114689232Y-90873170D01*
X114670819Y-90862134D01*
X114653576Y-90849346D01*
X114637670Y-90834930D01*
X114623254Y-90819024D01*
X114610466Y-90801781D01*
X114599430Y-90783368D01*
X114590251Y-90763962D01*
X114583019Y-90743750D01*
X114577803Y-90722926D01*
X114574653Y-90701691D01*
X114573600Y-90680250D01*
X114573600Y-90167750D01*
X114574653Y-90146309D01*
X114577803Y-90125074D01*
X114583019Y-90104250D01*
X114590251Y-90084038D01*
X114599430Y-90064632D01*
X114610466Y-90046219D01*
X114623254Y-90028976D01*
X114637670Y-90013070D01*
X114653576Y-89998654D01*
X114670819Y-89985866D01*
X114689232Y-89974830D01*
X114708638Y-89965651D01*
X114728850Y-89958419D01*
X114749674Y-89953203D01*
X114770909Y-89950053D01*
X114792350Y-89949000D01*
X115229850Y-89949000D01*
X115251291Y-89950053D01*
G37*
G36*
X116826391Y-88172053D02*
G01*
X116847626Y-88175203D01*
X116868450Y-88180419D01*
X116888662Y-88187651D01*
X116908068Y-88196830D01*
X116926481Y-88207866D01*
X116943724Y-88220654D01*
X116959630Y-88235070D01*
X116974046Y-88250976D01*
X116986834Y-88268219D01*
X116997870Y-88286632D01*
X117007049Y-88306038D01*
X117014281Y-88326250D01*
X117019497Y-88347074D01*
X117022647Y-88368309D01*
X117023700Y-88389750D01*
X117023700Y-88902250D01*
X117022647Y-88923691D01*
X117019497Y-88944926D01*
X117014281Y-88965750D01*
X117007049Y-88985962D01*
X116997870Y-89005368D01*
X116986834Y-89023781D01*
X116974046Y-89041024D01*
X116959630Y-89056930D01*
X116943724Y-89071346D01*
X116926481Y-89084134D01*
X116908068Y-89095170D01*
X116888662Y-89104349D01*
X116868450Y-89111581D01*
X116847626Y-89116797D01*
X116826391Y-89119947D01*
X116804950Y-89121000D01*
X116367450Y-89121000D01*
X116346009Y-89119947D01*
X116324774Y-89116797D01*
X116303950Y-89111581D01*
X116283738Y-89104349D01*
X116264332Y-89095170D01*
X116245919Y-89084134D01*
X116228676Y-89071346D01*
X116212770Y-89056930D01*
X116198354Y-89041024D01*
X116185566Y-89023781D01*
X116174530Y-89005368D01*
X116165351Y-88985962D01*
X116158119Y-88965750D01*
X116152903Y-88944926D01*
X116149753Y-88923691D01*
X116148700Y-88902250D01*
X116148700Y-88389750D01*
X116149753Y-88368309D01*
X116152903Y-88347074D01*
X116158119Y-88326250D01*
X116165351Y-88306038D01*
X116174530Y-88286632D01*
X116185566Y-88268219D01*
X116198354Y-88250976D01*
X116212770Y-88235070D01*
X116228676Y-88220654D01*
X116245919Y-88207866D01*
X116264332Y-88196830D01*
X116283738Y-88187651D01*
X116303950Y-88180419D01*
X116324774Y-88175203D01*
X116346009Y-88172053D01*
X116367450Y-88171000D01*
X116804950Y-88171000D01*
X116826391Y-88172053D01*
G37*
G36*
X115251391Y-88172053D02*
G01*
X115272626Y-88175203D01*
X115293450Y-88180419D01*
X115313662Y-88187651D01*
X115333068Y-88196830D01*
X115351481Y-88207866D01*
X115368724Y-88220654D01*
X115384630Y-88235070D01*
X115399046Y-88250976D01*
X115411834Y-88268219D01*
X115422870Y-88286632D01*
X115432049Y-88306038D01*
X115439281Y-88326250D01*
X115444497Y-88347074D01*
X115447647Y-88368309D01*
X115448700Y-88389750D01*
X115448700Y-88902250D01*
X115447647Y-88923691D01*
X115444497Y-88944926D01*
X115439281Y-88965750D01*
X115432049Y-88985962D01*
X115422870Y-89005368D01*
X115411834Y-89023781D01*
X115399046Y-89041024D01*
X115384630Y-89056930D01*
X115368724Y-89071346D01*
X115351481Y-89084134D01*
X115333068Y-89095170D01*
X115313662Y-89104349D01*
X115293450Y-89111581D01*
X115272626Y-89116797D01*
X115251391Y-89119947D01*
X115229950Y-89121000D01*
X114792450Y-89121000D01*
X114771009Y-89119947D01*
X114749774Y-89116797D01*
X114728950Y-89111581D01*
X114708738Y-89104349D01*
X114689332Y-89095170D01*
X114670919Y-89084134D01*
X114653676Y-89071346D01*
X114637770Y-89056930D01*
X114623354Y-89041024D01*
X114610566Y-89023781D01*
X114599530Y-89005368D01*
X114590351Y-88985962D01*
X114583119Y-88965750D01*
X114577903Y-88944926D01*
X114574753Y-88923691D01*
X114573700Y-88902250D01*
X114573700Y-88389750D01*
X114574753Y-88368309D01*
X114577903Y-88347074D01*
X114583119Y-88326250D01*
X114590351Y-88306038D01*
X114599530Y-88286632D01*
X114610566Y-88268219D01*
X114623354Y-88250976D01*
X114637770Y-88235070D01*
X114653676Y-88220654D01*
X114670919Y-88207866D01*
X114689332Y-88196830D01*
X114708738Y-88187651D01*
X114728950Y-88180419D01*
X114749774Y-88175203D01*
X114771009Y-88172053D01*
X114792450Y-88171000D01*
X115229950Y-88171000D01*
X115251391Y-88172053D01*
G37*
G36*
X114870491Y-107704653D02*
G01*
X114891726Y-107707803D01*
X114912550Y-107713019D01*
X114932762Y-107720251D01*
X114952168Y-107729430D01*
X114970581Y-107740466D01*
X114987824Y-107753254D01*
X115003730Y-107767670D01*
X115018146Y-107783576D01*
X115030934Y-107800819D01*
X115041970Y-107819232D01*
X115051149Y-107838638D01*
X115058381Y-107858850D01*
X115063597Y-107879674D01*
X115066747Y-107900909D01*
X115067800Y-107922350D01*
X115067800Y-108434850D01*
X115066747Y-108456291D01*
X115063597Y-108477526D01*
X115058381Y-108498350D01*
X115051149Y-108518562D01*
X115041970Y-108537968D01*
X115030934Y-108556381D01*
X115018146Y-108573624D01*
X115003730Y-108589530D01*
X114987824Y-108603946D01*
X114970581Y-108616734D01*
X114952168Y-108627770D01*
X114932762Y-108636949D01*
X114912550Y-108644181D01*
X114891726Y-108649397D01*
X114870491Y-108652547D01*
X114849050Y-108653600D01*
X114411550Y-108653600D01*
X114390109Y-108652547D01*
X114368874Y-108649397D01*
X114348050Y-108644181D01*
X114327838Y-108636949D01*
X114308432Y-108627770D01*
X114290019Y-108616734D01*
X114272776Y-108603946D01*
X114256870Y-108589530D01*
X114242454Y-108573624D01*
X114229666Y-108556381D01*
X114218630Y-108537968D01*
X114209451Y-108518562D01*
X114202219Y-108498350D01*
X114197003Y-108477526D01*
X114193853Y-108456291D01*
X114192800Y-108434850D01*
X114192800Y-107922350D01*
X114193853Y-107900909D01*
X114197003Y-107879674D01*
X114202219Y-107858850D01*
X114209451Y-107838638D01*
X114218630Y-107819232D01*
X114229666Y-107800819D01*
X114242454Y-107783576D01*
X114256870Y-107767670D01*
X114272776Y-107753254D01*
X114290019Y-107740466D01*
X114308432Y-107729430D01*
X114327838Y-107720251D01*
X114348050Y-107713019D01*
X114368874Y-107707803D01*
X114390109Y-107704653D01*
X114411550Y-107703600D01*
X114849050Y-107703600D01*
X114870491Y-107704653D01*
G37*
G36*
X113295491Y-107704653D02*
G01*
X113316726Y-107707803D01*
X113337550Y-107713019D01*
X113357762Y-107720251D01*
X113377168Y-107729430D01*
X113395581Y-107740466D01*
X113412824Y-107753254D01*
X113428730Y-107767670D01*
X113443146Y-107783576D01*
X113455934Y-107800819D01*
X113466970Y-107819232D01*
X113476149Y-107838638D01*
X113483381Y-107858850D01*
X113488597Y-107879674D01*
X113491747Y-107900909D01*
X113492800Y-107922350D01*
X113492800Y-108434850D01*
X113491747Y-108456291D01*
X113488597Y-108477526D01*
X113483381Y-108498350D01*
X113476149Y-108518562D01*
X113466970Y-108537968D01*
X113455934Y-108556381D01*
X113443146Y-108573624D01*
X113428730Y-108589530D01*
X113412824Y-108603946D01*
X113395581Y-108616734D01*
X113377168Y-108627770D01*
X113357762Y-108636949D01*
X113337550Y-108644181D01*
X113316726Y-108649397D01*
X113295491Y-108652547D01*
X113274050Y-108653600D01*
X112836550Y-108653600D01*
X112815109Y-108652547D01*
X112793874Y-108649397D01*
X112773050Y-108644181D01*
X112752838Y-108636949D01*
X112733432Y-108627770D01*
X112715019Y-108616734D01*
X112697776Y-108603946D01*
X112681870Y-108589530D01*
X112667454Y-108573624D01*
X112654666Y-108556381D01*
X112643630Y-108537968D01*
X112634451Y-108518562D01*
X112627219Y-108498350D01*
X112622003Y-108477526D01*
X112618853Y-108456291D01*
X112617800Y-108434850D01*
X112617800Y-107922350D01*
X112618853Y-107900909D01*
X112622003Y-107879674D01*
X112627219Y-107858850D01*
X112634451Y-107838638D01*
X112643630Y-107819232D01*
X112654666Y-107800819D01*
X112667454Y-107783576D01*
X112681870Y-107767670D01*
X112697776Y-107753254D01*
X112715019Y-107740466D01*
X112733432Y-107729430D01*
X112752838Y-107720251D01*
X112773050Y-107713019D01*
X112793874Y-107707803D01*
X112815109Y-107704653D01*
X112836550Y-107703600D01*
X113274050Y-107703600D01*
X113295491Y-107704653D01*
G37*
G36*
X114870491Y-106129853D02*
G01*
X114891726Y-106133003D01*
X114912550Y-106138219D01*
X114932762Y-106145451D01*
X114952168Y-106154630D01*
X114970581Y-106165666D01*
X114987824Y-106178454D01*
X115003730Y-106192870D01*
X115018146Y-106208776D01*
X115030934Y-106226019D01*
X115041970Y-106244432D01*
X115051149Y-106263838D01*
X115058381Y-106284050D01*
X115063597Y-106304874D01*
X115066747Y-106326109D01*
X115067800Y-106347550D01*
X115067800Y-106860050D01*
X115066747Y-106881491D01*
X115063597Y-106902726D01*
X115058381Y-106923550D01*
X115051149Y-106943762D01*
X115041970Y-106963168D01*
X115030934Y-106981581D01*
X115018146Y-106998824D01*
X115003730Y-107014730D01*
X114987824Y-107029146D01*
X114970581Y-107041934D01*
X114952168Y-107052970D01*
X114932762Y-107062149D01*
X114912550Y-107069381D01*
X114891726Y-107074597D01*
X114870491Y-107077747D01*
X114849050Y-107078800D01*
X114411550Y-107078800D01*
X114390109Y-107077747D01*
X114368874Y-107074597D01*
X114348050Y-107069381D01*
X114327838Y-107062149D01*
X114308432Y-107052970D01*
X114290019Y-107041934D01*
X114272776Y-107029146D01*
X114256870Y-107014730D01*
X114242454Y-106998824D01*
X114229666Y-106981581D01*
X114218630Y-106963168D01*
X114209451Y-106943762D01*
X114202219Y-106923550D01*
X114197003Y-106902726D01*
X114193853Y-106881491D01*
X114192800Y-106860050D01*
X114192800Y-106347550D01*
X114193853Y-106326109D01*
X114197003Y-106304874D01*
X114202219Y-106284050D01*
X114209451Y-106263838D01*
X114218630Y-106244432D01*
X114229666Y-106226019D01*
X114242454Y-106208776D01*
X114256870Y-106192870D01*
X114272776Y-106178454D01*
X114290019Y-106165666D01*
X114308432Y-106154630D01*
X114327838Y-106145451D01*
X114348050Y-106138219D01*
X114368874Y-106133003D01*
X114390109Y-106129853D01*
X114411550Y-106128800D01*
X114849050Y-106128800D01*
X114870491Y-106129853D01*
G37*
G36*
X113295491Y-106129853D02*
G01*
X113316726Y-106133003D01*
X113337550Y-106138219D01*
X113357762Y-106145451D01*
X113377168Y-106154630D01*
X113395581Y-106165666D01*
X113412824Y-106178454D01*
X113428730Y-106192870D01*
X113443146Y-106208776D01*
X113455934Y-106226019D01*
X113466970Y-106244432D01*
X113476149Y-106263838D01*
X113483381Y-106284050D01*
X113488597Y-106304874D01*
X113491747Y-106326109D01*
X113492800Y-106347550D01*
X113492800Y-106860050D01*
X113491747Y-106881491D01*
X113488597Y-106902726D01*
X113483381Y-106923550D01*
X113476149Y-106943762D01*
X113466970Y-106963168D01*
X113455934Y-106981581D01*
X113443146Y-106998824D01*
X113428730Y-107014730D01*
X113412824Y-107029146D01*
X113395581Y-107041934D01*
X113377168Y-107052970D01*
X113357762Y-107062149D01*
X113337550Y-107069381D01*
X113316726Y-107074597D01*
X113295491Y-107077747D01*
X113274050Y-107078800D01*
X112836550Y-107078800D01*
X112815109Y-107077747D01*
X112793874Y-107074597D01*
X112773050Y-107069381D01*
X112752838Y-107062149D01*
X112733432Y-107052970D01*
X112715019Y-107041934D01*
X112697776Y-107029146D01*
X112681870Y-107014730D01*
X112667454Y-106998824D01*
X112654666Y-106981581D01*
X112643630Y-106963168D01*
X112634451Y-106943762D01*
X112627219Y-106923550D01*
X112622003Y-106902726D01*
X112618853Y-106881491D01*
X112617800Y-106860050D01*
X112617800Y-106347550D01*
X112618853Y-106326109D01*
X112622003Y-106304874D01*
X112627219Y-106284050D01*
X112634451Y-106263838D01*
X112643630Y-106244432D01*
X112654666Y-106226019D01*
X112667454Y-106208776D01*
X112681870Y-106192870D01*
X112697776Y-106178454D01*
X112715019Y-106165666D01*
X112733432Y-106154630D01*
X112752838Y-106145451D01*
X112773050Y-106138219D01*
X112793874Y-106133003D01*
X112815109Y-106129853D01*
X112836550Y-106128800D01*
X113274050Y-106128800D01*
X113295491Y-106129853D01*
G37*
G36*
X119874091Y-106129853D02*
G01*
X119895326Y-106133003D01*
X119916150Y-106138219D01*
X119936362Y-106145451D01*
X119955768Y-106154630D01*
X119974181Y-106165666D01*
X119991424Y-106178454D01*
X120007330Y-106192870D01*
X120021746Y-106208776D01*
X120034534Y-106226019D01*
X120045570Y-106244432D01*
X120054749Y-106263838D01*
X120061981Y-106284050D01*
X120067197Y-106304874D01*
X120070347Y-106326109D01*
X120071400Y-106347550D01*
X120071400Y-106860050D01*
X120070347Y-106881491D01*
X120067197Y-106902726D01*
X120061981Y-106923550D01*
X120054749Y-106943762D01*
X120045570Y-106963168D01*
X120034534Y-106981581D01*
X120021746Y-106998824D01*
X120007330Y-107014730D01*
X119991424Y-107029146D01*
X119974181Y-107041934D01*
X119955768Y-107052970D01*
X119936362Y-107062149D01*
X119916150Y-107069381D01*
X119895326Y-107074597D01*
X119874091Y-107077747D01*
X119852650Y-107078800D01*
X119415150Y-107078800D01*
X119393709Y-107077747D01*
X119372474Y-107074597D01*
X119351650Y-107069381D01*
X119331438Y-107062149D01*
X119312032Y-107052970D01*
X119293619Y-107041934D01*
X119276376Y-107029146D01*
X119260470Y-107014730D01*
X119246054Y-106998824D01*
X119233266Y-106981581D01*
X119222230Y-106963168D01*
X119213051Y-106943762D01*
X119205819Y-106923550D01*
X119200603Y-106902726D01*
X119197453Y-106881491D01*
X119196400Y-106860050D01*
X119196400Y-106347550D01*
X119197453Y-106326109D01*
X119200603Y-106304874D01*
X119205819Y-106284050D01*
X119213051Y-106263838D01*
X119222230Y-106244432D01*
X119233266Y-106226019D01*
X119246054Y-106208776D01*
X119260470Y-106192870D01*
X119276376Y-106178454D01*
X119293619Y-106165666D01*
X119312032Y-106154630D01*
X119331438Y-106145451D01*
X119351650Y-106138219D01*
X119372474Y-106133003D01*
X119393709Y-106129853D01*
X119415150Y-106128800D01*
X119852650Y-106128800D01*
X119874091Y-106129853D01*
G37*
G36*
X121449091Y-106129853D02*
G01*
X121470326Y-106133003D01*
X121491150Y-106138219D01*
X121511362Y-106145451D01*
X121530768Y-106154630D01*
X121549181Y-106165666D01*
X121566424Y-106178454D01*
X121582330Y-106192870D01*
X121596746Y-106208776D01*
X121609534Y-106226019D01*
X121620570Y-106244432D01*
X121629749Y-106263838D01*
X121636981Y-106284050D01*
X121642197Y-106304874D01*
X121645347Y-106326109D01*
X121646400Y-106347550D01*
X121646400Y-106860050D01*
X121645347Y-106881491D01*
X121642197Y-106902726D01*
X121636981Y-106923550D01*
X121629749Y-106943762D01*
X121620570Y-106963168D01*
X121609534Y-106981581D01*
X121596746Y-106998824D01*
X121582330Y-107014730D01*
X121566424Y-107029146D01*
X121549181Y-107041934D01*
X121530768Y-107052970D01*
X121511362Y-107062149D01*
X121491150Y-107069381D01*
X121470326Y-107074597D01*
X121449091Y-107077747D01*
X121427650Y-107078800D01*
X120990150Y-107078800D01*
X120968709Y-107077747D01*
X120947474Y-107074597D01*
X120926650Y-107069381D01*
X120906438Y-107062149D01*
X120887032Y-107052970D01*
X120868619Y-107041934D01*
X120851376Y-107029146D01*
X120835470Y-107014730D01*
X120821054Y-106998824D01*
X120808266Y-106981581D01*
X120797230Y-106963168D01*
X120788051Y-106943762D01*
X120780819Y-106923550D01*
X120775603Y-106902726D01*
X120772453Y-106881491D01*
X120771400Y-106860050D01*
X120771400Y-106347550D01*
X120772453Y-106326109D01*
X120775603Y-106304874D01*
X120780819Y-106284050D01*
X120788051Y-106263838D01*
X120797230Y-106244432D01*
X120808266Y-106226019D01*
X120821054Y-106208776D01*
X120835470Y-106192870D01*
X120851376Y-106178454D01*
X120868619Y-106165666D01*
X120887032Y-106154630D01*
X120906438Y-106145451D01*
X120926650Y-106138219D01*
X120947474Y-106133003D01*
X120968709Y-106129853D01*
X120990150Y-106128800D01*
X121427650Y-106128800D01*
X121449091Y-106129853D01*
G37*
G36*
X118426491Y-106129853D02*
G01*
X118447726Y-106133003D01*
X118468550Y-106138219D01*
X118488762Y-106145451D01*
X118508168Y-106154630D01*
X118526581Y-106165666D01*
X118543824Y-106178454D01*
X118559730Y-106192870D01*
X118574146Y-106208776D01*
X118586934Y-106226019D01*
X118597970Y-106244432D01*
X118607149Y-106263838D01*
X118614381Y-106284050D01*
X118619597Y-106304874D01*
X118622747Y-106326109D01*
X118623800Y-106347550D01*
X118623800Y-106860050D01*
X118622747Y-106881491D01*
X118619597Y-106902726D01*
X118614381Y-106923550D01*
X118607149Y-106943762D01*
X118597970Y-106963168D01*
X118586934Y-106981581D01*
X118574146Y-106998824D01*
X118559730Y-107014730D01*
X118543824Y-107029146D01*
X118526581Y-107041934D01*
X118508168Y-107052970D01*
X118488762Y-107062149D01*
X118468550Y-107069381D01*
X118447726Y-107074597D01*
X118426491Y-107077747D01*
X118405050Y-107078800D01*
X117967550Y-107078800D01*
X117946109Y-107077747D01*
X117924874Y-107074597D01*
X117904050Y-107069381D01*
X117883838Y-107062149D01*
X117864432Y-107052970D01*
X117846019Y-107041934D01*
X117828776Y-107029146D01*
X117812870Y-107014730D01*
X117798454Y-106998824D01*
X117785666Y-106981581D01*
X117774630Y-106963168D01*
X117765451Y-106943762D01*
X117758219Y-106923550D01*
X117753003Y-106902726D01*
X117749853Y-106881491D01*
X117748800Y-106860050D01*
X117748800Y-106347550D01*
X117749853Y-106326109D01*
X117753003Y-106304874D01*
X117758219Y-106284050D01*
X117765451Y-106263838D01*
X117774630Y-106244432D01*
X117785666Y-106226019D01*
X117798454Y-106208776D01*
X117812870Y-106192870D01*
X117828776Y-106178454D01*
X117846019Y-106165666D01*
X117864432Y-106154630D01*
X117883838Y-106145451D01*
X117904050Y-106138219D01*
X117924874Y-106133003D01*
X117946109Y-106129853D01*
X117967550Y-106128800D01*
X118405050Y-106128800D01*
X118426491Y-106129853D01*
G37*
G36*
X116851491Y-106129853D02*
G01*
X116872726Y-106133003D01*
X116893550Y-106138219D01*
X116913762Y-106145451D01*
X116933168Y-106154630D01*
X116951581Y-106165666D01*
X116968824Y-106178454D01*
X116984730Y-106192870D01*
X116999146Y-106208776D01*
X117011934Y-106226019D01*
X117022970Y-106244432D01*
X117032149Y-106263838D01*
X117039381Y-106284050D01*
X117044597Y-106304874D01*
X117047747Y-106326109D01*
X117048800Y-106347550D01*
X117048800Y-106860050D01*
X117047747Y-106881491D01*
X117044597Y-106902726D01*
X117039381Y-106923550D01*
X117032149Y-106943762D01*
X117022970Y-106963168D01*
X117011934Y-106981581D01*
X116999146Y-106998824D01*
X116984730Y-107014730D01*
X116968824Y-107029146D01*
X116951581Y-107041934D01*
X116933168Y-107052970D01*
X116913762Y-107062149D01*
X116893550Y-107069381D01*
X116872726Y-107074597D01*
X116851491Y-107077747D01*
X116830050Y-107078800D01*
X116392550Y-107078800D01*
X116371109Y-107077747D01*
X116349874Y-107074597D01*
X116329050Y-107069381D01*
X116308838Y-107062149D01*
X116289432Y-107052970D01*
X116271019Y-107041934D01*
X116253776Y-107029146D01*
X116237870Y-107014730D01*
X116223454Y-106998824D01*
X116210666Y-106981581D01*
X116199630Y-106963168D01*
X116190451Y-106943762D01*
X116183219Y-106923550D01*
X116178003Y-106902726D01*
X116174853Y-106881491D01*
X116173800Y-106860050D01*
X116173800Y-106347550D01*
X116174853Y-106326109D01*
X116178003Y-106304874D01*
X116183219Y-106284050D01*
X116190451Y-106263838D01*
X116199630Y-106244432D01*
X116210666Y-106226019D01*
X116223454Y-106208776D01*
X116237870Y-106192870D01*
X116253776Y-106178454D01*
X116271019Y-106165666D01*
X116289432Y-106154630D01*
X116308838Y-106145451D01*
X116329050Y-106138219D01*
X116349874Y-106133003D01*
X116371109Y-106129853D01*
X116392550Y-106128800D01*
X116830050Y-106128800D01*
X116851491Y-106129853D01*
G37*
G36*
X122033291Y-80450453D02*
G01*
X122054526Y-80453603D01*
X122075350Y-80458819D01*
X122095562Y-80466051D01*
X122114968Y-80475230D01*
X122133381Y-80486266D01*
X122150624Y-80499054D01*
X122166530Y-80513470D01*
X122180946Y-80529376D01*
X122193734Y-80546619D01*
X122204770Y-80565032D01*
X122213949Y-80584438D01*
X122221181Y-80604650D01*
X122226397Y-80625474D01*
X122229547Y-80646709D01*
X122230600Y-80668150D01*
X122230600Y-81180650D01*
X122229547Y-81202091D01*
X122226397Y-81223326D01*
X122221181Y-81244150D01*
X122213949Y-81264362D01*
X122204770Y-81283768D01*
X122193734Y-81302181D01*
X122180946Y-81319424D01*
X122166530Y-81335330D01*
X122150624Y-81349746D01*
X122133381Y-81362534D01*
X122114968Y-81373570D01*
X122095562Y-81382749D01*
X122075350Y-81389981D01*
X122054526Y-81395197D01*
X122033291Y-81398347D01*
X122011850Y-81399400D01*
X121574350Y-81399400D01*
X121552909Y-81398347D01*
X121531674Y-81395197D01*
X121510850Y-81389981D01*
X121490638Y-81382749D01*
X121471232Y-81373570D01*
X121452819Y-81362534D01*
X121435576Y-81349746D01*
X121419670Y-81335330D01*
X121405254Y-81319424D01*
X121392466Y-81302181D01*
X121381430Y-81283768D01*
X121372251Y-81264362D01*
X121365019Y-81244150D01*
X121359803Y-81223326D01*
X121356653Y-81202091D01*
X121355600Y-81180650D01*
X121355600Y-80668150D01*
X121356653Y-80646709D01*
X121359803Y-80625474D01*
X121365019Y-80604650D01*
X121372251Y-80584438D01*
X121381430Y-80565032D01*
X121392466Y-80546619D01*
X121405254Y-80529376D01*
X121419670Y-80513470D01*
X121435576Y-80499054D01*
X121452819Y-80486266D01*
X121471232Y-80475230D01*
X121490638Y-80466051D01*
X121510850Y-80458819D01*
X121531674Y-80453603D01*
X121552909Y-80450453D01*
X121574350Y-80449400D01*
X122011850Y-80449400D01*
X122033291Y-80450453D01*
G37*
G36*
X120458291Y-80450453D02*
G01*
X120479526Y-80453603D01*
X120500350Y-80458819D01*
X120520562Y-80466051D01*
X120539968Y-80475230D01*
X120558381Y-80486266D01*
X120575624Y-80499054D01*
X120591530Y-80513470D01*
X120605946Y-80529376D01*
X120618734Y-80546619D01*
X120629770Y-80565032D01*
X120638949Y-80584438D01*
X120646181Y-80604650D01*
X120651397Y-80625474D01*
X120654547Y-80646709D01*
X120655600Y-80668150D01*
X120655600Y-81180650D01*
X120654547Y-81202091D01*
X120651397Y-81223326D01*
X120646181Y-81244150D01*
X120638949Y-81264362D01*
X120629770Y-81283768D01*
X120618734Y-81302181D01*
X120605946Y-81319424D01*
X120591530Y-81335330D01*
X120575624Y-81349746D01*
X120558381Y-81362534D01*
X120539968Y-81373570D01*
X120520562Y-81382749D01*
X120500350Y-81389981D01*
X120479526Y-81395197D01*
X120458291Y-81398347D01*
X120436850Y-81399400D01*
X119999350Y-81399400D01*
X119977909Y-81398347D01*
X119956674Y-81395197D01*
X119935850Y-81389981D01*
X119915638Y-81382749D01*
X119896232Y-81373570D01*
X119877819Y-81362534D01*
X119860576Y-81349746D01*
X119844670Y-81335330D01*
X119830254Y-81319424D01*
X119817466Y-81302181D01*
X119806430Y-81283768D01*
X119797251Y-81264362D01*
X119790019Y-81244150D01*
X119784803Y-81223326D01*
X119781653Y-81202091D01*
X119780600Y-81180650D01*
X119780600Y-80668150D01*
X119781653Y-80646709D01*
X119784803Y-80625474D01*
X119790019Y-80604650D01*
X119797251Y-80584438D01*
X119806430Y-80565032D01*
X119817466Y-80546619D01*
X119830254Y-80529376D01*
X119844670Y-80513470D01*
X119860576Y-80499054D01*
X119877819Y-80486266D01*
X119896232Y-80475230D01*
X119915638Y-80466051D01*
X119935850Y-80458819D01*
X119956674Y-80453603D01*
X119977909Y-80450453D01*
X119999350Y-80449400D01*
X120436850Y-80449400D01*
X120458291Y-80450453D01*
G37*
G36*
X125157491Y-80450453D02*
G01*
X125178726Y-80453603D01*
X125199550Y-80458819D01*
X125219762Y-80466051D01*
X125239168Y-80475230D01*
X125257581Y-80486266D01*
X125274824Y-80499054D01*
X125290730Y-80513470D01*
X125305146Y-80529376D01*
X125317934Y-80546619D01*
X125328970Y-80565032D01*
X125338149Y-80584438D01*
X125345381Y-80604650D01*
X125350597Y-80625474D01*
X125353747Y-80646709D01*
X125354800Y-80668150D01*
X125354800Y-81180650D01*
X125353747Y-81202091D01*
X125350597Y-81223326D01*
X125345381Y-81244150D01*
X125338149Y-81264362D01*
X125328970Y-81283768D01*
X125317934Y-81302181D01*
X125305146Y-81319424D01*
X125290730Y-81335330D01*
X125274824Y-81349746D01*
X125257581Y-81362534D01*
X125239168Y-81373570D01*
X125219762Y-81382749D01*
X125199550Y-81389981D01*
X125178726Y-81395197D01*
X125157491Y-81398347D01*
X125136050Y-81399400D01*
X124698550Y-81399400D01*
X124677109Y-81398347D01*
X124655874Y-81395197D01*
X124635050Y-81389981D01*
X124614838Y-81382749D01*
X124595432Y-81373570D01*
X124577019Y-81362534D01*
X124559776Y-81349746D01*
X124543870Y-81335330D01*
X124529454Y-81319424D01*
X124516666Y-81302181D01*
X124505630Y-81283768D01*
X124496451Y-81264362D01*
X124489219Y-81244150D01*
X124484003Y-81223326D01*
X124480853Y-81202091D01*
X124479800Y-81180650D01*
X124479800Y-80668150D01*
X124480853Y-80646709D01*
X124484003Y-80625474D01*
X124489219Y-80604650D01*
X124496451Y-80584438D01*
X124505630Y-80565032D01*
X124516666Y-80546619D01*
X124529454Y-80529376D01*
X124543870Y-80513470D01*
X124559776Y-80499054D01*
X124577019Y-80486266D01*
X124595432Y-80475230D01*
X124614838Y-80466051D01*
X124635050Y-80458819D01*
X124655874Y-80453603D01*
X124677109Y-80450453D01*
X124698550Y-80449400D01*
X125136050Y-80449400D01*
X125157491Y-80450453D01*
G37*
G36*
X123582491Y-80450453D02*
G01*
X123603726Y-80453603D01*
X123624550Y-80458819D01*
X123644762Y-80466051D01*
X123664168Y-80475230D01*
X123682581Y-80486266D01*
X123699824Y-80499054D01*
X123715730Y-80513470D01*
X123730146Y-80529376D01*
X123742934Y-80546619D01*
X123753970Y-80565032D01*
X123763149Y-80584438D01*
X123770381Y-80604650D01*
X123775597Y-80625474D01*
X123778747Y-80646709D01*
X123779800Y-80668150D01*
X123779800Y-81180650D01*
X123778747Y-81202091D01*
X123775597Y-81223326D01*
X123770381Y-81244150D01*
X123763149Y-81264362D01*
X123753970Y-81283768D01*
X123742934Y-81302181D01*
X123730146Y-81319424D01*
X123715730Y-81335330D01*
X123699824Y-81349746D01*
X123682581Y-81362534D01*
X123664168Y-81373570D01*
X123644762Y-81382749D01*
X123624550Y-81389981D01*
X123603726Y-81395197D01*
X123582491Y-81398347D01*
X123561050Y-81399400D01*
X123123550Y-81399400D01*
X123102109Y-81398347D01*
X123080874Y-81395197D01*
X123060050Y-81389981D01*
X123039838Y-81382749D01*
X123020432Y-81373570D01*
X123002019Y-81362534D01*
X122984776Y-81349746D01*
X122968870Y-81335330D01*
X122954454Y-81319424D01*
X122941666Y-81302181D01*
X122930630Y-81283768D01*
X122921451Y-81264362D01*
X122914219Y-81244150D01*
X122909003Y-81223326D01*
X122905853Y-81202091D01*
X122904800Y-81180650D01*
X122904800Y-80668150D01*
X122905853Y-80646709D01*
X122909003Y-80625474D01*
X122914219Y-80604650D01*
X122921451Y-80584438D01*
X122930630Y-80565032D01*
X122941666Y-80546619D01*
X122954454Y-80529376D01*
X122968870Y-80513470D01*
X122984776Y-80499054D01*
X123002019Y-80486266D01*
X123020432Y-80475230D01*
X123039838Y-80466051D01*
X123060050Y-80458819D01*
X123080874Y-80453603D01*
X123102109Y-80450453D01*
X123123550Y-80449400D01*
X123561050Y-80449400D01*
X123582491Y-80450453D01*
G37*
G36*
X131925891Y-86126653D02*
G01*
X131947126Y-86129803D01*
X131967950Y-86135019D01*
X131988162Y-86142251D01*
X132007568Y-86151430D01*
X132025981Y-86162466D01*
X132043224Y-86175254D01*
X132059130Y-86189670D01*
X132073546Y-86205576D01*
X132086334Y-86222819D01*
X132097370Y-86241232D01*
X132106549Y-86260638D01*
X132113781Y-86280850D01*
X132118997Y-86301674D01*
X132122147Y-86322909D01*
X132123200Y-86344350D01*
X132123200Y-86781850D01*
X132122147Y-86803291D01*
X132118997Y-86824526D01*
X132113781Y-86845350D01*
X132106549Y-86865562D01*
X132097370Y-86884968D01*
X132086334Y-86903381D01*
X132073546Y-86920624D01*
X132059130Y-86936530D01*
X132043224Y-86950946D01*
X132025981Y-86963734D01*
X132007568Y-86974770D01*
X131988162Y-86983949D01*
X131967950Y-86991181D01*
X131947126Y-86996397D01*
X131925891Y-86999547D01*
X131904450Y-87000600D01*
X131391950Y-87000600D01*
X131370509Y-86999547D01*
X131349274Y-86996397D01*
X131328450Y-86991181D01*
X131308238Y-86983949D01*
X131288832Y-86974770D01*
X131270419Y-86963734D01*
X131253176Y-86950946D01*
X131237270Y-86936530D01*
X131222854Y-86920624D01*
X131210066Y-86903381D01*
X131199030Y-86884968D01*
X131189851Y-86865562D01*
X131182619Y-86845350D01*
X131177403Y-86824526D01*
X131174253Y-86803291D01*
X131173200Y-86781850D01*
X131173200Y-86344350D01*
X131174253Y-86322909D01*
X131177403Y-86301674D01*
X131182619Y-86280850D01*
X131189851Y-86260638D01*
X131199030Y-86241232D01*
X131210066Y-86222819D01*
X131222854Y-86205576D01*
X131237270Y-86189670D01*
X131253176Y-86175254D01*
X131270419Y-86162466D01*
X131288832Y-86151430D01*
X131308238Y-86142251D01*
X131328450Y-86135019D01*
X131349274Y-86129803D01*
X131370509Y-86126653D01*
X131391950Y-86125600D01*
X131904450Y-86125600D01*
X131925891Y-86126653D01*
G37*
G36*
X131925891Y-87701653D02*
G01*
X131947126Y-87704803D01*
X131967950Y-87710019D01*
X131988162Y-87717251D01*
X132007568Y-87726430D01*
X132025981Y-87737466D01*
X132043224Y-87750254D01*
X132059130Y-87764670D01*
X132073546Y-87780576D01*
X132086334Y-87797819D01*
X132097370Y-87816232D01*
X132106549Y-87835638D01*
X132113781Y-87855850D01*
X132118997Y-87876674D01*
X132122147Y-87897909D01*
X132123200Y-87919350D01*
X132123200Y-88356850D01*
X132122147Y-88378291D01*
X132118997Y-88399526D01*
X132113781Y-88420350D01*
X132106549Y-88440562D01*
X132097370Y-88459968D01*
X132086334Y-88478381D01*
X132073546Y-88495624D01*
X132059130Y-88511530D01*
X132043224Y-88525946D01*
X132025981Y-88538734D01*
X132007568Y-88549770D01*
X131988162Y-88558949D01*
X131967950Y-88566181D01*
X131947126Y-88571397D01*
X131925891Y-88574547D01*
X131904450Y-88575600D01*
X131391950Y-88575600D01*
X131370509Y-88574547D01*
X131349274Y-88571397D01*
X131328450Y-88566181D01*
X131308238Y-88558949D01*
X131288832Y-88549770D01*
X131270419Y-88538734D01*
X131253176Y-88525946D01*
X131237270Y-88511530D01*
X131222854Y-88495624D01*
X131210066Y-88478381D01*
X131199030Y-88459968D01*
X131189851Y-88440562D01*
X131182619Y-88420350D01*
X131177403Y-88399526D01*
X131174253Y-88378291D01*
X131173200Y-88356850D01*
X131173200Y-87919350D01*
X131174253Y-87897909D01*
X131177403Y-87876674D01*
X131182619Y-87855850D01*
X131189851Y-87835638D01*
X131199030Y-87816232D01*
X131210066Y-87797819D01*
X131222854Y-87780576D01*
X131237270Y-87764670D01*
X131253176Y-87750254D01*
X131270419Y-87737466D01*
X131288832Y-87726430D01*
X131308238Y-87717251D01*
X131328450Y-87710019D01*
X131349274Y-87704803D01*
X131370509Y-87701653D01*
X131391950Y-87700600D01*
X131904450Y-87700600D01*
X131925891Y-87701653D01*
G37*
G36*
X125157491Y-82126853D02*
G01*
X125178726Y-82130003D01*
X125199550Y-82135219D01*
X125219762Y-82142451D01*
X125239168Y-82151630D01*
X125257581Y-82162666D01*
X125274824Y-82175454D01*
X125290730Y-82189870D01*
X125305146Y-82205776D01*
X125317934Y-82223019D01*
X125328970Y-82241432D01*
X125338149Y-82260838D01*
X125345381Y-82281050D01*
X125350597Y-82301874D01*
X125353747Y-82323109D01*
X125354800Y-82344550D01*
X125354800Y-82857050D01*
X125353747Y-82878491D01*
X125350597Y-82899726D01*
X125345381Y-82920550D01*
X125338149Y-82940762D01*
X125328970Y-82960168D01*
X125317934Y-82978581D01*
X125305146Y-82995824D01*
X125290730Y-83011730D01*
X125274824Y-83026146D01*
X125257581Y-83038934D01*
X125239168Y-83049970D01*
X125219762Y-83059149D01*
X125199550Y-83066381D01*
X125178726Y-83071597D01*
X125157491Y-83074747D01*
X125136050Y-83075800D01*
X124698550Y-83075800D01*
X124677109Y-83074747D01*
X124655874Y-83071597D01*
X124635050Y-83066381D01*
X124614838Y-83059149D01*
X124595432Y-83049970D01*
X124577019Y-83038934D01*
X124559776Y-83026146D01*
X124543870Y-83011730D01*
X124529454Y-82995824D01*
X124516666Y-82978581D01*
X124505630Y-82960168D01*
X124496451Y-82940762D01*
X124489219Y-82920550D01*
X124484003Y-82899726D01*
X124480853Y-82878491D01*
X124479800Y-82857050D01*
X124479800Y-82344550D01*
X124480853Y-82323109D01*
X124484003Y-82301874D01*
X124489219Y-82281050D01*
X124496451Y-82260838D01*
X124505630Y-82241432D01*
X124516666Y-82223019D01*
X124529454Y-82205776D01*
X124543870Y-82189870D01*
X124559776Y-82175454D01*
X124577019Y-82162666D01*
X124595432Y-82151630D01*
X124614838Y-82142451D01*
X124635050Y-82135219D01*
X124655874Y-82130003D01*
X124677109Y-82126853D01*
X124698550Y-82125800D01*
X125136050Y-82125800D01*
X125157491Y-82126853D01*
G37*
G36*
X123582491Y-82126853D02*
G01*
X123603726Y-82130003D01*
X123624550Y-82135219D01*
X123644762Y-82142451D01*
X123664168Y-82151630D01*
X123682581Y-82162666D01*
X123699824Y-82175454D01*
X123715730Y-82189870D01*
X123730146Y-82205776D01*
X123742934Y-82223019D01*
X123753970Y-82241432D01*
X123763149Y-82260838D01*
X123770381Y-82281050D01*
X123775597Y-82301874D01*
X123778747Y-82323109D01*
X123779800Y-82344550D01*
X123779800Y-82857050D01*
X123778747Y-82878491D01*
X123775597Y-82899726D01*
X123770381Y-82920550D01*
X123763149Y-82940762D01*
X123753970Y-82960168D01*
X123742934Y-82978581D01*
X123730146Y-82995824D01*
X123715730Y-83011730D01*
X123699824Y-83026146D01*
X123682581Y-83038934D01*
X123664168Y-83049970D01*
X123644762Y-83059149D01*
X123624550Y-83066381D01*
X123603726Y-83071597D01*
X123582491Y-83074747D01*
X123561050Y-83075800D01*
X123123550Y-83075800D01*
X123102109Y-83074747D01*
X123080874Y-83071597D01*
X123060050Y-83066381D01*
X123039838Y-83059149D01*
X123020432Y-83049970D01*
X123002019Y-83038934D01*
X122984776Y-83026146D01*
X122968870Y-83011730D01*
X122954454Y-82995824D01*
X122941666Y-82978581D01*
X122930630Y-82960168D01*
X122921451Y-82940762D01*
X122914219Y-82920550D01*
X122909003Y-82899726D01*
X122905853Y-82878491D01*
X122904800Y-82857050D01*
X122904800Y-82344550D01*
X122905853Y-82323109D01*
X122909003Y-82301874D01*
X122914219Y-82281050D01*
X122921451Y-82260838D01*
X122930630Y-82241432D01*
X122941666Y-82223019D01*
X122954454Y-82205776D01*
X122968870Y-82189870D01*
X122984776Y-82175454D01*
X123002019Y-82162666D01*
X123020432Y-82151630D01*
X123039838Y-82142451D01*
X123060050Y-82135219D01*
X123080874Y-82130003D01*
X123102109Y-82126853D01*
X123123550Y-82125800D01*
X123561050Y-82125800D01*
X123582491Y-82126853D01*
G37*
G36*
X131925891Y-91257653D02*
G01*
X131947126Y-91260803D01*
X131967950Y-91266019D01*
X131988162Y-91273251D01*
X132007568Y-91282430D01*
X132025981Y-91293466D01*
X132043224Y-91306254D01*
X132059130Y-91320670D01*
X132073546Y-91336576D01*
X132086334Y-91353819D01*
X132097370Y-91372232D01*
X132106549Y-91391638D01*
X132113781Y-91411850D01*
X132118997Y-91432674D01*
X132122147Y-91453909D01*
X132123200Y-91475350D01*
X132123200Y-91912850D01*
X132122147Y-91934291D01*
X132118997Y-91955526D01*
X132113781Y-91976350D01*
X132106549Y-91996562D01*
X132097370Y-92015968D01*
X132086334Y-92034381D01*
X132073546Y-92051624D01*
X132059130Y-92067530D01*
X132043224Y-92081946D01*
X132025981Y-92094734D01*
X132007568Y-92105770D01*
X131988162Y-92114949D01*
X131967950Y-92122181D01*
X131947126Y-92127397D01*
X131925891Y-92130547D01*
X131904450Y-92131600D01*
X131391950Y-92131600D01*
X131370509Y-92130547D01*
X131349274Y-92127397D01*
X131328450Y-92122181D01*
X131308238Y-92114949D01*
X131288832Y-92105770D01*
X131270419Y-92094734D01*
X131253176Y-92081946D01*
X131237270Y-92067530D01*
X131222854Y-92051624D01*
X131210066Y-92034381D01*
X131199030Y-92015968D01*
X131189851Y-91996562D01*
X131182619Y-91976350D01*
X131177403Y-91955526D01*
X131174253Y-91934291D01*
X131173200Y-91912850D01*
X131173200Y-91475350D01*
X131174253Y-91453909D01*
X131177403Y-91432674D01*
X131182619Y-91411850D01*
X131189851Y-91391638D01*
X131199030Y-91372232D01*
X131210066Y-91353819D01*
X131222854Y-91336576D01*
X131237270Y-91320670D01*
X131253176Y-91306254D01*
X131270419Y-91293466D01*
X131288832Y-91282430D01*
X131308238Y-91273251D01*
X131328450Y-91266019D01*
X131349274Y-91260803D01*
X131370509Y-91257653D01*
X131391950Y-91256600D01*
X131904450Y-91256600D01*
X131925891Y-91257653D01*
G37*
G36*
X131925891Y-89682653D02*
G01*
X131947126Y-89685803D01*
X131967950Y-89691019D01*
X131988162Y-89698251D01*
X132007568Y-89707430D01*
X132025981Y-89718466D01*
X132043224Y-89731254D01*
X132059130Y-89745670D01*
X132073546Y-89761576D01*
X132086334Y-89778819D01*
X132097370Y-89797232D01*
X132106549Y-89816638D01*
X132113781Y-89836850D01*
X132118997Y-89857674D01*
X132122147Y-89878909D01*
X132123200Y-89900350D01*
X132123200Y-90337850D01*
X132122147Y-90359291D01*
X132118997Y-90380526D01*
X132113781Y-90401350D01*
X132106549Y-90421562D01*
X132097370Y-90440968D01*
X132086334Y-90459381D01*
X132073546Y-90476624D01*
X132059130Y-90492530D01*
X132043224Y-90506946D01*
X132025981Y-90519734D01*
X132007568Y-90530770D01*
X131988162Y-90539949D01*
X131967950Y-90547181D01*
X131947126Y-90552397D01*
X131925891Y-90555547D01*
X131904450Y-90556600D01*
X131391950Y-90556600D01*
X131370509Y-90555547D01*
X131349274Y-90552397D01*
X131328450Y-90547181D01*
X131308238Y-90539949D01*
X131288832Y-90530770D01*
X131270419Y-90519734D01*
X131253176Y-90506946D01*
X131237270Y-90492530D01*
X131222854Y-90476624D01*
X131210066Y-90459381D01*
X131199030Y-90440968D01*
X131189851Y-90421562D01*
X131182619Y-90401350D01*
X131177403Y-90380526D01*
X131174253Y-90359291D01*
X131173200Y-90337850D01*
X131173200Y-89900350D01*
X131174253Y-89878909D01*
X131177403Y-89857674D01*
X131182619Y-89836850D01*
X131189851Y-89816638D01*
X131199030Y-89797232D01*
X131210066Y-89778819D01*
X131222854Y-89761576D01*
X131237270Y-89745670D01*
X131253176Y-89731254D01*
X131270419Y-89718466D01*
X131288832Y-89707430D01*
X131308238Y-89698251D01*
X131328450Y-89691019D01*
X131349274Y-89685803D01*
X131370509Y-89682653D01*
X131391950Y-89681600D01*
X131904450Y-89681600D01*
X131925891Y-89682653D01*
G37*
G36*
X120343491Y-78837053D02*
G01*
X120364726Y-78840203D01*
X120385550Y-78845419D01*
X120405762Y-78852651D01*
X120425168Y-78861830D01*
X120443581Y-78872866D01*
X120460824Y-78885654D01*
X120476730Y-78900070D01*
X120491146Y-78915976D01*
X120503934Y-78933219D01*
X120514970Y-78951632D01*
X120524149Y-78971038D01*
X120531381Y-78991250D01*
X120536597Y-79012074D01*
X120539747Y-79033309D01*
X120540800Y-79054750D01*
X120540800Y-79492250D01*
X120539747Y-79513691D01*
X120536597Y-79534926D01*
X120531381Y-79555750D01*
X120524149Y-79575962D01*
X120514970Y-79595368D01*
X120503934Y-79613781D01*
X120491146Y-79631024D01*
X120476730Y-79646930D01*
X120460824Y-79661346D01*
X120443581Y-79674134D01*
X120425168Y-79685170D01*
X120405762Y-79694349D01*
X120385550Y-79701581D01*
X120364726Y-79706797D01*
X120343491Y-79709947D01*
X120322050Y-79711000D01*
X119809550Y-79711000D01*
X119788109Y-79709947D01*
X119766874Y-79706797D01*
X119746050Y-79701581D01*
X119725838Y-79694349D01*
X119706432Y-79685170D01*
X119688019Y-79674134D01*
X119670776Y-79661346D01*
X119654870Y-79646930D01*
X119640454Y-79631024D01*
X119627666Y-79613781D01*
X119616630Y-79595368D01*
X119607451Y-79575962D01*
X119600219Y-79555750D01*
X119595003Y-79534926D01*
X119591853Y-79513691D01*
X119590800Y-79492250D01*
X119590800Y-79054750D01*
X119591853Y-79033309D01*
X119595003Y-79012074D01*
X119600219Y-78991250D01*
X119607451Y-78971038D01*
X119616630Y-78951632D01*
X119627666Y-78933219D01*
X119640454Y-78915976D01*
X119654870Y-78900070D01*
X119670776Y-78885654D01*
X119688019Y-78872866D01*
X119706432Y-78861830D01*
X119725838Y-78852651D01*
X119746050Y-78845419D01*
X119766874Y-78840203D01*
X119788109Y-78837053D01*
X119809550Y-78836000D01*
X120322050Y-78836000D01*
X120343491Y-78837053D01*
G37*
G36*
X120343491Y-77262053D02*
G01*
X120364726Y-77265203D01*
X120385550Y-77270419D01*
X120405762Y-77277651D01*
X120425168Y-77286830D01*
X120443581Y-77297866D01*
X120460824Y-77310654D01*
X120476730Y-77325070D01*
X120491146Y-77340976D01*
X120503934Y-77358219D01*
X120514970Y-77376632D01*
X120524149Y-77396038D01*
X120531381Y-77416250D01*
X120536597Y-77437074D01*
X120539747Y-77458309D01*
X120540800Y-77479750D01*
X120540800Y-77917250D01*
X120539747Y-77938691D01*
X120536597Y-77959926D01*
X120531381Y-77980750D01*
X120524149Y-78000962D01*
X120514970Y-78020368D01*
X120503934Y-78038781D01*
X120491146Y-78056024D01*
X120476730Y-78071930D01*
X120460824Y-78086346D01*
X120443581Y-78099134D01*
X120425168Y-78110170D01*
X120405762Y-78119349D01*
X120385550Y-78126581D01*
X120364726Y-78131797D01*
X120343491Y-78134947D01*
X120322050Y-78136000D01*
X119809550Y-78136000D01*
X119788109Y-78134947D01*
X119766874Y-78131797D01*
X119746050Y-78126581D01*
X119725838Y-78119349D01*
X119706432Y-78110170D01*
X119688019Y-78099134D01*
X119670776Y-78086346D01*
X119654870Y-78071930D01*
X119640454Y-78056024D01*
X119627666Y-78038781D01*
X119616630Y-78020368D01*
X119607451Y-78000962D01*
X119600219Y-77980750D01*
X119595003Y-77959926D01*
X119591853Y-77938691D01*
X119590800Y-77917250D01*
X119590800Y-77479750D01*
X119591853Y-77458309D01*
X119595003Y-77437074D01*
X119600219Y-77416250D01*
X119607451Y-77396038D01*
X119616630Y-77376632D01*
X119627666Y-77358219D01*
X119640454Y-77340976D01*
X119654870Y-77325070D01*
X119670776Y-77310654D01*
X119688019Y-77297866D01*
X119706432Y-77286830D01*
X119725838Y-77277651D01*
X119746050Y-77270419D01*
X119766874Y-77265203D01*
X119788109Y-77262053D01*
X119809550Y-77261000D01*
X120322050Y-77261000D01*
X120343491Y-77262053D01*
G37*
G36*
X116699291Y-79434453D02*
G01*
X116720526Y-79437603D01*
X116741350Y-79442819D01*
X116761562Y-79450051D01*
X116780968Y-79459230D01*
X116799381Y-79470266D01*
X116816624Y-79483054D01*
X116832530Y-79497470D01*
X116846946Y-79513376D01*
X116859734Y-79530619D01*
X116870770Y-79549032D01*
X116879949Y-79568438D01*
X116887181Y-79588650D01*
X116892397Y-79609474D01*
X116895547Y-79630709D01*
X116896600Y-79652150D01*
X116896600Y-80164650D01*
X116895547Y-80186091D01*
X116892397Y-80207326D01*
X116887181Y-80228150D01*
X116879949Y-80248362D01*
X116870770Y-80267768D01*
X116859734Y-80286181D01*
X116846946Y-80303424D01*
X116832530Y-80319330D01*
X116816624Y-80333746D01*
X116799381Y-80346534D01*
X116780968Y-80357570D01*
X116761562Y-80366749D01*
X116741350Y-80373981D01*
X116720526Y-80379197D01*
X116699291Y-80382347D01*
X116677850Y-80383400D01*
X116240350Y-80383400D01*
X116218909Y-80382347D01*
X116197674Y-80379197D01*
X116176850Y-80373981D01*
X116156638Y-80366749D01*
X116137232Y-80357570D01*
X116118819Y-80346534D01*
X116101576Y-80333746D01*
X116085670Y-80319330D01*
X116071254Y-80303424D01*
X116058466Y-80286181D01*
X116047430Y-80267768D01*
X116038251Y-80248362D01*
X116031019Y-80228150D01*
X116025803Y-80207326D01*
X116022653Y-80186091D01*
X116021600Y-80164650D01*
X116021600Y-79652150D01*
X116022653Y-79630709D01*
X116025803Y-79609474D01*
X116031019Y-79588650D01*
X116038251Y-79568438D01*
X116047430Y-79549032D01*
X116058466Y-79530619D01*
X116071254Y-79513376D01*
X116085670Y-79497470D01*
X116101576Y-79483054D01*
X116118819Y-79470266D01*
X116137232Y-79459230D01*
X116156638Y-79450051D01*
X116176850Y-79442819D01*
X116197674Y-79437603D01*
X116218909Y-79434453D01*
X116240350Y-79433400D01*
X116677850Y-79433400D01*
X116699291Y-79434453D01*
G37*
G36*
X115124291Y-79434453D02*
G01*
X115145526Y-79437603D01*
X115166350Y-79442819D01*
X115186562Y-79450051D01*
X115205968Y-79459230D01*
X115224381Y-79470266D01*
X115241624Y-79483054D01*
X115257530Y-79497470D01*
X115271946Y-79513376D01*
X115284734Y-79530619D01*
X115295770Y-79549032D01*
X115304949Y-79568438D01*
X115312181Y-79588650D01*
X115317397Y-79609474D01*
X115320547Y-79630709D01*
X115321600Y-79652150D01*
X115321600Y-80164650D01*
X115320547Y-80186091D01*
X115317397Y-80207326D01*
X115312181Y-80228150D01*
X115304949Y-80248362D01*
X115295770Y-80267768D01*
X115284734Y-80286181D01*
X115271946Y-80303424D01*
X115257530Y-80319330D01*
X115241624Y-80333746D01*
X115224381Y-80346534D01*
X115205968Y-80357570D01*
X115186562Y-80366749D01*
X115166350Y-80373981D01*
X115145526Y-80379197D01*
X115124291Y-80382347D01*
X115102850Y-80383400D01*
X114665350Y-80383400D01*
X114643909Y-80382347D01*
X114622674Y-80379197D01*
X114601850Y-80373981D01*
X114581638Y-80366749D01*
X114562232Y-80357570D01*
X114543819Y-80346534D01*
X114526576Y-80333746D01*
X114510670Y-80319330D01*
X114496254Y-80303424D01*
X114483466Y-80286181D01*
X114472430Y-80267768D01*
X114463251Y-80248362D01*
X114456019Y-80228150D01*
X114450803Y-80207326D01*
X114447653Y-80186091D01*
X114446600Y-80164650D01*
X114446600Y-79652150D01*
X114447653Y-79630709D01*
X114450803Y-79609474D01*
X114456019Y-79588650D01*
X114463251Y-79568438D01*
X114472430Y-79549032D01*
X114483466Y-79530619D01*
X114496254Y-79513376D01*
X114510670Y-79497470D01*
X114526576Y-79483054D01*
X114543819Y-79470266D01*
X114562232Y-79459230D01*
X114581638Y-79450051D01*
X114601850Y-79442819D01*
X114622674Y-79437603D01*
X114643909Y-79434453D01*
X114665350Y-79433400D01*
X115102850Y-79433400D01*
X115124291Y-79434453D01*
G37*
G36*
X126795091Y-99411053D02*
G01*
X126816326Y-99414203D01*
X126837150Y-99419419D01*
X126857362Y-99426651D01*
X126876768Y-99435830D01*
X126895181Y-99446866D01*
X126912424Y-99459654D01*
X126928330Y-99474070D01*
X126942746Y-99489976D01*
X126955534Y-99507219D01*
X126966570Y-99525632D01*
X126975749Y-99545038D01*
X126982981Y-99565250D01*
X126988197Y-99586074D01*
X126991347Y-99607309D01*
X126992400Y-99628750D01*
X126992400Y-100066250D01*
X126991347Y-100087691D01*
X126988197Y-100108926D01*
X126982981Y-100129750D01*
X126975749Y-100149962D01*
X126966570Y-100169368D01*
X126955534Y-100187781D01*
X126942746Y-100205024D01*
X126928330Y-100220930D01*
X126912424Y-100235346D01*
X126895181Y-100248134D01*
X126876768Y-100259170D01*
X126857362Y-100268349D01*
X126837150Y-100275581D01*
X126816326Y-100280797D01*
X126795091Y-100283947D01*
X126773650Y-100285000D01*
X126261150Y-100285000D01*
X126239709Y-100283947D01*
X126218474Y-100280797D01*
X126197650Y-100275581D01*
X126177438Y-100268349D01*
X126158032Y-100259170D01*
X126139619Y-100248134D01*
X126122376Y-100235346D01*
X126106470Y-100220930D01*
X126092054Y-100205024D01*
X126079266Y-100187781D01*
X126068230Y-100169368D01*
X126059051Y-100149962D01*
X126051819Y-100129750D01*
X126046603Y-100108926D01*
X126043453Y-100087691D01*
X126042400Y-100066250D01*
X126042400Y-99628750D01*
X126043453Y-99607309D01*
X126046603Y-99586074D01*
X126051819Y-99565250D01*
X126059051Y-99545038D01*
X126068230Y-99525632D01*
X126079266Y-99507219D01*
X126092054Y-99489976D01*
X126106470Y-99474070D01*
X126122376Y-99459654D01*
X126139619Y-99446866D01*
X126158032Y-99435830D01*
X126177438Y-99426651D01*
X126197650Y-99419419D01*
X126218474Y-99414203D01*
X126239709Y-99411053D01*
X126261150Y-99410000D01*
X126773650Y-99410000D01*
X126795091Y-99411053D01*
G37*
G36*
X126795091Y-97836053D02*
G01*
X126816326Y-97839203D01*
X126837150Y-97844419D01*
X126857362Y-97851651D01*
X126876768Y-97860830D01*
X126895181Y-97871866D01*
X126912424Y-97884654D01*
X126928330Y-97899070D01*
X126942746Y-97914976D01*
X126955534Y-97932219D01*
X126966570Y-97950632D01*
X126975749Y-97970038D01*
X126982981Y-97990250D01*
X126988197Y-98011074D01*
X126991347Y-98032309D01*
X126992400Y-98053750D01*
X126992400Y-98491250D01*
X126991347Y-98512691D01*
X126988197Y-98533926D01*
X126982981Y-98554750D01*
X126975749Y-98574962D01*
X126966570Y-98594368D01*
X126955534Y-98612781D01*
X126942746Y-98630024D01*
X126928330Y-98645930D01*
X126912424Y-98660346D01*
X126895181Y-98673134D01*
X126876768Y-98684170D01*
X126857362Y-98693349D01*
X126837150Y-98700581D01*
X126816326Y-98705797D01*
X126795091Y-98708947D01*
X126773650Y-98710000D01*
X126261150Y-98710000D01*
X126239709Y-98708947D01*
X126218474Y-98705797D01*
X126197650Y-98700581D01*
X126177438Y-98693349D01*
X126158032Y-98684170D01*
X126139619Y-98673134D01*
X126122376Y-98660346D01*
X126106470Y-98645930D01*
X126092054Y-98630024D01*
X126079266Y-98612781D01*
X126068230Y-98594368D01*
X126059051Y-98574962D01*
X126051819Y-98554750D01*
X126046603Y-98533926D01*
X126043453Y-98512691D01*
X126042400Y-98491250D01*
X126042400Y-98053750D01*
X126043453Y-98032309D01*
X126046603Y-98011074D01*
X126051819Y-97990250D01*
X126059051Y-97970038D01*
X126068230Y-97950632D01*
X126079266Y-97932219D01*
X126092054Y-97914976D01*
X126106470Y-97899070D01*
X126122376Y-97884654D01*
X126139619Y-97871866D01*
X126158032Y-97860830D01*
X126177438Y-97851651D01*
X126197650Y-97844419D01*
X126218474Y-97839203D01*
X126239709Y-97836053D01*
X126261150Y-97835000D01*
X126773650Y-97835000D01*
X126795091Y-97836053D01*
G37*
G36*
X128459291Y-100592653D02*
G01*
X128480526Y-100595803D01*
X128501350Y-100601019D01*
X128521562Y-100608251D01*
X128540968Y-100617430D01*
X128559381Y-100628466D01*
X128576624Y-100641254D01*
X128592530Y-100655670D01*
X128606946Y-100671576D01*
X128619734Y-100688819D01*
X128630770Y-100707232D01*
X128639949Y-100726638D01*
X128647181Y-100746850D01*
X128652397Y-100767674D01*
X128655547Y-100788909D01*
X128656600Y-100810350D01*
X128656600Y-101322850D01*
X128655547Y-101344291D01*
X128652397Y-101365526D01*
X128647181Y-101386350D01*
X128639949Y-101406562D01*
X128630770Y-101425968D01*
X128619734Y-101444381D01*
X128606946Y-101461624D01*
X128592530Y-101477530D01*
X128576624Y-101491946D01*
X128559381Y-101504734D01*
X128540968Y-101515770D01*
X128521562Y-101524949D01*
X128501350Y-101532181D01*
X128480526Y-101537397D01*
X128459291Y-101540547D01*
X128437850Y-101541600D01*
X128000350Y-101541600D01*
X127978909Y-101540547D01*
X127957674Y-101537397D01*
X127936850Y-101532181D01*
X127916638Y-101524949D01*
X127897232Y-101515770D01*
X127878819Y-101504734D01*
X127861576Y-101491946D01*
X127845670Y-101477530D01*
X127831254Y-101461624D01*
X127818466Y-101444381D01*
X127807430Y-101425968D01*
X127798251Y-101406562D01*
X127791019Y-101386350D01*
X127785803Y-101365526D01*
X127782653Y-101344291D01*
X127781600Y-101322850D01*
X127781600Y-100810350D01*
X127782653Y-100788909D01*
X127785803Y-100767674D01*
X127791019Y-100746850D01*
X127798251Y-100726638D01*
X127807430Y-100707232D01*
X127818466Y-100688819D01*
X127831254Y-100671576D01*
X127845670Y-100655670D01*
X127861576Y-100641254D01*
X127878819Y-100628466D01*
X127897232Y-100617430D01*
X127916638Y-100608251D01*
X127936850Y-100601019D01*
X127957674Y-100595803D01*
X127978909Y-100592653D01*
X128000350Y-100591600D01*
X128437850Y-100591600D01*
X128459291Y-100592653D01*
G37*
G36*
X130034291Y-100592653D02*
G01*
X130055526Y-100595803D01*
X130076350Y-100601019D01*
X130096562Y-100608251D01*
X130115968Y-100617430D01*
X130134381Y-100628466D01*
X130151624Y-100641254D01*
X130167530Y-100655670D01*
X130181946Y-100671576D01*
X130194734Y-100688819D01*
X130205770Y-100707232D01*
X130214949Y-100726638D01*
X130222181Y-100746850D01*
X130227397Y-100767674D01*
X130230547Y-100788909D01*
X130231600Y-100810350D01*
X130231600Y-101322850D01*
X130230547Y-101344291D01*
X130227397Y-101365526D01*
X130222181Y-101386350D01*
X130214949Y-101406562D01*
X130205770Y-101425968D01*
X130194734Y-101444381D01*
X130181946Y-101461624D01*
X130167530Y-101477530D01*
X130151624Y-101491946D01*
X130134381Y-101504734D01*
X130115968Y-101515770D01*
X130096562Y-101524949D01*
X130076350Y-101532181D01*
X130055526Y-101537397D01*
X130034291Y-101540547D01*
X130012850Y-101541600D01*
X129575350Y-101541600D01*
X129553909Y-101540547D01*
X129532674Y-101537397D01*
X129511850Y-101532181D01*
X129491638Y-101524949D01*
X129472232Y-101515770D01*
X129453819Y-101504734D01*
X129436576Y-101491946D01*
X129420670Y-101477530D01*
X129406254Y-101461624D01*
X129393466Y-101444381D01*
X129382430Y-101425968D01*
X129373251Y-101406562D01*
X129366019Y-101386350D01*
X129360803Y-101365526D01*
X129357653Y-101344291D01*
X129356600Y-101322850D01*
X129356600Y-100810350D01*
X129357653Y-100788909D01*
X129360803Y-100767674D01*
X129366019Y-100746850D01*
X129373251Y-100726638D01*
X129382430Y-100707232D01*
X129393466Y-100688819D01*
X129406254Y-100671576D01*
X129420670Y-100655670D01*
X129436576Y-100641254D01*
X129453819Y-100628466D01*
X129472232Y-100617430D01*
X129491638Y-100608251D01*
X129511850Y-100601019D01*
X129532674Y-100595803D01*
X129553909Y-100592653D01*
X129575350Y-100591600D01*
X130012850Y-100591600D01*
X130034291Y-100592653D01*
G37*
D18*
X129582800Y-99476400D03*
X129082800Y-98186400D03*
X128582800Y-99476400D03*
D19*
X123367800Y-78793800D03*
X123367800Y-75993800D03*
D12*
G36*
X159053091Y-100325153D02*
G01*
X159074326Y-100328303D01*
X159095150Y-100333519D01*
X159115362Y-100340751D01*
X159134768Y-100349930D01*
X159153181Y-100360966D01*
X159170424Y-100373754D01*
X159186330Y-100388170D01*
X159200746Y-100404076D01*
X159213534Y-100421319D01*
X159224570Y-100439732D01*
X159233749Y-100459138D01*
X159240981Y-100479350D01*
X159246197Y-100500174D01*
X159249347Y-100521409D01*
X159250400Y-100542850D01*
X159250400Y-100980350D01*
X159249347Y-101001791D01*
X159246197Y-101023026D01*
X159240981Y-101043850D01*
X159233749Y-101064062D01*
X159224570Y-101083468D01*
X159213534Y-101101881D01*
X159200746Y-101119124D01*
X159186330Y-101135030D01*
X159170424Y-101149446D01*
X159153181Y-101162234D01*
X159134768Y-101173270D01*
X159115362Y-101182449D01*
X159095150Y-101189681D01*
X159074326Y-101194897D01*
X159053091Y-101198047D01*
X159031650Y-101199100D01*
X158519150Y-101199100D01*
X158497709Y-101198047D01*
X158476474Y-101194897D01*
X158455650Y-101189681D01*
X158435438Y-101182449D01*
X158416032Y-101173270D01*
X158397619Y-101162234D01*
X158380376Y-101149446D01*
X158364470Y-101135030D01*
X158350054Y-101119124D01*
X158337266Y-101101881D01*
X158326230Y-101083468D01*
X158317051Y-101064062D01*
X158309819Y-101043850D01*
X158304603Y-101023026D01*
X158301453Y-101001791D01*
X158300400Y-100980350D01*
X158300400Y-100542850D01*
X158301453Y-100521409D01*
X158304603Y-100500174D01*
X158309819Y-100479350D01*
X158317051Y-100459138D01*
X158326230Y-100439732D01*
X158337266Y-100421319D01*
X158350054Y-100404076D01*
X158364470Y-100388170D01*
X158380376Y-100373754D01*
X158397619Y-100360966D01*
X158416032Y-100349930D01*
X158435438Y-100340751D01*
X158455650Y-100333519D01*
X158476474Y-100328303D01*
X158497709Y-100325153D01*
X158519150Y-100324100D01*
X159031650Y-100324100D01*
X159053091Y-100325153D01*
G37*
G36*
X159053091Y-101900153D02*
G01*
X159074326Y-101903303D01*
X159095150Y-101908519D01*
X159115362Y-101915751D01*
X159134768Y-101924930D01*
X159153181Y-101935966D01*
X159170424Y-101948754D01*
X159186330Y-101963170D01*
X159200746Y-101979076D01*
X159213534Y-101996319D01*
X159224570Y-102014732D01*
X159233749Y-102034138D01*
X159240981Y-102054350D01*
X159246197Y-102075174D01*
X159249347Y-102096409D01*
X159250400Y-102117850D01*
X159250400Y-102555350D01*
X159249347Y-102576791D01*
X159246197Y-102598026D01*
X159240981Y-102618850D01*
X159233749Y-102639062D01*
X159224570Y-102658468D01*
X159213534Y-102676881D01*
X159200746Y-102694124D01*
X159186330Y-102710030D01*
X159170424Y-102724446D01*
X159153181Y-102737234D01*
X159134768Y-102748270D01*
X159115362Y-102757449D01*
X159095150Y-102764681D01*
X159074326Y-102769897D01*
X159053091Y-102773047D01*
X159031650Y-102774100D01*
X158519150Y-102774100D01*
X158497709Y-102773047D01*
X158476474Y-102769897D01*
X158455650Y-102764681D01*
X158435438Y-102757449D01*
X158416032Y-102748270D01*
X158397619Y-102737234D01*
X158380376Y-102724446D01*
X158364470Y-102710030D01*
X158350054Y-102694124D01*
X158337266Y-102676881D01*
X158326230Y-102658468D01*
X158317051Y-102639062D01*
X158309819Y-102618850D01*
X158304603Y-102598026D01*
X158301453Y-102576791D01*
X158300400Y-102555350D01*
X158300400Y-102117850D01*
X158301453Y-102096409D01*
X158304603Y-102075174D01*
X158309819Y-102054350D01*
X158317051Y-102034138D01*
X158326230Y-102014732D01*
X158337266Y-101996319D01*
X158350054Y-101979076D01*
X158364470Y-101963170D01*
X158380376Y-101948754D01*
X158397619Y-101935966D01*
X158416032Y-101924930D01*
X158435438Y-101915751D01*
X158455650Y-101908519D01*
X158476474Y-101903303D01*
X158497709Y-101900153D01*
X158519150Y-101899100D01*
X159031650Y-101899100D01*
X159053091Y-101900153D01*
G37*
G36*
X124509091Y-109977453D02*
G01*
X124530326Y-109980603D01*
X124551150Y-109985819D01*
X124571362Y-109993051D01*
X124590768Y-110002230D01*
X124609181Y-110013266D01*
X124626424Y-110026054D01*
X124642330Y-110040470D01*
X124656746Y-110056376D01*
X124669534Y-110073619D01*
X124680570Y-110092032D01*
X124689749Y-110111438D01*
X124696981Y-110131650D01*
X124702197Y-110152474D01*
X124705347Y-110173709D01*
X124706400Y-110195150D01*
X124706400Y-110632650D01*
X124705347Y-110654091D01*
X124702197Y-110675326D01*
X124696981Y-110696150D01*
X124689749Y-110716362D01*
X124680570Y-110735768D01*
X124669534Y-110754181D01*
X124656746Y-110771424D01*
X124642330Y-110787330D01*
X124626424Y-110801746D01*
X124609181Y-110814534D01*
X124590768Y-110825570D01*
X124571362Y-110834749D01*
X124551150Y-110841981D01*
X124530326Y-110847197D01*
X124509091Y-110850347D01*
X124487650Y-110851400D01*
X123975150Y-110851400D01*
X123953709Y-110850347D01*
X123932474Y-110847197D01*
X123911650Y-110841981D01*
X123891438Y-110834749D01*
X123872032Y-110825570D01*
X123853619Y-110814534D01*
X123836376Y-110801746D01*
X123820470Y-110787330D01*
X123806054Y-110771424D01*
X123793266Y-110754181D01*
X123782230Y-110735768D01*
X123773051Y-110716362D01*
X123765819Y-110696150D01*
X123760603Y-110675326D01*
X123757453Y-110654091D01*
X123756400Y-110632650D01*
X123756400Y-110195150D01*
X123757453Y-110173709D01*
X123760603Y-110152474D01*
X123765819Y-110131650D01*
X123773051Y-110111438D01*
X123782230Y-110092032D01*
X123793266Y-110073619D01*
X123806054Y-110056376D01*
X123820470Y-110040470D01*
X123836376Y-110026054D01*
X123853619Y-110013266D01*
X123872032Y-110002230D01*
X123891438Y-109993051D01*
X123911650Y-109985819D01*
X123932474Y-109980603D01*
X123953709Y-109977453D01*
X123975150Y-109976400D01*
X124487650Y-109976400D01*
X124509091Y-109977453D01*
G37*
G36*
X124509091Y-108402453D02*
G01*
X124530326Y-108405603D01*
X124551150Y-108410819D01*
X124571362Y-108418051D01*
X124590768Y-108427230D01*
X124609181Y-108438266D01*
X124626424Y-108451054D01*
X124642330Y-108465470D01*
X124656746Y-108481376D01*
X124669534Y-108498619D01*
X124680570Y-108517032D01*
X124689749Y-108536438D01*
X124696981Y-108556650D01*
X124702197Y-108577474D01*
X124705347Y-108598709D01*
X124706400Y-108620150D01*
X124706400Y-109057650D01*
X124705347Y-109079091D01*
X124702197Y-109100326D01*
X124696981Y-109121150D01*
X124689749Y-109141362D01*
X124680570Y-109160768D01*
X124669534Y-109179181D01*
X124656746Y-109196424D01*
X124642330Y-109212330D01*
X124626424Y-109226746D01*
X124609181Y-109239534D01*
X124590768Y-109250570D01*
X124571362Y-109259749D01*
X124551150Y-109266981D01*
X124530326Y-109272197D01*
X124509091Y-109275347D01*
X124487650Y-109276400D01*
X123975150Y-109276400D01*
X123953709Y-109275347D01*
X123932474Y-109272197D01*
X123911650Y-109266981D01*
X123891438Y-109259749D01*
X123872032Y-109250570D01*
X123853619Y-109239534D01*
X123836376Y-109226746D01*
X123820470Y-109212330D01*
X123806054Y-109196424D01*
X123793266Y-109179181D01*
X123782230Y-109160768D01*
X123773051Y-109141362D01*
X123765819Y-109121150D01*
X123760603Y-109100326D01*
X123757453Y-109079091D01*
X123756400Y-109057650D01*
X123756400Y-108620150D01*
X123757453Y-108598709D01*
X123760603Y-108577474D01*
X123765819Y-108556650D01*
X123773051Y-108536438D01*
X123782230Y-108517032D01*
X123793266Y-108498619D01*
X123806054Y-108481376D01*
X123820470Y-108465470D01*
X123836376Y-108451054D01*
X123853619Y-108438266D01*
X123872032Y-108427230D01*
X123891438Y-108418051D01*
X123911650Y-108410819D01*
X123932474Y-108405603D01*
X123953709Y-108402453D01*
X123975150Y-108401400D01*
X124487650Y-108401400D01*
X124509091Y-108402453D01*
G37*
G36*
X122756491Y-109977453D02*
G01*
X122777726Y-109980603D01*
X122798550Y-109985819D01*
X122818762Y-109993051D01*
X122838168Y-110002230D01*
X122856581Y-110013266D01*
X122873824Y-110026054D01*
X122889730Y-110040470D01*
X122904146Y-110056376D01*
X122916934Y-110073619D01*
X122927970Y-110092032D01*
X122937149Y-110111438D01*
X122944381Y-110131650D01*
X122949597Y-110152474D01*
X122952747Y-110173709D01*
X122953800Y-110195150D01*
X122953800Y-110632650D01*
X122952747Y-110654091D01*
X122949597Y-110675326D01*
X122944381Y-110696150D01*
X122937149Y-110716362D01*
X122927970Y-110735768D01*
X122916934Y-110754181D01*
X122904146Y-110771424D01*
X122889730Y-110787330D01*
X122873824Y-110801746D01*
X122856581Y-110814534D01*
X122838168Y-110825570D01*
X122818762Y-110834749D01*
X122798550Y-110841981D01*
X122777726Y-110847197D01*
X122756491Y-110850347D01*
X122735050Y-110851400D01*
X122222550Y-110851400D01*
X122201109Y-110850347D01*
X122179874Y-110847197D01*
X122159050Y-110841981D01*
X122138838Y-110834749D01*
X122119432Y-110825570D01*
X122101019Y-110814534D01*
X122083776Y-110801746D01*
X122067870Y-110787330D01*
X122053454Y-110771424D01*
X122040666Y-110754181D01*
X122029630Y-110735768D01*
X122020451Y-110716362D01*
X122013219Y-110696150D01*
X122008003Y-110675326D01*
X122004853Y-110654091D01*
X122003800Y-110632650D01*
X122003800Y-110195150D01*
X122004853Y-110173709D01*
X122008003Y-110152474D01*
X122013219Y-110131650D01*
X122020451Y-110111438D01*
X122029630Y-110092032D01*
X122040666Y-110073619D01*
X122053454Y-110056376D01*
X122067870Y-110040470D01*
X122083776Y-110026054D01*
X122101019Y-110013266D01*
X122119432Y-110002230D01*
X122138838Y-109993051D01*
X122159050Y-109985819D01*
X122179874Y-109980603D01*
X122201109Y-109977453D01*
X122222550Y-109976400D01*
X122735050Y-109976400D01*
X122756491Y-109977453D01*
G37*
G36*
X122756491Y-108402453D02*
G01*
X122777726Y-108405603D01*
X122798550Y-108410819D01*
X122818762Y-108418051D01*
X122838168Y-108427230D01*
X122856581Y-108438266D01*
X122873824Y-108451054D01*
X122889730Y-108465470D01*
X122904146Y-108481376D01*
X122916934Y-108498619D01*
X122927970Y-108517032D01*
X122937149Y-108536438D01*
X122944381Y-108556650D01*
X122949597Y-108577474D01*
X122952747Y-108598709D01*
X122953800Y-108620150D01*
X122953800Y-109057650D01*
X122952747Y-109079091D01*
X122949597Y-109100326D01*
X122944381Y-109121150D01*
X122937149Y-109141362D01*
X122927970Y-109160768D01*
X122916934Y-109179181D01*
X122904146Y-109196424D01*
X122889730Y-109212330D01*
X122873824Y-109226746D01*
X122856581Y-109239534D01*
X122838168Y-109250570D01*
X122818762Y-109259749D01*
X122798550Y-109266981D01*
X122777726Y-109272197D01*
X122756491Y-109275347D01*
X122735050Y-109276400D01*
X122222550Y-109276400D01*
X122201109Y-109275347D01*
X122179874Y-109272197D01*
X122159050Y-109266981D01*
X122138838Y-109259749D01*
X122119432Y-109250570D01*
X122101019Y-109239534D01*
X122083776Y-109226746D01*
X122067870Y-109212330D01*
X122053454Y-109196424D01*
X122040666Y-109179181D01*
X122029630Y-109160768D01*
X122020451Y-109141362D01*
X122013219Y-109121150D01*
X122008003Y-109100326D01*
X122004853Y-109079091D01*
X122003800Y-109057650D01*
X122003800Y-108620150D01*
X122004853Y-108598709D01*
X122008003Y-108577474D01*
X122013219Y-108556650D01*
X122020451Y-108536438D01*
X122029630Y-108517032D01*
X122040666Y-108498619D01*
X122053454Y-108481376D01*
X122067870Y-108465470D01*
X122083776Y-108451054D01*
X122101019Y-108438266D01*
X122119432Y-108427230D01*
X122138838Y-108418051D01*
X122159050Y-108410819D01*
X122179874Y-108405603D01*
X122201109Y-108402453D01*
X122222550Y-108401400D01*
X122735050Y-108401400D01*
X122756491Y-108402453D01*
G37*
G36*
X129588342Y-78454574D02*
G01*
X129612003Y-78458084D01*
X129635207Y-78463896D01*
X129657729Y-78471954D01*
X129679353Y-78482182D01*
X129699870Y-78494479D01*
X129719083Y-78508729D01*
X129736807Y-78524793D01*
X129752871Y-78542517D01*
X129767121Y-78561730D01*
X129779418Y-78582247D01*
X129789646Y-78603871D01*
X129797704Y-78626393D01*
X129803516Y-78649597D01*
X129807026Y-78673258D01*
X129808200Y-78697150D01*
X129808200Y-79184650D01*
X129807026Y-79208542D01*
X129803516Y-79232203D01*
X129797704Y-79255407D01*
X129789646Y-79277929D01*
X129779418Y-79299553D01*
X129767121Y-79320070D01*
X129752871Y-79339283D01*
X129736807Y-79357007D01*
X129719083Y-79373071D01*
X129699870Y-79387321D01*
X129679353Y-79399618D01*
X129657729Y-79409846D01*
X129635207Y-79417904D01*
X129612003Y-79423716D01*
X129588342Y-79427226D01*
X129564450Y-79428400D01*
X128651950Y-79428400D01*
X128628058Y-79427226D01*
X128604397Y-79423716D01*
X128581193Y-79417904D01*
X128558671Y-79409846D01*
X128537047Y-79399618D01*
X128516530Y-79387321D01*
X128497317Y-79373071D01*
X128479593Y-79357007D01*
X128463529Y-79339283D01*
X128449279Y-79320070D01*
X128436982Y-79299553D01*
X128426754Y-79277929D01*
X128418696Y-79255407D01*
X128412884Y-79232203D01*
X128409374Y-79208542D01*
X128408200Y-79184650D01*
X128408200Y-78697150D01*
X128409374Y-78673258D01*
X128412884Y-78649597D01*
X128418696Y-78626393D01*
X128426754Y-78603871D01*
X128436982Y-78582247D01*
X128449279Y-78561730D01*
X128463529Y-78542517D01*
X128479593Y-78524793D01*
X128497317Y-78508729D01*
X128516530Y-78494479D01*
X128537047Y-78482182D01*
X128558671Y-78471954D01*
X128581193Y-78463896D01*
X128604397Y-78458084D01*
X128628058Y-78454574D01*
X128651950Y-78453400D01*
X129564450Y-78453400D01*
X129588342Y-78454574D01*
G37*
G36*
X129588342Y-76579574D02*
G01*
X129612003Y-76583084D01*
X129635207Y-76588896D01*
X129657729Y-76596954D01*
X129679353Y-76607182D01*
X129699870Y-76619479D01*
X129719083Y-76633729D01*
X129736807Y-76649793D01*
X129752871Y-76667517D01*
X129767121Y-76686730D01*
X129779418Y-76707247D01*
X129789646Y-76728871D01*
X129797704Y-76751393D01*
X129803516Y-76774597D01*
X129807026Y-76798258D01*
X129808200Y-76822150D01*
X129808200Y-77309650D01*
X129807026Y-77333542D01*
X129803516Y-77357203D01*
X129797704Y-77380407D01*
X129789646Y-77402929D01*
X129779418Y-77424553D01*
X129767121Y-77445070D01*
X129752871Y-77464283D01*
X129736807Y-77482007D01*
X129719083Y-77498071D01*
X129699870Y-77512321D01*
X129679353Y-77524618D01*
X129657729Y-77534846D01*
X129635207Y-77542904D01*
X129612003Y-77548716D01*
X129588342Y-77552226D01*
X129564450Y-77553400D01*
X128651950Y-77553400D01*
X128628058Y-77552226D01*
X128604397Y-77548716D01*
X128581193Y-77542904D01*
X128558671Y-77534846D01*
X128537047Y-77524618D01*
X128516530Y-77512321D01*
X128497317Y-77498071D01*
X128479593Y-77482007D01*
X128463529Y-77464283D01*
X128449279Y-77445070D01*
X128436982Y-77424553D01*
X128426754Y-77402929D01*
X128418696Y-77380407D01*
X128412884Y-77357203D01*
X128409374Y-77333542D01*
X128408200Y-77309650D01*
X128408200Y-76822150D01*
X128409374Y-76798258D01*
X128412884Y-76774597D01*
X128418696Y-76751393D01*
X128426754Y-76728871D01*
X128436982Y-76707247D01*
X128449279Y-76686730D01*
X128463529Y-76667517D01*
X128479593Y-76649793D01*
X128497317Y-76633729D01*
X128516530Y-76619479D01*
X128537047Y-76607182D01*
X128558671Y-76596954D01*
X128581193Y-76588896D01*
X128604397Y-76583084D01*
X128628058Y-76579574D01*
X128651950Y-76578400D01*
X129564450Y-76578400D01*
X129588342Y-76579574D01*
G37*
G36*
X127505542Y-78454574D02*
G01*
X127529203Y-78458084D01*
X127552407Y-78463896D01*
X127574929Y-78471954D01*
X127596553Y-78482182D01*
X127617070Y-78494479D01*
X127636283Y-78508729D01*
X127654007Y-78524793D01*
X127670071Y-78542517D01*
X127684321Y-78561730D01*
X127696618Y-78582247D01*
X127706846Y-78603871D01*
X127714904Y-78626393D01*
X127720716Y-78649597D01*
X127724226Y-78673258D01*
X127725400Y-78697150D01*
X127725400Y-79184650D01*
X127724226Y-79208542D01*
X127720716Y-79232203D01*
X127714904Y-79255407D01*
X127706846Y-79277929D01*
X127696618Y-79299553D01*
X127684321Y-79320070D01*
X127670071Y-79339283D01*
X127654007Y-79357007D01*
X127636283Y-79373071D01*
X127617070Y-79387321D01*
X127596553Y-79399618D01*
X127574929Y-79409846D01*
X127552407Y-79417904D01*
X127529203Y-79423716D01*
X127505542Y-79427226D01*
X127481650Y-79428400D01*
X126569150Y-79428400D01*
X126545258Y-79427226D01*
X126521597Y-79423716D01*
X126498393Y-79417904D01*
X126475871Y-79409846D01*
X126454247Y-79399618D01*
X126433730Y-79387321D01*
X126414517Y-79373071D01*
X126396793Y-79357007D01*
X126380729Y-79339283D01*
X126366479Y-79320070D01*
X126354182Y-79299553D01*
X126343954Y-79277929D01*
X126335896Y-79255407D01*
X126330084Y-79232203D01*
X126326574Y-79208542D01*
X126325400Y-79184650D01*
X126325400Y-78697150D01*
X126326574Y-78673258D01*
X126330084Y-78649597D01*
X126335896Y-78626393D01*
X126343954Y-78603871D01*
X126354182Y-78582247D01*
X126366479Y-78561730D01*
X126380729Y-78542517D01*
X126396793Y-78524793D01*
X126414517Y-78508729D01*
X126433730Y-78494479D01*
X126454247Y-78482182D01*
X126475871Y-78471954D01*
X126498393Y-78463896D01*
X126521597Y-78458084D01*
X126545258Y-78454574D01*
X126569150Y-78453400D01*
X127481650Y-78453400D01*
X127505542Y-78454574D01*
G37*
G36*
X127505542Y-76579574D02*
G01*
X127529203Y-76583084D01*
X127552407Y-76588896D01*
X127574929Y-76596954D01*
X127596553Y-76607182D01*
X127617070Y-76619479D01*
X127636283Y-76633729D01*
X127654007Y-76649793D01*
X127670071Y-76667517D01*
X127684321Y-76686730D01*
X127696618Y-76707247D01*
X127706846Y-76728871D01*
X127714904Y-76751393D01*
X127720716Y-76774597D01*
X127724226Y-76798258D01*
X127725400Y-76822150D01*
X127725400Y-77309650D01*
X127724226Y-77333542D01*
X127720716Y-77357203D01*
X127714904Y-77380407D01*
X127706846Y-77402929D01*
X127696618Y-77424553D01*
X127684321Y-77445070D01*
X127670071Y-77464283D01*
X127654007Y-77482007D01*
X127636283Y-77498071D01*
X127617070Y-77512321D01*
X127596553Y-77524618D01*
X127574929Y-77534846D01*
X127552407Y-77542904D01*
X127529203Y-77548716D01*
X127505542Y-77552226D01*
X127481650Y-77553400D01*
X126569150Y-77553400D01*
X126545258Y-77552226D01*
X126521597Y-77548716D01*
X126498393Y-77542904D01*
X126475871Y-77534846D01*
X126454247Y-77524618D01*
X126433730Y-77512321D01*
X126414517Y-77498071D01*
X126396793Y-77482007D01*
X126380729Y-77464283D01*
X126366479Y-77445070D01*
X126354182Y-77424553D01*
X126343954Y-77402929D01*
X126335896Y-77380407D01*
X126330084Y-77357203D01*
X126326574Y-77333542D01*
X126325400Y-77309650D01*
X126325400Y-76822150D01*
X126326574Y-76798258D01*
X126330084Y-76774597D01*
X126335896Y-76751393D01*
X126343954Y-76728871D01*
X126354182Y-76707247D01*
X126366479Y-76686730D01*
X126380729Y-76667517D01*
X126396793Y-76649793D01*
X126414517Y-76633729D01*
X126433730Y-76619479D01*
X126454247Y-76607182D01*
X126475871Y-76596954D01*
X126498393Y-76588896D01*
X126521597Y-76583084D01*
X126545258Y-76579574D01*
X126569150Y-76578400D01*
X127481650Y-76578400D01*
X127505542Y-76579574D01*
G37*
G36*
X120343491Y-74137853D02*
G01*
X120364726Y-74141003D01*
X120385550Y-74146219D01*
X120405762Y-74153451D01*
X120425168Y-74162630D01*
X120443581Y-74173666D01*
X120460824Y-74186454D01*
X120476730Y-74200870D01*
X120491146Y-74216776D01*
X120503934Y-74234019D01*
X120514970Y-74252432D01*
X120524149Y-74271838D01*
X120531381Y-74292050D01*
X120536597Y-74312874D01*
X120539747Y-74334109D01*
X120540800Y-74355550D01*
X120540800Y-74793050D01*
X120539747Y-74814491D01*
X120536597Y-74835726D01*
X120531381Y-74856550D01*
X120524149Y-74876762D01*
X120514970Y-74896168D01*
X120503934Y-74914581D01*
X120491146Y-74931824D01*
X120476730Y-74947730D01*
X120460824Y-74962146D01*
X120443581Y-74974934D01*
X120425168Y-74985970D01*
X120405762Y-74995149D01*
X120385550Y-75002381D01*
X120364726Y-75007597D01*
X120343491Y-75010747D01*
X120322050Y-75011800D01*
X119809550Y-75011800D01*
X119788109Y-75010747D01*
X119766874Y-75007597D01*
X119746050Y-75002381D01*
X119725838Y-74995149D01*
X119706432Y-74985970D01*
X119688019Y-74974934D01*
X119670776Y-74962146D01*
X119654870Y-74947730D01*
X119640454Y-74931824D01*
X119627666Y-74914581D01*
X119616630Y-74896168D01*
X119607451Y-74876762D01*
X119600219Y-74856550D01*
X119595003Y-74835726D01*
X119591853Y-74814491D01*
X119590800Y-74793050D01*
X119590800Y-74355550D01*
X119591853Y-74334109D01*
X119595003Y-74312874D01*
X119600219Y-74292050D01*
X119607451Y-74271838D01*
X119616630Y-74252432D01*
X119627666Y-74234019D01*
X119640454Y-74216776D01*
X119654870Y-74200870D01*
X119670776Y-74186454D01*
X119688019Y-74173666D01*
X119706432Y-74162630D01*
X119725838Y-74153451D01*
X119746050Y-74146219D01*
X119766874Y-74141003D01*
X119788109Y-74137853D01*
X119809550Y-74136800D01*
X120322050Y-74136800D01*
X120343491Y-74137853D01*
G37*
G36*
X120343491Y-75712853D02*
G01*
X120364726Y-75716003D01*
X120385550Y-75721219D01*
X120405762Y-75728451D01*
X120425168Y-75737630D01*
X120443581Y-75748666D01*
X120460824Y-75761454D01*
X120476730Y-75775870D01*
X120491146Y-75791776D01*
X120503934Y-75809019D01*
X120514970Y-75827432D01*
X120524149Y-75846838D01*
X120531381Y-75867050D01*
X120536597Y-75887874D01*
X120539747Y-75909109D01*
X120540800Y-75930550D01*
X120540800Y-76368050D01*
X120539747Y-76389491D01*
X120536597Y-76410726D01*
X120531381Y-76431550D01*
X120524149Y-76451762D01*
X120514970Y-76471168D01*
X120503934Y-76489581D01*
X120491146Y-76506824D01*
X120476730Y-76522730D01*
X120460824Y-76537146D01*
X120443581Y-76549934D01*
X120425168Y-76560970D01*
X120405762Y-76570149D01*
X120385550Y-76577381D01*
X120364726Y-76582597D01*
X120343491Y-76585747D01*
X120322050Y-76586800D01*
X119809550Y-76586800D01*
X119788109Y-76585747D01*
X119766874Y-76582597D01*
X119746050Y-76577381D01*
X119725838Y-76570149D01*
X119706432Y-76560970D01*
X119688019Y-76549934D01*
X119670776Y-76537146D01*
X119654870Y-76522730D01*
X119640454Y-76506824D01*
X119627666Y-76489581D01*
X119616630Y-76471168D01*
X119607451Y-76451762D01*
X119600219Y-76431550D01*
X119595003Y-76410726D01*
X119591853Y-76389491D01*
X119590800Y-76368050D01*
X119590800Y-75930550D01*
X119591853Y-75909109D01*
X119595003Y-75887874D01*
X119600219Y-75867050D01*
X119607451Y-75846838D01*
X119616630Y-75827432D01*
X119627666Y-75809019D01*
X119640454Y-75791776D01*
X119654870Y-75775870D01*
X119670776Y-75761454D01*
X119688019Y-75748666D01*
X119706432Y-75737630D01*
X119725838Y-75728451D01*
X119746050Y-75721219D01*
X119766874Y-75716003D01*
X119788109Y-75712853D01*
X119809550Y-75711800D01*
X120322050Y-75711800D01*
X120343491Y-75712853D01*
G37*
G36*
X111376542Y-72642574D02*
G01*
X111400203Y-72646084D01*
X111423407Y-72651896D01*
X111445929Y-72659954D01*
X111467553Y-72670182D01*
X111488070Y-72682479D01*
X111507283Y-72696729D01*
X111525007Y-72712793D01*
X111541071Y-72730517D01*
X111555321Y-72749730D01*
X111567618Y-72770247D01*
X111577846Y-72791871D01*
X111585904Y-72814393D01*
X111591716Y-72837597D01*
X111595226Y-72861258D01*
X111596400Y-72885150D01*
X111596400Y-73372650D01*
X111595226Y-73396542D01*
X111591716Y-73420203D01*
X111585904Y-73443407D01*
X111577846Y-73465929D01*
X111567618Y-73487553D01*
X111555321Y-73508070D01*
X111541071Y-73527283D01*
X111525007Y-73545007D01*
X111507283Y-73561071D01*
X111488070Y-73575321D01*
X111467553Y-73587618D01*
X111445929Y-73597846D01*
X111423407Y-73605904D01*
X111400203Y-73611716D01*
X111376542Y-73615226D01*
X111352650Y-73616400D01*
X110440150Y-73616400D01*
X110416258Y-73615226D01*
X110392597Y-73611716D01*
X110369393Y-73605904D01*
X110346871Y-73597846D01*
X110325247Y-73587618D01*
X110304730Y-73575321D01*
X110285517Y-73561071D01*
X110267793Y-73545007D01*
X110251729Y-73527283D01*
X110237479Y-73508070D01*
X110225182Y-73487553D01*
X110214954Y-73465929D01*
X110206896Y-73443407D01*
X110201084Y-73420203D01*
X110197574Y-73396542D01*
X110196400Y-73372650D01*
X110196400Y-72885150D01*
X110197574Y-72861258D01*
X110201084Y-72837597D01*
X110206896Y-72814393D01*
X110214954Y-72791871D01*
X110225182Y-72770247D01*
X110237479Y-72749730D01*
X110251729Y-72730517D01*
X110267793Y-72712793D01*
X110285517Y-72696729D01*
X110304730Y-72682479D01*
X110325247Y-72670182D01*
X110346871Y-72659954D01*
X110369393Y-72651896D01*
X110392597Y-72646084D01*
X110416258Y-72642574D01*
X110440150Y-72641400D01*
X111352650Y-72641400D01*
X111376542Y-72642574D01*
G37*
G36*
X111376542Y-74517574D02*
G01*
X111400203Y-74521084D01*
X111423407Y-74526896D01*
X111445929Y-74534954D01*
X111467553Y-74545182D01*
X111488070Y-74557479D01*
X111507283Y-74571729D01*
X111525007Y-74587793D01*
X111541071Y-74605517D01*
X111555321Y-74624730D01*
X111567618Y-74645247D01*
X111577846Y-74666871D01*
X111585904Y-74689393D01*
X111591716Y-74712597D01*
X111595226Y-74736258D01*
X111596400Y-74760150D01*
X111596400Y-75247650D01*
X111595226Y-75271542D01*
X111591716Y-75295203D01*
X111585904Y-75318407D01*
X111577846Y-75340929D01*
X111567618Y-75362553D01*
X111555321Y-75383070D01*
X111541071Y-75402283D01*
X111525007Y-75420007D01*
X111507283Y-75436071D01*
X111488070Y-75450321D01*
X111467553Y-75462618D01*
X111445929Y-75472846D01*
X111423407Y-75480904D01*
X111400203Y-75486716D01*
X111376542Y-75490226D01*
X111352650Y-75491400D01*
X110440150Y-75491400D01*
X110416258Y-75490226D01*
X110392597Y-75486716D01*
X110369393Y-75480904D01*
X110346871Y-75472846D01*
X110325247Y-75462618D01*
X110304730Y-75450321D01*
X110285517Y-75436071D01*
X110267793Y-75420007D01*
X110251729Y-75402283D01*
X110237479Y-75383070D01*
X110225182Y-75362553D01*
X110214954Y-75340929D01*
X110206896Y-75318407D01*
X110201084Y-75295203D01*
X110197574Y-75271542D01*
X110196400Y-75247650D01*
X110196400Y-74760150D01*
X110197574Y-74736258D01*
X110201084Y-74712597D01*
X110206896Y-74689393D01*
X110214954Y-74666871D01*
X110225182Y-74645247D01*
X110237479Y-74624730D01*
X110251729Y-74605517D01*
X110267793Y-74587793D01*
X110285517Y-74571729D01*
X110304730Y-74557479D01*
X110325247Y-74545182D01*
X110346871Y-74534954D01*
X110369393Y-74526896D01*
X110392597Y-74521084D01*
X110416258Y-74517574D01*
X110440150Y-74516400D01*
X111352650Y-74516400D01*
X111376542Y-74517574D01*
G37*
G36*
X111376542Y-78022774D02*
G01*
X111400203Y-78026284D01*
X111423407Y-78032096D01*
X111445929Y-78040154D01*
X111467553Y-78050382D01*
X111488070Y-78062679D01*
X111507283Y-78076929D01*
X111525007Y-78092993D01*
X111541071Y-78110717D01*
X111555321Y-78129930D01*
X111567618Y-78150447D01*
X111577846Y-78172071D01*
X111585904Y-78194593D01*
X111591716Y-78217797D01*
X111595226Y-78241458D01*
X111596400Y-78265350D01*
X111596400Y-78752850D01*
X111595226Y-78776742D01*
X111591716Y-78800403D01*
X111585904Y-78823607D01*
X111577846Y-78846129D01*
X111567618Y-78867753D01*
X111555321Y-78888270D01*
X111541071Y-78907483D01*
X111525007Y-78925207D01*
X111507283Y-78941271D01*
X111488070Y-78955521D01*
X111467553Y-78967818D01*
X111445929Y-78978046D01*
X111423407Y-78986104D01*
X111400203Y-78991916D01*
X111376542Y-78995426D01*
X111352650Y-78996600D01*
X110440150Y-78996600D01*
X110416258Y-78995426D01*
X110392597Y-78991916D01*
X110369393Y-78986104D01*
X110346871Y-78978046D01*
X110325247Y-78967818D01*
X110304730Y-78955521D01*
X110285517Y-78941271D01*
X110267793Y-78925207D01*
X110251729Y-78907483D01*
X110237479Y-78888270D01*
X110225182Y-78867753D01*
X110214954Y-78846129D01*
X110206896Y-78823607D01*
X110201084Y-78800403D01*
X110197574Y-78776742D01*
X110196400Y-78752850D01*
X110196400Y-78265350D01*
X110197574Y-78241458D01*
X110201084Y-78217797D01*
X110206896Y-78194593D01*
X110214954Y-78172071D01*
X110225182Y-78150447D01*
X110237479Y-78129930D01*
X110251729Y-78110717D01*
X110267793Y-78092993D01*
X110285517Y-78076929D01*
X110304730Y-78062679D01*
X110325247Y-78050382D01*
X110346871Y-78040154D01*
X110369393Y-78032096D01*
X110392597Y-78026284D01*
X110416258Y-78022774D01*
X110440150Y-78021600D01*
X111352650Y-78021600D01*
X111376542Y-78022774D01*
G37*
G36*
X111376542Y-76147774D02*
G01*
X111400203Y-76151284D01*
X111423407Y-76157096D01*
X111445929Y-76165154D01*
X111467553Y-76175382D01*
X111488070Y-76187679D01*
X111507283Y-76201929D01*
X111525007Y-76217993D01*
X111541071Y-76235717D01*
X111555321Y-76254930D01*
X111567618Y-76275447D01*
X111577846Y-76297071D01*
X111585904Y-76319593D01*
X111591716Y-76342797D01*
X111595226Y-76366458D01*
X111596400Y-76390350D01*
X111596400Y-76877850D01*
X111595226Y-76901742D01*
X111591716Y-76925403D01*
X111585904Y-76948607D01*
X111577846Y-76971129D01*
X111567618Y-76992753D01*
X111555321Y-77013270D01*
X111541071Y-77032483D01*
X111525007Y-77050207D01*
X111507283Y-77066271D01*
X111488070Y-77080521D01*
X111467553Y-77092818D01*
X111445929Y-77103046D01*
X111423407Y-77111104D01*
X111400203Y-77116916D01*
X111376542Y-77120426D01*
X111352650Y-77121600D01*
X110440150Y-77121600D01*
X110416258Y-77120426D01*
X110392597Y-77116916D01*
X110369393Y-77111104D01*
X110346871Y-77103046D01*
X110325247Y-77092818D01*
X110304730Y-77080521D01*
X110285517Y-77066271D01*
X110267793Y-77050207D01*
X110251729Y-77032483D01*
X110237479Y-77013270D01*
X110225182Y-76992753D01*
X110214954Y-76971129D01*
X110206896Y-76948607D01*
X110201084Y-76925403D01*
X110197574Y-76901742D01*
X110196400Y-76877850D01*
X110196400Y-76390350D01*
X110197574Y-76366458D01*
X110201084Y-76342797D01*
X110206896Y-76319593D01*
X110214954Y-76297071D01*
X110225182Y-76275447D01*
X110237479Y-76254930D01*
X110251729Y-76235717D01*
X110267793Y-76217993D01*
X110285517Y-76201929D01*
X110304730Y-76187679D01*
X110325247Y-76175382D01*
X110346871Y-76165154D01*
X110369393Y-76157096D01*
X110392597Y-76151284D01*
X110416258Y-76147774D01*
X110440150Y-76146600D01*
X111352650Y-76146600D01*
X111376542Y-76147774D01*
G37*
G36*
X113687942Y-77946574D02*
G01*
X113711603Y-77950084D01*
X113734807Y-77955896D01*
X113757329Y-77963954D01*
X113778953Y-77974182D01*
X113799470Y-77986479D01*
X113818683Y-78000729D01*
X113836407Y-78016793D01*
X113852471Y-78034517D01*
X113866721Y-78053730D01*
X113879018Y-78074247D01*
X113889246Y-78095871D01*
X113897304Y-78118393D01*
X113903116Y-78141597D01*
X113906626Y-78165258D01*
X113907800Y-78189150D01*
X113907800Y-78676650D01*
X113906626Y-78700542D01*
X113903116Y-78724203D01*
X113897304Y-78747407D01*
X113889246Y-78769929D01*
X113879018Y-78791553D01*
X113866721Y-78812070D01*
X113852471Y-78831283D01*
X113836407Y-78849007D01*
X113818683Y-78865071D01*
X113799470Y-78879321D01*
X113778953Y-78891618D01*
X113757329Y-78901846D01*
X113734807Y-78909904D01*
X113711603Y-78915716D01*
X113687942Y-78919226D01*
X113664050Y-78920400D01*
X112751550Y-78920400D01*
X112727658Y-78919226D01*
X112703997Y-78915716D01*
X112680793Y-78909904D01*
X112658271Y-78901846D01*
X112636647Y-78891618D01*
X112616130Y-78879321D01*
X112596917Y-78865071D01*
X112579193Y-78849007D01*
X112563129Y-78831283D01*
X112548879Y-78812070D01*
X112536582Y-78791553D01*
X112526354Y-78769929D01*
X112518296Y-78747407D01*
X112512484Y-78724203D01*
X112508974Y-78700542D01*
X112507800Y-78676650D01*
X112507800Y-78189150D01*
X112508974Y-78165258D01*
X112512484Y-78141597D01*
X112518296Y-78118393D01*
X112526354Y-78095871D01*
X112536582Y-78074247D01*
X112548879Y-78053730D01*
X112563129Y-78034517D01*
X112579193Y-78016793D01*
X112596917Y-78000729D01*
X112616130Y-77986479D01*
X112636647Y-77974182D01*
X112658271Y-77963954D01*
X112680793Y-77955896D01*
X112703997Y-77950084D01*
X112727658Y-77946574D01*
X112751550Y-77945400D01*
X113664050Y-77945400D01*
X113687942Y-77946574D01*
G37*
G36*
X113687942Y-76071574D02*
G01*
X113711603Y-76075084D01*
X113734807Y-76080896D01*
X113757329Y-76088954D01*
X113778953Y-76099182D01*
X113799470Y-76111479D01*
X113818683Y-76125729D01*
X113836407Y-76141793D01*
X113852471Y-76159517D01*
X113866721Y-76178730D01*
X113879018Y-76199247D01*
X113889246Y-76220871D01*
X113897304Y-76243393D01*
X113903116Y-76266597D01*
X113906626Y-76290258D01*
X113907800Y-76314150D01*
X113907800Y-76801650D01*
X113906626Y-76825542D01*
X113903116Y-76849203D01*
X113897304Y-76872407D01*
X113889246Y-76894929D01*
X113879018Y-76916553D01*
X113866721Y-76937070D01*
X113852471Y-76956283D01*
X113836407Y-76974007D01*
X113818683Y-76990071D01*
X113799470Y-77004321D01*
X113778953Y-77016618D01*
X113757329Y-77026846D01*
X113734807Y-77034904D01*
X113711603Y-77040716D01*
X113687942Y-77044226D01*
X113664050Y-77045400D01*
X112751550Y-77045400D01*
X112727658Y-77044226D01*
X112703997Y-77040716D01*
X112680793Y-77034904D01*
X112658271Y-77026846D01*
X112636647Y-77016618D01*
X112616130Y-77004321D01*
X112596917Y-76990071D01*
X112579193Y-76974007D01*
X112563129Y-76956283D01*
X112548879Y-76937070D01*
X112536582Y-76916553D01*
X112526354Y-76894929D01*
X112518296Y-76872407D01*
X112512484Y-76849203D01*
X112508974Y-76825542D01*
X112507800Y-76801650D01*
X112507800Y-76314150D01*
X112508974Y-76290258D01*
X112512484Y-76266597D01*
X112518296Y-76243393D01*
X112526354Y-76220871D01*
X112536582Y-76199247D01*
X112548879Y-76178730D01*
X112563129Y-76159517D01*
X112579193Y-76141793D01*
X112596917Y-76125729D01*
X112616130Y-76111479D01*
X112636647Y-76099182D01*
X112658271Y-76088954D01*
X112680793Y-76080896D01*
X112703997Y-76075084D01*
X112727658Y-76071574D01*
X112751550Y-76070400D01*
X113664050Y-76070400D01*
X113687942Y-76071574D01*
G37*
M02*
