M48
; DRILL file {KiCad (5.1.5)-3} date 5/19/2020 10:12:30 PM
; FORMAT={-:-/ absolute / inch / decimal}
; #@! TF.CreationDate,2020-05-19T22:12:30-06:00
; #@! TF.GenerationSoftware,Kicad,Pcbnew,(5.1.5)-3
FMAT,2
INCH
T1C0.0157
T2C0.0295
T3C0.0299
T4C0.0394
T5C0.1000
T6C0.1260
%
G90
G05
T1
X3.899Y-3.313
X3.901Y-4.647
X3.907Y-3.888
X3.909Y-2.705
X4.232Y-3.492
X4.323Y-3.814
X4.332Y-3.149
X4.379Y-3.249
X4.4Y-3.15
X4.404Y-2.824
X4.407Y-4.13
X4.417Y-2.691
X4.435Y-4.412
X4.46Y-4.657
X4.47Y-3.15
X4.519Y-3.318
X4.52Y-3.09
X4.585Y-4.403
X4.605Y-4.243
X4.683Y-3.188
X4.692Y-4.404
X4.702Y-3.661
X4.747Y-3.885
X4.772Y-4.243
X4.788Y-3.512
X4.797Y-4.057
X4.85Y-4.403
X4.851Y-3.469
X4.869Y-2.697
X4.876Y-4.046
X4.941Y-4.402
X4.965Y-4.478
X4.973Y-4.651
X4.986Y-4.336
X5.006Y-3.687
X5.02Y-3.189
X5.041Y-2.976
X5.087Y-4.423
X5.157Y-3.109
X5.182Y-3.508
X5.219Y-4.053
X5.237Y-3.292
X5.359Y-3.351
X5.418Y-2.693
X5.459Y-4.654
X5.497Y-3.446
X5.685Y-2.93
X5.693Y-3.531
X5.707Y-4.171
X5.976Y-4.656
X5.984Y-2.697
X5.99Y-4.44
X6.166Y-3.881
X6.187Y-3.346
X6.199Y-3.936
X6.201Y-4.134
X6.277Y-3.645
X6.316Y-3.001
X6.339Y-3.5
X6.366Y-3.234
X6.482Y-3.456
X6.556Y-2.707
X6.573Y-3.299
X6.573Y-4.65
X6.583Y-3.945
T2
X6.482Y-3.5588
X6.482Y-3.6375
X6.482Y-3.7163
X6.482Y-3.795
T3
X4.2945Y-3.4402
X4.2945Y-3.5402
X4.2945Y-3.6402
X4.2945Y-3.7402
X4.3945Y-3.4902
X4.3945Y-3.5902
X4.3945Y-3.6902
X4.3945Y-3.7902
T4
X5.296Y-2.932
X5.296Y-3.032
X5.296Y-3.132
X5.296Y-3.232
X5.296Y-3.332
X5.296Y-3.432
X5.296Y-3.532
X5.296Y-3.632
X5.296Y-3.732
X5.296Y-3.832
X5.296Y-3.932
X5.296Y-4.032
X6.096Y-2.932
X6.096Y-3.032
X6.096Y-3.132
X6.096Y-3.232
X6.096Y-3.332
X6.096Y-3.432
X6.096Y-3.532
X6.096Y-3.632
X6.096Y-3.732
X6.096Y-3.832
X6.096Y-3.932
X6.096Y-4.032
X6.096Y-4.132
X6.096Y-4.232
X6.096Y-4.332
X6.096Y-4.432
T5
X5.346Y-2.782
X5.346Y-4.582
X6.046Y-2.782
X6.046Y-4.582
T6
X6.4173Y-2.8496
X4.0445Y-3.3902
X4.0445Y-3.8402
X4.0551Y-2.8496
X6.4173Y-4.5031
X4.0551Y-4.5031
T0
M30
