G04 #@! TF.GenerationSoftware,KiCad,Pcbnew,(5.1.5)-3*
G04 #@! TF.CreationDate,2020-05-19T22:12:29-06:00*
G04 #@! TF.ProjectId,GarageDoorOpener,47617261-6765-4446-9f6f-724f70656e65,1b*
G04 #@! TF.SameCoordinates,Original*
G04 #@! TF.FileFunction,Copper,L2,Bot*
G04 #@! TF.FilePolarity,Positive*
%FSLAX46Y46*%
G04 Gerber Fmt 4.6, Leading zero omitted, Abs format (unit mm)*
G04 Created by KiCad (PCBNEW (5.1.5)-3) date 2020-05-19 22:12:29*
%MOMM*%
%LPD*%
G04 APERTURE LIST*
%ADD10C,1.500000*%
%ADD11R,1.500000X1.500000*%
%ADD12O,1.750000X1.200000*%
%ADD13C,0.100000*%
%ADD14C,0.800000*%
%ADD15C,0.500000*%
%ADD16C,0.250000*%
%ADD17C,0.254000*%
G04 APERTURE END LIST*
D10*
X154838400Y-79552800D03*
X154838400Y-77012800D03*
X154838400Y-82092800D03*
X154838400Y-74472800D03*
X154838400Y-84632800D03*
X134518400Y-74472800D03*
X154838400Y-87172800D03*
X134518400Y-77012800D03*
X154838400Y-89712800D03*
X134518400Y-79552800D03*
X154838400Y-92252800D03*
X134518400Y-82092800D03*
X154838400Y-94792800D03*
X134518400Y-84632800D03*
X154838400Y-97332800D03*
X134518400Y-87172800D03*
X154838400Y-99872800D03*
X134518400Y-89712800D03*
X154838400Y-102412800D03*
X134518400Y-92252800D03*
X154838400Y-104952800D03*
X134518400Y-94792800D03*
X154838400Y-107492800D03*
X134518400Y-97332800D03*
X154838400Y-110032800D03*
X134518400Y-99872800D03*
X154838400Y-112572800D03*
X134518400Y-102412800D03*
X111620000Y-96270000D03*
X109080000Y-95000000D03*
X111620000Y-93730000D03*
X109080000Y-92460000D03*
X111620000Y-91190000D03*
X109080000Y-89920000D03*
X111620000Y-88650000D03*
D11*
X109080000Y-87380000D03*
D12*
X164642800Y-90393000D03*
X164642800Y-92393000D03*
X164642800Y-94393000D03*
G04 #@! TA.AperFunction,ComponentPad*
D13*
G36*
X165292305Y-95794204D02*
G01*
X165316573Y-95797804D01*
X165340372Y-95803765D01*
X165363471Y-95812030D01*
X165385650Y-95822520D01*
X165406693Y-95835132D01*
X165426399Y-95849747D01*
X165444577Y-95866223D01*
X165461053Y-95884401D01*
X165475668Y-95904107D01*
X165488280Y-95925150D01*
X165498770Y-95947329D01*
X165507035Y-95970428D01*
X165512996Y-95994227D01*
X165516596Y-96018495D01*
X165517800Y-96042999D01*
X165517800Y-96743001D01*
X165516596Y-96767505D01*
X165512996Y-96791773D01*
X165507035Y-96815572D01*
X165498770Y-96838671D01*
X165488280Y-96860850D01*
X165475668Y-96881893D01*
X165461053Y-96901599D01*
X165444577Y-96919777D01*
X165426399Y-96936253D01*
X165406693Y-96950868D01*
X165385650Y-96963480D01*
X165363471Y-96973970D01*
X165340372Y-96982235D01*
X165316573Y-96988196D01*
X165292305Y-96991796D01*
X165267801Y-96993000D01*
X164017799Y-96993000D01*
X163993295Y-96991796D01*
X163969027Y-96988196D01*
X163945228Y-96982235D01*
X163922129Y-96973970D01*
X163899950Y-96963480D01*
X163878907Y-96950868D01*
X163859201Y-96936253D01*
X163841023Y-96919777D01*
X163824547Y-96901599D01*
X163809932Y-96881893D01*
X163797320Y-96860850D01*
X163786830Y-96838671D01*
X163778565Y-96815572D01*
X163772604Y-96791773D01*
X163769004Y-96767505D01*
X163767800Y-96743001D01*
X163767800Y-96042999D01*
X163769004Y-96018495D01*
X163772604Y-95994227D01*
X163778565Y-95970428D01*
X163786830Y-95947329D01*
X163797320Y-95925150D01*
X163809932Y-95904107D01*
X163824547Y-95884401D01*
X163841023Y-95866223D01*
X163859201Y-95849747D01*
X163878907Y-95835132D01*
X163899950Y-95822520D01*
X163922129Y-95812030D01*
X163945228Y-95803765D01*
X163969027Y-95797804D01*
X163993295Y-95794204D01*
X164017799Y-95793000D01*
X165267801Y-95793000D01*
X165292305Y-95794204D01*
G37*
G04 #@! TD.AperFunction*
D14*
X159435800Y-92583000D03*
X118948200Y-80975200D03*
X114808000Y-78486000D03*
X110032800Y-79984600D03*
X111760000Y-80010000D03*
X113538000Y-80010000D03*
X125501400Y-111810800D03*
X123190000Y-111836200D03*
X119176800Y-111861600D03*
X116459000Y-111836200D03*
X166522400Y-68757800D03*
X99288600Y-68707000D03*
X99085400Y-118033800D03*
X166954200Y-118110000D03*
X113284000Y-118287800D03*
X126314200Y-118135400D03*
X138658600Y-118211600D03*
X151790400Y-118262400D03*
X112191800Y-68351400D03*
X123672600Y-68503800D03*
X137617200Y-68402200D03*
X151993600Y-68503800D03*
X166954200Y-83794600D03*
X167208200Y-100203000D03*
X99237800Y-98755200D03*
X99034600Y-84150200D03*
X144399000Y-74422000D03*
X144602200Y-89687400D03*
X144957800Y-105943400D03*
X114782600Y-84277200D03*
X120573800Y-98679000D03*
X121843800Y-103047800D03*
X132562600Y-102946200D03*
X111937800Y-104902000D03*
X112649000Y-112064800D03*
X126111000Y-113741200D03*
X129209800Y-112344200D03*
X152146000Y-112776000D03*
X157505400Y-105003600D03*
X157454600Y-99974400D03*
X157149800Y-84988400D03*
X161696400Y-82143600D03*
X160426400Y-76225400D03*
X109804200Y-96875600D03*
X107492800Y-88696800D03*
X111226600Y-82524600D03*
X123215400Y-88112600D03*
X127508000Y-81000600D03*
X136118600Y-85115400D03*
X111861600Y-71729600D03*
X128041400Y-75590400D03*
X164642800Y-87782400D03*
X121615200Y-89204800D03*
X119430800Y-92989400D03*
X127152400Y-93649800D03*
X130987800Y-78968600D03*
X156616401Y-98577399D03*
X161010600Y-88900000D03*
X116967000Y-107772200D03*
X121208800Y-107772200D03*
X126644400Y-110134400D03*
X123850400Y-102768400D03*
X131622800Y-89103200D03*
X139623800Y-87528400D03*
X133019800Y-83616800D03*
D15*
X130987800Y-82878202D02*
X130987800Y-78968600D01*
X135094401Y-85972799D02*
X134082397Y-85972799D01*
X134082397Y-85972799D02*
X130987800Y-82878202D01*
X136144000Y-87022398D02*
X135094401Y-85972799D01*
X136144000Y-97358200D02*
X136144000Y-87022398D01*
X134543800Y-97358200D02*
X136144000Y-97358200D01*
X134518400Y-97332800D02*
X134543800Y-97358200D01*
X136144000Y-97358200D02*
X137363199Y-98577399D01*
X137363199Y-98577399D02*
X156050716Y-98577399D01*
X156050716Y-98577399D02*
X156616401Y-98577399D01*
D16*
X160610601Y-89299999D02*
X161010600Y-88900000D01*
X156616401Y-93294199D02*
X160610601Y-89299999D01*
X156616401Y-98577399D02*
X156616401Y-93294199D01*
X116967000Y-107772200D02*
X121208800Y-107772200D01*
X121208800Y-107206515D02*
X121208800Y-107772200D01*
X121208800Y-105975685D02*
X121208800Y-107206515D01*
X123850400Y-103334085D02*
X121208800Y-105975685D01*
X123850400Y-102768400D02*
X123850400Y-103334085D01*
X131622800Y-105156000D02*
X131622800Y-89103200D01*
X126644400Y-110134400D02*
X131622800Y-105156000D01*
X133172200Y-83464400D02*
X133019800Y-83616800D01*
X139623800Y-87528400D02*
X135559800Y-83464400D01*
X135559800Y-83464400D02*
X133172200Y-83464400D01*
D17*
G36*
X167594001Y-118974000D02*
G01*
X98406000Y-118974000D01*
X98406000Y-114184889D01*
X101019000Y-114184889D01*
X101019000Y-114575111D01*
X101095129Y-114957836D01*
X101244461Y-115318355D01*
X101461257Y-115642814D01*
X101737186Y-115918743D01*
X102061645Y-116135539D01*
X102422164Y-116284871D01*
X102804889Y-116361000D01*
X103195111Y-116361000D01*
X103577836Y-116284871D01*
X103733987Y-116220191D01*
X134137400Y-116220191D01*
X134137400Y-116545409D01*
X134200847Y-116864379D01*
X134325303Y-117164842D01*
X134505985Y-117435251D01*
X134735949Y-117665215D01*
X135006358Y-117845897D01*
X135306821Y-117970353D01*
X135625791Y-118033800D01*
X135951009Y-118033800D01*
X136269979Y-117970353D01*
X136570442Y-117845897D01*
X136840851Y-117665215D01*
X137070815Y-117435251D01*
X137251497Y-117164842D01*
X137375953Y-116864379D01*
X137439400Y-116545409D01*
X137439400Y-116220191D01*
X151917400Y-116220191D01*
X151917400Y-116545409D01*
X151980847Y-116864379D01*
X152105303Y-117164842D01*
X152285985Y-117435251D01*
X152515949Y-117665215D01*
X152786358Y-117845897D01*
X153086821Y-117970353D01*
X153405791Y-118033800D01*
X153731009Y-118033800D01*
X154049979Y-117970353D01*
X154350442Y-117845897D01*
X154620851Y-117665215D01*
X154850815Y-117435251D01*
X155031497Y-117164842D01*
X155155953Y-116864379D01*
X155219400Y-116545409D01*
X155219400Y-116220191D01*
X155155953Y-115901221D01*
X155031497Y-115600758D01*
X154850815Y-115330349D01*
X154620851Y-115100385D01*
X154350442Y-114919703D01*
X154049979Y-114795247D01*
X153731009Y-114731800D01*
X153405791Y-114731800D01*
X153086821Y-114795247D01*
X152786358Y-114919703D01*
X152515949Y-115100385D01*
X152285985Y-115330349D01*
X152105303Y-115600758D01*
X151980847Y-115901221D01*
X151917400Y-116220191D01*
X137439400Y-116220191D01*
X137375953Y-115901221D01*
X137251497Y-115600758D01*
X137070815Y-115330349D01*
X136840851Y-115100385D01*
X136570442Y-114919703D01*
X136269979Y-114795247D01*
X135951009Y-114731800D01*
X135625791Y-114731800D01*
X135306821Y-114795247D01*
X135006358Y-114919703D01*
X134735949Y-115100385D01*
X134505985Y-115330349D01*
X134325303Y-115600758D01*
X134200847Y-115901221D01*
X134137400Y-116220191D01*
X103733987Y-116220191D01*
X103938355Y-116135539D01*
X104262814Y-115918743D01*
X104538743Y-115642814D01*
X104755539Y-115318355D01*
X104904871Y-114957836D01*
X104981000Y-114575111D01*
X104981000Y-114184889D01*
X161019000Y-114184889D01*
X161019000Y-114575111D01*
X161095129Y-114957836D01*
X161244461Y-115318355D01*
X161461257Y-115642814D01*
X161737186Y-115918743D01*
X162061645Y-116135539D01*
X162422164Y-116284871D01*
X162804889Y-116361000D01*
X163195111Y-116361000D01*
X163577836Y-116284871D01*
X163938355Y-116135539D01*
X164262814Y-115918743D01*
X164538743Y-115642814D01*
X164755539Y-115318355D01*
X164904871Y-114957836D01*
X164981000Y-114575111D01*
X164981000Y-114184889D01*
X164904871Y-113802164D01*
X164755539Y-113441645D01*
X164538743Y-113117186D01*
X164262814Y-112841257D01*
X163938355Y-112624461D01*
X163577836Y-112475129D01*
X163195111Y-112399000D01*
X162804889Y-112399000D01*
X162422164Y-112475129D01*
X162061645Y-112624461D01*
X161737186Y-112841257D01*
X161461257Y-113117186D01*
X161244461Y-113441645D01*
X161095129Y-113802164D01*
X161019000Y-114184889D01*
X104981000Y-114184889D01*
X104904871Y-113802164D01*
X104755539Y-113441645D01*
X104538743Y-113117186D01*
X104262814Y-112841257D01*
X103938355Y-112624461D01*
X103577836Y-112475129D01*
X103508847Y-112461406D01*
X153707400Y-112461406D01*
X153707400Y-112684194D01*
X153750864Y-112902700D01*
X153836121Y-113108529D01*
X153959895Y-113293770D01*
X154117430Y-113451305D01*
X154302671Y-113575079D01*
X154508500Y-113660336D01*
X154727006Y-113703800D01*
X154949794Y-113703800D01*
X155168300Y-113660336D01*
X155374129Y-113575079D01*
X155559370Y-113451305D01*
X155716905Y-113293770D01*
X155840679Y-113108529D01*
X155925936Y-112902700D01*
X155969400Y-112684194D01*
X155969400Y-112461406D01*
X155925936Y-112242900D01*
X155840679Y-112037071D01*
X155716905Y-111851830D01*
X155559370Y-111694295D01*
X155374129Y-111570521D01*
X155168300Y-111485264D01*
X154949794Y-111441800D01*
X154727006Y-111441800D01*
X154508500Y-111485264D01*
X154302671Y-111570521D01*
X154117430Y-111694295D01*
X153959895Y-111851830D01*
X153836121Y-112037071D01*
X153750864Y-112242900D01*
X153707400Y-112461406D01*
X103508847Y-112461406D01*
X103195111Y-112399000D01*
X102804889Y-112399000D01*
X102422164Y-112475129D01*
X102061645Y-112624461D01*
X101737186Y-112841257D01*
X101461257Y-113117186D01*
X101244461Y-113441645D01*
X101095129Y-113802164D01*
X101019000Y-114184889D01*
X98406000Y-114184889D01*
X98406000Y-110057478D01*
X125863400Y-110057478D01*
X125863400Y-110211322D01*
X125893413Y-110362209D01*
X125952287Y-110504342D01*
X126037758Y-110632259D01*
X126146541Y-110741042D01*
X126274458Y-110826513D01*
X126416591Y-110885387D01*
X126567478Y-110915400D01*
X126721322Y-110915400D01*
X126872209Y-110885387D01*
X127014342Y-110826513D01*
X127142259Y-110741042D01*
X127251042Y-110632259D01*
X127336513Y-110504342D01*
X127395387Y-110362209D01*
X127425400Y-110211322D01*
X127425400Y-110068991D01*
X127572985Y-109921406D01*
X153707400Y-109921406D01*
X153707400Y-110144194D01*
X153750864Y-110362700D01*
X153836121Y-110568529D01*
X153959895Y-110753770D01*
X154117430Y-110911305D01*
X154302671Y-111035079D01*
X154508500Y-111120336D01*
X154727006Y-111163800D01*
X154949794Y-111163800D01*
X155168300Y-111120336D01*
X155374129Y-111035079D01*
X155559370Y-110911305D01*
X155716905Y-110753770D01*
X155840679Y-110568529D01*
X155925936Y-110362700D01*
X155969400Y-110144194D01*
X155969400Y-109921406D01*
X155925936Y-109702900D01*
X155840679Y-109497071D01*
X155716905Y-109311830D01*
X155559370Y-109154295D01*
X155374129Y-109030521D01*
X155168300Y-108945264D01*
X154949794Y-108901800D01*
X154727006Y-108901800D01*
X154508500Y-108945264D01*
X154302671Y-109030521D01*
X154117430Y-109154295D01*
X153959895Y-109311830D01*
X153836121Y-109497071D01*
X153750864Y-109702900D01*
X153707400Y-109921406D01*
X127572985Y-109921406D01*
X130112985Y-107381406D01*
X153707400Y-107381406D01*
X153707400Y-107604194D01*
X153750864Y-107822700D01*
X153836121Y-108028529D01*
X153959895Y-108213770D01*
X154117430Y-108371305D01*
X154302671Y-108495079D01*
X154508500Y-108580336D01*
X154727006Y-108623800D01*
X154949794Y-108623800D01*
X155168300Y-108580336D01*
X155374129Y-108495079D01*
X155559370Y-108371305D01*
X155716905Y-108213770D01*
X155840679Y-108028529D01*
X155925936Y-107822700D01*
X155969400Y-107604194D01*
X155969400Y-107381406D01*
X155925936Y-107162900D01*
X155840679Y-106957071D01*
X155716905Y-106771830D01*
X155559370Y-106614295D01*
X155374129Y-106490521D01*
X155168300Y-106405264D01*
X154949794Y-106361800D01*
X154727006Y-106361800D01*
X154508500Y-106405264D01*
X154302671Y-106490521D01*
X154117430Y-106614295D01*
X153959895Y-106771830D01*
X153836121Y-106957071D01*
X153750864Y-107162900D01*
X153707400Y-107381406D01*
X130112985Y-107381406D01*
X131963020Y-105531372D01*
X131982327Y-105515527D01*
X132045559Y-105438479D01*
X132092545Y-105350575D01*
X132121478Y-105255193D01*
X132128800Y-105180854D01*
X132128800Y-105180853D01*
X132131248Y-105156000D01*
X132128800Y-105131146D01*
X132128800Y-102301406D01*
X133387400Y-102301406D01*
X133387400Y-102524194D01*
X133430864Y-102742700D01*
X133516121Y-102948529D01*
X133639895Y-103133770D01*
X133797430Y-103291305D01*
X133982671Y-103415079D01*
X134188500Y-103500336D01*
X134407006Y-103543800D01*
X134629794Y-103543800D01*
X134848300Y-103500336D01*
X135054129Y-103415079D01*
X135239370Y-103291305D01*
X135396905Y-103133770D01*
X135520679Y-102948529D01*
X135605936Y-102742700D01*
X135649400Y-102524194D01*
X135649400Y-102301406D01*
X153707400Y-102301406D01*
X153707400Y-102524194D01*
X153750864Y-102742700D01*
X153836121Y-102948529D01*
X153959895Y-103133770D01*
X154117430Y-103291305D01*
X154302671Y-103415079D01*
X154508500Y-103500336D01*
X154727006Y-103543800D01*
X154949794Y-103543800D01*
X155168300Y-103500336D01*
X155374129Y-103415079D01*
X155559370Y-103291305D01*
X155716905Y-103133770D01*
X155840679Y-102948529D01*
X155925936Y-102742700D01*
X155969400Y-102524194D01*
X155969400Y-102301406D01*
X155925936Y-102082900D01*
X155840679Y-101877071D01*
X155716905Y-101691830D01*
X155559370Y-101534295D01*
X155374129Y-101410521D01*
X155168300Y-101325264D01*
X154949794Y-101281800D01*
X154727006Y-101281800D01*
X154508500Y-101325264D01*
X154302671Y-101410521D01*
X154117430Y-101534295D01*
X153959895Y-101691830D01*
X153836121Y-101877071D01*
X153750864Y-102082900D01*
X153707400Y-102301406D01*
X135649400Y-102301406D01*
X135605936Y-102082900D01*
X135520679Y-101877071D01*
X135396905Y-101691830D01*
X135239370Y-101534295D01*
X135054129Y-101410521D01*
X134848300Y-101325264D01*
X134629794Y-101281800D01*
X134407006Y-101281800D01*
X134188500Y-101325264D01*
X133982671Y-101410521D01*
X133797430Y-101534295D01*
X133639895Y-101691830D01*
X133516121Y-101877071D01*
X133430864Y-102082900D01*
X133387400Y-102301406D01*
X132128800Y-102301406D01*
X132128800Y-99761406D01*
X133387400Y-99761406D01*
X133387400Y-99984194D01*
X133430864Y-100202700D01*
X133516121Y-100408529D01*
X133639895Y-100593770D01*
X133797430Y-100751305D01*
X133982671Y-100875079D01*
X134188500Y-100960336D01*
X134407006Y-101003800D01*
X134629794Y-101003800D01*
X134848300Y-100960336D01*
X135054129Y-100875079D01*
X135239370Y-100751305D01*
X135396905Y-100593770D01*
X135520679Y-100408529D01*
X135605936Y-100202700D01*
X135649400Y-99984194D01*
X135649400Y-99761406D01*
X135605936Y-99542900D01*
X135520679Y-99337071D01*
X135396905Y-99151830D01*
X135239370Y-98994295D01*
X135054129Y-98870521D01*
X134848300Y-98785264D01*
X134629794Y-98741800D01*
X134407006Y-98741800D01*
X134188500Y-98785264D01*
X133982671Y-98870521D01*
X133797430Y-98994295D01*
X133639895Y-99151830D01*
X133516121Y-99337071D01*
X133430864Y-99542900D01*
X133387400Y-99761406D01*
X132128800Y-99761406D01*
X132128800Y-89701701D01*
X132229442Y-89601059D01*
X132314913Y-89473142D01*
X132373787Y-89331009D01*
X132403800Y-89180122D01*
X132403800Y-89026278D01*
X132373787Y-88875391D01*
X132314913Y-88733258D01*
X132229442Y-88605341D01*
X132120659Y-88496558D01*
X131992742Y-88411087D01*
X131850609Y-88352213D01*
X131699722Y-88322200D01*
X131545878Y-88322200D01*
X131394991Y-88352213D01*
X131252858Y-88411087D01*
X131124941Y-88496558D01*
X131016158Y-88605341D01*
X130930687Y-88733258D01*
X130871813Y-88875391D01*
X130841800Y-89026278D01*
X130841800Y-89180122D01*
X130871813Y-89331009D01*
X130930687Y-89473142D01*
X131016158Y-89601059D01*
X131116801Y-89701702D01*
X131116800Y-104946408D01*
X126709809Y-109353400D01*
X126567478Y-109353400D01*
X126416591Y-109383413D01*
X126274458Y-109442287D01*
X126146541Y-109527758D01*
X126037758Y-109636541D01*
X125952287Y-109764458D01*
X125893413Y-109906591D01*
X125863400Y-110057478D01*
X98406000Y-110057478D01*
X98406000Y-107695278D01*
X116186000Y-107695278D01*
X116186000Y-107849122D01*
X116216013Y-108000009D01*
X116274887Y-108142142D01*
X116360358Y-108270059D01*
X116469141Y-108378842D01*
X116597058Y-108464313D01*
X116739191Y-108523187D01*
X116890078Y-108553200D01*
X117043922Y-108553200D01*
X117194809Y-108523187D01*
X117336942Y-108464313D01*
X117464859Y-108378842D01*
X117565501Y-108278200D01*
X120610299Y-108278200D01*
X120710941Y-108378842D01*
X120838858Y-108464313D01*
X120980991Y-108523187D01*
X121131878Y-108553200D01*
X121285722Y-108553200D01*
X121436609Y-108523187D01*
X121578742Y-108464313D01*
X121706659Y-108378842D01*
X121815442Y-108270059D01*
X121900913Y-108142142D01*
X121959787Y-108000009D01*
X121989800Y-107849122D01*
X121989800Y-107695278D01*
X121959787Y-107544391D01*
X121900913Y-107402258D01*
X121815442Y-107274341D01*
X121714800Y-107173699D01*
X121714800Y-106185276D01*
X124190620Y-103709457D01*
X124209927Y-103693612D01*
X124273159Y-103616564D01*
X124320145Y-103528660D01*
X124349078Y-103433278D01*
X124355530Y-103367771D01*
X124457042Y-103266259D01*
X124542513Y-103138342D01*
X124601387Y-102996209D01*
X124631400Y-102845322D01*
X124631400Y-102691478D01*
X124601387Y-102540591D01*
X124542513Y-102398458D01*
X124457042Y-102270541D01*
X124348259Y-102161758D01*
X124220342Y-102076287D01*
X124078209Y-102017413D01*
X123927322Y-101987400D01*
X123773478Y-101987400D01*
X123622591Y-102017413D01*
X123480458Y-102076287D01*
X123352541Y-102161758D01*
X123243758Y-102270541D01*
X123158287Y-102398458D01*
X123099413Y-102540591D01*
X123069400Y-102691478D01*
X123069400Y-102845322D01*
X123099413Y-102996209D01*
X123158287Y-103138342D01*
X123227286Y-103241607D01*
X120868585Y-105600309D01*
X120849273Y-105616158D01*
X120786041Y-105693206D01*
X120739055Y-105781111D01*
X120710122Y-105876493D01*
X120702800Y-105950832D01*
X120702800Y-105950839D01*
X120700353Y-105975685D01*
X120702800Y-106000532D01*
X120702801Y-107173698D01*
X120610299Y-107266200D01*
X117565501Y-107266200D01*
X117464859Y-107165558D01*
X117336942Y-107080087D01*
X117194809Y-107021213D01*
X117043922Y-106991200D01*
X116890078Y-106991200D01*
X116739191Y-107021213D01*
X116597058Y-107080087D01*
X116469141Y-107165558D01*
X116360358Y-107274341D01*
X116274887Y-107402258D01*
X116216013Y-107544391D01*
X116186000Y-107695278D01*
X98406000Y-107695278D01*
X98406000Y-97344889D01*
X100749000Y-97344889D01*
X100749000Y-97735111D01*
X100825129Y-98117836D01*
X100974461Y-98478355D01*
X101191257Y-98802814D01*
X101467186Y-99078743D01*
X101791645Y-99295539D01*
X102152164Y-99444871D01*
X102534889Y-99521000D01*
X102925111Y-99521000D01*
X103307836Y-99444871D01*
X103668355Y-99295539D01*
X103992814Y-99078743D01*
X104268743Y-98802814D01*
X104485539Y-98478355D01*
X104634871Y-98117836D01*
X104711000Y-97735111D01*
X104711000Y-97344889D01*
X104634871Y-96962164D01*
X104485539Y-96601645D01*
X104268743Y-96277186D01*
X104150163Y-96158606D01*
X110489000Y-96158606D01*
X110489000Y-96381394D01*
X110532464Y-96599900D01*
X110617721Y-96805729D01*
X110741495Y-96990970D01*
X110899030Y-97148505D01*
X111084271Y-97272279D01*
X111290100Y-97357536D01*
X111508606Y-97401000D01*
X111731394Y-97401000D01*
X111949900Y-97357536D01*
X112155729Y-97272279D01*
X112340970Y-97148505D01*
X112498505Y-96990970D01*
X112622279Y-96805729D01*
X112707536Y-96599900D01*
X112751000Y-96381394D01*
X112751000Y-96158606D01*
X112707536Y-95940100D01*
X112622279Y-95734271D01*
X112498505Y-95549030D01*
X112340970Y-95391495D01*
X112155729Y-95267721D01*
X111949900Y-95182464D01*
X111731394Y-95139000D01*
X111508606Y-95139000D01*
X111290100Y-95182464D01*
X111084271Y-95267721D01*
X110899030Y-95391495D01*
X110741495Y-95549030D01*
X110617721Y-95734271D01*
X110532464Y-95940100D01*
X110489000Y-96158606D01*
X104150163Y-96158606D01*
X103992814Y-96001257D01*
X103668355Y-95784461D01*
X103307836Y-95635129D01*
X102925111Y-95559000D01*
X102534889Y-95559000D01*
X102152164Y-95635129D01*
X101791645Y-95784461D01*
X101467186Y-96001257D01*
X101191257Y-96277186D01*
X100974461Y-96601645D01*
X100825129Y-96962164D01*
X100749000Y-97344889D01*
X98406000Y-97344889D01*
X98406000Y-94888606D01*
X107949000Y-94888606D01*
X107949000Y-95111394D01*
X107992464Y-95329900D01*
X108077721Y-95535729D01*
X108201495Y-95720970D01*
X108359030Y-95878505D01*
X108544271Y-96002279D01*
X108750100Y-96087536D01*
X108968606Y-96131000D01*
X109191394Y-96131000D01*
X109409900Y-96087536D01*
X109615729Y-96002279D01*
X109800970Y-95878505D01*
X109958505Y-95720970D01*
X110082279Y-95535729D01*
X110167536Y-95329900D01*
X110211000Y-95111394D01*
X110211000Y-94888606D01*
X110167536Y-94670100D01*
X110082279Y-94464271D01*
X109958505Y-94279030D01*
X109800970Y-94121495D01*
X109615729Y-93997721D01*
X109409900Y-93912464D01*
X109191394Y-93869000D01*
X108968606Y-93869000D01*
X108750100Y-93912464D01*
X108544271Y-93997721D01*
X108359030Y-94121495D01*
X108201495Y-94279030D01*
X108077721Y-94464271D01*
X107992464Y-94670100D01*
X107949000Y-94888606D01*
X98406000Y-94888606D01*
X98406000Y-93618606D01*
X110489000Y-93618606D01*
X110489000Y-93841394D01*
X110532464Y-94059900D01*
X110617721Y-94265729D01*
X110741495Y-94450970D01*
X110899030Y-94608505D01*
X111084271Y-94732279D01*
X111290100Y-94817536D01*
X111508606Y-94861000D01*
X111731394Y-94861000D01*
X111949900Y-94817536D01*
X112155729Y-94732279D01*
X112340970Y-94608505D01*
X112498505Y-94450970D01*
X112622279Y-94265729D01*
X112707536Y-94059900D01*
X112751000Y-93841394D01*
X112751000Y-93618606D01*
X112707536Y-93400100D01*
X112622279Y-93194271D01*
X112498505Y-93009030D01*
X112340970Y-92851495D01*
X112155729Y-92727721D01*
X111949900Y-92642464D01*
X111731394Y-92599000D01*
X111508606Y-92599000D01*
X111290100Y-92642464D01*
X111084271Y-92727721D01*
X110899030Y-92851495D01*
X110741495Y-93009030D01*
X110617721Y-93194271D01*
X110532464Y-93400100D01*
X110489000Y-93618606D01*
X98406000Y-93618606D01*
X98406000Y-92348606D01*
X107949000Y-92348606D01*
X107949000Y-92571394D01*
X107992464Y-92789900D01*
X108077721Y-92995729D01*
X108201495Y-93180970D01*
X108359030Y-93338505D01*
X108544271Y-93462279D01*
X108750100Y-93547536D01*
X108968606Y-93591000D01*
X109191394Y-93591000D01*
X109409900Y-93547536D01*
X109615729Y-93462279D01*
X109800970Y-93338505D01*
X109958505Y-93180970D01*
X110082279Y-92995729D01*
X110167536Y-92789900D01*
X110211000Y-92571394D01*
X110211000Y-92348606D01*
X110167536Y-92130100D01*
X110082279Y-91924271D01*
X109958505Y-91739030D01*
X109800970Y-91581495D01*
X109615729Y-91457721D01*
X109409900Y-91372464D01*
X109191394Y-91329000D01*
X108968606Y-91329000D01*
X108750100Y-91372464D01*
X108544271Y-91457721D01*
X108359030Y-91581495D01*
X108201495Y-91739030D01*
X108077721Y-91924271D01*
X107992464Y-92130100D01*
X107949000Y-92348606D01*
X98406000Y-92348606D01*
X98406000Y-91078606D01*
X110489000Y-91078606D01*
X110489000Y-91301394D01*
X110532464Y-91519900D01*
X110617721Y-91725729D01*
X110741495Y-91910970D01*
X110899030Y-92068505D01*
X111084271Y-92192279D01*
X111290100Y-92277536D01*
X111508606Y-92321000D01*
X111731394Y-92321000D01*
X111949900Y-92277536D01*
X112155729Y-92192279D01*
X112340970Y-92068505D01*
X112498505Y-91910970D01*
X112622279Y-91725729D01*
X112707536Y-91519900D01*
X112751000Y-91301394D01*
X112751000Y-91078606D01*
X112707536Y-90860100D01*
X112622279Y-90654271D01*
X112498505Y-90469030D01*
X112340970Y-90311495D01*
X112155729Y-90187721D01*
X111949900Y-90102464D01*
X111731394Y-90059000D01*
X111508606Y-90059000D01*
X111290100Y-90102464D01*
X111084271Y-90187721D01*
X110899030Y-90311495D01*
X110741495Y-90469030D01*
X110617721Y-90654271D01*
X110532464Y-90860100D01*
X110489000Y-91078606D01*
X98406000Y-91078606D01*
X98406000Y-89808606D01*
X107949000Y-89808606D01*
X107949000Y-90031394D01*
X107992464Y-90249900D01*
X108077721Y-90455729D01*
X108201495Y-90640970D01*
X108359030Y-90798505D01*
X108544271Y-90922279D01*
X108750100Y-91007536D01*
X108968606Y-91051000D01*
X109191394Y-91051000D01*
X109409900Y-91007536D01*
X109615729Y-90922279D01*
X109800970Y-90798505D01*
X109958505Y-90640970D01*
X110082279Y-90455729D01*
X110167536Y-90249900D01*
X110211000Y-90031394D01*
X110211000Y-89808606D01*
X110167536Y-89590100D01*
X110082279Y-89384271D01*
X109958505Y-89199030D01*
X109800970Y-89041495D01*
X109615729Y-88917721D01*
X109409900Y-88832464D01*
X109191394Y-88789000D01*
X108968606Y-88789000D01*
X108750100Y-88832464D01*
X108544271Y-88917721D01*
X108359030Y-89041495D01*
X108201495Y-89199030D01*
X108077721Y-89384271D01*
X107992464Y-89590100D01*
X107949000Y-89808606D01*
X98406000Y-89808606D01*
X98406000Y-85914889D01*
X100749000Y-85914889D01*
X100749000Y-86305111D01*
X100825129Y-86687836D01*
X100974461Y-87048355D01*
X101191257Y-87372814D01*
X101467186Y-87648743D01*
X101791645Y-87865539D01*
X102152164Y-88014871D01*
X102534889Y-88091000D01*
X102925111Y-88091000D01*
X103307836Y-88014871D01*
X103668355Y-87865539D01*
X103992814Y-87648743D01*
X104268743Y-87372814D01*
X104485539Y-87048355D01*
X104634871Y-86687836D01*
X104646375Y-86630000D01*
X107947157Y-86630000D01*
X107947157Y-88130000D01*
X107954513Y-88204689D01*
X107976299Y-88276508D01*
X108011678Y-88342696D01*
X108059289Y-88400711D01*
X108117304Y-88448322D01*
X108183492Y-88483701D01*
X108255311Y-88505487D01*
X108330000Y-88512843D01*
X109830000Y-88512843D01*
X109904689Y-88505487D01*
X109976508Y-88483701D01*
X110042696Y-88448322D01*
X110100711Y-88400711D01*
X110148322Y-88342696D01*
X110183701Y-88276508D01*
X110205487Y-88204689D01*
X110212843Y-88130000D01*
X110212843Y-86630000D01*
X110205487Y-86555311D01*
X110183701Y-86483492D01*
X110148322Y-86417304D01*
X110100711Y-86359289D01*
X110042696Y-86311678D01*
X109976508Y-86276299D01*
X109904689Y-86254513D01*
X109830000Y-86247157D01*
X108330000Y-86247157D01*
X108255311Y-86254513D01*
X108183492Y-86276299D01*
X108117304Y-86311678D01*
X108059289Y-86359289D01*
X108011678Y-86417304D01*
X107976299Y-86483492D01*
X107954513Y-86555311D01*
X107947157Y-86630000D01*
X104646375Y-86630000D01*
X104711000Y-86305111D01*
X104711000Y-85914889D01*
X104634871Y-85532164D01*
X104485539Y-85171645D01*
X104268743Y-84847186D01*
X103992814Y-84571257D01*
X103668355Y-84354461D01*
X103307836Y-84205129D01*
X102925111Y-84129000D01*
X102534889Y-84129000D01*
X102152164Y-84205129D01*
X101791645Y-84354461D01*
X101467186Y-84571257D01*
X101191257Y-84847186D01*
X100974461Y-85171645D01*
X100825129Y-85532164D01*
X100749000Y-85914889D01*
X98406000Y-85914889D01*
X98406000Y-78891678D01*
X130206800Y-78891678D01*
X130206800Y-79045522D01*
X130236813Y-79196409D01*
X130295687Y-79338542D01*
X130356801Y-79430006D01*
X130356800Y-82847212D01*
X130353748Y-82878202D01*
X130356800Y-82909192D01*
X130356800Y-82909199D01*
X130365930Y-83001899D01*
X130402011Y-83120843D01*
X130460604Y-83230462D01*
X130539457Y-83326545D01*
X130563537Y-83346307D01*
X133614296Y-86397067D01*
X133634054Y-86421142D01*
X133654117Y-86437608D01*
X133639895Y-86451830D01*
X133516121Y-86637071D01*
X133430864Y-86842900D01*
X133387400Y-87061406D01*
X133387400Y-87284194D01*
X133430864Y-87502700D01*
X133516121Y-87708529D01*
X133639895Y-87893770D01*
X133797430Y-88051305D01*
X133982671Y-88175079D01*
X134188500Y-88260336D01*
X134407006Y-88303800D01*
X134629794Y-88303800D01*
X134848300Y-88260336D01*
X135054129Y-88175079D01*
X135239370Y-88051305D01*
X135396905Y-87893770D01*
X135513001Y-87720020D01*
X135513001Y-89165580D01*
X135396905Y-88991830D01*
X135239370Y-88834295D01*
X135054129Y-88710521D01*
X134848300Y-88625264D01*
X134629794Y-88581800D01*
X134407006Y-88581800D01*
X134188500Y-88625264D01*
X133982671Y-88710521D01*
X133797430Y-88834295D01*
X133639895Y-88991830D01*
X133516121Y-89177071D01*
X133430864Y-89382900D01*
X133387400Y-89601406D01*
X133387400Y-89824194D01*
X133430864Y-90042700D01*
X133516121Y-90248529D01*
X133639895Y-90433770D01*
X133797430Y-90591305D01*
X133982671Y-90715079D01*
X134188500Y-90800336D01*
X134407006Y-90843800D01*
X134629794Y-90843800D01*
X134848300Y-90800336D01*
X135054129Y-90715079D01*
X135239370Y-90591305D01*
X135396905Y-90433770D01*
X135513001Y-90260020D01*
X135513001Y-91705579D01*
X135396905Y-91531830D01*
X135239370Y-91374295D01*
X135054129Y-91250521D01*
X134848300Y-91165264D01*
X134629794Y-91121800D01*
X134407006Y-91121800D01*
X134188500Y-91165264D01*
X133982671Y-91250521D01*
X133797430Y-91374295D01*
X133639895Y-91531830D01*
X133516121Y-91717071D01*
X133430864Y-91922900D01*
X133387400Y-92141406D01*
X133387400Y-92364194D01*
X133430864Y-92582700D01*
X133516121Y-92788529D01*
X133639895Y-92973770D01*
X133797430Y-93131305D01*
X133982671Y-93255079D01*
X134188500Y-93340336D01*
X134407006Y-93383800D01*
X134629794Y-93383800D01*
X134848300Y-93340336D01*
X135054129Y-93255079D01*
X135239370Y-93131305D01*
X135396905Y-92973770D01*
X135513000Y-92800021D01*
X135513000Y-94245579D01*
X135396905Y-94071830D01*
X135239370Y-93914295D01*
X135054129Y-93790521D01*
X134848300Y-93705264D01*
X134629794Y-93661800D01*
X134407006Y-93661800D01*
X134188500Y-93705264D01*
X133982671Y-93790521D01*
X133797430Y-93914295D01*
X133639895Y-94071830D01*
X133516121Y-94257071D01*
X133430864Y-94462900D01*
X133387400Y-94681406D01*
X133387400Y-94904194D01*
X133430864Y-95122700D01*
X133516121Y-95328529D01*
X133639895Y-95513770D01*
X133797430Y-95671305D01*
X133982671Y-95795079D01*
X134188500Y-95880336D01*
X134407006Y-95923800D01*
X134629794Y-95923800D01*
X134848300Y-95880336D01*
X135054129Y-95795079D01*
X135239370Y-95671305D01*
X135396905Y-95513770D01*
X135513000Y-95340021D01*
X135513000Y-96727200D01*
X135473993Y-96727200D01*
X135396905Y-96611830D01*
X135239370Y-96454295D01*
X135054129Y-96330521D01*
X134848300Y-96245264D01*
X134629794Y-96201800D01*
X134407006Y-96201800D01*
X134188500Y-96245264D01*
X133982671Y-96330521D01*
X133797430Y-96454295D01*
X133639895Y-96611830D01*
X133516121Y-96797071D01*
X133430864Y-97002900D01*
X133387400Y-97221406D01*
X133387400Y-97444194D01*
X133430864Y-97662700D01*
X133516121Y-97868529D01*
X133639895Y-98053770D01*
X133797430Y-98211305D01*
X133982671Y-98335079D01*
X134188500Y-98420336D01*
X134407006Y-98463800D01*
X134629794Y-98463800D01*
X134848300Y-98420336D01*
X135054129Y-98335079D01*
X135239370Y-98211305D01*
X135396905Y-98053770D01*
X135440049Y-97989200D01*
X135882632Y-97989200D01*
X136895098Y-99001667D01*
X136914856Y-99025742D01*
X137010938Y-99104595D01*
X137120557Y-99163188D01*
X137239501Y-99199269D01*
X137332201Y-99208399D01*
X137332208Y-99208399D01*
X137363199Y-99211451D01*
X137394189Y-99208399D01*
X153922097Y-99208399D01*
X153836121Y-99337071D01*
X153750864Y-99542900D01*
X153707400Y-99761406D01*
X153707400Y-99984194D01*
X153750864Y-100202700D01*
X153836121Y-100408529D01*
X153959895Y-100593770D01*
X154117430Y-100751305D01*
X154302671Y-100875079D01*
X154508500Y-100960336D01*
X154727006Y-101003800D01*
X154949794Y-101003800D01*
X155168300Y-100960336D01*
X155374129Y-100875079D01*
X155559370Y-100751305D01*
X155716905Y-100593770D01*
X155840679Y-100408529D01*
X155925936Y-100202700D01*
X155969400Y-99984194D01*
X155969400Y-99761406D01*
X155925936Y-99542900D01*
X155840679Y-99337071D01*
X155754703Y-99208399D01*
X156154996Y-99208399D01*
X156246459Y-99269512D01*
X156388592Y-99328386D01*
X156539479Y-99358399D01*
X156693323Y-99358399D01*
X156844210Y-99328386D01*
X156986343Y-99269512D01*
X157114260Y-99184041D01*
X157223043Y-99075258D01*
X157308514Y-98947341D01*
X157367388Y-98805208D01*
X157397401Y-98654321D01*
X157397401Y-98500477D01*
X157367388Y-98349590D01*
X157308514Y-98207457D01*
X157223043Y-98079540D01*
X157122401Y-97978898D01*
X157122401Y-96042999D01*
X163384957Y-96042999D01*
X163384957Y-96743001D01*
X163397117Y-96866462D01*
X163433129Y-96985179D01*
X163491610Y-97094589D01*
X163570312Y-97190488D01*
X163666211Y-97269190D01*
X163775621Y-97327671D01*
X163894338Y-97363683D01*
X164017799Y-97375843D01*
X165267801Y-97375843D01*
X165391262Y-97363683D01*
X165509979Y-97327671D01*
X165619389Y-97269190D01*
X165715288Y-97190488D01*
X165793990Y-97094589D01*
X165852471Y-96985179D01*
X165888483Y-96866462D01*
X165900643Y-96743001D01*
X165900643Y-96042999D01*
X165888483Y-95919538D01*
X165852471Y-95800821D01*
X165793990Y-95691411D01*
X165715288Y-95595512D01*
X165619389Y-95516810D01*
X165509979Y-95458329D01*
X165391262Y-95422317D01*
X165267801Y-95410157D01*
X164017799Y-95410157D01*
X163894338Y-95422317D01*
X163775621Y-95458329D01*
X163666211Y-95516810D01*
X163570312Y-95595512D01*
X163491610Y-95691411D01*
X163433129Y-95800821D01*
X163397117Y-95919538D01*
X163384957Y-96042999D01*
X157122401Y-96042999D01*
X157122401Y-94393000D01*
X163382054Y-94393000D01*
X163400995Y-94585310D01*
X163457089Y-94770229D01*
X163548182Y-94940651D01*
X163670772Y-95090028D01*
X163820149Y-95212618D01*
X163990571Y-95303711D01*
X164175490Y-95359805D01*
X164319613Y-95374000D01*
X164965987Y-95374000D01*
X165110110Y-95359805D01*
X165295029Y-95303711D01*
X165465451Y-95212618D01*
X165614828Y-95090028D01*
X165737418Y-94940651D01*
X165828511Y-94770229D01*
X165884605Y-94585310D01*
X165903546Y-94393000D01*
X165884605Y-94200690D01*
X165828511Y-94015771D01*
X165737418Y-93845349D01*
X165614828Y-93695972D01*
X165465451Y-93573382D01*
X165295029Y-93482289D01*
X165110110Y-93426195D01*
X164965987Y-93412000D01*
X164319613Y-93412000D01*
X164175490Y-93426195D01*
X163990571Y-93482289D01*
X163820149Y-93573382D01*
X163670772Y-93695972D01*
X163548182Y-93845349D01*
X163457089Y-94015771D01*
X163400995Y-94200690D01*
X163382054Y-94393000D01*
X157122401Y-94393000D01*
X157122401Y-93503790D01*
X158120113Y-92506078D01*
X158654800Y-92506078D01*
X158654800Y-92659922D01*
X158684813Y-92810809D01*
X158743687Y-92952942D01*
X158829158Y-93080859D01*
X158937941Y-93189642D01*
X159065858Y-93275113D01*
X159207991Y-93333987D01*
X159358878Y-93364000D01*
X159512722Y-93364000D01*
X159663609Y-93333987D01*
X159805742Y-93275113D01*
X159933659Y-93189642D01*
X160042442Y-93080859D01*
X160127913Y-92952942D01*
X160186787Y-92810809D01*
X160216800Y-92659922D01*
X160216800Y-92506078D01*
X160194308Y-92393000D01*
X163382054Y-92393000D01*
X163400995Y-92585310D01*
X163457089Y-92770229D01*
X163548182Y-92940651D01*
X163670772Y-93090028D01*
X163820149Y-93212618D01*
X163990571Y-93303711D01*
X164175490Y-93359805D01*
X164319613Y-93374000D01*
X164965987Y-93374000D01*
X165110110Y-93359805D01*
X165295029Y-93303711D01*
X165465451Y-93212618D01*
X165614828Y-93090028D01*
X165737418Y-92940651D01*
X165828511Y-92770229D01*
X165884605Y-92585310D01*
X165903546Y-92393000D01*
X165884605Y-92200690D01*
X165828511Y-92015771D01*
X165737418Y-91845349D01*
X165614828Y-91695972D01*
X165465451Y-91573382D01*
X165295029Y-91482289D01*
X165110110Y-91426195D01*
X164965987Y-91412000D01*
X164319613Y-91412000D01*
X164175490Y-91426195D01*
X163990571Y-91482289D01*
X163820149Y-91573382D01*
X163670772Y-91695972D01*
X163548182Y-91845349D01*
X163457089Y-92015771D01*
X163400995Y-92200690D01*
X163382054Y-92393000D01*
X160194308Y-92393000D01*
X160186787Y-92355191D01*
X160127913Y-92213058D01*
X160042442Y-92085141D01*
X159933659Y-91976358D01*
X159805742Y-91890887D01*
X159663609Y-91832013D01*
X159512722Y-91802000D01*
X159358878Y-91802000D01*
X159207991Y-91832013D01*
X159065858Y-91890887D01*
X158937941Y-91976358D01*
X158829158Y-92085141D01*
X158743687Y-92213058D01*
X158684813Y-92355191D01*
X158654800Y-92506078D01*
X158120113Y-92506078D01*
X160945192Y-89681000D01*
X161087522Y-89681000D01*
X161238409Y-89650987D01*
X161380542Y-89592113D01*
X161508459Y-89506642D01*
X161617242Y-89397859D01*
X161702713Y-89269942D01*
X161761587Y-89127809D01*
X161791600Y-88976922D01*
X161791600Y-88823078D01*
X161761587Y-88672191D01*
X161702713Y-88530058D01*
X161617242Y-88402141D01*
X161508459Y-88293358D01*
X161380542Y-88207887D01*
X161238409Y-88149013D01*
X161087522Y-88119000D01*
X160933678Y-88119000D01*
X160782791Y-88149013D01*
X160640658Y-88207887D01*
X160512741Y-88293358D01*
X160403958Y-88402141D01*
X160318487Y-88530058D01*
X160259613Y-88672191D01*
X160229600Y-88823078D01*
X160229600Y-88965408D01*
X156276182Y-92918827D01*
X156256875Y-92934672D01*
X156193643Y-93011720D01*
X156168528Y-93058707D01*
X156146656Y-93099625D01*
X156117723Y-93195007D01*
X156107954Y-93294199D01*
X156110402Y-93319055D01*
X156110401Y-97946399D01*
X155788648Y-97946399D01*
X155840679Y-97868529D01*
X155925936Y-97662700D01*
X155969400Y-97444194D01*
X155969400Y-97221406D01*
X155925936Y-97002900D01*
X155840679Y-96797071D01*
X155716905Y-96611830D01*
X155559370Y-96454295D01*
X155374129Y-96330521D01*
X155168300Y-96245264D01*
X154949794Y-96201800D01*
X154727006Y-96201800D01*
X154508500Y-96245264D01*
X154302671Y-96330521D01*
X154117430Y-96454295D01*
X153959895Y-96611830D01*
X153836121Y-96797071D01*
X153750864Y-97002900D01*
X153707400Y-97221406D01*
X153707400Y-97444194D01*
X153750864Y-97662700D01*
X153836121Y-97868529D01*
X153888152Y-97946399D01*
X137624568Y-97946399D01*
X136775000Y-97096832D01*
X136775000Y-94681406D01*
X153707400Y-94681406D01*
X153707400Y-94904194D01*
X153750864Y-95122700D01*
X153836121Y-95328529D01*
X153959895Y-95513770D01*
X154117430Y-95671305D01*
X154302671Y-95795079D01*
X154508500Y-95880336D01*
X154727006Y-95923800D01*
X154949794Y-95923800D01*
X155168300Y-95880336D01*
X155374129Y-95795079D01*
X155559370Y-95671305D01*
X155716905Y-95513770D01*
X155840679Y-95328529D01*
X155925936Y-95122700D01*
X155969400Y-94904194D01*
X155969400Y-94681406D01*
X155925936Y-94462900D01*
X155840679Y-94257071D01*
X155716905Y-94071830D01*
X155559370Y-93914295D01*
X155374129Y-93790521D01*
X155168300Y-93705264D01*
X154949794Y-93661800D01*
X154727006Y-93661800D01*
X154508500Y-93705264D01*
X154302671Y-93790521D01*
X154117430Y-93914295D01*
X153959895Y-94071830D01*
X153836121Y-94257071D01*
X153750864Y-94462900D01*
X153707400Y-94681406D01*
X136775000Y-94681406D01*
X136775000Y-92141406D01*
X153707400Y-92141406D01*
X153707400Y-92364194D01*
X153750864Y-92582700D01*
X153836121Y-92788529D01*
X153959895Y-92973770D01*
X154117430Y-93131305D01*
X154302671Y-93255079D01*
X154508500Y-93340336D01*
X154727006Y-93383800D01*
X154949794Y-93383800D01*
X155168300Y-93340336D01*
X155374129Y-93255079D01*
X155559370Y-93131305D01*
X155716905Y-92973770D01*
X155840679Y-92788529D01*
X155925936Y-92582700D01*
X155969400Y-92364194D01*
X155969400Y-92141406D01*
X155925936Y-91922900D01*
X155840679Y-91717071D01*
X155716905Y-91531830D01*
X155559370Y-91374295D01*
X155374129Y-91250521D01*
X155168300Y-91165264D01*
X154949794Y-91121800D01*
X154727006Y-91121800D01*
X154508500Y-91165264D01*
X154302671Y-91250521D01*
X154117430Y-91374295D01*
X153959895Y-91531830D01*
X153836121Y-91717071D01*
X153750864Y-91922900D01*
X153707400Y-92141406D01*
X136775000Y-92141406D01*
X136775000Y-89601406D01*
X153707400Y-89601406D01*
X153707400Y-89824194D01*
X153750864Y-90042700D01*
X153836121Y-90248529D01*
X153959895Y-90433770D01*
X154117430Y-90591305D01*
X154302671Y-90715079D01*
X154508500Y-90800336D01*
X154727006Y-90843800D01*
X154949794Y-90843800D01*
X155168300Y-90800336D01*
X155374129Y-90715079D01*
X155559370Y-90591305D01*
X155716905Y-90433770D01*
X155840679Y-90248529D01*
X155925936Y-90042700D01*
X155969400Y-89824194D01*
X155969400Y-89601406D01*
X155925936Y-89382900D01*
X155840679Y-89177071D01*
X155716905Y-88991830D01*
X155559370Y-88834295D01*
X155374129Y-88710521D01*
X155168300Y-88625264D01*
X154949794Y-88581800D01*
X154727006Y-88581800D01*
X154508500Y-88625264D01*
X154302671Y-88710521D01*
X154117430Y-88834295D01*
X153959895Y-88991830D01*
X153836121Y-89177071D01*
X153750864Y-89382900D01*
X153707400Y-89601406D01*
X136775000Y-89601406D01*
X136775000Y-87053385D01*
X136778052Y-87022397D01*
X136775000Y-86991409D01*
X136775000Y-86991400D01*
X136765870Y-86898700D01*
X136729789Y-86779756D01*
X136671196Y-86670137D01*
X136638256Y-86630000D01*
X136612103Y-86598132D01*
X136612101Y-86598130D01*
X136592343Y-86574055D01*
X136568268Y-86554297D01*
X135562506Y-85548536D01*
X135542744Y-85524456D01*
X135446662Y-85445603D01*
X135354392Y-85396283D01*
X135396905Y-85353770D01*
X135520679Y-85168529D01*
X135605936Y-84962700D01*
X135649400Y-84744194D01*
X135649400Y-84521406D01*
X135605936Y-84302900D01*
X135551650Y-84171841D01*
X138842800Y-87462992D01*
X138842800Y-87605322D01*
X138872813Y-87756209D01*
X138931687Y-87898342D01*
X139017158Y-88026259D01*
X139125941Y-88135042D01*
X139253858Y-88220513D01*
X139395991Y-88279387D01*
X139546878Y-88309400D01*
X139700722Y-88309400D01*
X139851609Y-88279387D01*
X139993742Y-88220513D01*
X140121659Y-88135042D01*
X140230442Y-88026259D01*
X140315913Y-87898342D01*
X140374787Y-87756209D01*
X140404800Y-87605322D01*
X140404800Y-87451478D01*
X140374787Y-87300591D01*
X140315913Y-87158458D01*
X140251066Y-87061406D01*
X153707400Y-87061406D01*
X153707400Y-87284194D01*
X153750864Y-87502700D01*
X153836121Y-87708529D01*
X153959895Y-87893770D01*
X154117430Y-88051305D01*
X154302671Y-88175079D01*
X154508500Y-88260336D01*
X154727006Y-88303800D01*
X154949794Y-88303800D01*
X155168300Y-88260336D01*
X155374129Y-88175079D01*
X155559370Y-88051305D01*
X155716905Y-87893770D01*
X155840679Y-87708529D01*
X155925936Y-87502700D01*
X155969400Y-87284194D01*
X155969400Y-87061406D01*
X155925936Y-86842900D01*
X155840679Y-86637071D01*
X155716905Y-86451830D01*
X155559370Y-86294295D01*
X155374129Y-86170521D01*
X155168300Y-86085264D01*
X154949794Y-86041800D01*
X154727006Y-86041800D01*
X154508500Y-86085264D01*
X154302671Y-86170521D01*
X154117430Y-86294295D01*
X153959895Y-86451830D01*
X153836121Y-86637071D01*
X153750864Y-86842900D01*
X153707400Y-87061406D01*
X140251066Y-87061406D01*
X140230442Y-87030541D01*
X140121659Y-86921758D01*
X139993742Y-86836287D01*
X139851609Y-86777413D01*
X139700722Y-86747400D01*
X139558392Y-86747400D01*
X137332398Y-84521406D01*
X153707400Y-84521406D01*
X153707400Y-84744194D01*
X153750864Y-84962700D01*
X153836121Y-85168529D01*
X153959895Y-85353770D01*
X154117430Y-85511305D01*
X154302671Y-85635079D01*
X154508500Y-85720336D01*
X154727006Y-85763800D01*
X154949794Y-85763800D01*
X155168300Y-85720336D01*
X155374129Y-85635079D01*
X155559370Y-85511305D01*
X155716905Y-85353770D01*
X155840679Y-85168529D01*
X155925936Y-84962700D01*
X155969400Y-84744194D01*
X155969400Y-84521406D01*
X155925936Y-84302900D01*
X155840679Y-84097071D01*
X155716905Y-83911830D01*
X155559370Y-83754295D01*
X155374129Y-83630521D01*
X155168300Y-83545264D01*
X154949794Y-83501800D01*
X154727006Y-83501800D01*
X154508500Y-83545264D01*
X154302671Y-83630521D01*
X154117430Y-83754295D01*
X153959895Y-83911830D01*
X153836121Y-84097071D01*
X153750864Y-84302900D01*
X153707400Y-84521406D01*
X137332398Y-84521406D01*
X135935176Y-83124185D01*
X135919327Y-83104873D01*
X135842279Y-83041641D01*
X135754375Y-82994655D01*
X135658993Y-82965722D01*
X135584654Y-82958400D01*
X135584646Y-82958400D01*
X135559800Y-82955953D01*
X135534954Y-82958400D01*
X135252275Y-82958400D01*
X135396905Y-82813770D01*
X135520679Y-82628529D01*
X135605936Y-82422700D01*
X135649400Y-82204194D01*
X135649400Y-81981406D01*
X153707400Y-81981406D01*
X153707400Y-82204194D01*
X153750864Y-82422700D01*
X153836121Y-82628529D01*
X153959895Y-82813770D01*
X154117430Y-82971305D01*
X154302671Y-83095079D01*
X154508500Y-83180336D01*
X154727006Y-83223800D01*
X154949794Y-83223800D01*
X155168300Y-83180336D01*
X155374129Y-83095079D01*
X155559370Y-82971305D01*
X155716905Y-82813770D01*
X155840679Y-82628529D01*
X155925936Y-82422700D01*
X155969400Y-82204194D01*
X155969400Y-81981406D01*
X155925936Y-81762900D01*
X155840679Y-81557071D01*
X155716905Y-81371830D01*
X155559370Y-81214295D01*
X155374129Y-81090521D01*
X155168300Y-81005264D01*
X154949794Y-80961800D01*
X154727006Y-80961800D01*
X154508500Y-81005264D01*
X154302671Y-81090521D01*
X154117430Y-81214295D01*
X153959895Y-81371830D01*
X153836121Y-81557071D01*
X153750864Y-81762900D01*
X153707400Y-81981406D01*
X135649400Y-81981406D01*
X135605936Y-81762900D01*
X135520679Y-81557071D01*
X135396905Y-81371830D01*
X135239370Y-81214295D01*
X135054129Y-81090521D01*
X134848300Y-81005264D01*
X134629794Y-80961800D01*
X134407006Y-80961800D01*
X134188500Y-81005264D01*
X133982671Y-81090521D01*
X133797430Y-81214295D01*
X133639895Y-81371830D01*
X133516121Y-81557071D01*
X133430864Y-81762900D01*
X133387400Y-81981406D01*
X133387400Y-82204194D01*
X133430864Y-82422700D01*
X133516121Y-82628529D01*
X133639895Y-82813770D01*
X133784525Y-82958400D01*
X133440197Y-82958400D01*
X133389742Y-82924687D01*
X133247609Y-82865813D01*
X133096722Y-82835800D01*
X132942878Y-82835800D01*
X132791991Y-82865813D01*
X132649858Y-82924687D01*
X132521941Y-83010158D01*
X132413158Y-83118941D01*
X132327687Y-83246858D01*
X132304588Y-83302622D01*
X131618800Y-82616834D01*
X131618800Y-79441406D01*
X133387400Y-79441406D01*
X133387400Y-79664194D01*
X133430864Y-79882700D01*
X133516121Y-80088529D01*
X133639895Y-80273770D01*
X133797430Y-80431305D01*
X133982671Y-80555079D01*
X134188500Y-80640336D01*
X134407006Y-80683800D01*
X134629794Y-80683800D01*
X134848300Y-80640336D01*
X135054129Y-80555079D01*
X135239370Y-80431305D01*
X135396905Y-80273770D01*
X135520679Y-80088529D01*
X135605936Y-79882700D01*
X135649400Y-79664194D01*
X135649400Y-79441406D01*
X153707400Y-79441406D01*
X153707400Y-79664194D01*
X153750864Y-79882700D01*
X153836121Y-80088529D01*
X153959895Y-80273770D01*
X154117430Y-80431305D01*
X154302671Y-80555079D01*
X154508500Y-80640336D01*
X154727006Y-80683800D01*
X154949794Y-80683800D01*
X155168300Y-80640336D01*
X155374129Y-80555079D01*
X155559370Y-80431305D01*
X155716905Y-80273770D01*
X155840679Y-80088529D01*
X155925936Y-79882700D01*
X155969400Y-79664194D01*
X155969400Y-79441406D01*
X155925936Y-79222900D01*
X155840679Y-79017071D01*
X155716905Y-78831830D01*
X155559370Y-78674295D01*
X155374129Y-78550521D01*
X155168300Y-78465264D01*
X154949794Y-78421800D01*
X154727006Y-78421800D01*
X154508500Y-78465264D01*
X154302671Y-78550521D01*
X154117430Y-78674295D01*
X153959895Y-78831830D01*
X153836121Y-79017071D01*
X153750864Y-79222900D01*
X153707400Y-79441406D01*
X135649400Y-79441406D01*
X135605936Y-79222900D01*
X135520679Y-79017071D01*
X135396905Y-78831830D01*
X135239370Y-78674295D01*
X135054129Y-78550521D01*
X134848300Y-78465264D01*
X134629794Y-78421800D01*
X134407006Y-78421800D01*
X134188500Y-78465264D01*
X133982671Y-78550521D01*
X133797430Y-78674295D01*
X133639895Y-78831830D01*
X133516121Y-79017071D01*
X133430864Y-79222900D01*
X133387400Y-79441406D01*
X131618800Y-79441406D01*
X131618800Y-79430005D01*
X131679913Y-79338542D01*
X131738787Y-79196409D01*
X131768800Y-79045522D01*
X131768800Y-78891678D01*
X131738787Y-78740791D01*
X131679913Y-78598658D01*
X131594442Y-78470741D01*
X131485659Y-78361958D01*
X131357742Y-78276487D01*
X131215609Y-78217613D01*
X131064722Y-78187600D01*
X130910878Y-78187600D01*
X130759991Y-78217613D01*
X130617858Y-78276487D01*
X130489941Y-78361958D01*
X130381158Y-78470741D01*
X130295687Y-78598658D01*
X130236813Y-78740791D01*
X130206800Y-78891678D01*
X98406000Y-78891678D01*
X98406000Y-76901406D01*
X133387400Y-76901406D01*
X133387400Y-77124194D01*
X133430864Y-77342700D01*
X133516121Y-77548529D01*
X133639895Y-77733770D01*
X133797430Y-77891305D01*
X133982671Y-78015079D01*
X134188500Y-78100336D01*
X134407006Y-78143800D01*
X134629794Y-78143800D01*
X134848300Y-78100336D01*
X135054129Y-78015079D01*
X135239370Y-77891305D01*
X135396905Y-77733770D01*
X135520679Y-77548529D01*
X135605936Y-77342700D01*
X135649400Y-77124194D01*
X135649400Y-76901406D01*
X153707400Y-76901406D01*
X153707400Y-77124194D01*
X153750864Y-77342700D01*
X153836121Y-77548529D01*
X153959895Y-77733770D01*
X154117430Y-77891305D01*
X154302671Y-78015079D01*
X154508500Y-78100336D01*
X154727006Y-78143800D01*
X154949794Y-78143800D01*
X155168300Y-78100336D01*
X155374129Y-78015079D01*
X155559370Y-77891305D01*
X155716905Y-77733770D01*
X155840679Y-77548529D01*
X155925936Y-77342700D01*
X155969400Y-77124194D01*
X155969400Y-76901406D01*
X155925936Y-76682900D01*
X155840679Y-76477071D01*
X155716905Y-76291830D01*
X155559370Y-76134295D01*
X155374129Y-76010521D01*
X155168300Y-75925264D01*
X154949794Y-75881800D01*
X154727006Y-75881800D01*
X154508500Y-75925264D01*
X154302671Y-76010521D01*
X154117430Y-76134295D01*
X153959895Y-76291830D01*
X153836121Y-76477071D01*
X153750864Y-76682900D01*
X153707400Y-76901406D01*
X135649400Y-76901406D01*
X135605936Y-76682900D01*
X135520679Y-76477071D01*
X135396905Y-76291830D01*
X135239370Y-76134295D01*
X135054129Y-76010521D01*
X134848300Y-75925264D01*
X134629794Y-75881800D01*
X134407006Y-75881800D01*
X134188500Y-75925264D01*
X133982671Y-76010521D01*
X133797430Y-76134295D01*
X133639895Y-76291830D01*
X133516121Y-76477071D01*
X133430864Y-76682900D01*
X133387400Y-76901406D01*
X98406000Y-76901406D01*
X98406000Y-74361406D01*
X133387400Y-74361406D01*
X133387400Y-74584194D01*
X133430864Y-74802700D01*
X133516121Y-75008529D01*
X133639895Y-75193770D01*
X133797430Y-75351305D01*
X133982671Y-75475079D01*
X134188500Y-75560336D01*
X134407006Y-75603800D01*
X134629794Y-75603800D01*
X134848300Y-75560336D01*
X135054129Y-75475079D01*
X135239370Y-75351305D01*
X135396905Y-75193770D01*
X135520679Y-75008529D01*
X135605936Y-74802700D01*
X135649400Y-74584194D01*
X135649400Y-74361406D01*
X153707400Y-74361406D01*
X153707400Y-74584194D01*
X153750864Y-74802700D01*
X153836121Y-75008529D01*
X153959895Y-75193770D01*
X154117430Y-75351305D01*
X154302671Y-75475079D01*
X154508500Y-75560336D01*
X154727006Y-75603800D01*
X154949794Y-75603800D01*
X155168300Y-75560336D01*
X155374129Y-75475079D01*
X155559370Y-75351305D01*
X155716905Y-75193770D01*
X155840679Y-75008529D01*
X155925936Y-74802700D01*
X155969400Y-74584194D01*
X155969400Y-74361406D01*
X155925936Y-74142900D01*
X155840679Y-73937071D01*
X155716905Y-73751830D01*
X155559370Y-73594295D01*
X155374129Y-73470521D01*
X155168300Y-73385264D01*
X154949794Y-73341800D01*
X154727006Y-73341800D01*
X154508500Y-73385264D01*
X154302671Y-73470521D01*
X154117430Y-73594295D01*
X153959895Y-73751830D01*
X153836121Y-73937071D01*
X153750864Y-74142900D01*
X153707400Y-74361406D01*
X135649400Y-74361406D01*
X135605936Y-74142900D01*
X135520679Y-73937071D01*
X135396905Y-73751830D01*
X135239370Y-73594295D01*
X135054129Y-73470521D01*
X134848300Y-73385264D01*
X134629794Y-73341800D01*
X134407006Y-73341800D01*
X134188500Y-73385264D01*
X133982671Y-73470521D01*
X133797430Y-73594295D01*
X133639895Y-73751830D01*
X133516121Y-73937071D01*
X133430864Y-74142900D01*
X133387400Y-74361406D01*
X98406000Y-74361406D01*
X98406000Y-72184889D01*
X101019000Y-72184889D01*
X101019000Y-72575111D01*
X101095129Y-72957836D01*
X101244461Y-73318355D01*
X101461257Y-73642814D01*
X101737186Y-73918743D01*
X102061645Y-74135539D01*
X102422164Y-74284871D01*
X102804889Y-74361000D01*
X103195111Y-74361000D01*
X103577836Y-74284871D01*
X103938355Y-74135539D01*
X104262814Y-73918743D01*
X104538743Y-73642814D01*
X104755539Y-73318355D01*
X104904871Y-72957836D01*
X104981000Y-72575111D01*
X104981000Y-72184889D01*
X104904871Y-71802164D01*
X104755539Y-71441645D01*
X104538743Y-71117186D01*
X104262814Y-70841257D01*
X103938355Y-70624461D01*
X103638341Y-70500191D01*
X134137400Y-70500191D01*
X134137400Y-70825409D01*
X134200847Y-71144379D01*
X134325303Y-71444842D01*
X134505985Y-71715251D01*
X134735949Y-71945215D01*
X135006358Y-72125897D01*
X135306821Y-72250353D01*
X135625791Y-72313800D01*
X135951009Y-72313800D01*
X136269979Y-72250353D01*
X136570442Y-72125897D01*
X136840851Y-71945215D01*
X137070815Y-71715251D01*
X137251497Y-71444842D01*
X137375953Y-71144379D01*
X137439400Y-70825409D01*
X137439400Y-70500191D01*
X151917400Y-70500191D01*
X151917400Y-70825409D01*
X151980847Y-71144379D01*
X152105303Y-71444842D01*
X152285985Y-71715251D01*
X152515949Y-71945215D01*
X152786358Y-72125897D01*
X153086821Y-72250353D01*
X153405791Y-72313800D01*
X153731009Y-72313800D01*
X154049979Y-72250353D01*
X154208022Y-72184889D01*
X161019000Y-72184889D01*
X161019000Y-72575111D01*
X161095129Y-72957836D01*
X161244461Y-73318355D01*
X161461257Y-73642814D01*
X161737186Y-73918743D01*
X162061645Y-74135539D01*
X162422164Y-74284871D01*
X162804889Y-74361000D01*
X163195111Y-74361000D01*
X163577836Y-74284871D01*
X163938355Y-74135539D01*
X164262814Y-73918743D01*
X164538743Y-73642814D01*
X164755539Y-73318355D01*
X164904871Y-72957836D01*
X164981000Y-72575111D01*
X164981000Y-72184889D01*
X164904871Y-71802164D01*
X164755539Y-71441645D01*
X164538743Y-71117186D01*
X164262814Y-70841257D01*
X163938355Y-70624461D01*
X163577836Y-70475129D01*
X163195111Y-70399000D01*
X162804889Y-70399000D01*
X162422164Y-70475129D01*
X162061645Y-70624461D01*
X161737186Y-70841257D01*
X161461257Y-71117186D01*
X161244461Y-71441645D01*
X161095129Y-71802164D01*
X161019000Y-72184889D01*
X154208022Y-72184889D01*
X154350442Y-72125897D01*
X154620851Y-71945215D01*
X154850815Y-71715251D01*
X155031497Y-71444842D01*
X155155953Y-71144379D01*
X155219400Y-70825409D01*
X155219400Y-70500191D01*
X155155953Y-70181221D01*
X155031497Y-69880758D01*
X154850815Y-69610349D01*
X154620851Y-69380385D01*
X154350442Y-69199703D01*
X154049979Y-69075247D01*
X153731009Y-69011800D01*
X153405791Y-69011800D01*
X153086821Y-69075247D01*
X152786358Y-69199703D01*
X152515949Y-69380385D01*
X152285985Y-69610349D01*
X152105303Y-69880758D01*
X151980847Y-70181221D01*
X151917400Y-70500191D01*
X137439400Y-70500191D01*
X137375953Y-70181221D01*
X137251497Y-69880758D01*
X137070815Y-69610349D01*
X136840851Y-69380385D01*
X136570442Y-69199703D01*
X136269979Y-69075247D01*
X135951009Y-69011800D01*
X135625791Y-69011800D01*
X135306821Y-69075247D01*
X135006358Y-69199703D01*
X134735949Y-69380385D01*
X134505985Y-69610349D01*
X134325303Y-69880758D01*
X134200847Y-70181221D01*
X134137400Y-70500191D01*
X103638341Y-70500191D01*
X103577836Y-70475129D01*
X103195111Y-70399000D01*
X102804889Y-70399000D01*
X102422164Y-70475129D01*
X102061645Y-70624461D01*
X101737186Y-70841257D01*
X101461257Y-71117186D01*
X101244461Y-71441645D01*
X101095129Y-71802164D01*
X101019000Y-72184889D01*
X98406000Y-72184889D01*
X98406000Y-67786000D01*
X167594000Y-67786000D01*
X167594001Y-118974000D01*
G37*
X167594001Y-118974000D02*
X98406000Y-118974000D01*
X98406000Y-114184889D01*
X101019000Y-114184889D01*
X101019000Y-114575111D01*
X101095129Y-114957836D01*
X101244461Y-115318355D01*
X101461257Y-115642814D01*
X101737186Y-115918743D01*
X102061645Y-116135539D01*
X102422164Y-116284871D01*
X102804889Y-116361000D01*
X103195111Y-116361000D01*
X103577836Y-116284871D01*
X103733987Y-116220191D01*
X134137400Y-116220191D01*
X134137400Y-116545409D01*
X134200847Y-116864379D01*
X134325303Y-117164842D01*
X134505985Y-117435251D01*
X134735949Y-117665215D01*
X135006358Y-117845897D01*
X135306821Y-117970353D01*
X135625791Y-118033800D01*
X135951009Y-118033800D01*
X136269979Y-117970353D01*
X136570442Y-117845897D01*
X136840851Y-117665215D01*
X137070815Y-117435251D01*
X137251497Y-117164842D01*
X137375953Y-116864379D01*
X137439400Y-116545409D01*
X137439400Y-116220191D01*
X151917400Y-116220191D01*
X151917400Y-116545409D01*
X151980847Y-116864379D01*
X152105303Y-117164842D01*
X152285985Y-117435251D01*
X152515949Y-117665215D01*
X152786358Y-117845897D01*
X153086821Y-117970353D01*
X153405791Y-118033800D01*
X153731009Y-118033800D01*
X154049979Y-117970353D01*
X154350442Y-117845897D01*
X154620851Y-117665215D01*
X154850815Y-117435251D01*
X155031497Y-117164842D01*
X155155953Y-116864379D01*
X155219400Y-116545409D01*
X155219400Y-116220191D01*
X155155953Y-115901221D01*
X155031497Y-115600758D01*
X154850815Y-115330349D01*
X154620851Y-115100385D01*
X154350442Y-114919703D01*
X154049979Y-114795247D01*
X153731009Y-114731800D01*
X153405791Y-114731800D01*
X153086821Y-114795247D01*
X152786358Y-114919703D01*
X152515949Y-115100385D01*
X152285985Y-115330349D01*
X152105303Y-115600758D01*
X151980847Y-115901221D01*
X151917400Y-116220191D01*
X137439400Y-116220191D01*
X137375953Y-115901221D01*
X137251497Y-115600758D01*
X137070815Y-115330349D01*
X136840851Y-115100385D01*
X136570442Y-114919703D01*
X136269979Y-114795247D01*
X135951009Y-114731800D01*
X135625791Y-114731800D01*
X135306821Y-114795247D01*
X135006358Y-114919703D01*
X134735949Y-115100385D01*
X134505985Y-115330349D01*
X134325303Y-115600758D01*
X134200847Y-115901221D01*
X134137400Y-116220191D01*
X103733987Y-116220191D01*
X103938355Y-116135539D01*
X104262814Y-115918743D01*
X104538743Y-115642814D01*
X104755539Y-115318355D01*
X104904871Y-114957836D01*
X104981000Y-114575111D01*
X104981000Y-114184889D01*
X161019000Y-114184889D01*
X161019000Y-114575111D01*
X161095129Y-114957836D01*
X161244461Y-115318355D01*
X161461257Y-115642814D01*
X161737186Y-115918743D01*
X162061645Y-116135539D01*
X162422164Y-116284871D01*
X162804889Y-116361000D01*
X163195111Y-116361000D01*
X163577836Y-116284871D01*
X163938355Y-116135539D01*
X164262814Y-115918743D01*
X164538743Y-115642814D01*
X164755539Y-115318355D01*
X164904871Y-114957836D01*
X164981000Y-114575111D01*
X164981000Y-114184889D01*
X164904871Y-113802164D01*
X164755539Y-113441645D01*
X164538743Y-113117186D01*
X164262814Y-112841257D01*
X163938355Y-112624461D01*
X163577836Y-112475129D01*
X163195111Y-112399000D01*
X162804889Y-112399000D01*
X162422164Y-112475129D01*
X162061645Y-112624461D01*
X161737186Y-112841257D01*
X161461257Y-113117186D01*
X161244461Y-113441645D01*
X161095129Y-113802164D01*
X161019000Y-114184889D01*
X104981000Y-114184889D01*
X104904871Y-113802164D01*
X104755539Y-113441645D01*
X104538743Y-113117186D01*
X104262814Y-112841257D01*
X103938355Y-112624461D01*
X103577836Y-112475129D01*
X103508847Y-112461406D01*
X153707400Y-112461406D01*
X153707400Y-112684194D01*
X153750864Y-112902700D01*
X153836121Y-113108529D01*
X153959895Y-113293770D01*
X154117430Y-113451305D01*
X154302671Y-113575079D01*
X154508500Y-113660336D01*
X154727006Y-113703800D01*
X154949794Y-113703800D01*
X155168300Y-113660336D01*
X155374129Y-113575079D01*
X155559370Y-113451305D01*
X155716905Y-113293770D01*
X155840679Y-113108529D01*
X155925936Y-112902700D01*
X155969400Y-112684194D01*
X155969400Y-112461406D01*
X155925936Y-112242900D01*
X155840679Y-112037071D01*
X155716905Y-111851830D01*
X155559370Y-111694295D01*
X155374129Y-111570521D01*
X155168300Y-111485264D01*
X154949794Y-111441800D01*
X154727006Y-111441800D01*
X154508500Y-111485264D01*
X154302671Y-111570521D01*
X154117430Y-111694295D01*
X153959895Y-111851830D01*
X153836121Y-112037071D01*
X153750864Y-112242900D01*
X153707400Y-112461406D01*
X103508847Y-112461406D01*
X103195111Y-112399000D01*
X102804889Y-112399000D01*
X102422164Y-112475129D01*
X102061645Y-112624461D01*
X101737186Y-112841257D01*
X101461257Y-113117186D01*
X101244461Y-113441645D01*
X101095129Y-113802164D01*
X101019000Y-114184889D01*
X98406000Y-114184889D01*
X98406000Y-110057478D01*
X125863400Y-110057478D01*
X125863400Y-110211322D01*
X125893413Y-110362209D01*
X125952287Y-110504342D01*
X126037758Y-110632259D01*
X126146541Y-110741042D01*
X126274458Y-110826513D01*
X126416591Y-110885387D01*
X126567478Y-110915400D01*
X126721322Y-110915400D01*
X126872209Y-110885387D01*
X127014342Y-110826513D01*
X127142259Y-110741042D01*
X127251042Y-110632259D01*
X127336513Y-110504342D01*
X127395387Y-110362209D01*
X127425400Y-110211322D01*
X127425400Y-110068991D01*
X127572985Y-109921406D01*
X153707400Y-109921406D01*
X153707400Y-110144194D01*
X153750864Y-110362700D01*
X153836121Y-110568529D01*
X153959895Y-110753770D01*
X154117430Y-110911305D01*
X154302671Y-111035079D01*
X154508500Y-111120336D01*
X154727006Y-111163800D01*
X154949794Y-111163800D01*
X155168300Y-111120336D01*
X155374129Y-111035079D01*
X155559370Y-110911305D01*
X155716905Y-110753770D01*
X155840679Y-110568529D01*
X155925936Y-110362700D01*
X155969400Y-110144194D01*
X155969400Y-109921406D01*
X155925936Y-109702900D01*
X155840679Y-109497071D01*
X155716905Y-109311830D01*
X155559370Y-109154295D01*
X155374129Y-109030521D01*
X155168300Y-108945264D01*
X154949794Y-108901800D01*
X154727006Y-108901800D01*
X154508500Y-108945264D01*
X154302671Y-109030521D01*
X154117430Y-109154295D01*
X153959895Y-109311830D01*
X153836121Y-109497071D01*
X153750864Y-109702900D01*
X153707400Y-109921406D01*
X127572985Y-109921406D01*
X130112985Y-107381406D01*
X153707400Y-107381406D01*
X153707400Y-107604194D01*
X153750864Y-107822700D01*
X153836121Y-108028529D01*
X153959895Y-108213770D01*
X154117430Y-108371305D01*
X154302671Y-108495079D01*
X154508500Y-108580336D01*
X154727006Y-108623800D01*
X154949794Y-108623800D01*
X155168300Y-108580336D01*
X155374129Y-108495079D01*
X155559370Y-108371305D01*
X155716905Y-108213770D01*
X155840679Y-108028529D01*
X155925936Y-107822700D01*
X155969400Y-107604194D01*
X155969400Y-107381406D01*
X155925936Y-107162900D01*
X155840679Y-106957071D01*
X155716905Y-106771830D01*
X155559370Y-106614295D01*
X155374129Y-106490521D01*
X155168300Y-106405264D01*
X154949794Y-106361800D01*
X154727006Y-106361800D01*
X154508500Y-106405264D01*
X154302671Y-106490521D01*
X154117430Y-106614295D01*
X153959895Y-106771830D01*
X153836121Y-106957071D01*
X153750864Y-107162900D01*
X153707400Y-107381406D01*
X130112985Y-107381406D01*
X131963020Y-105531372D01*
X131982327Y-105515527D01*
X132045559Y-105438479D01*
X132092545Y-105350575D01*
X132121478Y-105255193D01*
X132128800Y-105180854D01*
X132128800Y-105180853D01*
X132131248Y-105156000D01*
X132128800Y-105131146D01*
X132128800Y-102301406D01*
X133387400Y-102301406D01*
X133387400Y-102524194D01*
X133430864Y-102742700D01*
X133516121Y-102948529D01*
X133639895Y-103133770D01*
X133797430Y-103291305D01*
X133982671Y-103415079D01*
X134188500Y-103500336D01*
X134407006Y-103543800D01*
X134629794Y-103543800D01*
X134848300Y-103500336D01*
X135054129Y-103415079D01*
X135239370Y-103291305D01*
X135396905Y-103133770D01*
X135520679Y-102948529D01*
X135605936Y-102742700D01*
X135649400Y-102524194D01*
X135649400Y-102301406D01*
X153707400Y-102301406D01*
X153707400Y-102524194D01*
X153750864Y-102742700D01*
X153836121Y-102948529D01*
X153959895Y-103133770D01*
X154117430Y-103291305D01*
X154302671Y-103415079D01*
X154508500Y-103500336D01*
X154727006Y-103543800D01*
X154949794Y-103543800D01*
X155168300Y-103500336D01*
X155374129Y-103415079D01*
X155559370Y-103291305D01*
X155716905Y-103133770D01*
X155840679Y-102948529D01*
X155925936Y-102742700D01*
X155969400Y-102524194D01*
X155969400Y-102301406D01*
X155925936Y-102082900D01*
X155840679Y-101877071D01*
X155716905Y-101691830D01*
X155559370Y-101534295D01*
X155374129Y-101410521D01*
X155168300Y-101325264D01*
X154949794Y-101281800D01*
X154727006Y-101281800D01*
X154508500Y-101325264D01*
X154302671Y-101410521D01*
X154117430Y-101534295D01*
X153959895Y-101691830D01*
X153836121Y-101877071D01*
X153750864Y-102082900D01*
X153707400Y-102301406D01*
X135649400Y-102301406D01*
X135605936Y-102082900D01*
X135520679Y-101877071D01*
X135396905Y-101691830D01*
X135239370Y-101534295D01*
X135054129Y-101410521D01*
X134848300Y-101325264D01*
X134629794Y-101281800D01*
X134407006Y-101281800D01*
X134188500Y-101325264D01*
X133982671Y-101410521D01*
X133797430Y-101534295D01*
X133639895Y-101691830D01*
X133516121Y-101877071D01*
X133430864Y-102082900D01*
X133387400Y-102301406D01*
X132128800Y-102301406D01*
X132128800Y-99761406D01*
X133387400Y-99761406D01*
X133387400Y-99984194D01*
X133430864Y-100202700D01*
X133516121Y-100408529D01*
X133639895Y-100593770D01*
X133797430Y-100751305D01*
X133982671Y-100875079D01*
X134188500Y-100960336D01*
X134407006Y-101003800D01*
X134629794Y-101003800D01*
X134848300Y-100960336D01*
X135054129Y-100875079D01*
X135239370Y-100751305D01*
X135396905Y-100593770D01*
X135520679Y-100408529D01*
X135605936Y-100202700D01*
X135649400Y-99984194D01*
X135649400Y-99761406D01*
X135605936Y-99542900D01*
X135520679Y-99337071D01*
X135396905Y-99151830D01*
X135239370Y-98994295D01*
X135054129Y-98870521D01*
X134848300Y-98785264D01*
X134629794Y-98741800D01*
X134407006Y-98741800D01*
X134188500Y-98785264D01*
X133982671Y-98870521D01*
X133797430Y-98994295D01*
X133639895Y-99151830D01*
X133516121Y-99337071D01*
X133430864Y-99542900D01*
X133387400Y-99761406D01*
X132128800Y-99761406D01*
X132128800Y-89701701D01*
X132229442Y-89601059D01*
X132314913Y-89473142D01*
X132373787Y-89331009D01*
X132403800Y-89180122D01*
X132403800Y-89026278D01*
X132373787Y-88875391D01*
X132314913Y-88733258D01*
X132229442Y-88605341D01*
X132120659Y-88496558D01*
X131992742Y-88411087D01*
X131850609Y-88352213D01*
X131699722Y-88322200D01*
X131545878Y-88322200D01*
X131394991Y-88352213D01*
X131252858Y-88411087D01*
X131124941Y-88496558D01*
X131016158Y-88605341D01*
X130930687Y-88733258D01*
X130871813Y-88875391D01*
X130841800Y-89026278D01*
X130841800Y-89180122D01*
X130871813Y-89331009D01*
X130930687Y-89473142D01*
X131016158Y-89601059D01*
X131116801Y-89701702D01*
X131116800Y-104946408D01*
X126709809Y-109353400D01*
X126567478Y-109353400D01*
X126416591Y-109383413D01*
X126274458Y-109442287D01*
X126146541Y-109527758D01*
X126037758Y-109636541D01*
X125952287Y-109764458D01*
X125893413Y-109906591D01*
X125863400Y-110057478D01*
X98406000Y-110057478D01*
X98406000Y-107695278D01*
X116186000Y-107695278D01*
X116186000Y-107849122D01*
X116216013Y-108000009D01*
X116274887Y-108142142D01*
X116360358Y-108270059D01*
X116469141Y-108378842D01*
X116597058Y-108464313D01*
X116739191Y-108523187D01*
X116890078Y-108553200D01*
X117043922Y-108553200D01*
X117194809Y-108523187D01*
X117336942Y-108464313D01*
X117464859Y-108378842D01*
X117565501Y-108278200D01*
X120610299Y-108278200D01*
X120710941Y-108378842D01*
X120838858Y-108464313D01*
X120980991Y-108523187D01*
X121131878Y-108553200D01*
X121285722Y-108553200D01*
X121436609Y-108523187D01*
X121578742Y-108464313D01*
X121706659Y-108378842D01*
X121815442Y-108270059D01*
X121900913Y-108142142D01*
X121959787Y-108000009D01*
X121989800Y-107849122D01*
X121989800Y-107695278D01*
X121959787Y-107544391D01*
X121900913Y-107402258D01*
X121815442Y-107274341D01*
X121714800Y-107173699D01*
X121714800Y-106185276D01*
X124190620Y-103709457D01*
X124209927Y-103693612D01*
X124273159Y-103616564D01*
X124320145Y-103528660D01*
X124349078Y-103433278D01*
X124355530Y-103367771D01*
X124457042Y-103266259D01*
X124542513Y-103138342D01*
X124601387Y-102996209D01*
X124631400Y-102845322D01*
X124631400Y-102691478D01*
X124601387Y-102540591D01*
X124542513Y-102398458D01*
X124457042Y-102270541D01*
X124348259Y-102161758D01*
X124220342Y-102076287D01*
X124078209Y-102017413D01*
X123927322Y-101987400D01*
X123773478Y-101987400D01*
X123622591Y-102017413D01*
X123480458Y-102076287D01*
X123352541Y-102161758D01*
X123243758Y-102270541D01*
X123158287Y-102398458D01*
X123099413Y-102540591D01*
X123069400Y-102691478D01*
X123069400Y-102845322D01*
X123099413Y-102996209D01*
X123158287Y-103138342D01*
X123227286Y-103241607D01*
X120868585Y-105600309D01*
X120849273Y-105616158D01*
X120786041Y-105693206D01*
X120739055Y-105781111D01*
X120710122Y-105876493D01*
X120702800Y-105950832D01*
X120702800Y-105950839D01*
X120700353Y-105975685D01*
X120702800Y-106000532D01*
X120702801Y-107173698D01*
X120610299Y-107266200D01*
X117565501Y-107266200D01*
X117464859Y-107165558D01*
X117336942Y-107080087D01*
X117194809Y-107021213D01*
X117043922Y-106991200D01*
X116890078Y-106991200D01*
X116739191Y-107021213D01*
X116597058Y-107080087D01*
X116469141Y-107165558D01*
X116360358Y-107274341D01*
X116274887Y-107402258D01*
X116216013Y-107544391D01*
X116186000Y-107695278D01*
X98406000Y-107695278D01*
X98406000Y-97344889D01*
X100749000Y-97344889D01*
X100749000Y-97735111D01*
X100825129Y-98117836D01*
X100974461Y-98478355D01*
X101191257Y-98802814D01*
X101467186Y-99078743D01*
X101791645Y-99295539D01*
X102152164Y-99444871D01*
X102534889Y-99521000D01*
X102925111Y-99521000D01*
X103307836Y-99444871D01*
X103668355Y-99295539D01*
X103992814Y-99078743D01*
X104268743Y-98802814D01*
X104485539Y-98478355D01*
X104634871Y-98117836D01*
X104711000Y-97735111D01*
X104711000Y-97344889D01*
X104634871Y-96962164D01*
X104485539Y-96601645D01*
X104268743Y-96277186D01*
X104150163Y-96158606D01*
X110489000Y-96158606D01*
X110489000Y-96381394D01*
X110532464Y-96599900D01*
X110617721Y-96805729D01*
X110741495Y-96990970D01*
X110899030Y-97148505D01*
X111084271Y-97272279D01*
X111290100Y-97357536D01*
X111508606Y-97401000D01*
X111731394Y-97401000D01*
X111949900Y-97357536D01*
X112155729Y-97272279D01*
X112340970Y-97148505D01*
X112498505Y-96990970D01*
X112622279Y-96805729D01*
X112707536Y-96599900D01*
X112751000Y-96381394D01*
X112751000Y-96158606D01*
X112707536Y-95940100D01*
X112622279Y-95734271D01*
X112498505Y-95549030D01*
X112340970Y-95391495D01*
X112155729Y-95267721D01*
X111949900Y-95182464D01*
X111731394Y-95139000D01*
X111508606Y-95139000D01*
X111290100Y-95182464D01*
X111084271Y-95267721D01*
X110899030Y-95391495D01*
X110741495Y-95549030D01*
X110617721Y-95734271D01*
X110532464Y-95940100D01*
X110489000Y-96158606D01*
X104150163Y-96158606D01*
X103992814Y-96001257D01*
X103668355Y-95784461D01*
X103307836Y-95635129D01*
X102925111Y-95559000D01*
X102534889Y-95559000D01*
X102152164Y-95635129D01*
X101791645Y-95784461D01*
X101467186Y-96001257D01*
X101191257Y-96277186D01*
X100974461Y-96601645D01*
X100825129Y-96962164D01*
X100749000Y-97344889D01*
X98406000Y-97344889D01*
X98406000Y-94888606D01*
X107949000Y-94888606D01*
X107949000Y-95111394D01*
X107992464Y-95329900D01*
X108077721Y-95535729D01*
X108201495Y-95720970D01*
X108359030Y-95878505D01*
X108544271Y-96002279D01*
X108750100Y-96087536D01*
X108968606Y-96131000D01*
X109191394Y-96131000D01*
X109409900Y-96087536D01*
X109615729Y-96002279D01*
X109800970Y-95878505D01*
X109958505Y-95720970D01*
X110082279Y-95535729D01*
X110167536Y-95329900D01*
X110211000Y-95111394D01*
X110211000Y-94888606D01*
X110167536Y-94670100D01*
X110082279Y-94464271D01*
X109958505Y-94279030D01*
X109800970Y-94121495D01*
X109615729Y-93997721D01*
X109409900Y-93912464D01*
X109191394Y-93869000D01*
X108968606Y-93869000D01*
X108750100Y-93912464D01*
X108544271Y-93997721D01*
X108359030Y-94121495D01*
X108201495Y-94279030D01*
X108077721Y-94464271D01*
X107992464Y-94670100D01*
X107949000Y-94888606D01*
X98406000Y-94888606D01*
X98406000Y-93618606D01*
X110489000Y-93618606D01*
X110489000Y-93841394D01*
X110532464Y-94059900D01*
X110617721Y-94265729D01*
X110741495Y-94450970D01*
X110899030Y-94608505D01*
X111084271Y-94732279D01*
X111290100Y-94817536D01*
X111508606Y-94861000D01*
X111731394Y-94861000D01*
X111949900Y-94817536D01*
X112155729Y-94732279D01*
X112340970Y-94608505D01*
X112498505Y-94450970D01*
X112622279Y-94265729D01*
X112707536Y-94059900D01*
X112751000Y-93841394D01*
X112751000Y-93618606D01*
X112707536Y-93400100D01*
X112622279Y-93194271D01*
X112498505Y-93009030D01*
X112340970Y-92851495D01*
X112155729Y-92727721D01*
X111949900Y-92642464D01*
X111731394Y-92599000D01*
X111508606Y-92599000D01*
X111290100Y-92642464D01*
X111084271Y-92727721D01*
X110899030Y-92851495D01*
X110741495Y-93009030D01*
X110617721Y-93194271D01*
X110532464Y-93400100D01*
X110489000Y-93618606D01*
X98406000Y-93618606D01*
X98406000Y-92348606D01*
X107949000Y-92348606D01*
X107949000Y-92571394D01*
X107992464Y-92789900D01*
X108077721Y-92995729D01*
X108201495Y-93180970D01*
X108359030Y-93338505D01*
X108544271Y-93462279D01*
X108750100Y-93547536D01*
X108968606Y-93591000D01*
X109191394Y-93591000D01*
X109409900Y-93547536D01*
X109615729Y-93462279D01*
X109800970Y-93338505D01*
X109958505Y-93180970D01*
X110082279Y-92995729D01*
X110167536Y-92789900D01*
X110211000Y-92571394D01*
X110211000Y-92348606D01*
X110167536Y-92130100D01*
X110082279Y-91924271D01*
X109958505Y-91739030D01*
X109800970Y-91581495D01*
X109615729Y-91457721D01*
X109409900Y-91372464D01*
X109191394Y-91329000D01*
X108968606Y-91329000D01*
X108750100Y-91372464D01*
X108544271Y-91457721D01*
X108359030Y-91581495D01*
X108201495Y-91739030D01*
X108077721Y-91924271D01*
X107992464Y-92130100D01*
X107949000Y-92348606D01*
X98406000Y-92348606D01*
X98406000Y-91078606D01*
X110489000Y-91078606D01*
X110489000Y-91301394D01*
X110532464Y-91519900D01*
X110617721Y-91725729D01*
X110741495Y-91910970D01*
X110899030Y-92068505D01*
X111084271Y-92192279D01*
X111290100Y-92277536D01*
X111508606Y-92321000D01*
X111731394Y-92321000D01*
X111949900Y-92277536D01*
X112155729Y-92192279D01*
X112340970Y-92068505D01*
X112498505Y-91910970D01*
X112622279Y-91725729D01*
X112707536Y-91519900D01*
X112751000Y-91301394D01*
X112751000Y-91078606D01*
X112707536Y-90860100D01*
X112622279Y-90654271D01*
X112498505Y-90469030D01*
X112340970Y-90311495D01*
X112155729Y-90187721D01*
X111949900Y-90102464D01*
X111731394Y-90059000D01*
X111508606Y-90059000D01*
X111290100Y-90102464D01*
X111084271Y-90187721D01*
X110899030Y-90311495D01*
X110741495Y-90469030D01*
X110617721Y-90654271D01*
X110532464Y-90860100D01*
X110489000Y-91078606D01*
X98406000Y-91078606D01*
X98406000Y-89808606D01*
X107949000Y-89808606D01*
X107949000Y-90031394D01*
X107992464Y-90249900D01*
X108077721Y-90455729D01*
X108201495Y-90640970D01*
X108359030Y-90798505D01*
X108544271Y-90922279D01*
X108750100Y-91007536D01*
X108968606Y-91051000D01*
X109191394Y-91051000D01*
X109409900Y-91007536D01*
X109615729Y-90922279D01*
X109800970Y-90798505D01*
X109958505Y-90640970D01*
X110082279Y-90455729D01*
X110167536Y-90249900D01*
X110211000Y-90031394D01*
X110211000Y-89808606D01*
X110167536Y-89590100D01*
X110082279Y-89384271D01*
X109958505Y-89199030D01*
X109800970Y-89041495D01*
X109615729Y-88917721D01*
X109409900Y-88832464D01*
X109191394Y-88789000D01*
X108968606Y-88789000D01*
X108750100Y-88832464D01*
X108544271Y-88917721D01*
X108359030Y-89041495D01*
X108201495Y-89199030D01*
X108077721Y-89384271D01*
X107992464Y-89590100D01*
X107949000Y-89808606D01*
X98406000Y-89808606D01*
X98406000Y-85914889D01*
X100749000Y-85914889D01*
X100749000Y-86305111D01*
X100825129Y-86687836D01*
X100974461Y-87048355D01*
X101191257Y-87372814D01*
X101467186Y-87648743D01*
X101791645Y-87865539D01*
X102152164Y-88014871D01*
X102534889Y-88091000D01*
X102925111Y-88091000D01*
X103307836Y-88014871D01*
X103668355Y-87865539D01*
X103992814Y-87648743D01*
X104268743Y-87372814D01*
X104485539Y-87048355D01*
X104634871Y-86687836D01*
X104646375Y-86630000D01*
X107947157Y-86630000D01*
X107947157Y-88130000D01*
X107954513Y-88204689D01*
X107976299Y-88276508D01*
X108011678Y-88342696D01*
X108059289Y-88400711D01*
X108117304Y-88448322D01*
X108183492Y-88483701D01*
X108255311Y-88505487D01*
X108330000Y-88512843D01*
X109830000Y-88512843D01*
X109904689Y-88505487D01*
X109976508Y-88483701D01*
X110042696Y-88448322D01*
X110100711Y-88400711D01*
X110148322Y-88342696D01*
X110183701Y-88276508D01*
X110205487Y-88204689D01*
X110212843Y-88130000D01*
X110212843Y-86630000D01*
X110205487Y-86555311D01*
X110183701Y-86483492D01*
X110148322Y-86417304D01*
X110100711Y-86359289D01*
X110042696Y-86311678D01*
X109976508Y-86276299D01*
X109904689Y-86254513D01*
X109830000Y-86247157D01*
X108330000Y-86247157D01*
X108255311Y-86254513D01*
X108183492Y-86276299D01*
X108117304Y-86311678D01*
X108059289Y-86359289D01*
X108011678Y-86417304D01*
X107976299Y-86483492D01*
X107954513Y-86555311D01*
X107947157Y-86630000D01*
X104646375Y-86630000D01*
X104711000Y-86305111D01*
X104711000Y-85914889D01*
X104634871Y-85532164D01*
X104485539Y-85171645D01*
X104268743Y-84847186D01*
X103992814Y-84571257D01*
X103668355Y-84354461D01*
X103307836Y-84205129D01*
X102925111Y-84129000D01*
X102534889Y-84129000D01*
X102152164Y-84205129D01*
X101791645Y-84354461D01*
X101467186Y-84571257D01*
X101191257Y-84847186D01*
X100974461Y-85171645D01*
X100825129Y-85532164D01*
X100749000Y-85914889D01*
X98406000Y-85914889D01*
X98406000Y-78891678D01*
X130206800Y-78891678D01*
X130206800Y-79045522D01*
X130236813Y-79196409D01*
X130295687Y-79338542D01*
X130356801Y-79430006D01*
X130356800Y-82847212D01*
X130353748Y-82878202D01*
X130356800Y-82909192D01*
X130356800Y-82909199D01*
X130365930Y-83001899D01*
X130402011Y-83120843D01*
X130460604Y-83230462D01*
X130539457Y-83326545D01*
X130563537Y-83346307D01*
X133614296Y-86397067D01*
X133634054Y-86421142D01*
X133654117Y-86437608D01*
X133639895Y-86451830D01*
X133516121Y-86637071D01*
X133430864Y-86842900D01*
X133387400Y-87061406D01*
X133387400Y-87284194D01*
X133430864Y-87502700D01*
X133516121Y-87708529D01*
X133639895Y-87893770D01*
X133797430Y-88051305D01*
X133982671Y-88175079D01*
X134188500Y-88260336D01*
X134407006Y-88303800D01*
X134629794Y-88303800D01*
X134848300Y-88260336D01*
X135054129Y-88175079D01*
X135239370Y-88051305D01*
X135396905Y-87893770D01*
X135513001Y-87720020D01*
X135513001Y-89165580D01*
X135396905Y-88991830D01*
X135239370Y-88834295D01*
X135054129Y-88710521D01*
X134848300Y-88625264D01*
X134629794Y-88581800D01*
X134407006Y-88581800D01*
X134188500Y-88625264D01*
X133982671Y-88710521D01*
X133797430Y-88834295D01*
X133639895Y-88991830D01*
X133516121Y-89177071D01*
X133430864Y-89382900D01*
X133387400Y-89601406D01*
X133387400Y-89824194D01*
X133430864Y-90042700D01*
X133516121Y-90248529D01*
X133639895Y-90433770D01*
X133797430Y-90591305D01*
X133982671Y-90715079D01*
X134188500Y-90800336D01*
X134407006Y-90843800D01*
X134629794Y-90843800D01*
X134848300Y-90800336D01*
X135054129Y-90715079D01*
X135239370Y-90591305D01*
X135396905Y-90433770D01*
X135513001Y-90260020D01*
X135513001Y-91705579D01*
X135396905Y-91531830D01*
X135239370Y-91374295D01*
X135054129Y-91250521D01*
X134848300Y-91165264D01*
X134629794Y-91121800D01*
X134407006Y-91121800D01*
X134188500Y-91165264D01*
X133982671Y-91250521D01*
X133797430Y-91374295D01*
X133639895Y-91531830D01*
X133516121Y-91717071D01*
X133430864Y-91922900D01*
X133387400Y-92141406D01*
X133387400Y-92364194D01*
X133430864Y-92582700D01*
X133516121Y-92788529D01*
X133639895Y-92973770D01*
X133797430Y-93131305D01*
X133982671Y-93255079D01*
X134188500Y-93340336D01*
X134407006Y-93383800D01*
X134629794Y-93383800D01*
X134848300Y-93340336D01*
X135054129Y-93255079D01*
X135239370Y-93131305D01*
X135396905Y-92973770D01*
X135513000Y-92800021D01*
X135513000Y-94245579D01*
X135396905Y-94071830D01*
X135239370Y-93914295D01*
X135054129Y-93790521D01*
X134848300Y-93705264D01*
X134629794Y-93661800D01*
X134407006Y-93661800D01*
X134188500Y-93705264D01*
X133982671Y-93790521D01*
X133797430Y-93914295D01*
X133639895Y-94071830D01*
X133516121Y-94257071D01*
X133430864Y-94462900D01*
X133387400Y-94681406D01*
X133387400Y-94904194D01*
X133430864Y-95122700D01*
X133516121Y-95328529D01*
X133639895Y-95513770D01*
X133797430Y-95671305D01*
X133982671Y-95795079D01*
X134188500Y-95880336D01*
X134407006Y-95923800D01*
X134629794Y-95923800D01*
X134848300Y-95880336D01*
X135054129Y-95795079D01*
X135239370Y-95671305D01*
X135396905Y-95513770D01*
X135513000Y-95340021D01*
X135513000Y-96727200D01*
X135473993Y-96727200D01*
X135396905Y-96611830D01*
X135239370Y-96454295D01*
X135054129Y-96330521D01*
X134848300Y-96245264D01*
X134629794Y-96201800D01*
X134407006Y-96201800D01*
X134188500Y-96245264D01*
X133982671Y-96330521D01*
X133797430Y-96454295D01*
X133639895Y-96611830D01*
X133516121Y-96797071D01*
X133430864Y-97002900D01*
X133387400Y-97221406D01*
X133387400Y-97444194D01*
X133430864Y-97662700D01*
X133516121Y-97868529D01*
X133639895Y-98053770D01*
X133797430Y-98211305D01*
X133982671Y-98335079D01*
X134188500Y-98420336D01*
X134407006Y-98463800D01*
X134629794Y-98463800D01*
X134848300Y-98420336D01*
X135054129Y-98335079D01*
X135239370Y-98211305D01*
X135396905Y-98053770D01*
X135440049Y-97989200D01*
X135882632Y-97989200D01*
X136895098Y-99001667D01*
X136914856Y-99025742D01*
X137010938Y-99104595D01*
X137120557Y-99163188D01*
X137239501Y-99199269D01*
X137332201Y-99208399D01*
X137332208Y-99208399D01*
X137363199Y-99211451D01*
X137394189Y-99208399D01*
X153922097Y-99208399D01*
X153836121Y-99337071D01*
X153750864Y-99542900D01*
X153707400Y-99761406D01*
X153707400Y-99984194D01*
X153750864Y-100202700D01*
X153836121Y-100408529D01*
X153959895Y-100593770D01*
X154117430Y-100751305D01*
X154302671Y-100875079D01*
X154508500Y-100960336D01*
X154727006Y-101003800D01*
X154949794Y-101003800D01*
X155168300Y-100960336D01*
X155374129Y-100875079D01*
X155559370Y-100751305D01*
X155716905Y-100593770D01*
X155840679Y-100408529D01*
X155925936Y-100202700D01*
X155969400Y-99984194D01*
X155969400Y-99761406D01*
X155925936Y-99542900D01*
X155840679Y-99337071D01*
X155754703Y-99208399D01*
X156154996Y-99208399D01*
X156246459Y-99269512D01*
X156388592Y-99328386D01*
X156539479Y-99358399D01*
X156693323Y-99358399D01*
X156844210Y-99328386D01*
X156986343Y-99269512D01*
X157114260Y-99184041D01*
X157223043Y-99075258D01*
X157308514Y-98947341D01*
X157367388Y-98805208D01*
X157397401Y-98654321D01*
X157397401Y-98500477D01*
X157367388Y-98349590D01*
X157308514Y-98207457D01*
X157223043Y-98079540D01*
X157122401Y-97978898D01*
X157122401Y-96042999D01*
X163384957Y-96042999D01*
X163384957Y-96743001D01*
X163397117Y-96866462D01*
X163433129Y-96985179D01*
X163491610Y-97094589D01*
X163570312Y-97190488D01*
X163666211Y-97269190D01*
X163775621Y-97327671D01*
X163894338Y-97363683D01*
X164017799Y-97375843D01*
X165267801Y-97375843D01*
X165391262Y-97363683D01*
X165509979Y-97327671D01*
X165619389Y-97269190D01*
X165715288Y-97190488D01*
X165793990Y-97094589D01*
X165852471Y-96985179D01*
X165888483Y-96866462D01*
X165900643Y-96743001D01*
X165900643Y-96042999D01*
X165888483Y-95919538D01*
X165852471Y-95800821D01*
X165793990Y-95691411D01*
X165715288Y-95595512D01*
X165619389Y-95516810D01*
X165509979Y-95458329D01*
X165391262Y-95422317D01*
X165267801Y-95410157D01*
X164017799Y-95410157D01*
X163894338Y-95422317D01*
X163775621Y-95458329D01*
X163666211Y-95516810D01*
X163570312Y-95595512D01*
X163491610Y-95691411D01*
X163433129Y-95800821D01*
X163397117Y-95919538D01*
X163384957Y-96042999D01*
X157122401Y-96042999D01*
X157122401Y-94393000D01*
X163382054Y-94393000D01*
X163400995Y-94585310D01*
X163457089Y-94770229D01*
X163548182Y-94940651D01*
X163670772Y-95090028D01*
X163820149Y-95212618D01*
X163990571Y-95303711D01*
X164175490Y-95359805D01*
X164319613Y-95374000D01*
X164965987Y-95374000D01*
X165110110Y-95359805D01*
X165295029Y-95303711D01*
X165465451Y-95212618D01*
X165614828Y-95090028D01*
X165737418Y-94940651D01*
X165828511Y-94770229D01*
X165884605Y-94585310D01*
X165903546Y-94393000D01*
X165884605Y-94200690D01*
X165828511Y-94015771D01*
X165737418Y-93845349D01*
X165614828Y-93695972D01*
X165465451Y-93573382D01*
X165295029Y-93482289D01*
X165110110Y-93426195D01*
X164965987Y-93412000D01*
X164319613Y-93412000D01*
X164175490Y-93426195D01*
X163990571Y-93482289D01*
X163820149Y-93573382D01*
X163670772Y-93695972D01*
X163548182Y-93845349D01*
X163457089Y-94015771D01*
X163400995Y-94200690D01*
X163382054Y-94393000D01*
X157122401Y-94393000D01*
X157122401Y-93503790D01*
X158120113Y-92506078D01*
X158654800Y-92506078D01*
X158654800Y-92659922D01*
X158684813Y-92810809D01*
X158743687Y-92952942D01*
X158829158Y-93080859D01*
X158937941Y-93189642D01*
X159065858Y-93275113D01*
X159207991Y-93333987D01*
X159358878Y-93364000D01*
X159512722Y-93364000D01*
X159663609Y-93333987D01*
X159805742Y-93275113D01*
X159933659Y-93189642D01*
X160042442Y-93080859D01*
X160127913Y-92952942D01*
X160186787Y-92810809D01*
X160216800Y-92659922D01*
X160216800Y-92506078D01*
X160194308Y-92393000D01*
X163382054Y-92393000D01*
X163400995Y-92585310D01*
X163457089Y-92770229D01*
X163548182Y-92940651D01*
X163670772Y-93090028D01*
X163820149Y-93212618D01*
X163990571Y-93303711D01*
X164175490Y-93359805D01*
X164319613Y-93374000D01*
X164965987Y-93374000D01*
X165110110Y-93359805D01*
X165295029Y-93303711D01*
X165465451Y-93212618D01*
X165614828Y-93090028D01*
X165737418Y-92940651D01*
X165828511Y-92770229D01*
X165884605Y-92585310D01*
X165903546Y-92393000D01*
X165884605Y-92200690D01*
X165828511Y-92015771D01*
X165737418Y-91845349D01*
X165614828Y-91695972D01*
X165465451Y-91573382D01*
X165295029Y-91482289D01*
X165110110Y-91426195D01*
X164965987Y-91412000D01*
X164319613Y-91412000D01*
X164175490Y-91426195D01*
X163990571Y-91482289D01*
X163820149Y-91573382D01*
X163670772Y-91695972D01*
X163548182Y-91845349D01*
X163457089Y-92015771D01*
X163400995Y-92200690D01*
X163382054Y-92393000D01*
X160194308Y-92393000D01*
X160186787Y-92355191D01*
X160127913Y-92213058D01*
X160042442Y-92085141D01*
X159933659Y-91976358D01*
X159805742Y-91890887D01*
X159663609Y-91832013D01*
X159512722Y-91802000D01*
X159358878Y-91802000D01*
X159207991Y-91832013D01*
X159065858Y-91890887D01*
X158937941Y-91976358D01*
X158829158Y-92085141D01*
X158743687Y-92213058D01*
X158684813Y-92355191D01*
X158654800Y-92506078D01*
X158120113Y-92506078D01*
X160945192Y-89681000D01*
X161087522Y-89681000D01*
X161238409Y-89650987D01*
X161380542Y-89592113D01*
X161508459Y-89506642D01*
X161617242Y-89397859D01*
X161702713Y-89269942D01*
X161761587Y-89127809D01*
X161791600Y-88976922D01*
X161791600Y-88823078D01*
X161761587Y-88672191D01*
X161702713Y-88530058D01*
X161617242Y-88402141D01*
X161508459Y-88293358D01*
X161380542Y-88207887D01*
X161238409Y-88149013D01*
X161087522Y-88119000D01*
X160933678Y-88119000D01*
X160782791Y-88149013D01*
X160640658Y-88207887D01*
X160512741Y-88293358D01*
X160403958Y-88402141D01*
X160318487Y-88530058D01*
X160259613Y-88672191D01*
X160229600Y-88823078D01*
X160229600Y-88965408D01*
X156276182Y-92918827D01*
X156256875Y-92934672D01*
X156193643Y-93011720D01*
X156168528Y-93058707D01*
X156146656Y-93099625D01*
X156117723Y-93195007D01*
X156107954Y-93294199D01*
X156110402Y-93319055D01*
X156110401Y-97946399D01*
X155788648Y-97946399D01*
X155840679Y-97868529D01*
X155925936Y-97662700D01*
X155969400Y-97444194D01*
X155969400Y-97221406D01*
X155925936Y-97002900D01*
X155840679Y-96797071D01*
X155716905Y-96611830D01*
X155559370Y-96454295D01*
X155374129Y-96330521D01*
X155168300Y-96245264D01*
X154949794Y-96201800D01*
X154727006Y-96201800D01*
X154508500Y-96245264D01*
X154302671Y-96330521D01*
X154117430Y-96454295D01*
X153959895Y-96611830D01*
X153836121Y-96797071D01*
X153750864Y-97002900D01*
X153707400Y-97221406D01*
X153707400Y-97444194D01*
X153750864Y-97662700D01*
X153836121Y-97868529D01*
X153888152Y-97946399D01*
X137624568Y-97946399D01*
X136775000Y-97096832D01*
X136775000Y-94681406D01*
X153707400Y-94681406D01*
X153707400Y-94904194D01*
X153750864Y-95122700D01*
X153836121Y-95328529D01*
X153959895Y-95513770D01*
X154117430Y-95671305D01*
X154302671Y-95795079D01*
X154508500Y-95880336D01*
X154727006Y-95923800D01*
X154949794Y-95923800D01*
X155168300Y-95880336D01*
X155374129Y-95795079D01*
X155559370Y-95671305D01*
X155716905Y-95513770D01*
X155840679Y-95328529D01*
X155925936Y-95122700D01*
X155969400Y-94904194D01*
X155969400Y-94681406D01*
X155925936Y-94462900D01*
X155840679Y-94257071D01*
X155716905Y-94071830D01*
X155559370Y-93914295D01*
X155374129Y-93790521D01*
X155168300Y-93705264D01*
X154949794Y-93661800D01*
X154727006Y-93661800D01*
X154508500Y-93705264D01*
X154302671Y-93790521D01*
X154117430Y-93914295D01*
X153959895Y-94071830D01*
X153836121Y-94257071D01*
X153750864Y-94462900D01*
X153707400Y-94681406D01*
X136775000Y-94681406D01*
X136775000Y-92141406D01*
X153707400Y-92141406D01*
X153707400Y-92364194D01*
X153750864Y-92582700D01*
X153836121Y-92788529D01*
X153959895Y-92973770D01*
X154117430Y-93131305D01*
X154302671Y-93255079D01*
X154508500Y-93340336D01*
X154727006Y-93383800D01*
X154949794Y-93383800D01*
X155168300Y-93340336D01*
X155374129Y-93255079D01*
X155559370Y-93131305D01*
X155716905Y-92973770D01*
X155840679Y-92788529D01*
X155925936Y-92582700D01*
X155969400Y-92364194D01*
X155969400Y-92141406D01*
X155925936Y-91922900D01*
X155840679Y-91717071D01*
X155716905Y-91531830D01*
X155559370Y-91374295D01*
X155374129Y-91250521D01*
X155168300Y-91165264D01*
X154949794Y-91121800D01*
X154727006Y-91121800D01*
X154508500Y-91165264D01*
X154302671Y-91250521D01*
X154117430Y-91374295D01*
X153959895Y-91531830D01*
X153836121Y-91717071D01*
X153750864Y-91922900D01*
X153707400Y-92141406D01*
X136775000Y-92141406D01*
X136775000Y-89601406D01*
X153707400Y-89601406D01*
X153707400Y-89824194D01*
X153750864Y-90042700D01*
X153836121Y-90248529D01*
X153959895Y-90433770D01*
X154117430Y-90591305D01*
X154302671Y-90715079D01*
X154508500Y-90800336D01*
X154727006Y-90843800D01*
X154949794Y-90843800D01*
X155168300Y-90800336D01*
X155374129Y-90715079D01*
X155559370Y-90591305D01*
X155716905Y-90433770D01*
X155840679Y-90248529D01*
X155925936Y-90042700D01*
X155969400Y-89824194D01*
X155969400Y-89601406D01*
X155925936Y-89382900D01*
X155840679Y-89177071D01*
X155716905Y-88991830D01*
X155559370Y-88834295D01*
X155374129Y-88710521D01*
X155168300Y-88625264D01*
X154949794Y-88581800D01*
X154727006Y-88581800D01*
X154508500Y-88625264D01*
X154302671Y-88710521D01*
X154117430Y-88834295D01*
X153959895Y-88991830D01*
X153836121Y-89177071D01*
X153750864Y-89382900D01*
X153707400Y-89601406D01*
X136775000Y-89601406D01*
X136775000Y-87053385D01*
X136778052Y-87022397D01*
X136775000Y-86991409D01*
X136775000Y-86991400D01*
X136765870Y-86898700D01*
X136729789Y-86779756D01*
X136671196Y-86670137D01*
X136638256Y-86630000D01*
X136612103Y-86598132D01*
X136612101Y-86598130D01*
X136592343Y-86574055D01*
X136568268Y-86554297D01*
X135562506Y-85548536D01*
X135542744Y-85524456D01*
X135446662Y-85445603D01*
X135354392Y-85396283D01*
X135396905Y-85353770D01*
X135520679Y-85168529D01*
X135605936Y-84962700D01*
X135649400Y-84744194D01*
X135649400Y-84521406D01*
X135605936Y-84302900D01*
X135551650Y-84171841D01*
X138842800Y-87462992D01*
X138842800Y-87605322D01*
X138872813Y-87756209D01*
X138931687Y-87898342D01*
X139017158Y-88026259D01*
X139125941Y-88135042D01*
X139253858Y-88220513D01*
X139395991Y-88279387D01*
X139546878Y-88309400D01*
X139700722Y-88309400D01*
X139851609Y-88279387D01*
X139993742Y-88220513D01*
X140121659Y-88135042D01*
X140230442Y-88026259D01*
X140315913Y-87898342D01*
X140374787Y-87756209D01*
X140404800Y-87605322D01*
X140404800Y-87451478D01*
X140374787Y-87300591D01*
X140315913Y-87158458D01*
X140251066Y-87061406D01*
X153707400Y-87061406D01*
X153707400Y-87284194D01*
X153750864Y-87502700D01*
X153836121Y-87708529D01*
X153959895Y-87893770D01*
X154117430Y-88051305D01*
X154302671Y-88175079D01*
X154508500Y-88260336D01*
X154727006Y-88303800D01*
X154949794Y-88303800D01*
X155168300Y-88260336D01*
X155374129Y-88175079D01*
X155559370Y-88051305D01*
X155716905Y-87893770D01*
X155840679Y-87708529D01*
X155925936Y-87502700D01*
X155969400Y-87284194D01*
X155969400Y-87061406D01*
X155925936Y-86842900D01*
X155840679Y-86637071D01*
X155716905Y-86451830D01*
X155559370Y-86294295D01*
X155374129Y-86170521D01*
X155168300Y-86085264D01*
X154949794Y-86041800D01*
X154727006Y-86041800D01*
X154508500Y-86085264D01*
X154302671Y-86170521D01*
X154117430Y-86294295D01*
X153959895Y-86451830D01*
X153836121Y-86637071D01*
X153750864Y-86842900D01*
X153707400Y-87061406D01*
X140251066Y-87061406D01*
X140230442Y-87030541D01*
X140121659Y-86921758D01*
X139993742Y-86836287D01*
X139851609Y-86777413D01*
X139700722Y-86747400D01*
X139558392Y-86747400D01*
X137332398Y-84521406D01*
X153707400Y-84521406D01*
X153707400Y-84744194D01*
X153750864Y-84962700D01*
X153836121Y-85168529D01*
X153959895Y-85353770D01*
X154117430Y-85511305D01*
X154302671Y-85635079D01*
X154508500Y-85720336D01*
X154727006Y-85763800D01*
X154949794Y-85763800D01*
X155168300Y-85720336D01*
X155374129Y-85635079D01*
X155559370Y-85511305D01*
X155716905Y-85353770D01*
X155840679Y-85168529D01*
X155925936Y-84962700D01*
X155969400Y-84744194D01*
X155969400Y-84521406D01*
X155925936Y-84302900D01*
X155840679Y-84097071D01*
X155716905Y-83911830D01*
X155559370Y-83754295D01*
X155374129Y-83630521D01*
X155168300Y-83545264D01*
X154949794Y-83501800D01*
X154727006Y-83501800D01*
X154508500Y-83545264D01*
X154302671Y-83630521D01*
X154117430Y-83754295D01*
X153959895Y-83911830D01*
X153836121Y-84097071D01*
X153750864Y-84302900D01*
X153707400Y-84521406D01*
X137332398Y-84521406D01*
X135935176Y-83124185D01*
X135919327Y-83104873D01*
X135842279Y-83041641D01*
X135754375Y-82994655D01*
X135658993Y-82965722D01*
X135584654Y-82958400D01*
X135584646Y-82958400D01*
X135559800Y-82955953D01*
X135534954Y-82958400D01*
X135252275Y-82958400D01*
X135396905Y-82813770D01*
X135520679Y-82628529D01*
X135605936Y-82422700D01*
X135649400Y-82204194D01*
X135649400Y-81981406D01*
X153707400Y-81981406D01*
X153707400Y-82204194D01*
X153750864Y-82422700D01*
X153836121Y-82628529D01*
X153959895Y-82813770D01*
X154117430Y-82971305D01*
X154302671Y-83095079D01*
X154508500Y-83180336D01*
X154727006Y-83223800D01*
X154949794Y-83223800D01*
X155168300Y-83180336D01*
X155374129Y-83095079D01*
X155559370Y-82971305D01*
X155716905Y-82813770D01*
X155840679Y-82628529D01*
X155925936Y-82422700D01*
X155969400Y-82204194D01*
X155969400Y-81981406D01*
X155925936Y-81762900D01*
X155840679Y-81557071D01*
X155716905Y-81371830D01*
X155559370Y-81214295D01*
X155374129Y-81090521D01*
X155168300Y-81005264D01*
X154949794Y-80961800D01*
X154727006Y-80961800D01*
X154508500Y-81005264D01*
X154302671Y-81090521D01*
X154117430Y-81214295D01*
X153959895Y-81371830D01*
X153836121Y-81557071D01*
X153750864Y-81762900D01*
X153707400Y-81981406D01*
X135649400Y-81981406D01*
X135605936Y-81762900D01*
X135520679Y-81557071D01*
X135396905Y-81371830D01*
X135239370Y-81214295D01*
X135054129Y-81090521D01*
X134848300Y-81005264D01*
X134629794Y-80961800D01*
X134407006Y-80961800D01*
X134188500Y-81005264D01*
X133982671Y-81090521D01*
X133797430Y-81214295D01*
X133639895Y-81371830D01*
X133516121Y-81557071D01*
X133430864Y-81762900D01*
X133387400Y-81981406D01*
X133387400Y-82204194D01*
X133430864Y-82422700D01*
X133516121Y-82628529D01*
X133639895Y-82813770D01*
X133784525Y-82958400D01*
X133440197Y-82958400D01*
X133389742Y-82924687D01*
X133247609Y-82865813D01*
X133096722Y-82835800D01*
X132942878Y-82835800D01*
X132791991Y-82865813D01*
X132649858Y-82924687D01*
X132521941Y-83010158D01*
X132413158Y-83118941D01*
X132327687Y-83246858D01*
X132304588Y-83302622D01*
X131618800Y-82616834D01*
X131618800Y-79441406D01*
X133387400Y-79441406D01*
X133387400Y-79664194D01*
X133430864Y-79882700D01*
X133516121Y-80088529D01*
X133639895Y-80273770D01*
X133797430Y-80431305D01*
X133982671Y-80555079D01*
X134188500Y-80640336D01*
X134407006Y-80683800D01*
X134629794Y-80683800D01*
X134848300Y-80640336D01*
X135054129Y-80555079D01*
X135239370Y-80431305D01*
X135396905Y-80273770D01*
X135520679Y-80088529D01*
X135605936Y-79882700D01*
X135649400Y-79664194D01*
X135649400Y-79441406D01*
X153707400Y-79441406D01*
X153707400Y-79664194D01*
X153750864Y-79882700D01*
X153836121Y-80088529D01*
X153959895Y-80273770D01*
X154117430Y-80431305D01*
X154302671Y-80555079D01*
X154508500Y-80640336D01*
X154727006Y-80683800D01*
X154949794Y-80683800D01*
X155168300Y-80640336D01*
X155374129Y-80555079D01*
X155559370Y-80431305D01*
X155716905Y-80273770D01*
X155840679Y-80088529D01*
X155925936Y-79882700D01*
X155969400Y-79664194D01*
X155969400Y-79441406D01*
X155925936Y-79222900D01*
X155840679Y-79017071D01*
X155716905Y-78831830D01*
X155559370Y-78674295D01*
X155374129Y-78550521D01*
X155168300Y-78465264D01*
X154949794Y-78421800D01*
X154727006Y-78421800D01*
X154508500Y-78465264D01*
X154302671Y-78550521D01*
X154117430Y-78674295D01*
X153959895Y-78831830D01*
X153836121Y-79017071D01*
X153750864Y-79222900D01*
X153707400Y-79441406D01*
X135649400Y-79441406D01*
X135605936Y-79222900D01*
X135520679Y-79017071D01*
X135396905Y-78831830D01*
X135239370Y-78674295D01*
X135054129Y-78550521D01*
X134848300Y-78465264D01*
X134629794Y-78421800D01*
X134407006Y-78421800D01*
X134188500Y-78465264D01*
X133982671Y-78550521D01*
X133797430Y-78674295D01*
X133639895Y-78831830D01*
X133516121Y-79017071D01*
X133430864Y-79222900D01*
X133387400Y-79441406D01*
X131618800Y-79441406D01*
X131618800Y-79430005D01*
X131679913Y-79338542D01*
X131738787Y-79196409D01*
X131768800Y-79045522D01*
X131768800Y-78891678D01*
X131738787Y-78740791D01*
X131679913Y-78598658D01*
X131594442Y-78470741D01*
X131485659Y-78361958D01*
X131357742Y-78276487D01*
X131215609Y-78217613D01*
X131064722Y-78187600D01*
X130910878Y-78187600D01*
X130759991Y-78217613D01*
X130617858Y-78276487D01*
X130489941Y-78361958D01*
X130381158Y-78470741D01*
X130295687Y-78598658D01*
X130236813Y-78740791D01*
X130206800Y-78891678D01*
X98406000Y-78891678D01*
X98406000Y-76901406D01*
X133387400Y-76901406D01*
X133387400Y-77124194D01*
X133430864Y-77342700D01*
X133516121Y-77548529D01*
X133639895Y-77733770D01*
X133797430Y-77891305D01*
X133982671Y-78015079D01*
X134188500Y-78100336D01*
X134407006Y-78143800D01*
X134629794Y-78143800D01*
X134848300Y-78100336D01*
X135054129Y-78015079D01*
X135239370Y-77891305D01*
X135396905Y-77733770D01*
X135520679Y-77548529D01*
X135605936Y-77342700D01*
X135649400Y-77124194D01*
X135649400Y-76901406D01*
X153707400Y-76901406D01*
X153707400Y-77124194D01*
X153750864Y-77342700D01*
X153836121Y-77548529D01*
X153959895Y-77733770D01*
X154117430Y-77891305D01*
X154302671Y-78015079D01*
X154508500Y-78100336D01*
X154727006Y-78143800D01*
X154949794Y-78143800D01*
X155168300Y-78100336D01*
X155374129Y-78015079D01*
X155559370Y-77891305D01*
X155716905Y-77733770D01*
X155840679Y-77548529D01*
X155925936Y-77342700D01*
X155969400Y-77124194D01*
X155969400Y-76901406D01*
X155925936Y-76682900D01*
X155840679Y-76477071D01*
X155716905Y-76291830D01*
X155559370Y-76134295D01*
X155374129Y-76010521D01*
X155168300Y-75925264D01*
X154949794Y-75881800D01*
X154727006Y-75881800D01*
X154508500Y-75925264D01*
X154302671Y-76010521D01*
X154117430Y-76134295D01*
X153959895Y-76291830D01*
X153836121Y-76477071D01*
X153750864Y-76682900D01*
X153707400Y-76901406D01*
X135649400Y-76901406D01*
X135605936Y-76682900D01*
X135520679Y-76477071D01*
X135396905Y-76291830D01*
X135239370Y-76134295D01*
X135054129Y-76010521D01*
X134848300Y-75925264D01*
X134629794Y-75881800D01*
X134407006Y-75881800D01*
X134188500Y-75925264D01*
X133982671Y-76010521D01*
X133797430Y-76134295D01*
X133639895Y-76291830D01*
X133516121Y-76477071D01*
X133430864Y-76682900D01*
X133387400Y-76901406D01*
X98406000Y-76901406D01*
X98406000Y-74361406D01*
X133387400Y-74361406D01*
X133387400Y-74584194D01*
X133430864Y-74802700D01*
X133516121Y-75008529D01*
X133639895Y-75193770D01*
X133797430Y-75351305D01*
X133982671Y-75475079D01*
X134188500Y-75560336D01*
X134407006Y-75603800D01*
X134629794Y-75603800D01*
X134848300Y-75560336D01*
X135054129Y-75475079D01*
X135239370Y-75351305D01*
X135396905Y-75193770D01*
X135520679Y-75008529D01*
X135605936Y-74802700D01*
X135649400Y-74584194D01*
X135649400Y-74361406D01*
X153707400Y-74361406D01*
X153707400Y-74584194D01*
X153750864Y-74802700D01*
X153836121Y-75008529D01*
X153959895Y-75193770D01*
X154117430Y-75351305D01*
X154302671Y-75475079D01*
X154508500Y-75560336D01*
X154727006Y-75603800D01*
X154949794Y-75603800D01*
X155168300Y-75560336D01*
X155374129Y-75475079D01*
X155559370Y-75351305D01*
X155716905Y-75193770D01*
X155840679Y-75008529D01*
X155925936Y-74802700D01*
X155969400Y-74584194D01*
X155969400Y-74361406D01*
X155925936Y-74142900D01*
X155840679Y-73937071D01*
X155716905Y-73751830D01*
X155559370Y-73594295D01*
X155374129Y-73470521D01*
X155168300Y-73385264D01*
X154949794Y-73341800D01*
X154727006Y-73341800D01*
X154508500Y-73385264D01*
X154302671Y-73470521D01*
X154117430Y-73594295D01*
X153959895Y-73751830D01*
X153836121Y-73937071D01*
X153750864Y-74142900D01*
X153707400Y-74361406D01*
X135649400Y-74361406D01*
X135605936Y-74142900D01*
X135520679Y-73937071D01*
X135396905Y-73751830D01*
X135239370Y-73594295D01*
X135054129Y-73470521D01*
X134848300Y-73385264D01*
X134629794Y-73341800D01*
X134407006Y-73341800D01*
X134188500Y-73385264D01*
X133982671Y-73470521D01*
X133797430Y-73594295D01*
X133639895Y-73751830D01*
X133516121Y-73937071D01*
X133430864Y-74142900D01*
X133387400Y-74361406D01*
X98406000Y-74361406D01*
X98406000Y-72184889D01*
X101019000Y-72184889D01*
X101019000Y-72575111D01*
X101095129Y-72957836D01*
X101244461Y-73318355D01*
X101461257Y-73642814D01*
X101737186Y-73918743D01*
X102061645Y-74135539D01*
X102422164Y-74284871D01*
X102804889Y-74361000D01*
X103195111Y-74361000D01*
X103577836Y-74284871D01*
X103938355Y-74135539D01*
X104262814Y-73918743D01*
X104538743Y-73642814D01*
X104755539Y-73318355D01*
X104904871Y-72957836D01*
X104981000Y-72575111D01*
X104981000Y-72184889D01*
X104904871Y-71802164D01*
X104755539Y-71441645D01*
X104538743Y-71117186D01*
X104262814Y-70841257D01*
X103938355Y-70624461D01*
X103638341Y-70500191D01*
X134137400Y-70500191D01*
X134137400Y-70825409D01*
X134200847Y-71144379D01*
X134325303Y-71444842D01*
X134505985Y-71715251D01*
X134735949Y-71945215D01*
X135006358Y-72125897D01*
X135306821Y-72250353D01*
X135625791Y-72313800D01*
X135951009Y-72313800D01*
X136269979Y-72250353D01*
X136570442Y-72125897D01*
X136840851Y-71945215D01*
X137070815Y-71715251D01*
X137251497Y-71444842D01*
X137375953Y-71144379D01*
X137439400Y-70825409D01*
X137439400Y-70500191D01*
X151917400Y-70500191D01*
X151917400Y-70825409D01*
X151980847Y-71144379D01*
X152105303Y-71444842D01*
X152285985Y-71715251D01*
X152515949Y-71945215D01*
X152786358Y-72125897D01*
X153086821Y-72250353D01*
X153405791Y-72313800D01*
X153731009Y-72313800D01*
X154049979Y-72250353D01*
X154208022Y-72184889D01*
X161019000Y-72184889D01*
X161019000Y-72575111D01*
X161095129Y-72957836D01*
X161244461Y-73318355D01*
X161461257Y-73642814D01*
X161737186Y-73918743D01*
X162061645Y-74135539D01*
X162422164Y-74284871D01*
X162804889Y-74361000D01*
X163195111Y-74361000D01*
X163577836Y-74284871D01*
X163938355Y-74135539D01*
X164262814Y-73918743D01*
X164538743Y-73642814D01*
X164755539Y-73318355D01*
X164904871Y-72957836D01*
X164981000Y-72575111D01*
X164981000Y-72184889D01*
X164904871Y-71802164D01*
X164755539Y-71441645D01*
X164538743Y-71117186D01*
X164262814Y-70841257D01*
X163938355Y-70624461D01*
X163577836Y-70475129D01*
X163195111Y-70399000D01*
X162804889Y-70399000D01*
X162422164Y-70475129D01*
X162061645Y-70624461D01*
X161737186Y-70841257D01*
X161461257Y-71117186D01*
X161244461Y-71441645D01*
X161095129Y-71802164D01*
X161019000Y-72184889D01*
X154208022Y-72184889D01*
X154350442Y-72125897D01*
X154620851Y-71945215D01*
X154850815Y-71715251D01*
X155031497Y-71444842D01*
X155155953Y-71144379D01*
X155219400Y-70825409D01*
X155219400Y-70500191D01*
X155155953Y-70181221D01*
X155031497Y-69880758D01*
X154850815Y-69610349D01*
X154620851Y-69380385D01*
X154350442Y-69199703D01*
X154049979Y-69075247D01*
X153731009Y-69011800D01*
X153405791Y-69011800D01*
X153086821Y-69075247D01*
X152786358Y-69199703D01*
X152515949Y-69380385D01*
X152285985Y-69610349D01*
X152105303Y-69880758D01*
X151980847Y-70181221D01*
X151917400Y-70500191D01*
X137439400Y-70500191D01*
X137375953Y-70181221D01*
X137251497Y-69880758D01*
X137070815Y-69610349D01*
X136840851Y-69380385D01*
X136570442Y-69199703D01*
X136269979Y-69075247D01*
X135951009Y-69011800D01*
X135625791Y-69011800D01*
X135306821Y-69075247D01*
X135006358Y-69199703D01*
X134735949Y-69380385D01*
X134505985Y-69610349D01*
X134325303Y-69880758D01*
X134200847Y-70181221D01*
X134137400Y-70500191D01*
X103638341Y-70500191D01*
X103577836Y-70475129D01*
X103195111Y-70399000D01*
X102804889Y-70399000D01*
X102422164Y-70475129D01*
X102061645Y-70624461D01*
X101737186Y-70841257D01*
X101461257Y-71117186D01*
X101244461Y-71441645D01*
X101095129Y-71802164D01*
X101019000Y-72184889D01*
X98406000Y-72184889D01*
X98406000Y-67786000D01*
X167594000Y-67786000D01*
X167594001Y-118974000D01*
M02*
