G04 #@! TF.GenerationSoftware,KiCad,Pcbnew,(5.1.5)-3*
G04 #@! TF.CreationDate,2020-05-19T22:12:29-06:00*
G04 #@! TF.ProjectId,GarageDoorOpener,47617261-6765-4446-9f6f-724f70656e65,1b*
G04 #@! TF.SameCoordinates,Original*
G04 #@! TF.FileFunction,Legend,Top*
G04 #@! TF.FilePolarity,Positive*
%FSLAX46Y46*%
G04 Gerber Fmt 4.6, Leading zero omitted, Abs format (unit mm)*
G04 Created by KiCad (PCBNEW (5.1.5)-3) date 2020-05-19 22:12:29*
%MOMM*%
%LPD*%
G04 APERTURE LIST*
%ADD10C,0.150000*%
%ADD11C,0.120000*%
%ADD12C,0.127000*%
%ADD13C,0.200000*%
%ADD14C,0.240000*%
%ADD15C,0.100000*%
G04 APERTURE END LIST*
D10*
X106888595Y-114270780D02*
X106888595Y-113270780D01*
X107221928Y-113985066D01*
X107555261Y-113270780D01*
X107555261Y-114270780D01*
X108460023Y-114270780D02*
X108460023Y-113746971D01*
X108412404Y-113651733D01*
X108317166Y-113604114D01*
X108126690Y-113604114D01*
X108031452Y-113651733D01*
X108460023Y-114223161D02*
X108364785Y-114270780D01*
X108126690Y-114270780D01*
X108031452Y-114223161D01*
X107983833Y-114127923D01*
X107983833Y-114032685D01*
X108031452Y-113937447D01*
X108126690Y-113889828D01*
X108364785Y-113889828D01*
X108460023Y-113842209D01*
X108936214Y-114270780D02*
X108936214Y-113604114D01*
X108936214Y-113794590D02*
X108983833Y-113699352D01*
X109031452Y-113651733D01*
X109126690Y-113604114D01*
X109221928Y-113604114D01*
X109412404Y-113604114D02*
X109793357Y-113604114D01*
X109555261Y-113270780D02*
X109555261Y-114127923D01*
X109602880Y-114223161D01*
X109698119Y-114270780D01*
X109793357Y-114270780D01*
X110126690Y-114270780D02*
X110126690Y-113604114D01*
X110126690Y-113270780D02*
X110079071Y-113318400D01*
X110126690Y-113366019D01*
X110174309Y-113318400D01*
X110126690Y-113270780D01*
X110126690Y-113366019D01*
X111031452Y-114270780D02*
X111031452Y-113746971D01*
X110983833Y-113651733D01*
X110888595Y-113604114D01*
X110698119Y-113604114D01*
X110602880Y-113651733D01*
X111031452Y-114223161D02*
X110936214Y-114270780D01*
X110698119Y-114270780D01*
X110602880Y-114223161D01*
X110555261Y-114127923D01*
X110555261Y-114032685D01*
X110602880Y-113937447D01*
X110698119Y-113889828D01*
X110936214Y-113889828D01*
X111031452Y-113842209D01*
X111507642Y-113604114D02*
X111507642Y-114270780D01*
X111507642Y-113699352D02*
X111555261Y-113651733D01*
X111650500Y-113604114D01*
X111793357Y-113604114D01*
X111888595Y-113651733D01*
X111936214Y-113746971D01*
X111936214Y-114270780D01*
X113174309Y-113746971D02*
X113507642Y-113746971D01*
X113650500Y-114270780D02*
X113174309Y-114270780D01*
X113174309Y-113270780D01*
X113650500Y-113270780D01*
X114079071Y-113604114D02*
X114079071Y-114270780D01*
X114079071Y-113699352D02*
X114126690Y-113651733D01*
X114221928Y-113604114D01*
X114364785Y-113604114D01*
X114460023Y-113651733D01*
X114507642Y-113746971D01*
X114507642Y-114270780D01*
X115412404Y-113604114D02*
X115412404Y-114413638D01*
X115364785Y-114508876D01*
X115317166Y-114556495D01*
X115221928Y-114604114D01*
X115079071Y-114604114D01*
X114983833Y-114556495D01*
X115412404Y-114223161D02*
X115317166Y-114270780D01*
X115126690Y-114270780D01*
X115031452Y-114223161D01*
X114983833Y-114175542D01*
X114936214Y-114080304D01*
X114936214Y-113794590D01*
X114983833Y-113699352D01*
X115031452Y-113651733D01*
X115126690Y-113604114D01*
X115317166Y-113604114D01*
X115412404Y-113651733D01*
X115888595Y-114270780D02*
X115888595Y-113604114D01*
X115888595Y-113270780D02*
X115840976Y-113318400D01*
X115888595Y-113366019D01*
X115936214Y-113318400D01*
X115888595Y-113270780D01*
X115888595Y-113366019D01*
X116364785Y-113604114D02*
X116364785Y-114270780D01*
X116364785Y-113699352D02*
X116412404Y-113651733D01*
X116507642Y-113604114D01*
X116650500Y-113604114D01*
X116745738Y-113651733D01*
X116793357Y-113746971D01*
X116793357Y-114270780D01*
X117650500Y-114223161D02*
X117555261Y-114270780D01*
X117364785Y-114270780D01*
X117269547Y-114223161D01*
X117221928Y-114127923D01*
X117221928Y-113746971D01*
X117269547Y-113651733D01*
X117364785Y-113604114D01*
X117555261Y-113604114D01*
X117650500Y-113651733D01*
X117698119Y-113746971D01*
X117698119Y-113842209D01*
X117221928Y-113937447D01*
X118507642Y-114223161D02*
X118412404Y-114270780D01*
X118221928Y-114270780D01*
X118126690Y-114223161D01*
X118079071Y-114127923D01*
X118079071Y-113746971D01*
X118126690Y-113651733D01*
X118221928Y-113604114D01*
X118412404Y-113604114D01*
X118507642Y-113651733D01*
X118555261Y-113746971D01*
X118555261Y-113842209D01*
X118079071Y-113937447D01*
X118983833Y-114270780D02*
X118983833Y-113604114D01*
X118983833Y-113794590D02*
X119031452Y-113699352D01*
X119079071Y-113651733D01*
X119174309Y-113604114D01*
X119269547Y-113604114D01*
X119602880Y-114270780D02*
X119602880Y-113604114D01*
X119602880Y-113270780D02*
X119555261Y-113318400D01*
X119602880Y-113366019D01*
X119650500Y-113318400D01*
X119602880Y-113270780D01*
X119602880Y-113366019D01*
X120079071Y-113604114D02*
X120079071Y-114270780D01*
X120079071Y-113699352D02*
X120126690Y-113651733D01*
X120221928Y-113604114D01*
X120364785Y-113604114D01*
X120460023Y-113651733D01*
X120507642Y-113746971D01*
X120507642Y-114270780D01*
X121412404Y-113604114D02*
X121412404Y-114413638D01*
X121364785Y-114508876D01*
X121317166Y-114556495D01*
X121221928Y-114604114D01*
X121079071Y-114604114D01*
X120983833Y-114556495D01*
X121412404Y-114223161D02*
X121317166Y-114270780D01*
X121126690Y-114270780D01*
X121031452Y-114223161D01*
X120983833Y-114175542D01*
X120936214Y-114080304D01*
X120936214Y-113794590D01*
X120983833Y-113699352D01*
X121031452Y-113651733D01*
X121126690Y-113604114D01*
X121317166Y-113604114D01*
X121412404Y-113651733D01*
X106888595Y-115920780D02*
X106888595Y-114920780D01*
X107221928Y-115635066D01*
X107555261Y-114920780D01*
X107555261Y-115920780D01*
X108460023Y-115920780D02*
X108460023Y-115396971D01*
X108412404Y-115301733D01*
X108317166Y-115254114D01*
X108126690Y-115254114D01*
X108031452Y-115301733D01*
X108460023Y-115873161D02*
X108364785Y-115920780D01*
X108126690Y-115920780D01*
X108031452Y-115873161D01*
X107983833Y-115777923D01*
X107983833Y-115682685D01*
X108031452Y-115587447D01*
X108126690Y-115539828D01*
X108364785Y-115539828D01*
X108460023Y-115492209D01*
X108793357Y-115254114D02*
X109174309Y-115254114D01*
X108936214Y-114920780D02*
X108936214Y-115777923D01*
X108983833Y-115873161D01*
X109079071Y-115920780D01*
X109174309Y-115920780D01*
X109364785Y-115254114D02*
X109745738Y-115254114D01*
X109507642Y-114920780D02*
X109507642Y-115777923D01*
X109555261Y-115873161D01*
X109650500Y-115920780D01*
X109745738Y-115920780D01*
X110079071Y-115920780D02*
X110079071Y-114920780D01*
X110507642Y-115920780D02*
X110507642Y-115396971D01*
X110460023Y-115301733D01*
X110364785Y-115254114D01*
X110221928Y-115254114D01*
X110126690Y-115301733D01*
X110079071Y-115349352D01*
X111364785Y-115873161D02*
X111269547Y-115920780D01*
X111079071Y-115920780D01*
X110983833Y-115873161D01*
X110936214Y-115777923D01*
X110936214Y-115396971D01*
X110983833Y-115301733D01*
X111079071Y-115254114D01*
X111269547Y-115254114D01*
X111364785Y-115301733D01*
X111412404Y-115396971D01*
X111412404Y-115492209D01*
X110936214Y-115587447D01*
X111745738Y-115254114D02*
X111936214Y-115920780D01*
X112126690Y-115444590D01*
X112317166Y-115920780D01*
X112507642Y-115254114D01*
X114174309Y-114968400D02*
X114079071Y-114920780D01*
X113936214Y-114920780D01*
X113793357Y-114968400D01*
X113698119Y-115063638D01*
X113650500Y-115158876D01*
X113602880Y-115349352D01*
X113602880Y-115492209D01*
X113650500Y-115682685D01*
X113698119Y-115777923D01*
X113793357Y-115873161D01*
X113936214Y-115920780D01*
X114031452Y-115920780D01*
X114174309Y-115873161D01*
X114221928Y-115825542D01*
X114221928Y-115492209D01*
X114031452Y-115492209D01*
X114793357Y-115920780D02*
X114698119Y-115873161D01*
X114650500Y-115777923D01*
X114650500Y-114920780D01*
X115602880Y-115920780D02*
X115602880Y-115396971D01*
X115555261Y-115301733D01*
X115460023Y-115254114D01*
X115269547Y-115254114D01*
X115174309Y-115301733D01*
X115602880Y-115873161D02*
X115507642Y-115920780D01*
X115269547Y-115920780D01*
X115174309Y-115873161D01*
X115126690Y-115777923D01*
X115126690Y-115682685D01*
X115174309Y-115587447D01*
X115269547Y-115539828D01*
X115507642Y-115539828D01*
X115602880Y-115492209D01*
X115983833Y-115254114D02*
X116507642Y-115254114D01*
X115983833Y-115920780D01*
X116507642Y-115920780D01*
X117269547Y-115873161D02*
X117174309Y-115920780D01*
X116983833Y-115920780D01*
X116888595Y-115873161D01*
X116840976Y-115777923D01*
X116840976Y-115396971D01*
X116888595Y-115301733D01*
X116983833Y-115254114D01*
X117174309Y-115254114D01*
X117269547Y-115301733D01*
X117317166Y-115396971D01*
X117317166Y-115492209D01*
X116840976Y-115587447D01*
X117745738Y-115920780D02*
X117745738Y-115254114D01*
X117745738Y-115444590D02*
X117793357Y-115349352D01*
X117840976Y-115301733D01*
X117936214Y-115254114D01*
X118031452Y-115254114D01*
X107412404Y-116618400D02*
X107317166Y-116570780D01*
X107174309Y-116570780D01*
X107031452Y-116618400D01*
X106936214Y-116713638D01*
X106888595Y-116808876D01*
X106840976Y-116999352D01*
X106840976Y-117142209D01*
X106888595Y-117332685D01*
X106936214Y-117427923D01*
X107031452Y-117523161D01*
X107174309Y-117570780D01*
X107269547Y-117570780D01*
X107412404Y-117523161D01*
X107460023Y-117475542D01*
X107460023Y-117142209D01*
X107269547Y-117142209D01*
X108317166Y-117570780D02*
X108317166Y-117046971D01*
X108269547Y-116951733D01*
X108174309Y-116904114D01*
X107983833Y-116904114D01*
X107888595Y-116951733D01*
X108317166Y-117523161D02*
X108221928Y-117570780D01*
X107983833Y-117570780D01*
X107888595Y-117523161D01*
X107840976Y-117427923D01*
X107840976Y-117332685D01*
X107888595Y-117237447D01*
X107983833Y-117189828D01*
X108221928Y-117189828D01*
X108317166Y-117142209D01*
X108793357Y-117570780D02*
X108793357Y-116904114D01*
X108793357Y-117094590D02*
X108840976Y-116999352D01*
X108888595Y-116951733D01*
X108983833Y-116904114D01*
X109079071Y-116904114D01*
X109840976Y-117570780D02*
X109840976Y-117046971D01*
X109793357Y-116951733D01*
X109698119Y-116904114D01*
X109507642Y-116904114D01*
X109412404Y-116951733D01*
X109840976Y-117523161D02*
X109745738Y-117570780D01*
X109507642Y-117570780D01*
X109412404Y-117523161D01*
X109364785Y-117427923D01*
X109364785Y-117332685D01*
X109412404Y-117237447D01*
X109507642Y-117189828D01*
X109745738Y-117189828D01*
X109840976Y-117142209D01*
X110745738Y-116904114D02*
X110745738Y-117713638D01*
X110698119Y-117808876D01*
X110650500Y-117856495D01*
X110555261Y-117904114D01*
X110412404Y-117904114D01*
X110317166Y-117856495D01*
X110745738Y-117523161D02*
X110650500Y-117570780D01*
X110460023Y-117570780D01*
X110364785Y-117523161D01*
X110317166Y-117475542D01*
X110269547Y-117380304D01*
X110269547Y-117094590D01*
X110317166Y-116999352D01*
X110364785Y-116951733D01*
X110460023Y-116904114D01*
X110650500Y-116904114D01*
X110745738Y-116951733D01*
X111602880Y-117523161D02*
X111507642Y-117570780D01*
X111317166Y-117570780D01*
X111221928Y-117523161D01*
X111174309Y-117427923D01*
X111174309Y-117046971D01*
X111221928Y-116951733D01*
X111317166Y-116904114D01*
X111507642Y-116904114D01*
X111602880Y-116951733D01*
X111650500Y-117046971D01*
X111650500Y-117142209D01*
X111174309Y-117237447D01*
X112840976Y-117570780D02*
X112840976Y-116570780D01*
X113079071Y-116570780D01*
X113221928Y-116618400D01*
X113317166Y-116713638D01*
X113364785Y-116808876D01*
X113412404Y-116999352D01*
X113412404Y-117142209D01*
X113364785Y-117332685D01*
X113317166Y-117427923D01*
X113221928Y-117523161D01*
X113079071Y-117570780D01*
X112840976Y-117570780D01*
X113983833Y-117570780D02*
X113888595Y-117523161D01*
X113840976Y-117475542D01*
X113793357Y-117380304D01*
X113793357Y-117094590D01*
X113840976Y-116999352D01*
X113888595Y-116951733D01*
X113983833Y-116904114D01*
X114126690Y-116904114D01*
X114221928Y-116951733D01*
X114269547Y-116999352D01*
X114317166Y-117094590D01*
X114317166Y-117380304D01*
X114269547Y-117475542D01*
X114221928Y-117523161D01*
X114126690Y-117570780D01*
X113983833Y-117570780D01*
X114888595Y-117570780D02*
X114793357Y-117523161D01*
X114745738Y-117475542D01*
X114698119Y-117380304D01*
X114698119Y-117094590D01*
X114745738Y-116999352D01*
X114793357Y-116951733D01*
X114888595Y-116904114D01*
X115031452Y-116904114D01*
X115126690Y-116951733D01*
X115174309Y-116999352D01*
X115221928Y-117094590D01*
X115221928Y-117380304D01*
X115174309Y-117475542D01*
X115126690Y-117523161D01*
X115031452Y-117570780D01*
X114888595Y-117570780D01*
X115650500Y-117570780D02*
X115650500Y-116904114D01*
X115650500Y-117094590D02*
X115698119Y-116999352D01*
X115745738Y-116951733D01*
X115840976Y-116904114D01*
X115936214Y-116904114D01*
X117602880Y-117475542D02*
X117555261Y-117523161D01*
X117412404Y-117570780D01*
X117317166Y-117570780D01*
X117174309Y-117523161D01*
X117079071Y-117427923D01*
X117031452Y-117332685D01*
X116983833Y-117142209D01*
X116983833Y-116999352D01*
X117031452Y-116808876D01*
X117079071Y-116713638D01*
X117174309Y-116618400D01*
X117317166Y-116570780D01*
X117412404Y-116570780D01*
X117555261Y-116618400D01*
X117602880Y-116666019D01*
X118174309Y-117570780D02*
X118079071Y-117523161D01*
X118031452Y-117475542D01*
X117983833Y-117380304D01*
X117983833Y-117094590D01*
X118031452Y-116999352D01*
X118079071Y-116951733D01*
X118174309Y-116904114D01*
X118317166Y-116904114D01*
X118412404Y-116951733D01*
X118460023Y-116999352D01*
X118507642Y-117094590D01*
X118507642Y-117380304D01*
X118460023Y-117475542D01*
X118412404Y-117523161D01*
X118317166Y-117570780D01*
X118174309Y-117570780D01*
X118936214Y-116904114D02*
X118936214Y-117570780D01*
X118936214Y-116999352D02*
X118983833Y-116951733D01*
X119079071Y-116904114D01*
X119221928Y-116904114D01*
X119317166Y-116951733D01*
X119364785Y-117046971D01*
X119364785Y-117570780D01*
X119698119Y-116904114D02*
X120079071Y-116904114D01*
X119840976Y-116570780D02*
X119840976Y-117427923D01*
X119888595Y-117523161D01*
X119983833Y-117570780D01*
X120079071Y-117570780D01*
X120412404Y-117570780D02*
X120412404Y-116904114D01*
X120412404Y-117094590D02*
X120460023Y-116999352D01*
X120507642Y-116951733D01*
X120602880Y-116904114D01*
X120698119Y-116904114D01*
X121174309Y-117570780D02*
X121079071Y-117523161D01*
X121031452Y-117475542D01*
X120983833Y-117380304D01*
X120983833Y-117094590D01*
X121031452Y-116999352D01*
X121079071Y-116951733D01*
X121174309Y-116904114D01*
X121317166Y-116904114D01*
X121412404Y-116951733D01*
X121460023Y-116999352D01*
X121507642Y-117094590D01*
X121507642Y-117380304D01*
X121460023Y-117475542D01*
X121412404Y-117523161D01*
X121317166Y-117570780D01*
X121174309Y-117570780D01*
X122079071Y-117570780D02*
X121983833Y-117523161D01*
X121936214Y-117427923D01*
X121936214Y-116570780D01*
X123555261Y-117046971D02*
X123698119Y-117094590D01*
X123745738Y-117142209D01*
X123793357Y-117237447D01*
X123793357Y-117380304D01*
X123745738Y-117475542D01*
X123698119Y-117523161D01*
X123602880Y-117570780D01*
X123221928Y-117570780D01*
X123221928Y-116570780D01*
X123555261Y-116570780D01*
X123650500Y-116618400D01*
X123698119Y-116666019D01*
X123745738Y-116761257D01*
X123745738Y-116856495D01*
X123698119Y-116951733D01*
X123650500Y-116999352D01*
X123555261Y-117046971D01*
X123221928Y-117046971D01*
X124364785Y-117570780D02*
X124269547Y-117523161D01*
X124221928Y-117475542D01*
X124174309Y-117380304D01*
X124174309Y-117094590D01*
X124221928Y-116999352D01*
X124269547Y-116951733D01*
X124364785Y-116904114D01*
X124507642Y-116904114D01*
X124602880Y-116951733D01*
X124650500Y-116999352D01*
X124698119Y-117094590D01*
X124698119Y-117380304D01*
X124650500Y-117475542D01*
X124602880Y-117523161D01*
X124507642Y-117570780D01*
X124364785Y-117570780D01*
X125555261Y-117570780D02*
X125555261Y-117046971D01*
X125507642Y-116951733D01*
X125412404Y-116904114D01*
X125221928Y-116904114D01*
X125126690Y-116951733D01*
X125555261Y-117523161D02*
X125460023Y-117570780D01*
X125221928Y-117570780D01*
X125126690Y-117523161D01*
X125079071Y-117427923D01*
X125079071Y-117332685D01*
X125126690Y-117237447D01*
X125221928Y-117189828D01*
X125460023Y-117189828D01*
X125555261Y-117142209D01*
X126031452Y-117570780D02*
X126031452Y-116904114D01*
X126031452Y-117094590D02*
X126079071Y-116999352D01*
X126126690Y-116951733D01*
X126221928Y-116904114D01*
X126317166Y-116904114D01*
X127079071Y-117570780D02*
X127079071Y-116570780D01*
X127079071Y-117523161D02*
X126983833Y-117570780D01*
X126793357Y-117570780D01*
X126698119Y-117523161D01*
X126650500Y-117475542D01*
X126602880Y-117380304D01*
X126602880Y-117094590D01*
X126650500Y-116999352D01*
X126698119Y-116951733D01*
X126793357Y-116904114D01*
X126983833Y-116904114D01*
X127079071Y-116951733D01*
X128888595Y-117570780D02*
X128555261Y-117094590D01*
X128317166Y-117570780D02*
X128317166Y-116570780D01*
X128698119Y-116570780D01*
X128793357Y-116618400D01*
X128840976Y-116666019D01*
X128888595Y-116761257D01*
X128888595Y-116904114D01*
X128840976Y-116999352D01*
X128793357Y-117046971D01*
X128698119Y-117094590D01*
X128317166Y-117094590D01*
X129698119Y-117523161D02*
X129602880Y-117570780D01*
X129412404Y-117570780D01*
X129317166Y-117523161D01*
X129269547Y-117427923D01*
X129269547Y-117046971D01*
X129317166Y-116951733D01*
X129412404Y-116904114D01*
X129602880Y-116904114D01*
X129698119Y-116951733D01*
X129745738Y-117046971D01*
X129745738Y-117142209D01*
X129269547Y-117237447D01*
X130079071Y-116904114D02*
X130317166Y-117570780D01*
X130555261Y-116904114D01*
X131460023Y-117570780D02*
X130888595Y-117570780D01*
X131174309Y-117570780D02*
X131174309Y-116570780D01*
X131079071Y-116713638D01*
X130983833Y-116808876D01*
X130888595Y-116856495D01*
X132317166Y-117523161D02*
X132221928Y-117570780D01*
X132031452Y-117570780D01*
X131936214Y-117523161D01*
X131888595Y-117475542D01*
X131840976Y-117380304D01*
X131840976Y-117094590D01*
X131888595Y-116999352D01*
X131936214Y-116951733D01*
X132031452Y-116904114D01*
X132221928Y-116904114D01*
X132317166Y-116951733D01*
D11*
X118649200Y-90695000D02*
X120059200Y-90695000D01*
X120059200Y-88375000D02*
X118029200Y-88375000D01*
X120059200Y-88375000D02*
X120059200Y-89035000D01*
X120059200Y-90035000D02*
X120059200Y-90695000D01*
X118649200Y-94251000D02*
X120059200Y-94251000D01*
X120059200Y-91931000D02*
X118029200Y-91931000D01*
X120059200Y-91931000D02*
X120059200Y-92591000D01*
X120059200Y-93591000D02*
X120059200Y-94251000D01*
X118649200Y-97781600D02*
X120059200Y-97781600D01*
X120059200Y-95461600D02*
X118029200Y-95461600D01*
X120059200Y-95461600D02*
X120059200Y-96121600D01*
X120059200Y-97121600D02*
X120059200Y-97781600D01*
X158312000Y-83739200D02*
X158312000Y-86339200D01*
X158312000Y-86339200D02*
X158512000Y-86339200D01*
X160512000Y-86339200D02*
X160712000Y-86339200D01*
X160712000Y-86339200D02*
X160712000Y-83739200D01*
X160712000Y-83739200D02*
X160612000Y-83739200D01*
X160612000Y-83739200D02*
X160612000Y-83339200D01*
X158312000Y-83739200D02*
X158512000Y-83739200D01*
X159840200Y-96611221D02*
X159840200Y-96936779D01*
X160860200Y-96611221D02*
X160860200Y-96936779D01*
X159425421Y-99697000D02*
X159750979Y-99697000D01*
X159425421Y-98677000D02*
X159750979Y-98677000D01*
X160911000Y-101711979D02*
X160911000Y-101386421D01*
X159891000Y-101711979D02*
X159891000Y-101386421D01*
X162748179Y-86078600D02*
X162422621Y-86078600D01*
X162748179Y-87098600D02*
X162422621Y-87098600D01*
X159298421Y-90197400D02*
X159623979Y-90197400D01*
X159298421Y-89177400D02*
X159623979Y-89177400D01*
X122648821Y-92716200D02*
X122974379Y-92716200D01*
X122648821Y-91696200D02*
X122974379Y-91696200D01*
X122646221Y-96293400D02*
X122971779Y-96293400D01*
X122646221Y-95273400D02*
X122971779Y-95273400D01*
X161462600Y-102512400D02*
X161462600Y-101052400D01*
X164622600Y-102512400D02*
X164622600Y-100352400D01*
X164622600Y-102512400D02*
X163692600Y-102512400D01*
X161462600Y-102512400D02*
X162392600Y-102512400D01*
X159292800Y-97674000D02*
X157642800Y-97674000D01*
X157642800Y-95874000D02*
X158942800Y-95874000D01*
X159323821Y-82399600D02*
X159649379Y-82399600D01*
X159323821Y-81379600D02*
X159649379Y-81379600D01*
X159623979Y-87653400D02*
X159298421Y-87653400D01*
X159623979Y-88673400D02*
X159298421Y-88673400D01*
X122646221Y-94337600D02*
X122971779Y-94337600D01*
X122646221Y-93317600D02*
X122971779Y-93317600D01*
X122646221Y-97868200D02*
X122971779Y-97868200D01*
X122646221Y-96848200D02*
X122971779Y-96848200D01*
D12*
X115213000Y-78081000D02*
X115518000Y-78081000D01*
X115213000Y-77956000D02*
X115213000Y-78081000D01*
X118213000Y-75081000D02*
X117408000Y-75081000D01*
X118213000Y-75266000D02*
X118213000Y-75081000D01*
X115518000Y-75081000D02*
X115213000Y-75081000D01*
X115213000Y-75111000D02*
X115213000Y-75081000D01*
X118213000Y-78081000D02*
X117908000Y-78081000D01*
X118213000Y-77956000D02*
X118213000Y-78081000D01*
X118213000Y-77066000D02*
X118213000Y-76656000D01*
X115213000Y-76151000D02*
X115213000Y-76271000D01*
D13*
X116063000Y-78831000D02*
G75*
G03X116063000Y-78831000I-100000J0D01*
G01*
D11*
X120868221Y-83110800D02*
X121193779Y-83110800D01*
X120868221Y-82090800D02*
X121193779Y-82090800D01*
X113514600Y-74254579D02*
X113514600Y-73929021D01*
X112494600Y-74254579D02*
X112494600Y-73929021D01*
X129855179Y-72108600D02*
X129529621Y-72108600D01*
X129855179Y-73128600D02*
X129529621Y-73128600D01*
X129855179Y-69060600D02*
X129529621Y-69060600D01*
X129855179Y-70080600D02*
X129529621Y-70080600D01*
X124476800Y-73578600D02*
X127161800Y-73578600D01*
X124476800Y-71658600D02*
X124476800Y-73578600D01*
X127161800Y-71658600D02*
X124476800Y-71658600D01*
X124476800Y-70530600D02*
X127161800Y-70530600D01*
X124476800Y-68610600D02*
X124476800Y-70530600D01*
X127161800Y-68610600D02*
X124476800Y-68610600D01*
X157990000Y-109408179D02*
X157990000Y-109082621D01*
X156970000Y-109408179D02*
X156970000Y-109082621D01*
X131900200Y-97957421D02*
X131900200Y-98282979D01*
X132920200Y-97957421D02*
X132920200Y-98282979D01*
D12*
X120941000Y-108346400D02*
X120941000Y-110906400D01*
X116041000Y-108346400D02*
X120941000Y-108346400D01*
X120941000Y-110906400D02*
X116041000Y-110906400D01*
X116041000Y-110906400D02*
X116041000Y-108346400D01*
D14*
X120238000Y-111372400D02*
G75*
G03X120238000Y-111372400I-120000J0D01*
G01*
D11*
X126007800Y-95685200D02*
X126007800Y-97150200D01*
X125652800Y-95685200D02*
X126007800Y-95685200D01*
X125652800Y-93675200D02*
X125652800Y-95685200D01*
X125652800Y-91665200D02*
X126007800Y-91665200D01*
X125652800Y-93675200D02*
X125652800Y-91665200D01*
X129972800Y-95685200D02*
X129617800Y-95685200D01*
X129972800Y-93675200D02*
X129972800Y-95685200D01*
X129972800Y-91665200D02*
X129617800Y-91665200D01*
X129972800Y-93675200D02*
X129972800Y-91665200D01*
D15*
X156108400Y-116382800D02*
G75*
G02X153568400Y-118922800I-2540000J0D01*
G01*
X135788400Y-118922800D02*
G75*
G02X133248400Y-116382800I0J2540000D01*
G01*
X133248400Y-70662800D02*
G75*
G02X135788400Y-68122800I2540000J0D01*
G01*
X153568400Y-68122800D02*
G75*
G02X156108400Y-70662800I0J-2540000D01*
G01*
X135788400Y-118922800D02*
X153568400Y-118922800D01*
X153568400Y-68122800D02*
X135788400Y-68122800D01*
X156108400Y-116382800D02*
X156108400Y-70662800D01*
X133248400Y-70662800D02*
X133248400Y-116382800D01*
D11*
X115635821Y-98046000D02*
X115961379Y-98046000D01*
X115635821Y-97026000D02*
X115961379Y-97026000D01*
X115635821Y-96268000D02*
X115961379Y-96268000D01*
X115635821Y-95248000D02*
X115961379Y-95248000D01*
X115635821Y-94490000D02*
X115961379Y-94490000D01*
X115635821Y-93470000D02*
X115961379Y-93470000D01*
X115635821Y-92712000D02*
X115961379Y-92712000D01*
X115635821Y-91692000D02*
X115961379Y-91692000D01*
X115635821Y-90934000D02*
X115961379Y-90934000D01*
X115635821Y-89914000D02*
X115961379Y-89914000D01*
X115635921Y-89156000D02*
X115961479Y-89156000D01*
X115635921Y-88136000D02*
X115961479Y-88136000D01*
X113680021Y-108688600D02*
X114005579Y-108688600D01*
X113680021Y-107668600D02*
X114005579Y-107668600D01*
X113680021Y-107113800D02*
X114005579Y-107113800D01*
X113680021Y-106093800D02*
X114005579Y-106093800D01*
X120584179Y-106093800D02*
X120258621Y-106093800D01*
X120584179Y-107113800D02*
X120258621Y-107113800D01*
X117236021Y-107113800D02*
X117561579Y-107113800D01*
X117236021Y-106093800D02*
X117561579Y-106093800D01*
X120842821Y-81434400D02*
X121168379Y-81434400D01*
X120842821Y-80414400D02*
X121168379Y-80414400D01*
X123967021Y-81434400D02*
X124292579Y-81434400D01*
X123967021Y-80414400D02*
X124292579Y-80414400D01*
X132158200Y-87513379D02*
X132158200Y-87187821D01*
X131138200Y-87513379D02*
X131138200Y-87187821D01*
X123967021Y-83110800D02*
X124292579Y-83110800D01*
X123967021Y-82090800D02*
X124292579Y-82090800D01*
X131138200Y-90743821D02*
X131138200Y-91069379D01*
X132158200Y-90743821D02*
X132158200Y-91069379D01*
X119555800Y-78323221D02*
X119555800Y-78648779D01*
X120575800Y-78323221D02*
X120575800Y-78648779D01*
X115508821Y-80418400D02*
X115834379Y-80418400D01*
X115508821Y-79398400D02*
X115834379Y-79398400D01*
X126007400Y-98897221D02*
X126007400Y-99222779D01*
X127027400Y-98897221D02*
X127027400Y-99222779D01*
X129169379Y-100556600D02*
X128843821Y-100556600D01*
X129169379Y-101576600D02*
X128843821Y-101576600D01*
X128182800Y-99831400D02*
X128182800Y-98181400D01*
X129982800Y-98181400D02*
X129982800Y-99481400D01*
X121267800Y-75393800D02*
X121267800Y-79393800D01*
X125467800Y-75393800D02*
X125467800Y-79393800D01*
X112960000Y-84065000D02*
X95000000Y-84065000D01*
X112960000Y-99585000D02*
X112960000Y-84065000D01*
X112960000Y-99585000D02*
X95000000Y-99585000D01*
X95000000Y-84065000D02*
X95000000Y-99585000D01*
X109080000Y-83880000D02*
X109580000Y-83380000D01*
X109580000Y-83380000D02*
X108580000Y-83380000D01*
X108580000Y-83380000D02*
X109080000Y-83880000D01*
X162532800Y-98753000D02*
X163782800Y-98753000D01*
X162532800Y-97503000D02*
X162532800Y-98753000D01*
X166942800Y-91393000D02*
X166442800Y-91393000D01*
X166442800Y-91293000D02*
X166942800Y-91293000D01*
X166442800Y-91493000D02*
X166442800Y-91293000D01*
X166942800Y-91493000D02*
X166442800Y-91493000D01*
X166942800Y-93393000D02*
X166442800Y-93393000D01*
X166442800Y-93293000D02*
X166942800Y-93293000D01*
X166442800Y-93493000D02*
X166442800Y-93293000D01*
X166942800Y-93493000D02*
X166442800Y-93493000D01*
X166942800Y-95393000D02*
X166442800Y-95393000D01*
X166442800Y-95293000D02*
X166942800Y-95293000D01*
X166442800Y-95493000D02*
X166442800Y-95293000D01*
X166942800Y-95493000D02*
X166442800Y-95493000D01*
X165442800Y-88333000D02*
X165442800Y-88943000D01*
X164142800Y-88333000D02*
X164142800Y-88943000D01*
X165442800Y-98453000D02*
X165442800Y-97843000D01*
X164142800Y-98453000D02*
X164142800Y-97843000D01*
X163442800Y-90893000D02*
X162832800Y-90893000D01*
X163442800Y-88943000D02*
X163442800Y-90893000D01*
X166942800Y-88943000D02*
X163442800Y-88943000D01*
X166942800Y-97843000D02*
X166942800Y-88943000D01*
X163442800Y-97843000D02*
X166942800Y-97843000D01*
X163442800Y-95893000D02*
X163442800Y-97843000D01*
X162832800Y-95893000D02*
X163442800Y-95893000D01*
X162732800Y-96693000D02*
X162732800Y-96993000D01*
X162632800Y-96993000D02*
X162832800Y-96993000D01*
X162632800Y-96693000D02*
X162632800Y-96993000D01*
X162832800Y-96693000D02*
X162632800Y-96693000D01*
X162832800Y-88333000D02*
X162832800Y-98453000D01*
X167552800Y-88333000D02*
X162832800Y-88333000D01*
X167552800Y-98453000D02*
X167552800Y-88333000D01*
X162832800Y-98453000D02*
X167552800Y-98453000D01*
X159285400Y-101711879D02*
X159285400Y-101386321D01*
X158265400Y-101711879D02*
X158265400Y-101386321D01*
X123721400Y-109463621D02*
X123721400Y-109789179D01*
X124741400Y-109463621D02*
X124741400Y-109789179D01*
X121968800Y-109463621D02*
X121968800Y-109789179D01*
X122988800Y-109463621D02*
X122988800Y-109789179D01*
X128398200Y-77744822D02*
X128398200Y-78261978D01*
X129818200Y-77744822D02*
X129818200Y-78261978D01*
X126315400Y-77744822D02*
X126315400Y-78261978D01*
X127735400Y-77744822D02*
X127735400Y-78261978D01*
X120575800Y-75524579D02*
X120575800Y-75199021D01*
X119555800Y-75524579D02*
X119555800Y-75199021D01*
X111606400Y-74324978D02*
X111606400Y-73807822D01*
X110186400Y-74324978D02*
X110186400Y-73807822D01*
X110186400Y-77313022D02*
X110186400Y-77830178D01*
X111606400Y-77313022D02*
X111606400Y-77830178D01*
X112497800Y-77236822D02*
X112497800Y-77753978D01*
X113917800Y-77236822D02*
X113917800Y-77753978D01*
D10*
X118541104Y-88037380D02*
X118541104Y-87037380D01*
X118779200Y-87037380D01*
X118922057Y-87085000D01*
X119017295Y-87180238D01*
X119064914Y-87275476D01*
X119112533Y-87465952D01*
X119112533Y-87608809D01*
X119064914Y-87799285D01*
X119017295Y-87894523D01*
X118922057Y-87989761D01*
X118779200Y-88037380D01*
X118541104Y-88037380D01*
X120017295Y-87037380D02*
X119541104Y-87037380D01*
X119493485Y-87513571D01*
X119541104Y-87465952D01*
X119636342Y-87418333D01*
X119874438Y-87418333D01*
X119969676Y-87465952D01*
X120017295Y-87513571D01*
X120064914Y-87608809D01*
X120064914Y-87846904D01*
X120017295Y-87942142D01*
X119969676Y-87989761D01*
X119874438Y-88037380D01*
X119636342Y-88037380D01*
X119541104Y-87989761D01*
X119493485Y-87942142D01*
X121229380Y-92482895D02*
X120229380Y-92482895D01*
X120229380Y-92244800D01*
X120277000Y-92101942D01*
X120372238Y-92006704D01*
X120467476Y-91959085D01*
X120657952Y-91911466D01*
X120800809Y-91911466D01*
X120991285Y-91959085D01*
X121086523Y-92006704D01*
X121181761Y-92101942D01*
X121229380Y-92244800D01*
X121229380Y-92482895D01*
X120562714Y-91054323D02*
X121229380Y-91054323D01*
X120181761Y-91292419D02*
X120896047Y-91530514D01*
X120896047Y-90911466D01*
X117930704Y-99105980D02*
X117930704Y-98105980D01*
X118168800Y-98105980D01*
X118311657Y-98153600D01*
X118406895Y-98248838D01*
X118454514Y-98344076D01*
X118502133Y-98534552D01*
X118502133Y-98677409D01*
X118454514Y-98867885D01*
X118406895Y-98963123D01*
X118311657Y-99058361D01*
X118168800Y-99105980D01*
X117930704Y-99105980D01*
X118835466Y-98105980D02*
X119454514Y-98105980D01*
X119121180Y-98486933D01*
X119264038Y-98486933D01*
X119359276Y-98534552D01*
X119406895Y-98582171D01*
X119454514Y-98677409D01*
X119454514Y-98915504D01*
X119406895Y-99010742D01*
X119359276Y-99058361D01*
X119264038Y-99105980D01*
X118978323Y-99105980D01*
X118883085Y-99058361D01*
X118835466Y-99010742D01*
X161148780Y-84327904D02*
X161958304Y-84327904D01*
X162053542Y-84280285D01*
X162101161Y-84232666D01*
X162148780Y-84137428D01*
X162148780Y-83946952D01*
X162101161Y-83851714D01*
X162053542Y-83804095D01*
X161958304Y-83756476D01*
X161148780Y-83756476D01*
X161148780Y-82804095D02*
X161148780Y-83280285D01*
X161624971Y-83327904D01*
X161577352Y-83280285D01*
X161529733Y-83185047D01*
X161529733Y-82946952D01*
X161577352Y-82851714D01*
X161624971Y-82804095D01*
X161720209Y-82756476D01*
X161958304Y-82756476D01*
X162053542Y-82804095D01*
X162101161Y-82851714D01*
X162148780Y-82946952D01*
X162148780Y-83185047D01*
X162101161Y-83280285D01*
X162053542Y-83327904D01*
X162174180Y-97543857D02*
X161697990Y-97877190D01*
X162174180Y-98115285D02*
X161174180Y-98115285D01*
X161174180Y-97734333D01*
X161221800Y-97639095D01*
X161269419Y-97591476D01*
X161364657Y-97543857D01*
X161507514Y-97543857D01*
X161602752Y-97591476D01*
X161650371Y-97639095D01*
X161697990Y-97734333D01*
X161697990Y-98115285D01*
X161269419Y-97162904D02*
X161221800Y-97115285D01*
X161174180Y-97020047D01*
X161174180Y-96781952D01*
X161221800Y-96686714D01*
X161269419Y-96639095D01*
X161364657Y-96591476D01*
X161459895Y-96591476D01*
X161602752Y-96639095D01*
X162174180Y-97210523D01*
X162174180Y-96591476D01*
X161602752Y-96020047D02*
X161555133Y-96115285D01*
X161507514Y-96162904D01*
X161412276Y-96210523D01*
X161364657Y-96210523D01*
X161269419Y-96162904D01*
X161221800Y-96115285D01*
X161174180Y-96020047D01*
X161174180Y-95829571D01*
X161221800Y-95734333D01*
X161269419Y-95686714D01*
X161364657Y-95639095D01*
X161412276Y-95639095D01*
X161507514Y-95686714D01*
X161555133Y-95734333D01*
X161602752Y-95829571D01*
X161602752Y-96020047D01*
X161650371Y-96115285D01*
X161697990Y-96162904D01*
X161793228Y-96210523D01*
X161983704Y-96210523D01*
X162078942Y-96162904D01*
X162126561Y-96115285D01*
X162174180Y-96020047D01*
X162174180Y-95829571D01*
X162126561Y-95734333D01*
X162078942Y-95686714D01*
X161983704Y-95639095D01*
X161793228Y-95639095D01*
X161697990Y-95686714D01*
X161650371Y-95734333D01*
X161602752Y-95829571D01*
X161866342Y-99994980D02*
X161533009Y-99518790D01*
X161294914Y-99994980D02*
X161294914Y-98994980D01*
X161675866Y-98994980D01*
X161771104Y-99042600D01*
X161818723Y-99090219D01*
X161866342Y-99185457D01*
X161866342Y-99328314D01*
X161818723Y-99423552D01*
X161771104Y-99471171D01*
X161675866Y-99518790D01*
X161294914Y-99518790D01*
X162247295Y-99090219D02*
X162294914Y-99042600D01*
X162390152Y-98994980D01*
X162628247Y-98994980D01*
X162723485Y-99042600D01*
X162771104Y-99090219D01*
X162818723Y-99185457D01*
X162818723Y-99280695D01*
X162771104Y-99423552D01*
X162199676Y-99994980D01*
X162818723Y-99994980D01*
X163152057Y-98994980D02*
X163818723Y-98994980D01*
X163390152Y-99994980D01*
X160853380Y-105189257D02*
X160377190Y-105522590D01*
X160853380Y-105760685D02*
X159853380Y-105760685D01*
X159853380Y-105379733D01*
X159901000Y-105284495D01*
X159948619Y-105236876D01*
X160043857Y-105189257D01*
X160186714Y-105189257D01*
X160281952Y-105236876D01*
X160329571Y-105284495D01*
X160377190Y-105379733D01*
X160377190Y-105760685D01*
X159948619Y-104808304D02*
X159901000Y-104760685D01*
X159853380Y-104665447D01*
X159853380Y-104427352D01*
X159901000Y-104332114D01*
X159948619Y-104284495D01*
X160043857Y-104236876D01*
X160139095Y-104236876D01*
X160281952Y-104284495D01*
X160853380Y-104855923D01*
X160853380Y-104236876D01*
X159853380Y-103379733D02*
X159853380Y-103570209D01*
X159901000Y-103665447D01*
X159948619Y-103713066D01*
X160091476Y-103808304D01*
X160281952Y-103855923D01*
X160662904Y-103855923D01*
X160758142Y-103808304D01*
X160805761Y-103760685D01*
X160853380Y-103665447D01*
X160853380Y-103474971D01*
X160805761Y-103379733D01*
X160758142Y-103332114D01*
X160662904Y-103284495D01*
X160424809Y-103284495D01*
X160329571Y-103332114D01*
X160281952Y-103379733D01*
X160234333Y-103474971D01*
X160234333Y-103665447D01*
X160281952Y-103760685D01*
X160329571Y-103808304D01*
X160424809Y-103855923D01*
X161866342Y-85593180D02*
X161533009Y-85116990D01*
X161294914Y-85593180D02*
X161294914Y-84593180D01*
X161675866Y-84593180D01*
X161771104Y-84640800D01*
X161818723Y-84688419D01*
X161866342Y-84783657D01*
X161866342Y-84926514D01*
X161818723Y-85021752D01*
X161771104Y-85069371D01*
X161675866Y-85116990D01*
X161294914Y-85116990D01*
X162247295Y-84688419D02*
X162294914Y-84640800D01*
X162390152Y-84593180D01*
X162628247Y-84593180D01*
X162723485Y-84640800D01*
X162771104Y-84688419D01*
X162818723Y-84783657D01*
X162818723Y-84878895D01*
X162771104Y-85021752D01*
X162199676Y-85593180D01*
X162818723Y-85593180D01*
X163723485Y-84593180D02*
X163247295Y-84593180D01*
X163199676Y-85069371D01*
X163247295Y-85021752D01*
X163342533Y-84974133D01*
X163580628Y-84974133D01*
X163675866Y-85021752D01*
X163723485Y-85069371D01*
X163771104Y-85164609D01*
X163771104Y-85402704D01*
X163723485Y-85497942D01*
X163675866Y-85545561D01*
X163580628Y-85593180D01*
X163342533Y-85593180D01*
X163247295Y-85545561D01*
X163199676Y-85497942D01*
X158869142Y-91689180D02*
X158535809Y-91212990D01*
X158297714Y-91689180D02*
X158297714Y-90689180D01*
X158678666Y-90689180D01*
X158773904Y-90736800D01*
X158821523Y-90784419D01*
X158869142Y-90879657D01*
X158869142Y-91022514D01*
X158821523Y-91117752D01*
X158773904Y-91165371D01*
X158678666Y-91212990D01*
X158297714Y-91212990D01*
X159250095Y-90784419D02*
X159297714Y-90736800D01*
X159392952Y-90689180D01*
X159631047Y-90689180D01*
X159726285Y-90736800D01*
X159773904Y-90784419D01*
X159821523Y-90879657D01*
X159821523Y-90974895D01*
X159773904Y-91117752D01*
X159202476Y-91689180D01*
X159821523Y-91689180D01*
X160678666Y-91022514D02*
X160678666Y-91689180D01*
X160440571Y-90641561D02*
X160202476Y-91355847D01*
X160821523Y-91355847D01*
X122168742Y-91228580D02*
X121835409Y-90752390D01*
X121597314Y-91228580D02*
X121597314Y-90228580D01*
X121978266Y-90228580D01*
X122073504Y-90276200D01*
X122121123Y-90323819D01*
X122168742Y-90419057D01*
X122168742Y-90561914D01*
X122121123Y-90657152D01*
X122073504Y-90704771D01*
X121978266Y-90752390D01*
X121597314Y-90752390D01*
X122549695Y-90323819D02*
X122597314Y-90276200D01*
X122692552Y-90228580D01*
X122930647Y-90228580D01*
X123025885Y-90276200D01*
X123073504Y-90323819D01*
X123121123Y-90419057D01*
X123121123Y-90514295D01*
X123073504Y-90657152D01*
X122502076Y-91228580D01*
X123121123Y-91228580D01*
X123454457Y-90228580D02*
X124073504Y-90228580D01*
X123740171Y-90609533D01*
X123883028Y-90609533D01*
X123978266Y-90657152D01*
X124025885Y-90704771D01*
X124073504Y-90800009D01*
X124073504Y-91038104D01*
X124025885Y-91133342D01*
X123978266Y-91180961D01*
X123883028Y-91228580D01*
X123597314Y-91228580D01*
X123502076Y-91180961D01*
X123454457Y-91133342D01*
X125394980Y-96578657D02*
X124918790Y-96911990D01*
X125394980Y-97150085D02*
X124394980Y-97150085D01*
X124394980Y-96769133D01*
X124442600Y-96673895D01*
X124490219Y-96626276D01*
X124585457Y-96578657D01*
X124728314Y-96578657D01*
X124823552Y-96626276D01*
X124871171Y-96673895D01*
X124918790Y-96769133D01*
X124918790Y-97150085D01*
X124490219Y-96197704D02*
X124442600Y-96150085D01*
X124394980Y-96054847D01*
X124394980Y-95816752D01*
X124442600Y-95721514D01*
X124490219Y-95673895D01*
X124585457Y-95626276D01*
X124680695Y-95626276D01*
X124823552Y-95673895D01*
X125394980Y-96245323D01*
X125394980Y-95626276D01*
X124490219Y-95245323D02*
X124442600Y-95197704D01*
X124394980Y-95102466D01*
X124394980Y-94864371D01*
X124442600Y-94769133D01*
X124490219Y-94721514D01*
X124585457Y-94673895D01*
X124680695Y-94673895D01*
X124823552Y-94721514D01*
X125394980Y-95292942D01*
X125394980Y-94673895D01*
X166090219Y-101847638D02*
X166042600Y-101942876D01*
X165947361Y-102038114D01*
X165804504Y-102180971D01*
X165756885Y-102276209D01*
X165756885Y-102371447D01*
X165994980Y-102323828D02*
X165947361Y-102419066D01*
X165852123Y-102514304D01*
X165661647Y-102561923D01*
X165328314Y-102561923D01*
X165137838Y-102514304D01*
X165042600Y-102419066D01*
X164994980Y-102323828D01*
X164994980Y-102133352D01*
X165042600Y-102038114D01*
X165137838Y-101942876D01*
X165328314Y-101895257D01*
X165661647Y-101895257D01*
X165852123Y-101942876D01*
X165947361Y-102038114D01*
X165994980Y-102133352D01*
X165994980Y-102323828D01*
X164994980Y-101561923D02*
X164994980Y-100942876D01*
X165375933Y-101276209D01*
X165375933Y-101133352D01*
X165423552Y-101038114D01*
X165471171Y-100990495D01*
X165566409Y-100942876D01*
X165804504Y-100942876D01*
X165899742Y-100990495D01*
X165947361Y-101038114D01*
X165994980Y-101133352D01*
X165994980Y-101419066D01*
X165947361Y-101514304D01*
X165899742Y-101561923D01*
X157824419Y-94684838D02*
X157776800Y-94780076D01*
X157681561Y-94875314D01*
X157538704Y-95018171D01*
X157491085Y-95113409D01*
X157491085Y-95208647D01*
X157729180Y-95161028D02*
X157681561Y-95256266D01*
X157586323Y-95351504D01*
X157395847Y-95399123D01*
X157062514Y-95399123D01*
X156872038Y-95351504D01*
X156776800Y-95256266D01*
X156729180Y-95161028D01*
X156729180Y-94970552D01*
X156776800Y-94875314D01*
X156872038Y-94780076D01*
X157062514Y-94732457D01*
X157395847Y-94732457D01*
X157586323Y-94780076D01*
X157681561Y-94875314D01*
X157729180Y-94970552D01*
X157729180Y-95161028D01*
X156824419Y-94351504D02*
X156776800Y-94303885D01*
X156729180Y-94208647D01*
X156729180Y-93970552D01*
X156776800Y-93875314D01*
X156824419Y-93827695D01*
X156919657Y-93780076D01*
X157014895Y-93780076D01*
X157157752Y-93827695D01*
X157729180Y-94399123D01*
X157729180Y-93780076D01*
X158843742Y-80816742D02*
X158796123Y-80864361D01*
X158653266Y-80911980D01*
X158558028Y-80911980D01*
X158415171Y-80864361D01*
X158319933Y-80769123D01*
X158272314Y-80673885D01*
X158224695Y-80483409D01*
X158224695Y-80340552D01*
X158272314Y-80150076D01*
X158319933Y-80054838D01*
X158415171Y-79959600D01*
X158558028Y-79911980D01*
X158653266Y-79911980D01*
X158796123Y-79959600D01*
X158843742Y-80007219D01*
X159796123Y-80911980D02*
X159224695Y-80911980D01*
X159510409Y-80911980D02*
X159510409Y-79911980D01*
X159415171Y-80054838D01*
X159319933Y-80150076D01*
X159224695Y-80197695D01*
X160129457Y-79911980D02*
X160796123Y-79911980D01*
X160367552Y-80911980D01*
X157633942Y-88831657D02*
X157681561Y-88879276D01*
X157729180Y-89022133D01*
X157729180Y-89117371D01*
X157681561Y-89260228D01*
X157586323Y-89355466D01*
X157491085Y-89403085D01*
X157300609Y-89450704D01*
X157157752Y-89450704D01*
X156967276Y-89403085D01*
X156872038Y-89355466D01*
X156776800Y-89260228D01*
X156729180Y-89117371D01*
X156729180Y-89022133D01*
X156776800Y-88879276D01*
X156824419Y-88831657D01*
X157729180Y-87879276D02*
X157729180Y-88450704D01*
X157729180Y-88164990D02*
X156729180Y-88164990D01*
X156872038Y-88260228D01*
X156967276Y-88355466D01*
X157014895Y-88450704D01*
X156729180Y-87022133D02*
X156729180Y-87212609D01*
X156776800Y-87307847D01*
X156824419Y-87355466D01*
X156967276Y-87450704D01*
X157157752Y-87498323D01*
X157538704Y-87498323D01*
X157633942Y-87450704D01*
X157681561Y-87403085D01*
X157729180Y-87307847D01*
X157729180Y-87117371D01*
X157681561Y-87022133D01*
X157633942Y-86974514D01*
X157538704Y-86926895D01*
X157300609Y-86926895D01*
X157205371Y-86974514D01*
X157157752Y-87022133D01*
X157110133Y-87117371D01*
X157110133Y-87307847D01*
X157157752Y-87403085D01*
X157205371Y-87450704D01*
X157300609Y-87498323D01*
X125299742Y-93759257D02*
X125347361Y-93806876D01*
X125394980Y-93949733D01*
X125394980Y-94044971D01*
X125347361Y-94187828D01*
X125252123Y-94283066D01*
X125156885Y-94330685D01*
X124966409Y-94378304D01*
X124823552Y-94378304D01*
X124633076Y-94330685D01*
X124537838Y-94283066D01*
X124442600Y-94187828D01*
X124394980Y-94044971D01*
X124394980Y-93949733D01*
X124442600Y-93806876D01*
X124490219Y-93759257D01*
X125394980Y-92806876D02*
X125394980Y-93378304D01*
X125394980Y-93092590D02*
X124394980Y-93092590D01*
X124537838Y-93187828D01*
X124633076Y-93283066D01*
X124680695Y-93378304D01*
X124394980Y-91902114D02*
X124394980Y-92378304D01*
X124871171Y-92425923D01*
X124823552Y-92378304D01*
X124775933Y-92283066D01*
X124775933Y-92044971D01*
X124823552Y-91949733D01*
X124871171Y-91902114D01*
X124966409Y-91854495D01*
X125204504Y-91854495D01*
X125299742Y-91902114D01*
X125347361Y-91949733D01*
X125394980Y-92044971D01*
X125394980Y-92283066D01*
X125347361Y-92378304D01*
X125299742Y-92425923D01*
X122115342Y-99213942D02*
X122067723Y-99261561D01*
X121924866Y-99309180D01*
X121829628Y-99309180D01*
X121686771Y-99261561D01*
X121591533Y-99166323D01*
X121543914Y-99071085D01*
X121496295Y-98880609D01*
X121496295Y-98737752D01*
X121543914Y-98547276D01*
X121591533Y-98452038D01*
X121686771Y-98356800D01*
X121829628Y-98309180D01*
X121924866Y-98309180D01*
X122067723Y-98356800D01*
X122115342Y-98404419D01*
X123067723Y-99309180D02*
X122496295Y-99309180D01*
X122782009Y-99309180D02*
X122782009Y-98309180D01*
X122686771Y-98452038D01*
X122591533Y-98547276D01*
X122496295Y-98594895D01*
X123924866Y-98642514D02*
X123924866Y-99309180D01*
X123686771Y-98261561D02*
X123448676Y-98975847D01*
X124067723Y-98975847D01*
X114858895Y-73391780D02*
X114858895Y-74201304D01*
X114906514Y-74296542D01*
X114954133Y-74344161D01*
X115049371Y-74391780D01*
X115239847Y-74391780D01*
X115335085Y-74344161D01*
X115382704Y-74296542D01*
X115430323Y-74201304D01*
X115430323Y-73391780D01*
X115858895Y-73487019D02*
X115906514Y-73439400D01*
X116001752Y-73391780D01*
X116239847Y-73391780D01*
X116335085Y-73439400D01*
X116382704Y-73487019D01*
X116430323Y-73582257D01*
X116430323Y-73677495D01*
X116382704Y-73820352D01*
X115811276Y-74391780D01*
X116430323Y-74391780D01*
X120813533Y-86132942D02*
X120765914Y-86180561D01*
X120623057Y-86228180D01*
X120527819Y-86228180D01*
X120384961Y-86180561D01*
X120289723Y-86085323D01*
X120242104Y-85990085D01*
X120194485Y-85799609D01*
X120194485Y-85656752D01*
X120242104Y-85466276D01*
X120289723Y-85371038D01*
X120384961Y-85275800D01*
X120527819Y-85228180D01*
X120623057Y-85228180D01*
X120765914Y-85275800D01*
X120813533Y-85323419D01*
X121384961Y-85656752D02*
X121289723Y-85609133D01*
X121242104Y-85561514D01*
X121194485Y-85466276D01*
X121194485Y-85418657D01*
X121242104Y-85323419D01*
X121289723Y-85275800D01*
X121384961Y-85228180D01*
X121575438Y-85228180D01*
X121670676Y-85275800D01*
X121718295Y-85323419D01*
X121765914Y-85418657D01*
X121765914Y-85466276D01*
X121718295Y-85561514D01*
X121670676Y-85609133D01*
X121575438Y-85656752D01*
X121384961Y-85656752D01*
X121289723Y-85704371D01*
X121242104Y-85751990D01*
X121194485Y-85847228D01*
X121194485Y-86037704D01*
X121242104Y-86132942D01*
X121289723Y-86180561D01*
X121384961Y-86228180D01*
X121575438Y-86228180D01*
X121670676Y-86180561D01*
X121718295Y-86132942D01*
X121765914Y-86037704D01*
X121765914Y-85847228D01*
X121718295Y-85751990D01*
X121670676Y-85704371D01*
X121575438Y-85656752D01*
X112812533Y-72112142D02*
X112764914Y-72159761D01*
X112622057Y-72207380D01*
X112526819Y-72207380D01*
X112383961Y-72159761D01*
X112288723Y-72064523D01*
X112241104Y-71969285D01*
X112193485Y-71778809D01*
X112193485Y-71635952D01*
X112241104Y-71445476D01*
X112288723Y-71350238D01*
X112383961Y-71255000D01*
X112526819Y-71207380D01*
X112622057Y-71207380D01*
X112764914Y-71255000D01*
X112812533Y-71302619D01*
X113669676Y-71540714D02*
X113669676Y-72207380D01*
X113431580Y-71159761D02*
X113193485Y-71874047D01*
X113812533Y-71874047D01*
X129525733Y-74500980D02*
X129192400Y-74024790D01*
X128954304Y-74500980D02*
X128954304Y-73500980D01*
X129335257Y-73500980D01*
X129430495Y-73548600D01*
X129478114Y-73596219D01*
X129525733Y-73691457D01*
X129525733Y-73834314D01*
X129478114Y-73929552D01*
X129430495Y-73977171D01*
X129335257Y-74024790D01*
X128954304Y-74024790D01*
X130382876Y-73834314D02*
X130382876Y-74500980D01*
X130144780Y-73453361D02*
X129906685Y-74167647D01*
X130525733Y-74167647D01*
X129525733Y-71452980D02*
X129192400Y-70976790D01*
X128954304Y-71452980D02*
X128954304Y-70452980D01*
X129335257Y-70452980D01*
X129430495Y-70500600D01*
X129478114Y-70548219D01*
X129525733Y-70643457D01*
X129525733Y-70786314D01*
X129478114Y-70881552D01*
X129430495Y-70929171D01*
X129335257Y-70976790D01*
X128954304Y-70976790D01*
X130478114Y-71452980D02*
X129906685Y-71452980D01*
X130192400Y-71452980D02*
X130192400Y-70452980D01*
X130097161Y-70595838D01*
X130001923Y-70691076D01*
X129906685Y-70738695D01*
X162238095Y-112339380D02*
X162238095Y-111339380D01*
X162238095Y-111815571D02*
X162809523Y-111815571D01*
X162809523Y-112339380D02*
X162809523Y-111339380D01*
X163714285Y-111672714D02*
X163714285Y-112339380D01*
X163476190Y-111291761D02*
X163238095Y-112006047D01*
X163857142Y-112006047D01*
X102238095Y-112136180D02*
X102238095Y-111136180D01*
X102238095Y-111612371D02*
X102809523Y-111612371D01*
X102809523Y-112136180D02*
X102809523Y-111136180D01*
X103190476Y-111136180D02*
X103809523Y-111136180D01*
X103476190Y-111517133D01*
X103619047Y-111517133D01*
X103714285Y-111564752D01*
X103761904Y-111612371D01*
X103809523Y-111707609D01*
X103809523Y-111945704D01*
X103761904Y-112040942D01*
X103714285Y-112088561D01*
X103619047Y-112136180D01*
X103333333Y-112136180D01*
X103238095Y-112088561D01*
X103190476Y-112040942D01*
X162331495Y-70200780D02*
X162331495Y-69200780D01*
X162331495Y-69676971D02*
X162902923Y-69676971D01*
X162902923Y-70200780D02*
X162902923Y-69200780D01*
X163331495Y-69296019D02*
X163379114Y-69248400D01*
X163474352Y-69200780D01*
X163712447Y-69200780D01*
X163807685Y-69248400D01*
X163855304Y-69296019D01*
X163902923Y-69391257D01*
X163902923Y-69486495D01*
X163855304Y-69629352D01*
X163283876Y-70200780D01*
X163902923Y-70200780D01*
X102209695Y-70022980D02*
X102209695Y-69022980D01*
X102209695Y-69499171D02*
X102781123Y-69499171D01*
X102781123Y-70022980D02*
X102781123Y-69022980D01*
X103781123Y-70022980D02*
X103209695Y-70022980D01*
X103495409Y-70022980D02*
X103495409Y-69022980D01*
X103400171Y-69165838D01*
X103304933Y-69261076D01*
X103209695Y-69308695D01*
X123194819Y-71931304D02*
X124194819Y-71931304D01*
X124194819Y-72169400D01*
X124147200Y-72312257D01*
X124051961Y-72407495D01*
X123956723Y-72455114D01*
X123766247Y-72502733D01*
X123623390Y-72502733D01*
X123432914Y-72455114D01*
X123337676Y-72407495D01*
X123242438Y-72312257D01*
X123194819Y-72169400D01*
X123194819Y-71931304D01*
X124099580Y-72883685D02*
X124147200Y-72931304D01*
X124194819Y-73026542D01*
X124194819Y-73264638D01*
X124147200Y-73359876D01*
X124099580Y-73407495D01*
X124004342Y-73455114D01*
X123909104Y-73455114D01*
X123766247Y-73407495D01*
X123194819Y-72836066D01*
X123194819Y-73455114D01*
X123296419Y-68832504D02*
X124296419Y-68832504D01*
X124296419Y-69070600D01*
X124248800Y-69213457D01*
X124153561Y-69308695D01*
X124058323Y-69356314D01*
X123867847Y-69403933D01*
X123724990Y-69403933D01*
X123534514Y-69356314D01*
X123439276Y-69308695D01*
X123344038Y-69213457D01*
X123296419Y-69070600D01*
X123296419Y-68832504D01*
X123296419Y-70356314D02*
X123296419Y-69784885D01*
X123296419Y-70070600D02*
X124296419Y-70070600D01*
X124153561Y-69975361D01*
X124058323Y-69880123D01*
X124010704Y-69784885D01*
X157516533Y-111837742D02*
X157468914Y-111885361D01*
X157326057Y-111932980D01*
X157230819Y-111932980D01*
X157087961Y-111885361D01*
X156992723Y-111790123D01*
X156945104Y-111694885D01*
X156897485Y-111504409D01*
X156897485Y-111361552D01*
X156945104Y-111171076D01*
X156992723Y-111075838D01*
X157087961Y-110980600D01*
X157230819Y-110932980D01*
X157326057Y-110932980D01*
X157468914Y-110980600D01*
X157516533Y-111028219D01*
X158373676Y-110932980D02*
X158183200Y-110932980D01*
X158087961Y-110980600D01*
X158040342Y-111028219D01*
X157945104Y-111171076D01*
X157897485Y-111361552D01*
X157897485Y-111742504D01*
X157945104Y-111837742D01*
X157992723Y-111885361D01*
X158087961Y-111932980D01*
X158278438Y-111932980D01*
X158373676Y-111885361D01*
X158421295Y-111837742D01*
X158468914Y-111742504D01*
X158468914Y-111504409D01*
X158421295Y-111409171D01*
X158373676Y-111361552D01*
X158278438Y-111313933D01*
X158087961Y-111313933D01*
X157992723Y-111361552D01*
X157945104Y-111409171D01*
X157897485Y-111504409D01*
X131344942Y-97804266D02*
X131392561Y-97851885D01*
X131440180Y-97994742D01*
X131440180Y-98089980D01*
X131392561Y-98232838D01*
X131297323Y-98328076D01*
X131202085Y-98375695D01*
X131011609Y-98423314D01*
X130868752Y-98423314D01*
X130678276Y-98375695D01*
X130583038Y-98328076D01*
X130487800Y-98232838D01*
X130440180Y-98089980D01*
X130440180Y-97994742D01*
X130487800Y-97851885D01*
X130535419Y-97804266D01*
X130440180Y-96899504D02*
X130440180Y-97375695D01*
X130916371Y-97423314D01*
X130868752Y-97375695D01*
X130821133Y-97280457D01*
X130821133Y-97042361D01*
X130868752Y-96947123D01*
X130916371Y-96899504D01*
X131011609Y-96851885D01*
X131249704Y-96851885D01*
X131344942Y-96899504D01*
X131392561Y-96947123D01*
X131440180Y-97042361D01*
X131440180Y-97280457D01*
X131392561Y-97375695D01*
X131344942Y-97423314D01*
X114692180Y-110667704D02*
X115501704Y-110667704D01*
X115596942Y-110620085D01*
X115644561Y-110572466D01*
X115692180Y-110477228D01*
X115692180Y-110286752D01*
X115644561Y-110191514D01*
X115596942Y-110143895D01*
X115501704Y-110096276D01*
X114692180Y-110096276D01*
X115025514Y-109191514D02*
X115692180Y-109191514D01*
X114644561Y-109429609D02*
X115358847Y-109667704D01*
X115358847Y-109048657D01*
X130389380Y-93319504D02*
X131198904Y-93319504D01*
X131294142Y-93271885D01*
X131341761Y-93224266D01*
X131389380Y-93129028D01*
X131389380Y-92938552D01*
X131341761Y-92843314D01*
X131294142Y-92795695D01*
X131198904Y-92748076D01*
X130389380Y-92748076D01*
X130389380Y-92367123D02*
X130389380Y-91748076D01*
X130770333Y-92081409D01*
X130770333Y-91938552D01*
X130817952Y-91843314D01*
X130865571Y-91795695D01*
X130960809Y-91748076D01*
X131198904Y-91748076D01*
X131294142Y-91795695D01*
X131341761Y-91843314D01*
X131389380Y-91938552D01*
X131389380Y-92224266D01*
X131341761Y-92319504D01*
X131294142Y-92367123D01*
X143916495Y-114275180D02*
X143916495Y-115084704D01*
X143964114Y-115179942D01*
X144011733Y-115227561D01*
X144106971Y-115275180D01*
X144297447Y-115275180D01*
X144392685Y-115227561D01*
X144440304Y-115179942D01*
X144487923Y-115084704D01*
X144487923Y-114275180D01*
X145487923Y-115275180D02*
X144916495Y-115275180D01*
X145202209Y-115275180D02*
X145202209Y-114275180D01*
X145106971Y-114418038D01*
X145011733Y-114513276D01*
X144916495Y-114560895D01*
X104589342Y-95194380D02*
X104256009Y-94718190D01*
X104017914Y-95194380D02*
X104017914Y-94194380D01*
X104398866Y-94194380D01*
X104494104Y-94242000D01*
X104541723Y-94289619D01*
X104589342Y-94384857D01*
X104589342Y-94527714D01*
X104541723Y-94622952D01*
X104494104Y-94670571D01*
X104398866Y-94718190D01*
X104017914Y-94718190D01*
X104970295Y-94289619D02*
X105017914Y-94242000D01*
X105113152Y-94194380D01*
X105351247Y-94194380D01*
X105446485Y-94242000D01*
X105494104Y-94289619D01*
X105541723Y-94384857D01*
X105541723Y-94480095D01*
X105494104Y-94622952D01*
X104922676Y-95194380D01*
X105541723Y-95194380D01*
X106494104Y-95194380D02*
X105922676Y-95194380D01*
X106208390Y-95194380D02*
X106208390Y-94194380D01*
X106113152Y-94337238D01*
X106017914Y-94432476D01*
X105922676Y-94480095D01*
X104589342Y-94000580D02*
X104256009Y-93524390D01*
X104017914Y-94000580D02*
X104017914Y-93000580D01*
X104398866Y-93000580D01*
X104494104Y-93048200D01*
X104541723Y-93095819D01*
X104589342Y-93191057D01*
X104589342Y-93333914D01*
X104541723Y-93429152D01*
X104494104Y-93476771D01*
X104398866Y-93524390D01*
X104017914Y-93524390D01*
X104970295Y-93095819D02*
X105017914Y-93048200D01*
X105113152Y-93000580D01*
X105351247Y-93000580D01*
X105446485Y-93048200D01*
X105494104Y-93095819D01*
X105541723Y-93191057D01*
X105541723Y-93286295D01*
X105494104Y-93429152D01*
X104922676Y-94000580D01*
X105541723Y-94000580D01*
X106160771Y-93000580D02*
X106256009Y-93000580D01*
X106351247Y-93048200D01*
X106398866Y-93095819D01*
X106446485Y-93191057D01*
X106494104Y-93381533D01*
X106494104Y-93619628D01*
X106446485Y-93810104D01*
X106398866Y-93905342D01*
X106351247Y-93952961D01*
X106256009Y-94000580D01*
X106160771Y-94000580D01*
X106065533Y-93952961D01*
X106017914Y-93905342D01*
X105970295Y-93810104D01*
X105922676Y-93619628D01*
X105922676Y-93381533D01*
X105970295Y-93191057D01*
X106017914Y-93095819D01*
X106065533Y-93048200D01*
X106160771Y-93000580D01*
X104589342Y-92755980D02*
X104256009Y-92279790D01*
X104017914Y-92755980D02*
X104017914Y-91755980D01*
X104398866Y-91755980D01*
X104494104Y-91803600D01*
X104541723Y-91851219D01*
X104589342Y-91946457D01*
X104589342Y-92089314D01*
X104541723Y-92184552D01*
X104494104Y-92232171D01*
X104398866Y-92279790D01*
X104017914Y-92279790D01*
X105541723Y-92755980D02*
X104970295Y-92755980D01*
X105256009Y-92755980D02*
X105256009Y-91755980D01*
X105160771Y-91898838D01*
X105065533Y-91994076D01*
X104970295Y-92041695D01*
X106017914Y-92755980D02*
X106208390Y-92755980D01*
X106303628Y-92708361D01*
X106351247Y-92660742D01*
X106446485Y-92517885D01*
X106494104Y-92327409D01*
X106494104Y-91946457D01*
X106446485Y-91851219D01*
X106398866Y-91803600D01*
X106303628Y-91755980D01*
X106113152Y-91755980D01*
X106017914Y-91803600D01*
X105970295Y-91851219D01*
X105922676Y-91946457D01*
X105922676Y-92184552D01*
X105970295Y-92279790D01*
X106017914Y-92327409D01*
X106113152Y-92375028D01*
X106303628Y-92375028D01*
X106398866Y-92327409D01*
X106446485Y-92279790D01*
X106494104Y-92184552D01*
X104589342Y-91511380D02*
X104256009Y-91035190D01*
X104017914Y-91511380D02*
X104017914Y-90511380D01*
X104398866Y-90511380D01*
X104494104Y-90559000D01*
X104541723Y-90606619D01*
X104589342Y-90701857D01*
X104589342Y-90844714D01*
X104541723Y-90939952D01*
X104494104Y-90987571D01*
X104398866Y-91035190D01*
X104017914Y-91035190D01*
X105541723Y-91511380D02*
X104970295Y-91511380D01*
X105256009Y-91511380D02*
X105256009Y-90511380D01*
X105160771Y-90654238D01*
X105065533Y-90749476D01*
X104970295Y-90797095D01*
X106113152Y-90939952D02*
X106017914Y-90892333D01*
X105970295Y-90844714D01*
X105922676Y-90749476D01*
X105922676Y-90701857D01*
X105970295Y-90606619D01*
X106017914Y-90559000D01*
X106113152Y-90511380D01*
X106303628Y-90511380D01*
X106398866Y-90559000D01*
X106446485Y-90606619D01*
X106494104Y-90701857D01*
X106494104Y-90749476D01*
X106446485Y-90844714D01*
X106398866Y-90892333D01*
X106303628Y-90939952D01*
X106113152Y-90939952D01*
X106017914Y-90987571D01*
X105970295Y-91035190D01*
X105922676Y-91130428D01*
X105922676Y-91320904D01*
X105970295Y-91416142D01*
X106017914Y-91463761D01*
X106113152Y-91511380D01*
X106303628Y-91511380D01*
X106398866Y-91463761D01*
X106446485Y-91416142D01*
X106494104Y-91320904D01*
X106494104Y-91130428D01*
X106446485Y-91035190D01*
X106398866Y-90987571D01*
X106303628Y-90939952D01*
X104563942Y-90241380D02*
X104230609Y-89765190D01*
X103992514Y-90241380D02*
X103992514Y-89241380D01*
X104373466Y-89241380D01*
X104468704Y-89289000D01*
X104516323Y-89336619D01*
X104563942Y-89431857D01*
X104563942Y-89574714D01*
X104516323Y-89669952D01*
X104468704Y-89717571D01*
X104373466Y-89765190D01*
X103992514Y-89765190D01*
X105516323Y-90241380D02*
X104944895Y-90241380D01*
X105230609Y-90241380D02*
X105230609Y-89241380D01*
X105135371Y-89384238D01*
X105040133Y-89479476D01*
X104944895Y-89527095D01*
X105849657Y-89241380D02*
X106516323Y-89241380D01*
X106087752Y-90241380D01*
X104563942Y-88945980D02*
X104230609Y-88469790D01*
X103992514Y-88945980D02*
X103992514Y-87945980D01*
X104373466Y-87945980D01*
X104468704Y-87993600D01*
X104516323Y-88041219D01*
X104563942Y-88136457D01*
X104563942Y-88279314D01*
X104516323Y-88374552D01*
X104468704Y-88422171D01*
X104373466Y-88469790D01*
X103992514Y-88469790D01*
X105516323Y-88945980D02*
X104944895Y-88945980D01*
X105230609Y-88945980D02*
X105230609Y-87945980D01*
X105135371Y-88088838D01*
X105040133Y-88184076D01*
X104944895Y-88231695D01*
X106373466Y-87945980D02*
X106182990Y-87945980D01*
X106087752Y-87993600D01*
X106040133Y-88041219D01*
X105944895Y-88184076D01*
X105897276Y-88374552D01*
X105897276Y-88755504D01*
X105944895Y-88850742D01*
X105992514Y-88898361D01*
X106087752Y-88945980D01*
X106278228Y-88945980D01*
X106373466Y-88898361D01*
X106421085Y-88850742D01*
X106468704Y-88755504D01*
X106468704Y-88517409D01*
X106421085Y-88422171D01*
X106373466Y-88374552D01*
X106278228Y-88326933D01*
X106087752Y-88326933D01*
X105992514Y-88374552D01*
X105944895Y-88422171D01*
X105897276Y-88517409D01*
X110126542Y-108630980D02*
X109793209Y-108154790D01*
X109555114Y-108630980D02*
X109555114Y-107630980D01*
X109936066Y-107630980D01*
X110031304Y-107678600D01*
X110078923Y-107726219D01*
X110126542Y-107821457D01*
X110126542Y-107964314D01*
X110078923Y-108059552D01*
X110031304Y-108107171D01*
X109936066Y-108154790D01*
X109555114Y-108154790D01*
X111078923Y-108630980D02*
X110507495Y-108630980D01*
X110793209Y-108630980D02*
X110793209Y-107630980D01*
X110697971Y-107773838D01*
X110602733Y-107869076D01*
X110507495Y-107916695D01*
X111983685Y-107630980D02*
X111507495Y-107630980D01*
X111459876Y-108107171D01*
X111507495Y-108059552D01*
X111602733Y-108011933D01*
X111840828Y-108011933D01*
X111936066Y-108059552D01*
X111983685Y-108107171D01*
X112031304Y-108202409D01*
X112031304Y-108440504D01*
X111983685Y-108535742D01*
X111936066Y-108583361D01*
X111840828Y-108630980D01*
X111602733Y-108630980D01*
X111507495Y-108583361D01*
X111459876Y-108535742D01*
X110075742Y-107030780D02*
X109742409Y-106554590D01*
X109504314Y-107030780D02*
X109504314Y-106030780D01*
X109885266Y-106030780D01*
X109980504Y-106078400D01*
X110028123Y-106126019D01*
X110075742Y-106221257D01*
X110075742Y-106364114D01*
X110028123Y-106459352D01*
X109980504Y-106506971D01*
X109885266Y-106554590D01*
X109504314Y-106554590D01*
X111028123Y-107030780D02*
X110456695Y-107030780D01*
X110742409Y-107030780D02*
X110742409Y-106030780D01*
X110647171Y-106173638D01*
X110551933Y-106268876D01*
X110456695Y-106316495D01*
X111885266Y-106364114D02*
X111885266Y-107030780D01*
X111647171Y-105983161D02*
X111409076Y-106697447D01*
X112028123Y-106697447D01*
X119778542Y-105582980D02*
X119445209Y-105106790D01*
X119207114Y-105582980D02*
X119207114Y-104582980D01*
X119588066Y-104582980D01*
X119683304Y-104630600D01*
X119730923Y-104678219D01*
X119778542Y-104773457D01*
X119778542Y-104916314D01*
X119730923Y-105011552D01*
X119683304Y-105059171D01*
X119588066Y-105106790D01*
X119207114Y-105106790D01*
X120730923Y-105582980D02*
X120159495Y-105582980D01*
X120445209Y-105582980D02*
X120445209Y-104582980D01*
X120349971Y-104725838D01*
X120254733Y-104821076D01*
X120159495Y-104868695D01*
X121064257Y-104582980D02*
X121683304Y-104582980D01*
X121349971Y-104963933D01*
X121492828Y-104963933D01*
X121588066Y-105011552D01*
X121635685Y-105059171D01*
X121683304Y-105154409D01*
X121683304Y-105392504D01*
X121635685Y-105487742D01*
X121588066Y-105535361D01*
X121492828Y-105582980D01*
X121207114Y-105582980D01*
X121111876Y-105535361D01*
X121064257Y-105487742D01*
X116755942Y-105626180D02*
X116422609Y-105149990D01*
X116184514Y-105626180D02*
X116184514Y-104626180D01*
X116565466Y-104626180D01*
X116660704Y-104673800D01*
X116708323Y-104721419D01*
X116755942Y-104816657D01*
X116755942Y-104959514D01*
X116708323Y-105054752D01*
X116660704Y-105102371D01*
X116565466Y-105149990D01*
X116184514Y-105149990D01*
X117708323Y-105626180D02*
X117136895Y-105626180D01*
X117422609Y-105626180D02*
X117422609Y-104626180D01*
X117327371Y-104769038D01*
X117232133Y-104864276D01*
X117136895Y-104911895D01*
X118089276Y-104721419D02*
X118136895Y-104673800D01*
X118232133Y-104626180D01*
X118470228Y-104626180D01*
X118565466Y-104673800D01*
X118613085Y-104721419D01*
X118660704Y-104816657D01*
X118660704Y-104911895D01*
X118613085Y-105054752D01*
X118041657Y-105626180D01*
X118660704Y-105626180D01*
X120286542Y-84780380D02*
X119953209Y-84304190D01*
X119715114Y-84780380D02*
X119715114Y-83780380D01*
X120096066Y-83780380D01*
X120191304Y-83828000D01*
X120238923Y-83875619D01*
X120286542Y-83970857D01*
X120286542Y-84113714D01*
X120238923Y-84208952D01*
X120191304Y-84256571D01*
X120096066Y-84304190D01*
X119715114Y-84304190D01*
X121238923Y-84780380D02*
X120667495Y-84780380D01*
X120953209Y-84780380D02*
X120953209Y-83780380D01*
X120857971Y-83923238D01*
X120762733Y-84018476D01*
X120667495Y-84066095D01*
X122191304Y-84780380D02*
X121619876Y-84780380D01*
X121905590Y-84780380D02*
X121905590Y-83780380D01*
X121810352Y-83923238D01*
X121715114Y-84018476D01*
X121619876Y-84066095D01*
X123334542Y-84780380D02*
X123001209Y-84304190D01*
X122763114Y-84780380D02*
X122763114Y-83780380D01*
X123144066Y-83780380D01*
X123239304Y-83828000D01*
X123286923Y-83875619D01*
X123334542Y-83970857D01*
X123334542Y-84113714D01*
X123286923Y-84208952D01*
X123239304Y-84256571D01*
X123144066Y-84304190D01*
X122763114Y-84304190D01*
X124286923Y-84780380D02*
X123715495Y-84780380D01*
X124001209Y-84780380D02*
X124001209Y-83780380D01*
X123905971Y-83923238D01*
X123810733Y-84018476D01*
X123715495Y-84066095D01*
X124905971Y-83780380D02*
X125001209Y-83780380D01*
X125096447Y-83828000D01*
X125144066Y-83875619D01*
X125191685Y-83970857D01*
X125239304Y-84161333D01*
X125239304Y-84399428D01*
X125191685Y-84589904D01*
X125144066Y-84685142D01*
X125096447Y-84732761D01*
X125001209Y-84780380D01*
X124905971Y-84780380D01*
X124810733Y-84732761D01*
X124763114Y-84685142D01*
X124715495Y-84589904D01*
X124667876Y-84399428D01*
X124667876Y-84161333D01*
X124715495Y-83970857D01*
X124763114Y-83875619D01*
X124810733Y-83828000D01*
X124905971Y-83780380D01*
X130670580Y-87517266D02*
X130194390Y-87850600D01*
X130670580Y-88088695D02*
X129670580Y-88088695D01*
X129670580Y-87707742D01*
X129718200Y-87612504D01*
X129765819Y-87564885D01*
X129861057Y-87517266D01*
X130003914Y-87517266D01*
X130099152Y-87564885D01*
X130146771Y-87612504D01*
X130194390Y-87707742D01*
X130194390Y-88088695D01*
X130670580Y-87041076D02*
X130670580Y-86850600D01*
X130622961Y-86755361D01*
X130575342Y-86707742D01*
X130432485Y-86612504D01*
X130242009Y-86564885D01*
X129861057Y-86564885D01*
X129765819Y-86612504D01*
X129718200Y-86660123D01*
X129670580Y-86755361D01*
X129670580Y-86945838D01*
X129718200Y-87041076D01*
X129765819Y-87088695D01*
X129861057Y-87136314D01*
X130099152Y-87136314D01*
X130194390Y-87088695D01*
X130242009Y-87041076D01*
X130289628Y-86945838D01*
X130289628Y-86755361D01*
X130242009Y-86660123D01*
X130194390Y-86612504D01*
X130099152Y-86564885D01*
X123785333Y-86228180D02*
X123452000Y-85751990D01*
X123213904Y-86228180D02*
X123213904Y-85228180D01*
X123594857Y-85228180D01*
X123690095Y-85275800D01*
X123737714Y-85323419D01*
X123785333Y-85418657D01*
X123785333Y-85561514D01*
X123737714Y-85656752D01*
X123690095Y-85704371D01*
X123594857Y-85751990D01*
X123213904Y-85751990D01*
X124356761Y-85656752D02*
X124261523Y-85609133D01*
X124213904Y-85561514D01*
X124166285Y-85466276D01*
X124166285Y-85418657D01*
X124213904Y-85323419D01*
X124261523Y-85275800D01*
X124356761Y-85228180D01*
X124547238Y-85228180D01*
X124642476Y-85275800D01*
X124690095Y-85323419D01*
X124737714Y-85418657D01*
X124737714Y-85466276D01*
X124690095Y-85561514D01*
X124642476Y-85609133D01*
X124547238Y-85656752D01*
X124356761Y-85656752D01*
X124261523Y-85704371D01*
X124213904Y-85751990D01*
X124166285Y-85847228D01*
X124166285Y-86037704D01*
X124213904Y-86132942D01*
X124261523Y-86180561D01*
X124356761Y-86228180D01*
X124547238Y-86228180D01*
X124642476Y-86180561D01*
X124690095Y-86132942D01*
X124737714Y-86037704D01*
X124737714Y-85847228D01*
X124690095Y-85751990D01*
X124642476Y-85704371D01*
X124547238Y-85656752D01*
X130728980Y-90717666D02*
X130252790Y-91051000D01*
X130728980Y-91289095D02*
X129728980Y-91289095D01*
X129728980Y-90908142D01*
X129776600Y-90812904D01*
X129824219Y-90765285D01*
X129919457Y-90717666D01*
X130062314Y-90717666D01*
X130157552Y-90765285D01*
X130205171Y-90812904D01*
X130252790Y-90908142D01*
X130252790Y-91289095D01*
X129728980Y-90384333D02*
X129728980Y-89717666D01*
X130728980Y-90146238D01*
X119070380Y-79795666D02*
X118594190Y-80129000D01*
X119070380Y-80367095D02*
X118070380Y-80367095D01*
X118070380Y-79986142D01*
X118118000Y-79890904D01*
X118165619Y-79843285D01*
X118260857Y-79795666D01*
X118403714Y-79795666D01*
X118498952Y-79843285D01*
X118546571Y-79890904D01*
X118594190Y-79986142D01*
X118594190Y-80367095D01*
X118070380Y-78938523D02*
X118070380Y-79129000D01*
X118118000Y-79224238D01*
X118165619Y-79271857D01*
X118308476Y-79367095D01*
X118498952Y-79414714D01*
X118879904Y-79414714D01*
X118975142Y-79367095D01*
X119022761Y-79319476D01*
X119070380Y-79224238D01*
X119070380Y-79033761D01*
X119022761Y-78938523D01*
X118975142Y-78890904D01*
X118879904Y-78843285D01*
X118641809Y-78843285D01*
X118546571Y-78890904D01*
X118498952Y-78938523D01*
X118451333Y-79033761D01*
X118451333Y-79224238D01*
X118498952Y-79319476D01*
X118546571Y-79367095D01*
X118641809Y-79414714D01*
X114895333Y-81833980D02*
X114562000Y-81357790D01*
X114323904Y-81833980D02*
X114323904Y-80833980D01*
X114704857Y-80833980D01*
X114800095Y-80881600D01*
X114847714Y-80929219D01*
X114895333Y-81024457D01*
X114895333Y-81167314D01*
X114847714Y-81262552D01*
X114800095Y-81310171D01*
X114704857Y-81357790D01*
X114323904Y-81357790D01*
X115800095Y-80833980D02*
X115323904Y-80833980D01*
X115276285Y-81310171D01*
X115323904Y-81262552D01*
X115419142Y-81214933D01*
X115657238Y-81214933D01*
X115752476Y-81262552D01*
X115800095Y-81310171D01*
X115847714Y-81405409D01*
X115847714Y-81643504D01*
X115800095Y-81738742D01*
X115752476Y-81786361D01*
X115657238Y-81833980D01*
X115419142Y-81833980D01*
X115323904Y-81786361D01*
X115276285Y-81738742D01*
X125471180Y-99582266D02*
X124994990Y-99915600D01*
X125471180Y-100153695D02*
X124471180Y-100153695D01*
X124471180Y-99772742D01*
X124518800Y-99677504D01*
X124566419Y-99629885D01*
X124661657Y-99582266D01*
X124804514Y-99582266D01*
X124899752Y-99629885D01*
X124947371Y-99677504D01*
X124994990Y-99772742D01*
X124994990Y-100153695D01*
X124471180Y-99248933D02*
X124471180Y-98629885D01*
X124852133Y-98963219D01*
X124852133Y-98820361D01*
X124899752Y-98725123D01*
X124947371Y-98677504D01*
X125042609Y-98629885D01*
X125280704Y-98629885D01*
X125375942Y-98677504D01*
X125423561Y-98725123D01*
X125471180Y-98820361D01*
X125471180Y-99106076D01*
X125423561Y-99201314D01*
X125375942Y-99248933D01*
X128839933Y-102948980D02*
X128506600Y-102472790D01*
X128268504Y-102948980D02*
X128268504Y-101948980D01*
X128649457Y-101948980D01*
X128744695Y-101996600D01*
X128792314Y-102044219D01*
X128839933Y-102139457D01*
X128839933Y-102282314D01*
X128792314Y-102377552D01*
X128744695Y-102425171D01*
X128649457Y-102472790D01*
X128268504Y-102472790D01*
X129220885Y-102044219D02*
X129268504Y-101996600D01*
X129363742Y-101948980D01*
X129601838Y-101948980D01*
X129697076Y-101996600D01*
X129744695Y-102044219D01*
X129792314Y-102139457D01*
X129792314Y-102234695D01*
X129744695Y-102377552D01*
X129173266Y-102948980D01*
X129792314Y-102948980D01*
X131560819Y-99180638D02*
X131513200Y-99275876D01*
X131417961Y-99371114D01*
X131275104Y-99513971D01*
X131227485Y-99609209D01*
X131227485Y-99704447D01*
X131465580Y-99656828D02*
X131417961Y-99752066D01*
X131322723Y-99847304D01*
X131132247Y-99894923D01*
X130798914Y-99894923D01*
X130608438Y-99847304D01*
X130513200Y-99752066D01*
X130465580Y-99656828D01*
X130465580Y-99466352D01*
X130513200Y-99371114D01*
X130608438Y-99275876D01*
X130798914Y-99228257D01*
X131132247Y-99228257D01*
X131322723Y-99275876D01*
X131417961Y-99371114D01*
X131465580Y-99466352D01*
X131465580Y-99656828D01*
X131465580Y-98275876D02*
X131465580Y-98847304D01*
X131465580Y-98561590D02*
X130465580Y-98561590D01*
X130608438Y-98656828D01*
X130703676Y-98752066D01*
X130751295Y-98847304D01*
X124623533Y-74823580D02*
X124147342Y-74823580D01*
X124147342Y-73823580D01*
X125480676Y-74823580D02*
X124909247Y-74823580D01*
X125194961Y-74823580D02*
X125194961Y-73823580D01*
X125099723Y-73966438D01*
X125004485Y-74061676D01*
X124909247Y-74109295D01*
X99615666Y-100544380D02*
X99615666Y-101258666D01*
X99568047Y-101401523D01*
X99472809Y-101496761D01*
X99329952Y-101544380D01*
X99234714Y-101544380D01*
X100044238Y-100639619D02*
X100091857Y-100592000D01*
X100187095Y-100544380D01*
X100425190Y-100544380D01*
X100520428Y-100592000D01*
X100568047Y-100639619D01*
X100615666Y-100734857D01*
X100615666Y-100830095D01*
X100568047Y-100972952D01*
X99996619Y-101544380D01*
X100615666Y-101544380D01*
X165892066Y-86561980D02*
X165892066Y-87276266D01*
X165844447Y-87419123D01*
X165749209Y-87514361D01*
X165606352Y-87561980D01*
X165511114Y-87561980D01*
X166892066Y-87561980D02*
X166320638Y-87561980D01*
X166606352Y-87561980D02*
X166606352Y-86561980D01*
X166511114Y-86704838D01*
X166415876Y-86800076D01*
X166320638Y-86847695D01*
X159132542Y-105163857D02*
X159180161Y-105211476D01*
X159227780Y-105354333D01*
X159227780Y-105449571D01*
X159180161Y-105592428D01*
X159084923Y-105687666D01*
X158989685Y-105735285D01*
X158799209Y-105782904D01*
X158656352Y-105782904D01*
X158465876Y-105735285D01*
X158370638Y-105687666D01*
X158275400Y-105592428D01*
X158227780Y-105449571D01*
X158227780Y-105354333D01*
X158275400Y-105211476D01*
X158323019Y-105163857D01*
X159227780Y-104211476D02*
X159227780Y-104782904D01*
X159227780Y-104497190D02*
X158227780Y-104497190D01*
X158370638Y-104592428D01*
X158465876Y-104687666D01*
X158513495Y-104782904D01*
X158227780Y-103878142D02*
X158227780Y-103259095D01*
X158608733Y-103592428D01*
X158608733Y-103449571D01*
X158656352Y-103354333D01*
X158703971Y-103306714D01*
X158799209Y-103259095D01*
X159037304Y-103259095D01*
X159132542Y-103306714D01*
X159180161Y-103354333D01*
X159227780Y-103449571D01*
X159227780Y-103735285D01*
X159180161Y-103830523D01*
X159132542Y-103878142D01*
X124588542Y-107322857D02*
X124636161Y-107370476D01*
X124683780Y-107513333D01*
X124683780Y-107608571D01*
X124636161Y-107751428D01*
X124540923Y-107846666D01*
X124445685Y-107894285D01*
X124255209Y-107941904D01*
X124112352Y-107941904D01*
X123921876Y-107894285D01*
X123826638Y-107846666D01*
X123731400Y-107751428D01*
X123683780Y-107608571D01*
X123683780Y-107513333D01*
X123731400Y-107370476D01*
X123779019Y-107322857D01*
X124683780Y-106370476D02*
X124683780Y-106941904D01*
X124683780Y-106656190D02*
X123683780Y-106656190D01*
X123826638Y-106751428D01*
X123921876Y-106846666D01*
X123969495Y-106941904D01*
X123779019Y-105989523D02*
X123731400Y-105941904D01*
X123683780Y-105846666D01*
X123683780Y-105608571D01*
X123731400Y-105513333D01*
X123779019Y-105465714D01*
X123874257Y-105418095D01*
X123969495Y-105418095D01*
X124112352Y-105465714D01*
X124683780Y-106037142D01*
X124683780Y-105418095D01*
X122810542Y-107348257D02*
X122858161Y-107395876D01*
X122905780Y-107538733D01*
X122905780Y-107633971D01*
X122858161Y-107776828D01*
X122762923Y-107872066D01*
X122667685Y-107919685D01*
X122477209Y-107967304D01*
X122334352Y-107967304D01*
X122143876Y-107919685D01*
X122048638Y-107872066D01*
X121953400Y-107776828D01*
X121905780Y-107633971D01*
X121905780Y-107538733D01*
X121953400Y-107395876D01*
X122001019Y-107348257D01*
X122905780Y-106395876D02*
X122905780Y-106967304D01*
X122905780Y-106681590D02*
X121905780Y-106681590D01*
X122048638Y-106776828D01*
X122143876Y-106872066D01*
X122191495Y-106967304D01*
X122905780Y-105443495D02*
X122905780Y-106014923D01*
X122905780Y-105729209D02*
X121905780Y-105729209D01*
X122048638Y-105824447D01*
X122143876Y-105919685D01*
X122191495Y-106014923D01*
X128846342Y-80798942D02*
X128798723Y-80846561D01*
X128655866Y-80894180D01*
X128560628Y-80894180D01*
X128417771Y-80846561D01*
X128322533Y-80751323D01*
X128274914Y-80656085D01*
X128227295Y-80465609D01*
X128227295Y-80322752D01*
X128274914Y-80132276D01*
X128322533Y-80037038D01*
X128417771Y-79941800D01*
X128560628Y-79894180D01*
X128655866Y-79894180D01*
X128798723Y-79941800D01*
X128846342Y-79989419D01*
X129798723Y-80894180D02*
X129227295Y-80894180D01*
X129513009Y-80894180D02*
X129513009Y-79894180D01*
X129417771Y-80037038D01*
X129322533Y-80132276D01*
X129227295Y-80179895D01*
X130417771Y-79894180D02*
X130513009Y-79894180D01*
X130608247Y-79941800D01*
X130655866Y-79989419D01*
X130703485Y-80084657D01*
X130751104Y-80275133D01*
X130751104Y-80513228D01*
X130703485Y-80703704D01*
X130655866Y-80798942D01*
X130608247Y-80846561D01*
X130513009Y-80894180D01*
X130417771Y-80894180D01*
X130322533Y-80846561D01*
X130274914Y-80798942D01*
X130227295Y-80703704D01*
X130179676Y-80513228D01*
X130179676Y-80275133D01*
X130227295Y-80084657D01*
X130274914Y-79989419D01*
X130322533Y-79941800D01*
X130417771Y-79894180D01*
X126909533Y-80798942D02*
X126861914Y-80846561D01*
X126719057Y-80894180D01*
X126623819Y-80894180D01*
X126480961Y-80846561D01*
X126385723Y-80751323D01*
X126338104Y-80656085D01*
X126290485Y-80465609D01*
X126290485Y-80322752D01*
X126338104Y-80132276D01*
X126385723Y-80037038D01*
X126480961Y-79941800D01*
X126623819Y-79894180D01*
X126719057Y-79894180D01*
X126861914Y-79941800D01*
X126909533Y-79989419D01*
X127385723Y-80894180D02*
X127576200Y-80894180D01*
X127671438Y-80846561D01*
X127719057Y-80798942D01*
X127814295Y-80656085D01*
X127861914Y-80465609D01*
X127861914Y-80084657D01*
X127814295Y-79989419D01*
X127766676Y-79941800D01*
X127671438Y-79894180D01*
X127480961Y-79894180D01*
X127385723Y-79941800D01*
X127338104Y-79989419D01*
X127290485Y-80084657D01*
X127290485Y-80322752D01*
X127338104Y-80417990D01*
X127385723Y-80465609D01*
X127480961Y-80513228D01*
X127671438Y-80513228D01*
X127766676Y-80465609D01*
X127814295Y-80417990D01*
X127861914Y-80322752D01*
X119975333Y-73356742D02*
X119927714Y-73404361D01*
X119784857Y-73451980D01*
X119689619Y-73451980D01*
X119546761Y-73404361D01*
X119451523Y-73309123D01*
X119403904Y-73213885D01*
X119356285Y-73023409D01*
X119356285Y-72880552D01*
X119403904Y-72690076D01*
X119451523Y-72594838D01*
X119546761Y-72499600D01*
X119689619Y-72451980D01*
X119784857Y-72451980D01*
X119927714Y-72499600D01*
X119975333Y-72547219D01*
X120308666Y-72451980D02*
X120975333Y-72451980D01*
X120546761Y-73451980D01*
X110729733Y-72061342D02*
X110682114Y-72108961D01*
X110539257Y-72156580D01*
X110444019Y-72156580D01*
X110301161Y-72108961D01*
X110205923Y-72013723D01*
X110158304Y-71918485D01*
X110110685Y-71728009D01*
X110110685Y-71585152D01*
X110158304Y-71394676D01*
X110205923Y-71299438D01*
X110301161Y-71204200D01*
X110444019Y-71156580D01*
X110539257Y-71156580D01*
X110682114Y-71204200D01*
X110729733Y-71251819D01*
X111063066Y-71156580D02*
X111682114Y-71156580D01*
X111348780Y-71537533D01*
X111491638Y-71537533D01*
X111586876Y-71585152D01*
X111634495Y-71632771D01*
X111682114Y-71728009D01*
X111682114Y-71966104D01*
X111634495Y-72061342D01*
X111586876Y-72108961D01*
X111491638Y-72156580D01*
X111205923Y-72156580D01*
X111110685Y-72108961D01*
X111063066Y-72061342D01*
X106360933Y-78792342D02*
X106313314Y-78839961D01*
X106170457Y-78887580D01*
X106075219Y-78887580D01*
X105932361Y-78839961D01*
X105837123Y-78744723D01*
X105789504Y-78649485D01*
X105741885Y-78459009D01*
X105741885Y-78316152D01*
X105789504Y-78125676D01*
X105837123Y-78030438D01*
X105932361Y-77935200D01*
X106075219Y-77887580D01*
X106170457Y-77887580D01*
X106313314Y-77935200D01*
X106360933Y-77982819D01*
X106741885Y-77982819D02*
X106789504Y-77935200D01*
X106884742Y-77887580D01*
X107122838Y-77887580D01*
X107218076Y-77935200D01*
X107265695Y-77982819D01*
X107313314Y-78078057D01*
X107313314Y-78173295D01*
X107265695Y-78316152D01*
X106694266Y-78887580D01*
X107313314Y-78887580D01*
X108672333Y-78741542D02*
X108624714Y-78789161D01*
X108481857Y-78836780D01*
X108386619Y-78836780D01*
X108243761Y-78789161D01*
X108148523Y-78693923D01*
X108100904Y-78598685D01*
X108053285Y-78408209D01*
X108053285Y-78265352D01*
X108100904Y-78074876D01*
X108148523Y-77979638D01*
X108243761Y-77884400D01*
X108386619Y-77836780D01*
X108481857Y-77836780D01*
X108624714Y-77884400D01*
X108672333Y-77932019D01*
X109624714Y-78836780D02*
X109053285Y-78836780D01*
X109339000Y-78836780D02*
X109339000Y-77836780D01*
X109243761Y-77979638D01*
X109148523Y-78074876D01*
X109053285Y-78122495D01*
M02*
