G04 #@! TF.GenerationSoftware,KiCad,Pcbnew,(5.1.5)-3*
G04 #@! TF.CreationDate,2020-05-19T22:12:29-06:00*
G04 #@! TF.ProjectId,GarageDoorOpener,47617261-6765-4446-9f6f-724f70656e65,1b*
G04 #@! TF.SameCoordinates,Original*
G04 #@! TF.FileFunction,Soldermask,Bot*
G04 #@! TF.FilePolarity,Negative*
%FSLAX46Y46*%
G04 Gerber Fmt 4.6, Leading zero omitted, Abs format (unit mm)*
G04 Created by KiCad (PCBNEW (5.1.5)-3) date 2020-05-19 22:12:29*
%MOMM*%
%LPD*%
G04 APERTURE LIST*
%ADD10C,0.100000*%
G04 APERTURE END LIST*
D10*
G36*
X153826114Y-115087182D02*
G01*
X153953722Y-115112565D01*
X154073169Y-115162042D01*
X154194127Y-115212144D01*
X154194128Y-115212145D01*
X154410489Y-115356712D01*
X154594488Y-115540711D01*
X154675808Y-115662416D01*
X154739056Y-115757073D01*
X154774688Y-115843097D01*
X154838635Y-115997478D01*
X154889400Y-116252693D01*
X154889400Y-116512907D01*
X154838635Y-116768122D01*
X154780303Y-116908948D01*
X154739056Y-117008527D01*
X154739055Y-117008528D01*
X154594488Y-117224889D01*
X154410489Y-117408888D01*
X154265921Y-117505485D01*
X154194127Y-117553456D01*
X154094548Y-117594703D01*
X153953722Y-117653035D01*
X153826114Y-117678418D01*
X153698509Y-117703800D01*
X153438291Y-117703800D01*
X153310686Y-117678418D01*
X153183078Y-117653035D01*
X153042252Y-117594703D01*
X152942673Y-117553456D01*
X152870879Y-117505485D01*
X152726311Y-117408888D01*
X152542312Y-117224889D01*
X152397745Y-117008528D01*
X152397744Y-117008527D01*
X152356497Y-116908948D01*
X152298165Y-116768122D01*
X152247400Y-116512907D01*
X152247400Y-116252693D01*
X152298165Y-115997478D01*
X152362112Y-115843097D01*
X152397744Y-115757073D01*
X152460992Y-115662416D01*
X152542312Y-115540711D01*
X152726311Y-115356712D01*
X152942672Y-115212145D01*
X152942673Y-115212144D01*
X153063631Y-115162042D01*
X153183078Y-115112565D01*
X153310686Y-115087182D01*
X153438291Y-115061800D01*
X153698509Y-115061800D01*
X153826114Y-115087182D01*
G37*
G36*
X136046114Y-115087182D02*
G01*
X136173722Y-115112565D01*
X136293169Y-115162042D01*
X136414127Y-115212144D01*
X136414128Y-115212145D01*
X136630489Y-115356712D01*
X136814488Y-115540711D01*
X136895808Y-115662416D01*
X136959056Y-115757073D01*
X136994688Y-115843097D01*
X137058635Y-115997478D01*
X137109400Y-116252693D01*
X137109400Y-116512907D01*
X137058635Y-116768122D01*
X137000303Y-116908948D01*
X136959056Y-117008527D01*
X136959055Y-117008528D01*
X136814488Y-117224889D01*
X136630489Y-117408888D01*
X136485921Y-117505485D01*
X136414127Y-117553456D01*
X136314548Y-117594703D01*
X136173722Y-117653035D01*
X136046114Y-117678418D01*
X135918509Y-117703800D01*
X135658291Y-117703800D01*
X135530686Y-117678418D01*
X135403078Y-117653035D01*
X135262252Y-117594703D01*
X135162673Y-117553456D01*
X135090879Y-117505485D01*
X134946311Y-117408888D01*
X134762312Y-117224889D01*
X134617745Y-117008528D01*
X134617744Y-117008527D01*
X134576497Y-116908948D01*
X134518165Y-116768122D01*
X134467400Y-116512907D01*
X134467400Y-116252693D01*
X134518165Y-115997478D01*
X134582112Y-115843097D01*
X134617744Y-115757073D01*
X134680992Y-115662416D01*
X134762312Y-115540711D01*
X134946311Y-115356712D01*
X135162672Y-115212145D01*
X135162673Y-115212144D01*
X135283631Y-115162042D01*
X135403078Y-115112565D01*
X135530686Y-115087182D01*
X135658291Y-115061800D01*
X135918509Y-115061800D01*
X136046114Y-115087182D01*
G37*
G36*
X103375256Y-112771298D02*
G01*
X103481579Y-112792447D01*
X103782042Y-112916903D01*
X104052451Y-113097585D01*
X104282415Y-113327549D01*
X104463097Y-113597958D01*
X104587553Y-113898421D01*
X104651000Y-114217391D01*
X104651000Y-114542609D01*
X104587553Y-114861579D01*
X104463097Y-115162042D01*
X104282415Y-115432451D01*
X104052451Y-115662415D01*
X103782042Y-115843097D01*
X103481579Y-115967553D01*
X103375256Y-115988702D01*
X103162611Y-116031000D01*
X102837389Y-116031000D01*
X102624744Y-115988702D01*
X102518421Y-115967553D01*
X102217958Y-115843097D01*
X101947549Y-115662415D01*
X101717585Y-115432451D01*
X101536903Y-115162042D01*
X101412447Y-114861579D01*
X101349000Y-114542609D01*
X101349000Y-114217391D01*
X101412447Y-113898421D01*
X101536903Y-113597958D01*
X101717585Y-113327549D01*
X101947549Y-113097585D01*
X102217958Y-112916903D01*
X102518421Y-112792447D01*
X102624744Y-112771298D01*
X102837389Y-112729000D01*
X103162611Y-112729000D01*
X103375256Y-112771298D01*
G37*
G36*
X163375256Y-112771298D02*
G01*
X163481579Y-112792447D01*
X163782042Y-112916903D01*
X164052451Y-113097585D01*
X164282415Y-113327549D01*
X164463097Y-113597958D01*
X164587553Y-113898421D01*
X164651000Y-114217391D01*
X164651000Y-114542609D01*
X164587553Y-114861579D01*
X164463097Y-115162042D01*
X164282415Y-115432451D01*
X164052451Y-115662415D01*
X163782042Y-115843097D01*
X163481579Y-115967553D01*
X163375256Y-115988702D01*
X163162611Y-116031000D01*
X162837389Y-116031000D01*
X162624744Y-115988702D01*
X162518421Y-115967553D01*
X162217958Y-115843097D01*
X161947549Y-115662415D01*
X161717585Y-115432451D01*
X161536903Y-115162042D01*
X161412447Y-114861579D01*
X161349000Y-114542609D01*
X161349000Y-114217391D01*
X161412447Y-113898421D01*
X161536903Y-113597958D01*
X161717585Y-113327549D01*
X161947549Y-113097585D01*
X162217958Y-112916903D01*
X162518421Y-112792447D01*
X162624744Y-112771298D01*
X162837389Y-112729000D01*
X163162611Y-112729000D01*
X163375256Y-112771298D01*
G37*
G36*
X155072042Y-111802581D02*
G01*
X155217814Y-111862962D01*
X155217816Y-111862963D01*
X155349008Y-111950622D01*
X155460578Y-112062192D01*
X155548237Y-112193384D01*
X155548238Y-112193386D01*
X155608619Y-112339158D01*
X155639400Y-112493907D01*
X155639400Y-112651693D01*
X155608619Y-112806442D01*
X155562865Y-112916902D01*
X155548237Y-112952216D01*
X155460578Y-113083408D01*
X155349008Y-113194978D01*
X155217816Y-113282637D01*
X155217815Y-113282638D01*
X155217814Y-113282638D01*
X155072042Y-113343019D01*
X154917293Y-113373800D01*
X154759507Y-113373800D01*
X154604758Y-113343019D01*
X154458986Y-113282638D01*
X154458985Y-113282638D01*
X154458984Y-113282637D01*
X154327792Y-113194978D01*
X154216222Y-113083408D01*
X154128563Y-112952216D01*
X154113935Y-112916902D01*
X154068181Y-112806442D01*
X154037400Y-112651693D01*
X154037400Y-112493907D01*
X154068181Y-112339158D01*
X154128562Y-112193386D01*
X154128563Y-112193384D01*
X154216222Y-112062192D01*
X154327792Y-111950622D01*
X154458984Y-111862963D01*
X154458986Y-111862962D01*
X154604758Y-111802581D01*
X154759507Y-111771800D01*
X154917293Y-111771800D01*
X155072042Y-111802581D01*
G37*
G36*
X155072042Y-109262581D02*
G01*
X155217814Y-109322962D01*
X155217816Y-109322963D01*
X155349008Y-109410622D01*
X155460578Y-109522192D01*
X155548237Y-109653384D01*
X155548238Y-109653386D01*
X155608619Y-109799158D01*
X155639400Y-109953907D01*
X155639400Y-110111693D01*
X155608619Y-110266442D01*
X155548238Y-110412214D01*
X155548237Y-110412216D01*
X155460578Y-110543408D01*
X155349008Y-110654978D01*
X155217816Y-110742637D01*
X155217815Y-110742638D01*
X155217814Y-110742638D01*
X155072042Y-110803019D01*
X154917293Y-110833800D01*
X154759507Y-110833800D01*
X154604758Y-110803019D01*
X154458986Y-110742638D01*
X154458985Y-110742638D01*
X154458984Y-110742637D01*
X154327792Y-110654978D01*
X154216222Y-110543408D01*
X154128563Y-110412216D01*
X154128562Y-110412214D01*
X154068181Y-110266442D01*
X154037400Y-110111693D01*
X154037400Y-109953907D01*
X154068181Y-109799158D01*
X154128562Y-109653386D01*
X154128563Y-109653384D01*
X154216222Y-109522192D01*
X154327792Y-109410622D01*
X154458984Y-109322963D01*
X154458986Y-109322962D01*
X154604758Y-109262581D01*
X154759507Y-109231800D01*
X154917293Y-109231800D01*
X155072042Y-109262581D01*
G37*
G36*
X155072042Y-106722581D02*
G01*
X155217814Y-106782962D01*
X155217816Y-106782963D01*
X155349008Y-106870622D01*
X155460578Y-106982192D01*
X155548237Y-107113384D01*
X155548238Y-107113386D01*
X155608619Y-107259158D01*
X155639400Y-107413907D01*
X155639400Y-107571693D01*
X155608619Y-107726442D01*
X155548238Y-107872214D01*
X155548237Y-107872216D01*
X155460578Y-108003408D01*
X155349008Y-108114978D01*
X155217816Y-108202637D01*
X155217815Y-108202638D01*
X155217814Y-108202638D01*
X155072042Y-108263019D01*
X154917293Y-108293800D01*
X154759507Y-108293800D01*
X154604758Y-108263019D01*
X154458986Y-108202638D01*
X154458985Y-108202638D01*
X154458984Y-108202637D01*
X154327792Y-108114978D01*
X154216222Y-108003408D01*
X154128563Y-107872216D01*
X154128562Y-107872214D01*
X154068181Y-107726442D01*
X154037400Y-107571693D01*
X154037400Y-107413907D01*
X154068181Y-107259158D01*
X154128562Y-107113386D01*
X154128563Y-107113384D01*
X154216222Y-106982192D01*
X154327792Y-106870622D01*
X154458984Y-106782963D01*
X154458986Y-106782962D01*
X154604758Y-106722581D01*
X154759507Y-106691800D01*
X154917293Y-106691800D01*
X155072042Y-106722581D01*
G37*
G36*
X155072042Y-104182581D02*
G01*
X155217814Y-104242962D01*
X155217816Y-104242963D01*
X155349008Y-104330622D01*
X155460578Y-104442192D01*
X155548237Y-104573384D01*
X155548238Y-104573386D01*
X155608619Y-104719158D01*
X155639400Y-104873907D01*
X155639400Y-105031693D01*
X155608619Y-105186442D01*
X155548238Y-105332214D01*
X155548237Y-105332216D01*
X155460578Y-105463408D01*
X155349008Y-105574978D01*
X155217816Y-105662637D01*
X155217815Y-105662638D01*
X155217814Y-105662638D01*
X155072042Y-105723019D01*
X154917293Y-105753800D01*
X154759507Y-105753800D01*
X154604758Y-105723019D01*
X154458986Y-105662638D01*
X154458985Y-105662638D01*
X154458984Y-105662637D01*
X154327792Y-105574978D01*
X154216222Y-105463408D01*
X154128563Y-105332216D01*
X154128562Y-105332214D01*
X154068181Y-105186442D01*
X154037400Y-105031693D01*
X154037400Y-104873907D01*
X154068181Y-104719158D01*
X154128562Y-104573386D01*
X154128563Y-104573384D01*
X154216222Y-104442192D01*
X154327792Y-104330622D01*
X154458984Y-104242963D01*
X154458986Y-104242962D01*
X154604758Y-104182581D01*
X154759507Y-104151800D01*
X154917293Y-104151800D01*
X155072042Y-104182581D01*
G37*
G36*
X155072042Y-101642581D02*
G01*
X155217814Y-101702962D01*
X155217816Y-101702963D01*
X155349008Y-101790622D01*
X155460578Y-101902192D01*
X155548237Y-102033384D01*
X155548238Y-102033386D01*
X155608619Y-102179158D01*
X155639400Y-102333907D01*
X155639400Y-102491693D01*
X155608619Y-102646442D01*
X155548238Y-102792214D01*
X155548237Y-102792216D01*
X155460578Y-102923408D01*
X155349008Y-103034978D01*
X155217816Y-103122637D01*
X155217815Y-103122638D01*
X155217814Y-103122638D01*
X155072042Y-103183019D01*
X154917293Y-103213800D01*
X154759507Y-103213800D01*
X154604758Y-103183019D01*
X154458986Y-103122638D01*
X154458985Y-103122638D01*
X154458984Y-103122637D01*
X154327792Y-103034978D01*
X154216222Y-102923408D01*
X154128563Y-102792216D01*
X154128562Y-102792214D01*
X154068181Y-102646442D01*
X154037400Y-102491693D01*
X154037400Y-102333907D01*
X154068181Y-102179158D01*
X154128562Y-102033386D01*
X154128563Y-102033384D01*
X154216222Y-101902192D01*
X154327792Y-101790622D01*
X154458984Y-101702963D01*
X154458986Y-101702962D01*
X154604758Y-101642581D01*
X154759507Y-101611800D01*
X154917293Y-101611800D01*
X155072042Y-101642581D01*
G37*
G36*
X134752042Y-101642581D02*
G01*
X134897814Y-101702962D01*
X134897816Y-101702963D01*
X135029008Y-101790622D01*
X135140578Y-101902192D01*
X135228237Y-102033384D01*
X135228238Y-102033386D01*
X135288619Y-102179158D01*
X135319400Y-102333907D01*
X135319400Y-102491693D01*
X135288619Y-102646442D01*
X135228238Y-102792214D01*
X135228237Y-102792216D01*
X135140578Y-102923408D01*
X135029008Y-103034978D01*
X134897816Y-103122637D01*
X134897815Y-103122638D01*
X134897814Y-103122638D01*
X134752042Y-103183019D01*
X134597293Y-103213800D01*
X134439507Y-103213800D01*
X134284758Y-103183019D01*
X134138986Y-103122638D01*
X134138985Y-103122638D01*
X134138984Y-103122637D01*
X134007792Y-103034978D01*
X133896222Y-102923408D01*
X133808563Y-102792216D01*
X133808562Y-102792214D01*
X133748181Y-102646442D01*
X133717400Y-102491693D01*
X133717400Y-102333907D01*
X133748181Y-102179158D01*
X133808562Y-102033386D01*
X133808563Y-102033384D01*
X133896222Y-101902192D01*
X134007792Y-101790622D01*
X134138984Y-101702963D01*
X134138986Y-101702962D01*
X134284758Y-101642581D01*
X134439507Y-101611800D01*
X134597293Y-101611800D01*
X134752042Y-101642581D01*
G37*
G36*
X155072042Y-99102581D02*
G01*
X155217814Y-99162962D01*
X155217816Y-99162963D01*
X155349008Y-99250622D01*
X155460578Y-99362192D01*
X155548237Y-99493384D01*
X155548238Y-99493386D01*
X155608619Y-99639158D01*
X155639400Y-99793907D01*
X155639400Y-99951693D01*
X155608619Y-100106442D01*
X155548238Y-100252214D01*
X155548237Y-100252216D01*
X155460578Y-100383408D01*
X155349008Y-100494978D01*
X155217816Y-100582637D01*
X155217815Y-100582638D01*
X155217814Y-100582638D01*
X155072042Y-100643019D01*
X154917293Y-100673800D01*
X154759507Y-100673800D01*
X154604758Y-100643019D01*
X154458986Y-100582638D01*
X154458985Y-100582638D01*
X154458984Y-100582637D01*
X154327792Y-100494978D01*
X154216222Y-100383408D01*
X154128563Y-100252216D01*
X154128562Y-100252214D01*
X154068181Y-100106442D01*
X154037400Y-99951693D01*
X154037400Y-99793907D01*
X154068181Y-99639158D01*
X154128562Y-99493386D01*
X154128563Y-99493384D01*
X154216222Y-99362192D01*
X154327792Y-99250622D01*
X154458984Y-99162963D01*
X154458986Y-99162962D01*
X154604758Y-99102581D01*
X154759507Y-99071800D01*
X154917293Y-99071800D01*
X155072042Y-99102581D01*
G37*
G36*
X134752042Y-99102581D02*
G01*
X134897814Y-99162962D01*
X134897816Y-99162963D01*
X135029008Y-99250622D01*
X135140578Y-99362192D01*
X135228237Y-99493384D01*
X135228238Y-99493386D01*
X135288619Y-99639158D01*
X135319400Y-99793907D01*
X135319400Y-99951693D01*
X135288619Y-100106442D01*
X135228238Y-100252214D01*
X135228237Y-100252216D01*
X135140578Y-100383408D01*
X135029008Y-100494978D01*
X134897816Y-100582637D01*
X134897815Y-100582638D01*
X134897814Y-100582638D01*
X134752042Y-100643019D01*
X134597293Y-100673800D01*
X134439507Y-100673800D01*
X134284758Y-100643019D01*
X134138986Y-100582638D01*
X134138985Y-100582638D01*
X134138984Y-100582637D01*
X134007792Y-100494978D01*
X133896222Y-100383408D01*
X133808563Y-100252216D01*
X133808562Y-100252214D01*
X133748181Y-100106442D01*
X133717400Y-99951693D01*
X133717400Y-99793907D01*
X133748181Y-99639158D01*
X133808562Y-99493386D01*
X133808563Y-99493384D01*
X133896222Y-99362192D01*
X134007792Y-99250622D01*
X134138984Y-99162963D01*
X134138986Y-99162962D01*
X134284758Y-99102581D01*
X134439507Y-99071800D01*
X134597293Y-99071800D01*
X134752042Y-99102581D01*
G37*
G36*
X103105256Y-95931298D02*
G01*
X103211579Y-95952447D01*
X103512042Y-96076903D01*
X103782451Y-96257585D01*
X104012415Y-96487549D01*
X104102895Y-96622962D01*
X104193098Y-96757960D01*
X104202479Y-96780607D01*
X104311580Y-97044000D01*
X104317553Y-97058422D01*
X104381000Y-97377389D01*
X104381000Y-97702611D01*
X104338702Y-97915256D01*
X104317553Y-98021579D01*
X104193097Y-98322042D01*
X104012415Y-98592451D01*
X103782451Y-98822415D01*
X103512042Y-99003097D01*
X103211579Y-99127553D01*
X103105256Y-99148702D01*
X102892611Y-99191000D01*
X102567389Y-99191000D01*
X102354744Y-99148702D01*
X102248421Y-99127553D01*
X101947958Y-99003097D01*
X101677549Y-98822415D01*
X101447585Y-98592451D01*
X101266903Y-98322042D01*
X101142447Y-98021579D01*
X101121298Y-97915256D01*
X101079000Y-97702611D01*
X101079000Y-97377389D01*
X101142447Y-97058422D01*
X101148421Y-97044000D01*
X101257521Y-96780607D01*
X101266902Y-96757960D01*
X101357105Y-96622962D01*
X101447585Y-96487549D01*
X101677549Y-96257585D01*
X101947958Y-96076903D01*
X102248421Y-95952447D01*
X102354744Y-95931298D01*
X102567389Y-95889000D01*
X102892611Y-95889000D01*
X103105256Y-95931298D01*
G37*
G36*
X155072042Y-96562581D02*
G01*
X155217814Y-96622962D01*
X155217816Y-96622963D01*
X155349008Y-96710622D01*
X155460578Y-96822192D01*
X155526824Y-96921337D01*
X155548238Y-96953386D01*
X155608619Y-97099158D01*
X155639400Y-97253907D01*
X155639400Y-97411693D01*
X155608619Y-97566442D01*
X155552216Y-97702611D01*
X155548237Y-97712216D01*
X155460578Y-97843408D01*
X155349008Y-97954978D01*
X155217816Y-98042637D01*
X155217815Y-98042638D01*
X155217814Y-98042638D01*
X155072042Y-98103019D01*
X154917293Y-98133800D01*
X154759507Y-98133800D01*
X154604758Y-98103019D01*
X154458986Y-98042638D01*
X154458985Y-98042638D01*
X154458984Y-98042637D01*
X154327792Y-97954978D01*
X154216222Y-97843408D01*
X154128563Y-97712216D01*
X154124584Y-97702611D01*
X154068181Y-97566442D01*
X154037400Y-97411693D01*
X154037400Y-97253907D01*
X154068181Y-97099158D01*
X154128562Y-96953386D01*
X154149976Y-96921337D01*
X154216222Y-96822192D01*
X154327792Y-96710622D01*
X154458984Y-96622963D01*
X154458986Y-96622962D01*
X154604758Y-96562581D01*
X154759507Y-96531800D01*
X154917293Y-96531800D01*
X155072042Y-96562581D01*
G37*
G36*
X134752042Y-96562581D02*
G01*
X134897814Y-96622962D01*
X134897816Y-96622963D01*
X135029008Y-96710622D01*
X135140578Y-96822192D01*
X135206824Y-96921337D01*
X135228238Y-96953386D01*
X135288619Y-97099158D01*
X135319400Y-97253907D01*
X135319400Y-97411693D01*
X135288619Y-97566442D01*
X135232216Y-97702611D01*
X135228237Y-97712216D01*
X135140578Y-97843408D01*
X135029008Y-97954978D01*
X134897816Y-98042637D01*
X134897815Y-98042638D01*
X134897814Y-98042638D01*
X134752042Y-98103019D01*
X134597293Y-98133800D01*
X134439507Y-98133800D01*
X134284758Y-98103019D01*
X134138986Y-98042638D01*
X134138985Y-98042638D01*
X134138984Y-98042637D01*
X134007792Y-97954978D01*
X133896222Y-97843408D01*
X133808563Y-97712216D01*
X133804584Y-97702611D01*
X133748181Y-97566442D01*
X133717400Y-97411693D01*
X133717400Y-97253907D01*
X133748181Y-97099158D01*
X133808562Y-96953386D01*
X133829976Y-96921337D01*
X133896222Y-96822192D01*
X134007792Y-96710622D01*
X134138984Y-96622963D01*
X134138986Y-96622962D01*
X134284758Y-96562581D01*
X134439507Y-96531800D01*
X134597293Y-96531800D01*
X134752042Y-96562581D01*
G37*
G36*
X111853642Y-95499781D02*
G01*
X111999414Y-95560162D01*
X111999416Y-95560163D01*
X112130608Y-95647822D01*
X112242178Y-95759392D01*
X112329837Y-95890584D01*
X112329838Y-95890586D01*
X112390219Y-96036358D01*
X112421000Y-96191107D01*
X112421000Y-96348893D01*
X112390219Y-96503642D01*
X112365805Y-96562582D01*
X112329837Y-96649416D01*
X112242178Y-96780608D01*
X112130608Y-96892178D01*
X111999416Y-96979837D01*
X111999415Y-96979838D01*
X111999414Y-96979838D01*
X111853642Y-97040219D01*
X111698893Y-97071000D01*
X111541107Y-97071000D01*
X111386358Y-97040219D01*
X111240586Y-96979838D01*
X111240585Y-96979838D01*
X111240584Y-96979837D01*
X111109392Y-96892178D01*
X110997822Y-96780608D01*
X110910163Y-96649416D01*
X110874195Y-96562582D01*
X110849781Y-96503642D01*
X110819000Y-96348893D01*
X110819000Y-96191107D01*
X110849781Y-96036358D01*
X110910162Y-95890586D01*
X110910163Y-95890584D01*
X110997822Y-95759392D01*
X111109392Y-95647822D01*
X111240584Y-95560163D01*
X111240586Y-95560162D01*
X111386358Y-95499781D01*
X111541107Y-95469000D01*
X111698893Y-95469000D01*
X111853642Y-95499781D01*
G37*
G36*
X165409042Y-95746404D02*
G01*
X165446137Y-95757657D01*
X165480315Y-95775925D01*
X165510281Y-95800519D01*
X165534875Y-95830485D01*
X165553143Y-95864663D01*
X165564396Y-95901758D01*
X165568800Y-95946474D01*
X165568800Y-96839526D01*
X165564396Y-96884242D01*
X165553143Y-96921337D01*
X165534875Y-96955515D01*
X165510281Y-96985481D01*
X165480315Y-97010075D01*
X165446137Y-97028343D01*
X165409042Y-97039596D01*
X165364326Y-97044000D01*
X163921274Y-97044000D01*
X163876558Y-97039596D01*
X163839463Y-97028343D01*
X163805285Y-97010075D01*
X163775319Y-96985481D01*
X163750725Y-96955515D01*
X163732457Y-96921337D01*
X163721204Y-96884242D01*
X163716800Y-96839526D01*
X163716800Y-95946474D01*
X163721204Y-95901758D01*
X163732457Y-95864663D01*
X163750725Y-95830485D01*
X163775319Y-95800519D01*
X163805285Y-95775925D01*
X163839463Y-95757657D01*
X163876558Y-95746404D01*
X163921274Y-95742000D01*
X165364326Y-95742000D01*
X165409042Y-95746404D01*
G37*
G36*
X109313642Y-94229781D02*
G01*
X109440175Y-94282193D01*
X109459416Y-94290163D01*
X109590608Y-94377822D01*
X109702178Y-94489392D01*
X109789837Y-94620584D01*
X109789838Y-94620586D01*
X109850219Y-94766358D01*
X109881000Y-94921107D01*
X109881000Y-95078893D01*
X109850219Y-95233642D01*
X109789838Y-95379414D01*
X109789837Y-95379416D01*
X109702178Y-95510608D01*
X109590608Y-95622178D01*
X109459416Y-95709837D01*
X109459415Y-95709838D01*
X109459414Y-95709838D01*
X109313642Y-95770219D01*
X109158893Y-95801000D01*
X109001107Y-95801000D01*
X108846358Y-95770219D01*
X108700586Y-95709838D01*
X108700585Y-95709838D01*
X108700584Y-95709837D01*
X108569392Y-95622178D01*
X108457822Y-95510608D01*
X108370163Y-95379416D01*
X108370162Y-95379414D01*
X108309781Y-95233642D01*
X108279000Y-95078893D01*
X108279000Y-94921107D01*
X108309781Y-94766358D01*
X108370162Y-94620586D01*
X108370163Y-94620584D01*
X108457822Y-94489392D01*
X108569392Y-94377822D01*
X108700584Y-94290163D01*
X108719825Y-94282193D01*
X108846358Y-94229781D01*
X109001107Y-94199000D01*
X109158893Y-94199000D01*
X109313642Y-94229781D01*
G37*
G36*
X155072042Y-94022581D02*
G01*
X155217814Y-94082962D01*
X155217816Y-94082963D01*
X155349008Y-94170622D01*
X155460578Y-94282192D01*
X155524475Y-94377822D01*
X155548238Y-94413386D01*
X155608619Y-94559158D01*
X155639400Y-94713907D01*
X155639400Y-94871693D01*
X155608619Y-95026442D01*
X155605248Y-95034580D01*
X155548237Y-95172216D01*
X155460578Y-95303408D01*
X155349008Y-95414978D01*
X155217816Y-95502637D01*
X155217815Y-95502638D01*
X155217814Y-95502638D01*
X155072042Y-95563019D01*
X154917293Y-95593800D01*
X154759507Y-95593800D01*
X154604758Y-95563019D01*
X154458986Y-95502638D01*
X154458985Y-95502638D01*
X154458984Y-95502637D01*
X154327792Y-95414978D01*
X154216222Y-95303408D01*
X154128563Y-95172216D01*
X154071552Y-95034580D01*
X154068181Y-95026442D01*
X154037400Y-94871693D01*
X154037400Y-94713907D01*
X154068181Y-94559158D01*
X154128562Y-94413386D01*
X154152325Y-94377822D01*
X154216222Y-94282192D01*
X154327792Y-94170622D01*
X154458984Y-94082963D01*
X154458986Y-94082962D01*
X154604758Y-94022581D01*
X154759507Y-93991800D01*
X154917293Y-93991800D01*
X155072042Y-94022581D01*
G37*
G36*
X134752042Y-94022581D02*
G01*
X134897814Y-94082962D01*
X134897816Y-94082963D01*
X135029008Y-94170622D01*
X135140578Y-94282192D01*
X135204475Y-94377822D01*
X135228238Y-94413386D01*
X135288619Y-94559158D01*
X135319400Y-94713907D01*
X135319400Y-94871693D01*
X135288619Y-95026442D01*
X135285248Y-95034580D01*
X135228237Y-95172216D01*
X135140578Y-95303408D01*
X135029008Y-95414978D01*
X134897816Y-95502637D01*
X134897815Y-95502638D01*
X134897814Y-95502638D01*
X134752042Y-95563019D01*
X134597293Y-95593800D01*
X134439507Y-95593800D01*
X134284758Y-95563019D01*
X134138986Y-95502638D01*
X134138985Y-95502638D01*
X134138984Y-95502637D01*
X134007792Y-95414978D01*
X133896222Y-95303408D01*
X133808563Y-95172216D01*
X133751552Y-95034580D01*
X133748181Y-95026442D01*
X133717400Y-94871693D01*
X133717400Y-94713907D01*
X133748181Y-94559158D01*
X133808562Y-94413386D01*
X133832325Y-94377822D01*
X133896222Y-94282192D01*
X134007792Y-94170622D01*
X134138984Y-94082963D01*
X134138986Y-94082962D01*
X134284758Y-94022581D01*
X134439507Y-93991800D01*
X134597293Y-93991800D01*
X134752042Y-94022581D01*
G37*
G36*
X164981655Y-93745140D02*
G01*
X165045418Y-93751420D01*
X165136204Y-93778960D01*
X165168136Y-93788646D01*
X165281225Y-93849094D01*
X165380354Y-93930446D01*
X165461706Y-94029575D01*
X165522154Y-94142664D01*
X165522155Y-94142668D01*
X165559380Y-94265382D01*
X165571949Y-94393000D01*
X165559380Y-94520618D01*
X165547689Y-94559157D01*
X165522154Y-94643336D01*
X165461706Y-94756425D01*
X165380354Y-94855554D01*
X165281225Y-94936906D01*
X165168136Y-94997354D01*
X165136204Y-95007040D01*
X165045418Y-95034580D01*
X164981655Y-95040860D01*
X164949774Y-95044000D01*
X164335826Y-95044000D01*
X164303945Y-95040860D01*
X164240182Y-95034580D01*
X164149396Y-95007040D01*
X164117464Y-94997354D01*
X164004375Y-94936906D01*
X163905246Y-94855554D01*
X163823894Y-94756425D01*
X163763446Y-94643336D01*
X163737911Y-94559157D01*
X163726220Y-94520618D01*
X163713651Y-94393000D01*
X163726220Y-94265382D01*
X163763445Y-94142668D01*
X163763446Y-94142664D01*
X163823894Y-94029575D01*
X163905246Y-93930446D01*
X164004375Y-93849094D01*
X164117464Y-93788646D01*
X164149396Y-93778960D01*
X164240182Y-93751420D01*
X164303945Y-93745140D01*
X164335826Y-93742000D01*
X164949774Y-93742000D01*
X164981655Y-93745140D01*
G37*
G36*
X111853642Y-92959781D02*
G01*
X111999414Y-93020162D01*
X111999416Y-93020163D01*
X112130608Y-93107822D01*
X112242178Y-93219392D01*
X112249412Y-93230219D01*
X112329838Y-93350586D01*
X112390219Y-93496358D01*
X112421000Y-93651107D01*
X112421000Y-93808893D01*
X112390219Y-93963642D01*
X112340795Y-94082962D01*
X112329837Y-94109416D01*
X112242178Y-94240608D01*
X112130608Y-94352178D01*
X111999416Y-94439837D01*
X111999415Y-94439838D01*
X111999414Y-94439838D01*
X111853642Y-94500219D01*
X111698893Y-94531000D01*
X111541107Y-94531000D01*
X111386358Y-94500219D01*
X111240586Y-94439838D01*
X111240585Y-94439838D01*
X111240584Y-94439837D01*
X111109392Y-94352178D01*
X110997822Y-94240608D01*
X110910163Y-94109416D01*
X110899205Y-94082962D01*
X110849781Y-93963642D01*
X110819000Y-93808893D01*
X110819000Y-93651107D01*
X110849781Y-93496358D01*
X110910162Y-93350586D01*
X110990588Y-93230219D01*
X110997822Y-93219392D01*
X111109392Y-93107822D01*
X111240584Y-93020163D01*
X111240586Y-93020162D01*
X111386358Y-92959781D01*
X111541107Y-92929000D01*
X111698893Y-92929000D01*
X111853642Y-92959781D01*
G37*
G36*
X109313642Y-91689781D02*
G01*
X109440175Y-91742193D01*
X109459416Y-91750163D01*
X109590608Y-91837822D01*
X109702178Y-91949392D01*
X109755753Y-92029574D01*
X109789838Y-92080586D01*
X109850219Y-92226358D01*
X109881000Y-92381107D01*
X109881000Y-92538893D01*
X109850219Y-92693642D01*
X109789838Y-92839414D01*
X109789837Y-92839416D01*
X109702178Y-92970608D01*
X109590608Y-93082178D01*
X109459416Y-93169837D01*
X109459415Y-93169838D01*
X109459414Y-93169838D01*
X109313642Y-93230219D01*
X109158893Y-93261000D01*
X109001107Y-93261000D01*
X108846358Y-93230219D01*
X108700586Y-93169838D01*
X108700585Y-93169838D01*
X108700584Y-93169837D01*
X108569392Y-93082178D01*
X108457822Y-92970608D01*
X108370163Y-92839416D01*
X108370162Y-92839414D01*
X108309781Y-92693642D01*
X108279000Y-92538893D01*
X108279000Y-92381107D01*
X108309781Y-92226358D01*
X108370162Y-92080586D01*
X108404247Y-92029574D01*
X108457822Y-91949392D01*
X108569392Y-91837822D01*
X108700584Y-91750163D01*
X108719825Y-91742193D01*
X108846358Y-91689781D01*
X109001107Y-91659000D01*
X109158893Y-91659000D01*
X109313642Y-91689781D01*
G37*
G36*
X155072042Y-91482581D02*
G01*
X155217814Y-91542962D01*
X155217816Y-91542963D01*
X155349008Y-91630622D01*
X155460578Y-91742192D01*
X155548237Y-91873384D01*
X155548238Y-91873386D01*
X155608619Y-92019158D01*
X155639400Y-92173907D01*
X155639400Y-92331693D01*
X155608619Y-92486442D01*
X155586893Y-92538892D01*
X155548237Y-92632216D01*
X155460578Y-92763408D01*
X155349008Y-92874978D01*
X155217816Y-92962637D01*
X155217815Y-92962638D01*
X155217814Y-92962638D01*
X155072042Y-93023019D01*
X154917293Y-93053800D01*
X154759507Y-93053800D01*
X154604758Y-93023019D01*
X154458986Y-92962638D01*
X154458985Y-92962638D01*
X154458984Y-92962637D01*
X154327792Y-92874978D01*
X154216222Y-92763408D01*
X154128563Y-92632216D01*
X154089907Y-92538892D01*
X154068181Y-92486442D01*
X154037400Y-92331693D01*
X154037400Y-92173907D01*
X154068181Y-92019158D01*
X154128562Y-91873386D01*
X154128563Y-91873384D01*
X154216222Y-91742192D01*
X154327792Y-91630622D01*
X154458984Y-91542963D01*
X154458986Y-91542962D01*
X154604758Y-91482581D01*
X154759507Y-91451800D01*
X154917293Y-91451800D01*
X155072042Y-91482581D01*
G37*
G36*
X134752042Y-91482581D02*
G01*
X134897814Y-91542962D01*
X134897816Y-91542963D01*
X135029008Y-91630622D01*
X135140578Y-91742192D01*
X135228237Y-91873384D01*
X135228238Y-91873386D01*
X135288619Y-92019158D01*
X135319400Y-92173907D01*
X135319400Y-92331693D01*
X135288619Y-92486442D01*
X135266893Y-92538892D01*
X135228237Y-92632216D01*
X135140578Y-92763408D01*
X135029008Y-92874978D01*
X134897816Y-92962637D01*
X134897815Y-92962638D01*
X134897814Y-92962638D01*
X134752042Y-93023019D01*
X134597293Y-93053800D01*
X134439507Y-93053800D01*
X134284758Y-93023019D01*
X134138986Y-92962638D01*
X134138985Y-92962638D01*
X134138984Y-92962637D01*
X134007792Y-92874978D01*
X133896222Y-92763408D01*
X133808563Y-92632216D01*
X133769907Y-92538892D01*
X133748181Y-92486442D01*
X133717400Y-92331693D01*
X133717400Y-92173907D01*
X133748181Y-92019158D01*
X133808562Y-91873386D01*
X133808563Y-91873384D01*
X133896222Y-91742192D01*
X134007792Y-91630622D01*
X134138984Y-91542963D01*
X134138986Y-91542962D01*
X134284758Y-91482581D01*
X134439507Y-91451800D01*
X134597293Y-91451800D01*
X134752042Y-91482581D01*
G37*
G36*
X164981655Y-91745140D02*
G01*
X165045418Y-91751420D01*
X165136204Y-91778960D01*
X165168136Y-91788646D01*
X165281225Y-91849094D01*
X165380354Y-91930446D01*
X165461706Y-92029575D01*
X165522154Y-92142664D01*
X165522155Y-92142668D01*
X165559380Y-92265382D01*
X165571949Y-92393000D01*
X165559380Y-92520618D01*
X165553836Y-92538893D01*
X165522154Y-92643336D01*
X165461706Y-92756425D01*
X165380354Y-92855554D01*
X165281225Y-92936906D01*
X165168136Y-92997354D01*
X165136204Y-93007040D01*
X165045418Y-93034580D01*
X164981655Y-93040860D01*
X164949774Y-93044000D01*
X164335826Y-93044000D01*
X164303945Y-93040860D01*
X164240182Y-93034580D01*
X164149396Y-93007040D01*
X164117464Y-92997354D01*
X164004375Y-92936906D01*
X163905246Y-92855554D01*
X163823894Y-92756425D01*
X163763446Y-92643336D01*
X163731764Y-92538893D01*
X163726220Y-92520618D01*
X163713651Y-92393000D01*
X163726220Y-92265382D01*
X163763445Y-92142668D01*
X163763446Y-92142664D01*
X163823894Y-92029575D01*
X163905246Y-91930446D01*
X164004375Y-91849094D01*
X164117464Y-91788646D01*
X164149396Y-91778960D01*
X164240182Y-91751420D01*
X164303945Y-91745140D01*
X164335826Y-91742000D01*
X164949774Y-91742000D01*
X164981655Y-91745140D01*
G37*
G36*
X111853642Y-90419781D02*
G01*
X111999414Y-90480162D01*
X111999416Y-90480163D01*
X112130608Y-90567822D01*
X112242178Y-90679392D01*
X112249412Y-90690219D01*
X112329838Y-90810586D01*
X112390219Y-90956358D01*
X112421000Y-91111107D01*
X112421000Y-91268893D01*
X112390219Y-91423642D01*
X112365805Y-91482582D01*
X112329837Y-91569416D01*
X112242178Y-91700608D01*
X112130608Y-91812178D01*
X111999416Y-91899837D01*
X111999415Y-91899838D01*
X111999414Y-91899838D01*
X111853642Y-91960219D01*
X111698893Y-91991000D01*
X111541107Y-91991000D01*
X111386358Y-91960219D01*
X111240586Y-91899838D01*
X111240585Y-91899838D01*
X111240584Y-91899837D01*
X111109392Y-91812178D01*
X110997822Y-91700608D01*
X110910163Y-91569416D01*
X110874195Y-91482582D01*
X110849781Y-91423642D01*
X110819000Y-91268893D01*
X110819000Y-91111107D01*
X110849781Y-90956358D01*
X110910162Y-90810586D01*
X110990588Y-90690219D01*
X110997822Y-90679392D01*
X111109392Y-90567822D01*
X111240584Y-90480163D01*
X111240586Y-90480162D01*
X111386358Y-90419781D01*
X111541107Y-90389000D01*
X111698893Y-90389000D01*
X111853642Y-90419781D01*
G37*
G36*
X164981655Y-89745140D02*
G01*
X165045418Y-89751420D01*
X165136204Y-89778960D01*
X165168136Y-89788646D01*
X165281225Y-89849094D01*
X165380354Y-89930446D01*
X165461706Y-90029575D01*
X165522154Y-90142664D01*
X165522155Y-90142668D01*
X165559380Y-90265382D01*
X165571949Y-90393000D01*
X165559380Y-90520618D01*
X165531840Y-90611404D01*
X165522154Y-90643336D01*
X165461706Y-90756425D01*
X165380354Y-90855554D01*
X165281225Y-90936906D01*
X165168136Y-90997354D01*
X165136204Y-91007040D01*
X165045418Y-91034580D01*
X164981655Y-91040860D01*
X164949774Y-91044000D01*
X164335826Y-91044000D01*
X164303945Y-91040860D01*
X164240182Y-91034580D01*
X164149396Y-91007040D01*
X164117464Y-90997354D01*
X164004375Y-90936906D01*
X163905246Y-90855554D01*
X163823894Y-90756425D01*
X163763446Y-90643336D01*
X163753760Y-90611404D01*
X163726220Y-90520618D01*
X163713651Y-90393000D01*
X163726220Y-90265382D01*
X163763445Y-90142668D01*
X163763446Y-90142664D01*
X163823894Y-90029575D01*
X163905246Y-89930446D01*
X164004375Y-89849094D01*
X164117464Y-89788646D01*
X164149396Y-89778960D01*
X164240182Y-89751420D01*
X164303945Y-89745140D01*
X164335826Y-89742000D01*
X164949774Y-89742000D01*
X164981655Y-89745140D01*
G37*
G36*
X109313642Y-89149781D02*
G01*
X109440175Y-89202193D01*
X109459416Y-89210163D01*
X109590608Y-89297822D01*
X109702178Y-89409392D01*
X109789837Y-89540584D01*
X109789838Y-89540586D01*
X109850219Y-89686358D01*
X109881000Y-89841107D01*
X109881000Y-89998893D01*
X109850219Y-90153642D01*
X109789838Y-90299414D01*
X109789837Y-90299416D01*
X109702178Y-90430608D01*
X109590608Y-90542178D01*
X109459416Y-90629837D01*
X109459415Y-90629838D01*
X109459414Y-90629838D01*
X109313642Y-90690219D01*
X109158893Y-90721000D01*
X109001107Y-90721000D01*
X108846358Y-90690219D01*
X108700586Y-90629838D01*
X108700585Y-90629838D01*
X108700584Y-90629837D01*
X108569392Y-90542178D01*
X108457822Y-90430608D01*
X108370163Y-90299416D01*
X108370162Y-90299414D01*
X108309781Y-90153642D01*
X108279000Y-89998893D01*
X108279000Y-89841107D01*
X108309781Y-89686358D01*
X108370162Y-89540586D01*
X108370163Y-89540584D01*
X108457822Y-89409392D01*
X108569392Y-89297822D01*
X108700584Y-89210163D01*
X108719825Y-89202193D01*
X108846358Y-89149781D01*
X109001107Y-89119000D01*
X109158893Y-89119000D01*
X109313642Y-89149781D01*
G37*
G36*
X155072042Y-88942581D02*
G01*
X155217814Y-89002962D01*
X155217816Y-89002963D01*
X155349008Y-89090622D01*
X155460578Y-89202192D01*
X155524475Y-89297822D01*
X155548238Y-89333386D01*
X155608619Y-89479158D01*
X155639400Y-89633907D01*
X155639400Y-89791693D01*
X155608619Y-89946442D01*
X155586893Y-89998892D01*
X155548237Y-90092216D01*
X155460578Y-90223408D01*
X155349008Y-90334978D01*
X155217816Y-90422637D01*
X155217815Y-90422638D01*
X155217814Y-90422638D01*
X155072042Y-90483019D01*
X154917293Y-90513800D01*
X154759507Y-90513800D01*
X154604758Y-90483019D01*
X154458986Y-90422638D01*
X154458985Y-90422638D01*
X154458984Y-90422637D01*
X154327792Y-90334978D01*
X154216222Y-90223408D01*
X154128563Y-90092216D01*
X154089907Y-89998892D01*
X154068181Y-89946442D01*
X154037400Y-89791693D01*
X154037400Y-89633907D01*
X154068181Y-89479158D01*
X154128562Y-89333386D01*
X154152325Y-89297822D01*
X154216222Y-89202192D01*
X154327792Y-89090622D01*
X154458984Y-89002963D01*
X154458986Y-89002962D01*
X154604758Y-88942581D01*
X154759507Y-88911800D01*
X154917293Y-88911800D01*
X155072042Y-88942581D01*
G37*
G36*
X134752042Y-88942581D02*
G01*
X134897814Y-89002962D01*
X134897816Y-89002963D01*
X135029008Y-89090622D01*
X135140578Y-89202192D01*
X135204475Y-89297822D01*
X135228238Y-89333386D01*
X135288619Y-89479158D01*
X135319400Y-89633907D01*
X135319400Y-89791693D01*
X135288619Y-89946442D01*
X135266893Y-89998892D01*
X135228237Y-90092216D01*
X135140578Y-90223408D01*
X135029008Y-90334978D01*
X134897816Y-90422637D01*
X134897815Y-90422638D01*
X134897814Y-90422638D01*
X134752042Y-90483019D01*
X134597293Y-90513800D01*
X134439507Y-90513800D01*
X134284758Y-90483019D01*
X134138986Y-90422638D01*
X134138985Y-90422638D01*
X134138984Y-90422637D01*
X134007792Y-90334978D01*
X133896222Y-90223408D01*
X133808563Y-90092216D01*
X133769907Y-89998892D01*
X133748181Y-89946442D01*
X133717400Y-89791693D01*
X133717400Y-89633907D01*
X133748181Y-89479158D01*
X133808562Y-89333386D01*
X133832325Y-89297822D01*
X133896222Y-89202192D01*
X134007792Y-89090622D01*
X134138984Y-89002963D01*
X134138986Y-89002962D01*
X134284758Y-88942581D01*
X134439507Y-88911800D01*
X134597293Y-88911800D01*
X134752042Y-88942581D01*
G37*
G36*
X111853642Y-87879781D02*
G01*
X111999414Y-87940162D01*
X111999416Y-87940163D01*
X112130608Y-88027822D01*
X112242178Y-88139392D01*
X112269979Y-88181000D01*
X112329838Y-88270586D01*
X112390219Y-88416358D01*
X112421000Y-88571107D01*
X112421000Y-88728893D01*
X112390219Y-88883642D01*
X112365805Y-88942582D01*
X112329837Y-89029416D01*
X112242178Y-89160608D01*
X112130608Y-89272178D01*
X111999416Y-89359837D01*
X111999415Y-89359838D01*
X111999414Y-89359838D01*
X111853642Y-89420219D01*
X111698893Y-89451000D01*
X111541107Y-89451000D01*
X111386358Y-89420219D01*
X111240586Y-89359838D01*
X111240585Y-89359838D01*
X111240584Y-89359837D01*
X111109392Y-89272178D01*
X110997822Y-89160608D01*
X110910163Y-89029416D01*
X110874195Y-88942582D01*
X110849781Y-88883642D01*
X110819000Y-88728893D01*
X110819000Y-88571107D01*
X110849781Y-88416358D01*
X110910162Y-88270586D01*
X110970021Y-88181000D01*
X110997822Y-88139392D01*
X111109392Y-88027822D01*
X111240584Y-87940163D01*
X111240586Y-87940162D01*
X111386358Y-87879781D01*
X111541107Y-87849000D01*
X111698893Y-87849000D01*
X111853642Y-87879781D01*
G37*
G36*
X109881000Y-88181000D02*
G01*
X108279000Y-88181000D01*
X108279000Y-86579000D01*
X109881000Y-86579000D01*
X109881000Y-88181000D01*
G37*
G36*
X134752042Y-86402581D02*
G01*
X134897814Y-86462962D01*
X134897816Y-86462963D01*
X135029008Y-86550622D01*
X135140578Y-86662192D01*
X135228237Y-86793384D01*
X135228238Y-86793386D01*
X135288619Y-86939158D01*
X135319400Y-87093907D01*
X135319400Y-87251693D01*
X135288619Y-87406442D01*
X135228238Y-87552214D01*
X135228237Y-87552216D01*
X135140578Y-87683408D01*
X135029008Y-87794978D01*
X134897816Y-87882637D01*
X134897815Y-87882638D01*
X134897814Y-87882638D01*
X134752042Y-87943019D01*
X134597293Y-87973800D01*
X134439507Y-87973800D01*
X134284758Y-87943019D01*
X134138986Y-87882638D01*
X134138985Y-87882638D01*
X134138984Y-87882637D01*
X134007792Y-87794978D01*
X133896222Y-87683408D01*
X133808563Y-87552216D01*
X133808562Y-87552214D01*
X133748181Y-87406442D01*
X133717400Y-87251693D01*
X133717400Y-87093907D01*
X133748181Y-86939158D01*
X133808562Y-86793386D01*
X133808563Y-86793384D01*
X133896222Y-86662192D01*
X134007792Y-86550622D01*
X134138984Y-86462963D01*
X134138986Y-86462962D01*
X134284758Y-86402581D01*
X134439507Y-86371800D01*
X134597293Y-86371800D01*
X134752042Y-86402581D01*
G37*
G36*
X155072042Y-86402581D02*
G01*
X155217814Y-86462962D01*
X155217816Y-86462963D01*
X155349008Y-86550622D01*
X155460578Y-86662192D01*
X155548237Y-86793384D01*
X155548238Y-86793386D01*
X155608619Y-86939158D01*
X155639400Y-87093907D01*
X155639400Y-87251693D01*
X155608619Y-87406442D01*
X155548238Y-87552214D01*
X155548237Y-87552216D01*
X155460578Y-87683408D01*
X155349008Y-87794978D01*
X155217816Y-87882637D01*
X155217815Y-87882638D01*
X155217814Y-87882638D01*
X155072042Y-87943019D01*
X154917293Y-87973800D01*
X154759507Y-87973800D01*
X154604758Y-87943019D01*
X154458986Y-87882638D01*
X154458985Y-87882638D01*
X154458984Y-87882637D01*
X154327792Y-87794978D01*
X154216222Y-87683408D01*
X154128563Y-87552216D01*
X154128562Y-87552214D01*
X154068181Y-87406442D01*
X154037400Y-87251693D01*
X154037400Y-87093907D01*
X154068181Y-86939158D01*
X154128562Y-86793386D01*
X154128563Y-86793384D01*
X154216222Y-86662192D01*
X154327792Y-86550622D01*
X154458984Y-86462963D01*
X154458986Y-86462962D01*
X154604758Y-86402581D01*
X154759507Y-86371800D01*
X154917293Y-86371800D01*
X155072042Y-86402581D01*
G37*
G36*
X103105256Y-84501298D02*
G01*
X103211579Y-84522447D01*
X103512042Y-84646903D01*
X103782451Y-84827585D01*
X104012415Y-85057549D01*
X104069784Y-85143408D01*
X104193098Y-85327960D01*
X104317553Y-85628422D01*
X104381000Y-85947389D01*
X104381000Y-86272611D01*
X104343136Y-86462963D01*
X104317553Y-86591579D01*
X104193097Y-86892042D01*
X104012415Y-87162451D01*
X103782451Y-87392415D01*
X103512042Y-87573097D01*
X103211579Y-87697553D01*
X103105256Y-87718702D01*
X102892611Y-87761000D01*
X102567389Y-87761000D01*
X102354744Y-87718702D01*
X102248421Y-87697553D01*
X101947958Y-87573097D01*
X101677549Y-87392415D01*
X101447585Y-87162451D01*
X101266903Y-86892042D01*
X101142447Y-86591579D01*
X101116864Y-86462963D01*
X101079000Y-86272611D01*
X101079000Y-85947389D01*
X101142447Y-85628422D01*
X101266902Y-85327960D01*
X101390216Y-85143408D01*
X101447585Y-85057549D01*
X101677549Y-84827585D01*
X101947958Y-84646903D01*
X102248421Y-84522447D01*
X102354744Y-84501298D01*
X102567389Y-84459000D01*
X102892611Y-84459000D01*
X103105256Y-84501298D01*
G37*
G36*
X134752042Y-83862581D02*
G01*
X134897814Y-83922962D01*
X134897816Y-83922963D01*
X135029008Y-84010622D01*
X135140578Y-84122192D01*
X135228237Y-84253384D01*
X135228238Y-84253386D01*
X135288619Y-84399158D01*
X135319400Y-84553907D01*
X135319400Y-84711693D01*
X135288619Y-84866442D01*
X135228238Y-85012214D01*
X135228237Y-85012216D01*
X135140578Y-85143408D01*
X135029008Y-85254978D01*
X134897816Y-85342637D01*
X134897815Y-85342638D01*
X134897814Y-85342638D01*
X134752042Y-85403019D01*
X134597293Y-85433800D01*
X134439507Y-85433800D01*
X134284758Y-85403019D01*
X134138986Y-85342638D01*
X134138985Y-85342638D01*
X134138984Y-85342637D01*
X134007792Y-85254978D01*
X133896222Y-85143408D01*
X133808563Y-85012216D01*
X133808562Y-85012214D01*
X133748181Y-84866442D01*
X133717400Y-84711693D01*
X133717400Y-84553907D01*
X133748181Y-84399158D01*
X133808562Y-84253386D01*
X133808563Y-84253384D01*
X133896222Y-84122192D01*
X134007792Y-84010622D01*
X134138984Y-83922963D01*
X134138986Y-83922962D01*
X134284758Y-83862581D01*
X134439507Y-83831800D01*
X134597293Y-83831800D01*
X134752042Y-83862581D01*
G37*
G36*
X155072042Y-83862581D02*
G01*
X155217814Y-83922962D01*
X155217816Y-83922963D01*
X155349008Y-84010622D01*
X155460578Y-84122192D01*
X155548237Y-84253384D01*
X155548238Y-84253386D01*
X155608619Y-84399158D01*
X155639400Y-84553907D01*
X155639400Y-84711693D01*
X155608619Y-84866442D01*
X155548238Y-85012214D01*
X155548237Y-85012216D01*
X155460578Y-85143408D01*
X155349008Y-85254978D01*
X155217816Y-85342637D01*
X155217815Y-85342638D01*
X155217814Y-85342638D01*
X155072042Y-85403019D01*
X154917293Y-85433800D01*
X154759507Y-85433800D01*
X154604758Y-85403019D01*
X154458986Y-85342638D01*
X154458985Y-85342638D01*
X154458984Y-85342637D01*
X154327792Y-85254978D01*
X154216222Y-85143408D01*
X154128563Y-85012216D01*
X154128562Y-85012214D01*
X154068181Y-84866442D01*
X154037400Y-84711693D01*
X154037400Y-84553907D01*
X154068181Y-84399158D01*
X154128562Y-84253386D01*
X154128563Y-84253384D01*
X154216222Y-84122192D01*
X154327792Y-84010622D01*
X154458984Y-83922963D01*
X154458986Y-83922962D01*
X154604758Y-83862581D01*
X154759507Y-83831800D01*
X154917293Y-83831800D01*
X155072042Y-83862581D01*
G37*
G36*
X134752042Y-81322581D02*
G01*
X134897814Y-81382962D01*
X134897816Y-81382963D01*
X135029008Y-81470622D01*
X135140578Y-81582192D01*
X135228237Y-81713384D01*
X135228238Y-81713386D01*
X135288619Y-81859158D01*
X135319400Y-82013907D01*
X135319400Y-82171693D01*
X135288619Y-82326442D01*
X135228238Y-82472214D01*
X135228237Y-82472216D01*
X135140578Y-82603408D01*
X135029008Y-82714978D01*
X134897816Y-82802637D01*
X134897815Y-82802638D01*
X134897814Y-82802638D01*
X134752042Y-82863019D01*
X134597293Y-82893800D01*
X134439507Y-82893800D01*
X134284758Y-82863019D01*
X134138986Y-82802638D01*
X134138985Y-82802638D01*
X134138984Y-82802637D01*
X134007792Y-82714978D01*
X133896222Y-82603408D01*
X133808563Y-82472216D01*
X133808562Y-82472214D01*
X133748181Y-82326442D01*
X133717400Y-82171693D01*
X133717400Y-82013907D01*
X133748181Y-81859158D01*
X133808562Y-81713386D01*
X133808563Y-81713384D01*
X133896222Y-81582192D01*
X134007792Y-81470622D01*
X134138984Y-81382963D01*
X134138986Y-81382962D01*
X134284758Y-81322581D01*
X134439507Y-81291800D01*
X134597293Y-81291800D01*
X134752042Y-81322581D01*
G37*
G36*
X155072042Y-81322581D02*
G01*
X155217814Y-81382962D01*
X155217816Y-81382963D01*
X155349008Y-81470622D01*
X155460578Y-81582192D01*
X155548237Y-81713384D01*
X155548238Y-81713386D01*
X155608619Y-81859158D01*
X155639400Y-82013907D01*
X155639400Y-82171693D01*
X155608619Y-82326442D01*
X155548238Y-82472214D01*
X155548237Y-82472216D01*
X155460578Y-82603408D01*
X155349008Y-82714978D01*
X155217816Y-82802637D01*
X155217815Y-82802638D01*
X155217814Y-82802638D01*
X155072042Y-82863019D01*
X154917293Y-82893800D01*
X154759507Y-82893800D01*
X154604758Y-82863019D01*
X154458986Y-82802638D01*
X154458985Y-82802638D01*
X154458984Y-82802637D01*
X154327792Y-82714978D01*
X154216222Y-82603408D01*
X154128563Y-82472216D01*
X154128562Y-82472214D01*
X154068181Y-82326442D01*
X154037400Y-82171693D01*
X154037400Y-82013907D01*
X154068181Y-81859158D01*
X154128562Y-81713386D01*
X154128563Y-81713384D01*
X154216222Y-81582192D01*
X154327792Y-81470622D01*
X154458984Y-81382963D01*
X154458986Y-81382962D01*
X154604758Y-81322581D01*
X154759507Y-81291800D01*
X154917293Y-81291800D01*
X155072042Y-81322581D01*
G37*
G36*
X155072042Y-78782581D02*
G01*
X155217814Y-78842962D01*
X155217816Y-78842963D01*
X155349008Y-78930622D01*
X155460578Y-79042192D01*
X155548237Y-79173384D01*
X155548238Y-79173386D01*
X155608619Y-79319158D01*
X155639400Y-79473907D01*
X155639400Y-79631693D01*
X155608619Y-79786442D01*
X155548238Y-79932214D01*
X155548237Y-79932216D01*
X155460578Y-80063408D01*
X155349008Y-80174978D01*
X155217816Y-80262637D01*
X155217815Y-80262638D01*
X155217814Y-80262638D01*
X155072042Y-80323019D01*
X154917293Y-80353800D01*
X154759507Y-80353800D01*
X154604758Y-80323019D01*
X154458986Y-80262638D01*
X154458985Y-80262638D01*
X154458984Y-80262637D01*
X154327792Y-80174978D01*
X154216222Y-80063408D01*
X154128563Y-79932216D01*
X154128562Y-79932214D01*
X154068181Y-79786442D01*
X154037400Y-79631693D01*
X154037400Y-79473907D01*
X154068181Y-79319158D01*
X154128562Y-79173386D01*
X154128563Y-79173384D01*
X154216222Y-79042192D01*
X154327792Y-78930622D01*
X154458984Y-78842963D01*
X154458986Y-78842962D01*
X154604758Y-78782581D01*
X154759507Y-78751800D01*
X154917293Y-78751800D01*
X155072042Y-78782581D01*
G37*
G36*
X134752042Y-78782581D02*
G01*
X134897814Y-78842962D01*
X134897816Y-78842963D01*
X135029008Y-78930622D01*
X135140578Y-79042192D01*
X135228237Y-79173384D01*
X135228238Y-79173386D01*
X135288619Y-79319158D01*
X135319400Y-79473907D01*
X135319400Y-79631693D01*
X135288619Y-79786442D01*
X135228238Y-79932214D01*
X135228237Y-79932216D01*
X135140578Y-80063408D01*
X135029008Y-80174978D01*
X134897816Y-80262637D01*
X134897815Y-80262638D01*
X134897814Y-80262638D01*
X134752042Y-80323019D01*
X134597293Y-80353800D01*
X134439507Y-80353800D01*
X134284758Y-80323019D01*
X134138986Y-80262638D01*
X134138985Y-80262638D01*
X134138984Y-80262637D01*
X134007792Y-80174978D01*
X133896222Y-80063408D01*
X133808563Y-79932216D01*
X133808562Y-79932214D01*
X133748181Y-79786442D01*
X133717400Y-79631693D01*
X133717400Y-79473907D01*
X133748181Y-79319158D01*
X133808562Y-79173386D01*
X133808563Y-79173384D01*
X133896222Y-79042192D01*
X134007792Y-78930622D01*
X134138984Y-78842963D01*
X134138986Y-78842962D01*
X134284758Y-78782581D01*
X134439507Y-78751800D01*
X134597293Y-78751800D01*
X134752042Y-78782581D01*
G37*
G36*
X155072042Y-76242581D02*
G01*
X155217814Y-76302962D01*
X155217816Y-76302963D01*
X155349008Y-76390622D01*
X155460578Y-76502192D01*
X155548237Y-76633384D01*
X155548238Y-76633386D01*
X155608619Y-76779158D01*
X155639400Y-76933907D01*
X155639400Y-77091693D01*
X155608619Y-77246442D01*
X155548238Y-77392214D01*
X155548237Y-77392216D01*
X155460578Y-77523408D01*
X155349008Y-77634978D01*
X155217816Y-77722637D01*
X155217815Y-77722638D01*
X155217814Y-77722638D01*
X155072042Y-77783019D01*
X154917293Y-77813800D01*
X154759507Y-77813800D01*
X154604758Y-77783019D01*
X154458986Y-77722638D01*
X154458985Y-77722638D01*
X154458984Y-77722637D01*
X154327792Y-77634978D01*
X154216222Y-77523408D01*
X154128563Y-77392216D01*
X154128562Y-77392214D01*
X154068181Y-77246442D01*
X154037400Y-77091693D01*
X154037400Y-76933907D01*
X154068181Y-76779158D01*
X154128562Y-76633386D01*
X154128563Y-76633384D01*
X154216222Y-76502192D01*
X154327792Y-76390622D01*
X154458984Y-76302963D01*
X154458986Y-76302962D01*
X154604758Y-76242581D01*
X154759507Y-76211800D01*
X154917293Y-76211800D01*
X155072042Y-76242581D01*
G37*
G36*
X134752042Y-76242581D02*
G01*
X134897814Y-76302962D01*
X134897816Y-76302963D01*
X135029008Y-76390622D01*
X135140578Y-76502192D01*
X135228237Y-76633384D01*
X135228238Y-76633386D01*
X135288619Y-76779158D01*
X135319400Y-76933907D01*
X135319400Y-77091693D01*
X135288619Y-77246442D01*
X135228238Y-77392214D01*
X135228237Y-77392216D01*
X135140578Y-77523408D01*
X135029008Y-77634978D01*
X134897816Y-77722637D01*
X134897815Y-77722638D01*
X134897814Y-77722638D01*
X134752042Y-77783019D01*
X134597293Y-77813800D01*
X134439507Y-77813800D01*
X134284758Y-77783019D01*
X134138986Y-77722638D01*
X134138985Y-77722638D01*
X134138984Y-77722637D01*
X134007792Y-77634978D01*
X133896222Y-77523408D01*
X133808563Y-77392216D01*
X133808562Y-77392214D01*
X133748181Y-77246442D01*
X133717400Y-77091693D01*
X133717400Y-76933907D01*
X133748181Y-76779158D01*
X133808562Y-76633386D01*
X133808563Y-76633384D01*
X133896222Y-76502192D01*
X134007792Y-76390622D01*
X134138984Y-76302963D01*
X134138986Y-76302962D01*
X134284758Y-76242581D01*
X134439507Y-76211800D01*
X134597293Y-76211800D01*
X134752042Y-76242581D01*
G37*
G36*
X155072042Y-73702581D02*
G01*
X155217814Y-73762962D01*
X155217816Y-73762963D01*
X155349008Y-73850622D01*
X155460578Y-73962192D01*
X155548237Y-74093384D01*
X155548238Y-74093386D01*
X155608619Y-74239158D01*
X155639400Y-74393907D01*
X155639400Y-74551693D01*
X155608619Y-74706442D01*
X155548238Y-74852214D01*
X155548237Y-74852216D01*
X155460578Y-74983408D01*
X155349008Y-75094978D01*
X155217816Y-75182637D01*
X155217815Y-75182638D01*
X155217814Y-75182638D01*
X155072042Y-75243019D01*
X154917293Y-75273800D01*
X154759507Y-75273800D01*
X154604758Y-75243019D01*
X154458986Y-75182638D01*
X154458985Y-75182638D01*
X154458984Y-75182637D01*
X154327792Y-75094978D01*
X154216222Y-74983408D01*
X154128563Y-74852216D01*
X154128562Y-74852214D01*
X154068181Y-74706442D01*
X154037400Y-74551693D01*
X154037400Y-74393907D01*
X154068181Y-74239158D01*
X154128562Y-74093386D01*
X154128563Y-74093384D01*
X154216222Y-73962192D01*
X154327792Y-73850622D01*
X154458984Y-73762963D01*
X154458986Y-73762962D01*
X154604758Y-73702581D01*
X154759507Y-73671800D01*
X154917293Y-73671800D01*
X155072042Y-73702581D01*
G37*
G36*
X134752042Y-73702581D02*
G01*
X134897814Y-73762962D01*
X134897816Y-73762963D01*
X135029008Y-73850622D01*
X135140578Y-73962192D01*
X135228237Y-74093384D01*
X135228238Y-74093386D01*
X135288619Y-74239158D01*
X135319400Y-74393907D01*
X135319400Y-74551693D01*
X135288619Y-74706442D01*
X135228238Y-74852214D01*
X135228237Y-74852216D01*
X135140578Y-74983408D01*
X135029008Y-75094978D01*
X134897816Y-75182637D01*
X134897815Y-75182638D01*
X134897814Y-75182638D01*
X134752042Y-75243019D01*
X134597293Y-75273800D01*
X134439507Y-75273800D01*
X134284758Y-75243019D01*
X134138986Y-75182638D01*
X134138985Y-75182638D01*
X134138984Y-75182637D01*
X134007792Y-75094978D01*
X133896222Y-74983408D01*
X133808563Y-74852216D01*
X133808562Y-74852214D01*
X133748181Y-74706442D01*
X133717400Y-74551693D01*
X133717400Y-74393907D01*
X133748181Y-74239158D01*
X133808562Y-74093386D01*
X133808563Y-74093384D01*
X133896222Y-73962192D01*
X134007792Y-73850622D01*
X134138984Y-73762963D01*
X134138986Y-73762962D01*
X134284758Y-73702581D01*
X134439507Y-73671800D01*
X134597293Y-73671800D01*
X134752042Y-73702581D01*
G37*
G36*
X163375256Y-70771298D02*
G01*
X163481579Y-70792447D01*
X163782042Y-70916903D01*
X164052451Y-71097585D01*
X164282415Y-71327549D01*
X164463097Y-71597958D01*
X164587553Y-71898421D01*
X164651000Y-72217391D01*
X164651000Y-72542609D01*
X164587553Y-72861579D01*
X164463097Y-73162042D01*
X164282415Y-73432451D01*
X164052451Y-73662415D01*
X163782042Y-73843097D01*
X163481579Y-73967553D01*
X163375256Y-73988702D01*
X163162611Y-74031000D01*
X162837389Y-74031000D01*
X162624744Y-73988702D01*
X162518421Y-73967553D01*
X162217958Y-73843097D01*
X161947549Y-73662415D01*
X161717585Y-73432451D01*
X161536903Y-73162042D01*
X161412447Y-72861579D01*
X161349000Y-72542609D01*
X161349000Y-72217391D01*
X161412447Y-71898421D01*
X161536903Y-71597958D01*
X161717585Y-71327549D01*
X161947549Y-71097585D01*
X162217958Y-70916903D01*
X162518421Y-70792447D01*
X162624744Y-70771298D01*
X162837389Y-70729000D01*
X163162611Y-70729000D01*
X163375256Y-70771298D01*
G37*
G36*
X103375256Y-70771298D02*
G01*
X103481579Y-70792447D01*
X103782042Y-70916903D01*
X104052451Y-71097585D01*
X104282415Y-71327549D01*
X104463097Y-71597958D01*
X104587553Y-71898421D01*
X104651000Y-72217391D01*
X104651000Y-72542609D01*
X104587553Y-72861579D01*
X104463097Y-73162042D01*
X104282415Y-73432451D01*
X104052451Y-73662415D01*
X103782042Y-73843097D01*
X103481579Y-73967553D01*
X103375256Y-73988702D01*
X103162611Y-74031000D01*
X102837389Y-74031000D01*
X102624744Y-73988702D01*
X102518421Y-73967553D01*
X102217958Y-73843097D01*
X101947549Y-73662415D01*
X101717585Y-73432451D01*
X101536903Y-73162042D01*
X101412447Y-72861579D01*
X101349000Y-72542609D01*
X101349000Y-72217391D01*
X101412447Y-71898421D01*
X101536903Y-71597958D01*
X101717585Y-71327549D01*
X101947549Y-71097585D01*
X102217958Y-70916903D01*
X102518421Y-70792447D01*
X102624744Y-70771298D01*
X102837389Y-70729000D01*
X103162611Y-70729000D01*
X103375256Y-70771298D01*
G37*
G36*
X153826114Y-69367182D02*
G01*
X153953722Y-69392565D01*
X154094548Y-69450897D01*
X154194127Y-69492144D01*
X154194128Y-69492145D01*
X154410489Y-69636712D01*
X154594488Y-69820711D01*
X154691085Y-69965279D01*
X154739056Y-70037073D01*
X154780303Y-70136652D01*
X154838635Y-70277478D01*
X154889400Y-70532693D01*
X154889400Y-70792907D01*
X154838635Y-71048122D01*
X154780303Y-71188948D01*
X154739056Y-71288527D01*
X154739055Y-71288528D01*
X154594488Y-71504889D01*
X154410489Y-71688888D01*
X154265921Y-71785485D01*
X154194127Y-71833456D01*
X154094548Y-71874703D01*
X153953722Y-71933035D01*
X153826115Y-71958417D01*
X153698509Y-71983800D01*
X153438291Y-71983800D01*
X153310685Y-71958417D01*
X153183078Y-71933035D01*
X153042252Y-71874703D01*
X152942673Y-71833456D01*
X152870879Y-71785485D01*
X152726311Y-71688888D01*
X152542312Y-71504889D01*
X152397745Y-71288528D01*
X152397744Y-71288527D01*
X152356497Y-71188948D01*
X152298165Y-71048122D01*
X152247400Y-70792907D01*
X152247400Y-70532693D01*
X152298165Y-70277478D01*
X152356497Y-70136652D01*
X152397744Y-70037073D01*
X152445715Y-69965279D01*
X152542312Y-69820711D01*
X152726311Y-69636712D01*
X152942672Y-69492145D01*
X152942673Y-69492144D01*
X153042252Y-69450897D01*
X153183078Y-69392565D01*
X153310686Y-69367182D01*
X153438291Y-69341800D01*
X153698509Y-69341800D01*
X153826114Y-69367182D01*
G37*
G36*
X136046114Y-69367182D02*
G01*
X136173722Y-69392565D01*
X136314548Y-69450897D01*
X136414127Y-69492144D01*
X136414128Y-69492145D01*
X136630489Y-69636712D01*
X136814488Y-69820711D01*
X136911085Y-69965279D01*
X136959056Y-70037073D01*
X137000303Y-70136652D01*
X137058635Y-70277478D01*
X137109400Y-70532693D01*
X137109400Y-70792907D01*
X137058635Y-71048122D01*
X137000303Y-71188948D01*
X136959056Y-71288527D01*
X136959055Y-71288528D01*
X136814488Y-71504889D01*
X136630489Y-71688888D01*
X136485921Y-71785485D01*
X136414127Y-71833456D01*
X136314548Y-71874703D01*
X136173722Y-71933035D01*
X136046115Y-71958417D01*
X135918509Y-71983800D01*
X135658291Y-71983800D01*
X135530685Y-71958417D01*
X135403078Y-71933035D01*
X135262252Y-71874703D01*
X135162673Y-71833456D01*
X135090879Y-71785485D01*
X134946311Y-71688888D01*
X134762312Y-71504889D01*
X134617745Y-71288528D01*
X134617744Y-71288527D01*
X134576497Y-71188948D01*
X134518165Y-71048122D01*
X134467400Y-70792907D01*
X134467400Y-70532693D01*
X134518165Y-70277478D01*
X134576497Y-70136652D01*
X134617744Y-70037073D01*
X134665715Y-69965279D01*
X134762312Y-69820711D01*
X134946311Y-69636712D01*
X135162672Y-69492145D01*
X135162673Y-69492144D01*
X135262252Y-69450897D01*
X135403078Y-69392565D01*
X135530686Y-69367182D01*
X135658291Y-69341800D01*
X135918509Y-69341800D01*
X136046114Y-69367182D01*
G37*
M02*
