M48
; DRILL file {KiCad (5.1.5)-3} date 5/14/2020 9:27:20 PM
; FORMAT={-:-/ absolute / inch / decimal}
; #@! TF.CreationDate,2020-05-14T21:27:20-06:00
; #@! TF.GenerationSoftware,Kicad,Pcbnew,(5.1.5)-3
FMAT,2
INCH
T1C0.0157
T2C0.0295
T3C0.0299
T4C0.0472
T5C0.0591
T6C0.1260
%
G90
G05
T1
X4.041Y-3.935
X4.041Y-4.251
X4.047Y-4.757
X4.049Y-2.961
X4.05Y-2.543
X4.091Y-3.458
X4.362Y-2.545
X4.381Y-3.073
X4.459Y-4.752
X4.529Y-4.283
X4.638Y-3.844
X4.663Y-4.175
X4.766Y-4.445
X4.84Y-3.164
X4.877Y-2.549
X4.919Y-3.577
X5.078Y-4.753
X5.399Y-4.449
X5.429Y-3.197
X5.43Y-3.755
X5.432Y-2.559
X5.464Y-4.024
X5.711Y-4.756
X5.987Y-3.857
X6.024Y-4.443
X6.136Y-4.065
X6.333Y-4.754
X6.388Y-4.089
X6.644Y-4.065
X6.701Y-4.459
X6.889Y-4.088
X6.902Y-4.752
X6.916Y-3.87
X6.966Y-4.337
X7.276Y-3.871
X7.279Y-4.305
X7.286Y-4.741
T2
X4.1324Y-4.2094
X4.1324Y-4.2882
X4.1324Y-3.8945
X4.1324Y-3.9732
X4.1324Y-3.5795
X4.1324Y-3.6583
T3
X6.8102Y-4.135
X6.8102Y-4.235
X6.8102Y-4.335
X6.8102Y-4.435
X6.9102Y-4.185
X6.9102Y-4.285
X6.9102Y-4.385
X6.9102Y-4.485
T4
X6.7165Y-3.1268
X6.7165Y-3.2646
T5
X4.5472Y-2.7016
X4.5472Y-3.0165
X6.3189Y-2.7016
X6.3189Y-3.5205
T6
X6.7559Y-2.6346
X4.1969Y-4.6031
X7.1602Y-4.085
X7.1602Y-4.535
X4.1969Y-2.6346
X6.7559Y-3.829
T0
M30
