G04 #@! TF.GenerationSoftware,KiCad,Pcbnew,(5.1.5)-3*
G04 #@! TF.CreationDate,2020-05-07T22:08:26-06:00*
G04 #@! TF.ProjectId,GarageDoorPowerBoard,47617261-6765-4446-9f6f-72506f776572,rev?*
G04 #@! TF.SameCoordinates,Original*
G04 #@! TF.FileFunction,Copper,L2,Bot*
G04 #@! TF.FilePolarity,Positive*
%FSLAX46Y46*%
G04 Gerber Fmt 4.6, Leading zero omitted, Abs format (unit mm)*
G04 Created by KiCad (PCBNEW (5.1.5)-3) date 2020-05-07 22:08:26*
%MOMM*%
%LPD*%
G04 APERTURE LIST*
%ADD10R,3.000000X3.000000*%
%ADD11C,3.000000*%
%ADD12C,1.500000*%
%ADD13R,1.500000X1.500000*%
%ADD14O,1.750000X1.200000*%
%ADD15C,0.100000*%
%ADD16O,3.600000X1.800000*%
%ADD17C,0.800000*%
%ADD18C,0.254000*%
G04 APERTURE END LIST*
D10*
X160500000Y-89420000D03*
D11*
X115500000Y-76620000D03*
X160500000Y-68620000D03*
X115500000Y-68620000D03*
D12*
X172980000Y-105030000D03*
X175520000Y-106300000D03*
X172980000Y-107570000D03*
X175520000Y-108840000D03*
X172980000Y-110110000D03*
X175520000Y-111380000D03*
X172980000Y-112650000D03*
D13*
X175520000Y-113920000D03*
D14*
X104962800Y-92920000D03*
G04 #@! TA.AperFunction,ComponentPad*
D15*
G36*
X105612305Y-90321204D02*
G01*
X105636573Y-90324804D01*
X105660372Y-90330765D01*
X105683471Y-90339030D01*
X105705650Y-90349520D01*
X105726693Y-90362132D01*
X105746399Y-90376747D01*
X105764577Y-90393223D01*
X105781053Y-90411401D01*
X105795668Y-90431107D01*
X105808280Y-90452150D01*
X105818770Y-90474329D01*
X105827035Y-90497428D01*
X105832996Y-90521227D01*
X105836596Y-90545495D01*
X105837800Y-90569999D01*
X105837800Y-91270001D01*
X105836596Y-91294505D01*
X105832996Y-91318773D01*
X105827035Y-91342572D01*
X105818770Y-91365671D01*
X105808280Y-91387850D01*
X105795668Y-91408893D01*
X105781053Y-91428599D01*
X105764577Y-91446777D01*
X105746399Y-91463253D01*
X105726693Y-91477868D01*
X105705650Y-91490480D01*
X105683471Y-91500970D01*
X105660372Y-91509235D01*
X105636573Y-91515196D01*
X105612305Y-91518796D01*
X105587801Y-91520000D01*
X104337799Y-91520000D01*
X104313295Y-91518796D01*
X104289027Y-91515196D01*
X104265228Y-91509235D01*
X104242129Y-91500970D01*
X104219950Y-91490480D01*
X104198907Y-91477868D01*
X104179201Y-91463253D01*
X104161023Y-91446777D01*
X104144547Y-91428599D01*
X104129932Y-91408893D01*
X104117320Y-91387850D01*
X104106830Y-91365671D01*
X104098565Y-91342572D01*
X104092604Y-91318773D01*
X104089004Y-91294505D01*
X104087800Y-91270001D01*
X104087800Y-90569999D01*
X104089004Y-90545495D01*
X104092604Y-90521227D01*
X104098565Y-90497428D01*
X104106830Y-90474329D01*
X104117320Y-90452150D01*
X104129932Y-90431107D01*
X104144547Y-90411401D01*
X104161023Y-90393223D01*
X104179201Y-90376747D01*
X104198907Y-90362132D01*
X104219950Y-90349520D01*
X104242129Y-90339030D01*
X104265228Y-90330765D01*
X104289027Y-90324804D01*
X104313295Y-90321204D01*
X104337799Y-90320000D01*
X105587801Y-90320000D01*
X105612305Y-90321204D01*
G37*
G04 #@! TD.AperFunction*
D14*
X104962800Y-100920000D03*
G04 #@! TA.AperFunction,ComponentPad*
D15*
G36*
X105612305Y-98321204D02*
G01*
X105636573Y-98324804D01*
X105660372Y-98330765D01*
X105683471Y-98339030D01*
X105705650Y-98349520D01*
X105726693Y-98362132D01*
X105746399Y-98376747D01*
X105764577Y-98393223D01*
X105781053Y-98411401D01*
X105795668Y-98431107D01*
X105808280Y-98452150D01*
X105818770Y-98474329D01*
X105827035Y-98497428D01*
X105832996Y-98521227D01*
X105836596Y-98545495D01*
X105837800Y-98569999D01*
X105837800Y-99270001D01*
X105836596Y-99294505D01*
X105832996Y-99318773D01*
X105827035Y-99342572D01*
X105818770Y-99365671D01*
X105808280Y-99387850D01*
X105795668Y-99408893D01*
X105781053Y-99428599D01*
X105764577Y-99446777D01*
X105746399Y-99463253D01*
X105726693Y-99477868D01*
X105705650Y-99490480D01*
X105683471Y-99500970D01*
X105660372Y-99509235D01*
X105636573Y-99515196D01*
X105612305Y-99518796D01*
X105587801Y-99520000D01*
X104337799Y-99520000D01*
X104313295Y-99518796D01*
X104289027Y-99515196D01*
X104265228Y-99509235D01*
X104242129Y-99500970D01*
X104219950Y-99490480D01*
X104198907Y-99477868D01*
X104179201Y-99463253D01*
X104161023Y-99446777D01*
X104144547Y-99428599D01*
X104129932Y-99408893D01*
X104117320Y-99387850D01*
X104106830Y-99365671D01*
X104098565Y-99342572D01*
X104092604Y-99318773D01*
X104089004Y-99294505D01*
X104087800Y-99270001D01*
X104087800Y-98569999D01*
X104089004Y-98545495D01*
X104092604Y-98521227D01*
X104098565Y-98497428D01*
X104106830Y-98474329D01*
X104117320Y-98452150D01*
X104129932Y-98431107D01*
X104144547Y-98411401D01*
X104161023Y-98393223D01*
X104179201Y-98376747D01*
X104198907Y-98362132D01*
X104219950Y-98349520D01*
X104242129Y-98339030D01*
X104265228Y-98330765D01*
X104289027Y-98324804D01*
X104313295Y-98321204D01*
X104337799Y-98320000D01*
X105587801Y-98320000D01*
X105612305Y-98321204D01*
G37*
G04 #@! TD.AperFunction*
D14*
X104962800Y-108920000D03*
G04 #@! TA.AperFunction,ComponentPad*
D15*
G36*
X105612305Y-106321204D02*
G01*
X105636573Y-106324804D01*
X105660372Y-106330765D01*
X105683471Y-106339030D01*
X105705650Y-106349520D01*
X105726693Y-106362132D01*
X105746399Y-106376747D01*
X105764577Y-106393223D01*
X105781053Y-106411401D01*
X105795668Y-106431107D01*
X105808280Y-106452150D01*
X105818770Y-106474329D01*
X105827035Y-106497428D01*
X105832996Y-106521227D01*
X105836596Y-106545495D01*
X105837800Y-106569999D01*
X105837800Y-107270001D01*
X105836596Y-107294505D01*
X105832996Y-107318773D01*
X105827035Y-107342572D01*
X105818770Y-107365671D01*
X105808280Y-107387850D01*
X105795668Y-107408893D01*
X105781053Y-107428599D01*
X105764577Y-107446777D01*
X105746399Y-107463253D01*
X105726693Y-107477868D01*
X105705650Y-107490480D01*
X105683471Y-107500970D01*
X105660372Y-107509235D01*
X105636573Y-107515196D01*
X105612305Y-107518796D01*
X105587801Y-107520000D01*
X104337799Y-107520000D01*
X104313295Y-107518796D01*
X104289027Y-107515196D01*
X104265228Y-107509235D01*
X104242129Y-107500970D01*
X104219950Y-107490480D01*
X104198907Y-107477868D01*
X104179201Y-107463253D01*
X104161023Y-107446777D01*
X104144547Y-107428599D01*
X104129932Y-107408893D01*
X104117320Y-107387850D01*
X104106830Y-107365671D01*
X104098565Y-107342572D01*
X104092604Y-107318773D01*
X104089004Y-107294505D01*
X104087800Y-107270001D01*
X104087800Y-106569999D01*
X104089004Y-106545495D01*
X104092604Y-106521227D01*
X104098565Y-106497428D01*
X104106830Y-106474329D01*
X104117320Y-106452150D01*
X104129932Y-106431107D01*
X104144547Y-106411401D01*
X104161023Y-106393223D01*
X104179201Y-106376747D01*
X104198907Y-106362132D01*
X104219950Y-106349520D01*
X104242129Y-106339030D01*
X104265228Y-106330765D01*
X104289027Y-106324804D01*
X104313295Y-106321204D01*
X104337799Y-106320000D01*
X105587801Y-106320000D01*
X105612305Y-106321204D01*
G37*
G04 #@! TD.AperFunction*
D16*
X170600000Y-82920000D03*
G04 #@! TA.AperFunction,ComponentPad*
D15*
G36*
X172174504Y-78521204D02*
G01*
X172198773Y-78524804D01*
X172222571Y-78530765D01*
X172245671Y-78539030D01*
X172267849Y-78549520D01*
X172288893Y-78562133D01*
X172308598Y-78576747D01*
X172326777Y-78593223D01*
X172343253Y-78611402D01*
X172357867Y-78631107D01*
X172370480Y-78652151D01*
X172380970Y-78674329D01*
X172389235Y-78697429D01*
X172395196Y-78721227D01*
X172398796Y-78745496D01*
X172400000Y-78770000D01*
X172400000Y-80070000D01*
X172398796Y-80094504D01*
X172395196Y-80118773D01*
X172389235Y-80142571D01*
X172380970Y-80165671D01*
X172370480Y-80187849D01*
X172357867Y-80208893D01*
X172343253Y-80228598D01*
X172326777Y-80246777D01*
X172308598Y-80263253D01*
X172288893Y-80277867D01*
X172267849Y-80290480D01*
X172245671Y-80300970D01*
X172222571Y-80309235D01*
X172198773Y-80315196D01*
X172174504Y-80318796D01*
X172150000Y-80320000D01*
X169050000Y-80320000D01*
X169025496Y-80318796D01*
X169001227Y-80315196D01*
X168977429Y-80309235D01*
X168954329Y-80300970D01*
X168932151Y-80290480D01*
X168911107Y-80277867D01*
X168891402Y-80263253D01*
X168873223Y-80246777D01*
X168856747Y-80228598D01*
X168842133Y-80208893D01*
X168829520Y-80187849D01*
X168819030Y-80165671D01*
X168810765Y-80142571D01*
X168804804Y-80118773D01*
X168801204Y-80094504D01*
X168800000Y-80070000D01*
X168800000Y-78770000D01*
X168801204Y-78745496D01*
X168804804Y-78721227D01*
X168810765Y-78697429D01*
X168819030Y-78674329D01*
X168829520Y-78652151D01*
X168842133Y-78631107D01*
X168856747Y-78611402D01*
X168873223Y-78593223D01*
X168891402Y-78576747D01*
X168911107Y-78562133D01*
X168932151Y-78549520D01*
X168954329Y-78539030D01*
X168977429Y-78530765D01*
X169001227Y-78524804D01*
X169025496Y-78521204D01*
X169050000Y-78520000D01*
X172150000Y-78520000D01*
X172174504Y-78521204D01*
G37*
G04 #@! TD.AperFunction*
D17*
X184810400Y-98323400D03*
X175666400Y-98298000D03*
X184886600Y-109347000D03*
X185064400Y-120421400D03*
X175310800Y-120700800D03*
X170205400Y-113258600D03*
X176936400Y-110159800D03*
X168757600Y-103251000D03*
X155854400Y-103251000D03*
X162255200Y-103860600D03*
X138785600Y-102209600D03*
X124942600Y-90855800D03*
X111277400Y-78054200D03*
X103911400Y-87833200D03*
X117805200Y-97637600D03*
X160858200Y-120751600D03*
X145059400Y-120802400D03*
X128981200Y-120726200D03*
X113258600Y-120700800D03*
X102793800Y-120827800D03*
X102641400Y-107975400D03*
X102641400Y-99949000D03*
X115036600Y-108788200D03*
X118440200Y-106045000D03*
X121056400Y-112903000D03*
X137134600Y-113004600D03*
X153009600Y-112852200D03*
X152069800Y-97967800D03*
X137922000Y-95377000D03*
X137896600Y-81203800D03*
X137972800Y-64998600D03*
X123875800Y-64744600D03*
X122936000Y-80365600D03*
X110794800Y-64643000D03*
X102870000Y-64592200D03*
X102844600Y-75209400D03*
X174980600Y-103835200D03*
D18*
G36*
X139573000Y-93980000D02*
G01*
X139575440Y-94004776D01*
X139582667Y-94028601D01*
X139594403Y-94050557D01*
X139601893Y-94060647D01*
X142065693Y-97057847D01*
X142083312Y-97075437D01*
X142104023Y-97089252D01*
X142127032Y-97098761D01*
X142151454Y-97103598D01*
X142163948Y-97104200D01*
X164033348Y-97078800D01*
X169619000Y-97078800D01*
X169619000Y-97451711D01*
X169695129Y-97834436D01*
X169844461Y-98194955D01*
X170061257Y-98519414D01*
X170337186Y-98795343D01*
X170661645Y-99012139D01*
X171022164Y-99161471D01*
X171404889Y-99237600D01*
X171795111Y-99237600D01*
X172177836Y-99161471D01*
X172538355Y-99012139D01*
X172862814Y-98795343D01*
X173138743Y-98519414D01*
X173355539Y-98194955D01*
X173504871Y-97834436D01*
X173581000Y-97451711D01*
X173581000Y-97078800D01*
X176224522Y-97078800D01*
X176260790Y-97146653D01*
X176311526Y-97208474D01*
X176373347Y-97259210D01*
X176443879Y-97296910D01*
X176520410Y-97320125D01*
X176580059Y-97326000D01*
X176580060Y-97326000D01*
X176600000Y-97327964D01*
X176619941Y-97326000D01*
X186194000Y-97326000D01*
X186194001Y-121514000D01*
X102006000Y-121514000D01*
X102006000Y-116724889D01*
X104619000Y-116724889D01*
X104619000Y-117115111D01*
X104695129Y-117497836D01*
X104844461Y-117858355D01*
X105061257Y-118182814D01*
X105337186Y-118458743D01*
X105661645Y-118675539D01*
X106022164Y-118824871D01*
X106404889Y-118901000D01*
X106795111Y-118901000D01*
X107177836Y-118824871D01*
X107538355Y-118675539D01*
X107862814Y-118458743D01*
X108138743Y-118182814D01*
X108355539Y-117858355D01*
X108504871Y-117497836D01*
X108581000Y-117115111D01*
X108581000Y-116724889D01*
X108504871Y-116342164D01*
X108355539Y-115981645D01*
X108138743Y-115657186D01*
X107862814Y-115381257D01*
X107538355Y-115164461D01*
X107177836Y-115015129D01*
X106795111Y-114939000D01*
X106404889Y-114939000D01*
X106022164Y-115015129D01*
X105661645Y-115164461D01*
X105337186Y-115381257D01*
X105061257Y-115657186D01*
X104844461Y-115981645D01*
X104695129Y-116342164D01*
X104619000Y-116724889D01*
X102006000Y-116724889D01*
X102006000Y-113170000D01*
X174387157Y-113170000D01*
X174387157Y-114670000D01*
X174394513Y-114744689D01*
X174416299Y-114816508D01*
X174451678Y-114882696D01*
X174499289Y-114940711D01*
X174557304Y-114988322D01*
X174623492Y-115023701D01*
X174695311Y-115045487D01*
X174770000Y-115052843D01*
X176270000Y-115052843D01*
X176344689Y-115045487D01*
X176416508Y-115023701D01*
X176470410Y-114994889D01*
X179889000Y-114994889D01*
X179889000Y-115385111D01*
X179965129Y-115767836D01*
X180114461Y-116128355D01*
X180331257Y-116452814D01*
X180607186Y-116728743D01*
X180931645Y-116945539D01*
X181292164Y-117094871D01*
X181674889Y-117171000D01*
X182065111Y-117171000D01*
X182447836Y-117094871D01*
X182808355Y-116945539D01*
X183132814Y-116728743D01*
X183408743Y-116452814D01*
X183625539Y-116128355D01*
X183774871Y-115767836D01*
X183851000Y-115385111D01*
X183851000Y-114994889D01*
X183774871Y-114612164D01*
X183625539Y-114251645D01*
X183408743Y-113927186D01*
X183132814Y-113651257D01*
X182808355Y-113434461D01*
X182447836Y-113285129D01*
X182065111Y-113209000D01*
X181674889Y-113209000D01*
X181292164Y-113285129D01*
X180931645Y-113434461D01*
X180607186Y-113651257D01*
X180331257Y-113927186D01*
X180114461Y-114251645D01*
X179965129Y-114612164D01*
X179889000Y-114994889D01*
X176470410Y-114994889D01*
X176482696Y-114988322D01*
X176540711Y-114940711D01*
X176588322Y-114882696D01*
X176623701Y-114816508D01*
X176645487Y-114744689D01*
X176652843Y-114670000D01*
X176652843Y-113170000D01*
X176645487Y-113095311D01*
X176623701Y-113023492D01*
X176588322Y-112957304D01*
X176540711Y-112899289D01*
X176482696Y-112851678D01*
X176416508Y-112816299D01*
X176344689Y-112794513D01*
X176270000Y-112787157D01*
X174770000Y-112787157D01*
X174695311Y-112794513D01*
X174623492Y-112816299D01*
X174557304Y-112851678D01*
X174499289Y-112899289D01*
X174451678Y-112957304D01*
X174416299Y-113023492D01*
X174394513Y-113095311D01*
X174387157Y-113170000D01*
X102006000Y-113170000D01*
X102006000Y-111268606D01*
X174389000Y-111268606D01*
X174389000Y-111491394D01*
X174432464Y-111709900D01*
X174517721Y-111915729D01*
X174641495Y-112100970D01*
X174799030Y-112258505D01*
X174984271Y-112382279D01*
X175190100Y-112467536D01*
X175408606Y-112511000D01*
X175631394Y-112511000D01*
X175849900Y-112467536D01*
X176055729Y-112382279D01*
X176240970Y-112258505D01*
X176398505Y-112100970D01*
X176522279Y-111915729D01*
X176607536Y-111709900D01*
X176651000Y-111491394D01*
X176651000Y-111268606D01*
X176607536Y-111050100D01*
X176522279Y-110844271D01*
X176398505Y-110659030D01*
X176240970Y-110501495D01*
X176055729Y-110377721D01*
X175849900Y-110292464D01*
X175631394Y-110249000D01*
X175408606Y-110249000D01*
X175190100Y-110292464D01*
X174984271Y-110377721D01*
X174799030Y-110501495D01*
X174641495Y-110659030D01*
X174517721Y-110844271D01*
X174432464Y-111050100D01*
X174389000Y-111268606D01*
X102006000Y-111268606D01*
X102006000Y-109998606D01*
X171849000Y-109998606D01*
X171849000Y-110221394D01*
X171892464Y-110439900D01*
X171977721Y-110645729D01*
X172101495Y-110830970D01*
X172259030Y-110988505D01*
X172444271Y-111112279D01*
X172650100Y-111197536D01*
X172868606Y-111241000D01*
X173091394Y-111241000D01*
X173309900Y-111197536D01*
X173515729Y-111112279D01*
X173700970Y-110988505D01*
X173858505Y-110830970D01*
X173982279Y-110645729D01*
X174067536Y-110439900D01*
X174111000Y-110221394D01*
X174111000Y-109998606D01*
X174067536Y-109780100D01*
X173982279Y-109574271D01*
X173858505Y-109389030D01*
X173700970Y-109231495D01*
X173515729Y-109107721D01*
X173309900Y-109022464D01*
X173091394Y-108979000D01*
X172868606Y-108979000D01*
X172650100Y-109022464D01*
X172444271Y-109107721D01*
X172259030Y-109231495D01*
X172101495Y-109389030D01*
X171977721Y-109574271D01*
X171892464Y-109780100D01*
X171849000Y-109998606D01*
X102006000Y-109998606D01*
X102006000Y-108920000D01*
X103702054Y-108920000D01*
X103720995Y-109112310D01*
X103777089Y-109297229D01*
X103868182Y-109467651D01*
X103990772Y-109617028D01*
X104140149Y-109739618D01*
X104310571Y-109830711D01*
X104495490Y-109886805D01*
X104639613Y-109901000D01*
X105285987Y-109901000D01*
X105430110Y-109886805D01*
X105615029Y-109830711D01*
X105785451Y-109739618D01*
X105934828Y-109617028D01*
X106057418Y-109467651D01*
X106148511Y-109297229D01*
X106204605Y-109112310D01*
X106223546Y-108920000D01*
X106204696Y-108728606D01*
X174389000Y-108728606D01*
X174389000Y-108951394D01*
X174432464Y-109169900D01*
X174517721Y-109375729D01*
X174641495Y-109560970D01*
X174799030Y-109718505D01*
X174984271Y-109842279D01*
X175190100Y-109927536D01*
X175408606Y-109971000D01*
X175631394Y-109971000D01*
X175849900Y-109927536D01*
X176055729Y-109842279D01*
X176240970Y-109718505D01*
X176398505Y-109560970D01*
X176522279Y-109375729D01*
X176607536Y-109169900D01*
X176651000Y-108951394D01*
X176651000Y-108728606D01*
X176607536Y-108510100D01*
X176522279Y-108304271D01*
X176398505Y-108119030D01*
X176240970Y-107961495D01*
X176055729Y-107837721D01*
X175849900Y-107752464D01*
X175631394Y-107709000D01*
X175408606Y-107709000D01*
X175190100Y-107752464D01*
X174984271Y-107837721D01*
X174799030Y-107961495D01*
X174641495Y-108119030D01*
X174517721Y-108304271D01*
X174432464Y-108510100D01*
X174389000Y-108728606D01*
X106204696Y-108728606D01*
X106204605Y-108727690D01*
X106148511Y-108542771D01*
X106057418Y-108372349D01*
X105934828Y-108222972D01*
X105785451Y-108100382D01*
X105615029Y-108009289D01*
X105430110Y-107953195D01*
X105285987Y-107939000D01*
X104639613Y-107939000D01*
X104495490Y-107953195D01*
X104310571Y-108009289D01*
X104140149Y-108100382D01*
X103990772Y-108222972D01*
X103868182Y-108372349D01*
X103777089Y-108542771D01*
X103720995Y-108727690D01*
X103702054Y-108920000D01*
X102006000Y-108920000D01*
X102006000Y-106569999D01*
X103704957Y-106569999D01*
X103704957Y-107270001D01*
X103717117Y-107393462D01*
X103753129Y-107512179D01*
X103811610Y-107621589D01*
X103890312Y-107717488D01*
X103986211Y-107796190D01*
X104095621Y-107854671D01*
X104214338Y-107890683D01*
X104337799Y-107902843D01*
X105587801Y-107902843D01*
X105711262Y-107890683D01*
X105829979Y-107854671D01*
X105939389Y-107796190D01*
X106035288Y-107717488D01*
X106113990Y-107621589D01*
X106172471Y-107512179D01*
X106188722Y-107458606D01*
X171849000Y-107458606D01*
X171849000Y-107681394D01*
X171892464Y-107899900D01*
X171977721Y-108105729D01*
X172101495Y-108290970D01*
X172259030Y-108448505D01*
X172444271Y-108572279D01*
X172650100Y-108657536D01*
X172868606Y-108701000D01*
X173091394Y-108701000D01*
X173309900Y-108657536D01*
X173515729Y-108572279D01*
X173700970Y-108448505D01*
X173858505Y-108290970D01*
X173982279Y-108105729D01*
X174067536Y-107899900D01*
X174111000Y-107681394D01*
X174111000Y-107458606D01*
X174067536Y-107240100D01*
X173982279Y-107034271D01*
X173858505Y-106849030D01*
X173700970Y-106691495D01*
X173515729Y-106567721D01*
X173309900Y-106482464D01*
X173091394Y-106439000D01*
X172868606Y-106439000D01*
X172650100Y-106482464D01*
X172444271Y-106567721D01*
X172259030Y-106691495D01*
X172101495Y-106849030D01*
X171977721Y-107034271D01*
X171892464Y-107240100D01*
X171849000Y-107458606D01*
X106188722Y-107458606D01*
X106208483Y-107393462D01*
X106220643Y-107270001D01*
X106220643Y-106569999D01*
X106208483Y-106446538D01*
X106172471Y-106327821D01*
X106113990Y-106218411D01*
X106089530Y-106188606D01*
X174389000Y-106188606D01*
X174389000Y-106411394D01*
X174432464Y-106629900D01*
X174517721Y-106835729D01*
X174641495Y-107020970D01*
X174799030Y-107178505D01*
X174984271Y-107302279D01*
X175190100Y-107387536D01*
X175408606Y-107431000D01*
X175631394Y-107431000D01*
X175849900Y-107387536D01*
X176055729Y-107302279D01*
X176240970Y-107178505D01*
X176398505Y-107020970D01*
X176522279Y-106835729D01*
X176607536Y-106629900D01*
X176651000Y-106411394D01*
X176651000Y-106188606D01*
X176607536Y-105970100D01*
X176522279Y-105764271D01*
X176398505Y-105579030D01*
X176240970Y-105421495D01*
X176055729Y-105297721D01*
X175849900Y-105212464D01*
X175631394Y-105169000D01*
X175408606Y-105169000D01*
X175190100Y-105212464D01*
X174984271Y-105297721D01*
X174799030Y-105421495D01*
X174641495Y-105579030D01*
X174517721Y-105764271D01*
X174432464Y-105970100D01*
X174389000Y-106188606D01*
X106089530Y-106188606D01*
X106035288Y-106122512D01*
X105939389Y-106043810D01*
X105829979Y-105985329D01*
X105711262Y-105949317D01*
X105587801Y-105937157D01*
X104337799Y-105937157D01*
X104214338Y-105949317D01*
X104095621Y-105985329D01*
X103986211Y-106043810D01*
X103890312Y-106122512D01*
X103811610Y-106218411D01*
X103753129Y-106327821D01*
X103717117Y-106446538D01*
X103704957Y-106569999D01*
X102006000Y-106569999D01*
X102006000Y-104918606D01*
X171849000Y-104918606D01*
X171849000Y-105141394D01*
X171892464Y-105359900D01*
X171977721Y-105565729D01*
X172101495Y-105750970D01*
X172259030Y-105908505D01*
X172444271Y-106032279D01*
X172650100Y-106117536D01*
X172868606Y-106161000D01*
X173091394Y-106161000D01*
X173309900Y-106117536D01*
X173515729Y-106032279D01*
X173700970Y-105908505D01*
X173858505Y-105750970D01*
X173982279Y-105565729D01*
X174067536Y-105359900D01*
X174111000Y-105141394D01*
X174111000Y-104918606D01*
X174067536Y-104700100D01*
X173982279Y-104494271D01*
X173858505Y-104309030D01*
X173700970Y-104151495D01*
X173515729Y-104027721D01*
X173309900Y-103942464D01*
X173091394Y-103899000D01*
X172868606Y-103899000D01*
X172650100Y-103942464D01*
X172444271Y-104027721D01*
X172259030Y-104151495D01*
X172101495Y-104309030D01*
X171977721Y-104494271D01*
X171892464Y-104700100D01*
X171849000Y-104918606D01*
X102006000Y-104918606D01*
X102006000Y-103564889D01*
X179889000Y-103564889D01*
X179889000Y-103955111D01*
X179965129Y-104337836D01*
X180114461Y-104698355D01*
X180331257Y-105022814D01*
X180607186Y-105298743D01*
X180931645Y-105515539D01*
X181292164Y-105664871D01*
X181674889Y-105741000D01*
X182065111Y-105741000D01*
X182447836Y-105664871D01*
X182808355Y-105515539D01*
X183132814Y-105298743D01*
X183408743Y-105022814D01*
X183625539Y-104698355D01*
X183774871Y-104337836D01*
X183851000Y-103955111D01*
X183851000Y-103564889D01*
X183774871Y-103182164D01*
X183625539Y-102821645D01*
X183408743Y-102497186D01*
X183132814Y-102221257D01*
X182808355Y-102004461D01*
X182447836Y-101855129D01*
X182065111Y-101779000D01*
X181674889Y-101779000D01*
X181292164Y-101855129D01*
X180931645Y-102004461D01*
X180607186Y-102221257D01*
X180331257Y-102497186D01*
X180114461Y-102821645D01*
X179965129Y-103182164D01*
X179889000Y-103564889D01*
X102006000Y-103564889D01*
X102006000Y-100920000D01*
X103702054Y-100920000D01*
X103720995Y-101112310D01*
X103777089Y-101297229D01*
X103868182Y-101467651D01*
X103990772Y-101617028D01*
X104140149Y-101739618D01*
X104310571Y-101830711D01*
X104495490Y-101886805D01*
X104639613Y-101901000D01*
X105285987Y-101901000D01*
X105430110Y-101886805D01*
X105615029Y-101830711D01*
X105785451Y-101739618D01*
X105934828Y-101617028D01*
X106057418Y-101467651D01*
X106148511Y-101297229D01*
X106204605Y-101112310D01*
X106223546Y-100920000D01*
X106204605Y-100727690D01*
X106148511Y-100542771D01*
X106057418Y-100372349D01*
X105934828Y-100222972D01*
X105785451Y-100100382D01*
X105615029Y-100009289D01*
X105430110Y-99953195D01*
X105285987Y-99939000D01*
X104639613Y-99939000D01*
X104495490Y-99953195D01*
X104310571Y-100009289D01*
X104140149Y-100100382D01*
X103990772Y-100222972D01*
X103868182Y-100372349D01*
X103777089Y-100542771D01*
X103720995Y-100727690D01*
X103702054Y-100920000D01*
X102006000Y-100920000D01*
X102006000Y-98569999D01*
X103704957Y-98569999D01*
X103704957Y-99270001D01*
X103717117Y-99393462D01*
X103753129Y-99512179D01*
X103811610Y-99621589D01*
X103890312Y-99717488D01*
X103986211Y-99796190D01*
X104095621Y-99854671D01*
X104214338Y-99890683D01*
X104337799Y-99902843D01*
X105587801Y-99902843D01*
X105711262Y-99890683D01*
X105829979Y-99854671D01*
X105939389Y-99796190D01*
X106035288Y-99717488D01*
X106113990Y-99621589D01*
X106172471Y-99512179D01*
X106208483Y-99393462D01*
X106220643Y-99270001D01*
X106220643Y-98569999D01*
X106208483Y-98446538D01*
X106172471Y-98327821D01*
X106113990Y-98218411D01*
X106035288Y-98122512D01*
X105939389Y-98043810D01*
X105829979Y-97985329D01*
X105711262Y-97949317D01*
X105587801Y-97937157D01*
X104337799Y-97937157D01*
X104214338Y-97949317D01*
X104095621Y-97985329D01*
X103986211Y-98043810D01*
X103890312Y-98122512D01*
X103811610Y-98218411D01*
X103753129Y-98327821D01*
X103717117Y-98446538D01*
X103704957Y-98569999D01*
X102006000Y-98569999D01*
X102006000Y-92920000D01*
X103702054Y-92920000D01*
X103720995Y-93112310D01*
X103777089Y-93297229D01*
X103868182Y-93467651D01*
X103990772Y-93617028D01*
X104140149Y-93739618D01*
X104310571Y-93830711D01*
X104495490Y-93886805D01*
X104639613Y-93901000D01*
X105285987Y-93901000D01*
X105430110Y-93886805D01*
X105615029Y-93830711D01*
X105785451Y-93739618D01*
X105934828Y-93617028D01*
X106057418Y-93467651D01*
X106148511Y-93297229D01*
X106204605Y-93112310D01*
X106223546Y-92920000D01*
X106204605Y-92727690D01*
X106148511Y-92542771D01*
X106057418Y-92372349D01*
X105934828Y-92222972D01*
X105785451Y-92100382D01*
X105615029Y-92009289D01*
X105430110Y-91953195D01*
X105285987Y-91939000D01*
X104639613Y-91939000D01*
X104495490Y-91953195D01*
X104310571Y-92009289D01*
X104140149Y-92100382D01*
X103990772Y-92222972D01*
X103868182Y-92372349D01*
X103777089Y-92542771D01*
X103720995Y-92727690D01*
X103702054Y-92920000D01*
X102006000Y-92920000D01*
X102006000Y-90569999D01*
X103704957Y-90569999D01*
X103704957Y-91270001D01*
X103717117Y-91393462D01*
X103753129Y-91512179D01*
X103811610Y-91621589D01*
X103890312Y-91717488D01*
X103986211Y-91796190D01*
X104095621Y-91854671D01*
X104214338Y-91890683D01*
X104337799Y-91902843D01*
X105587801Y-91902843D01*
X105711262Y-91890683D01*
X105829979Y-91854671D01*
X105939389Y-91796190D01*
X106035288Y-91717488D01*
X106113990Y-91621589D01*
X106172471Y-91512179D01*
X106208483Y-91393462D01*
X106220643Y-91270001D01*
X106220643Y-90569999D01*
X106208483Y-90446538D01*
X106172471Y-90327821D01*
X106113990Y-90218411D01*
X106035288Y-90122512D01*
X105939389Y-90043810D01*
X105829979Y-89985329D01*
X105711262Y-89949317D01*
X105587801Y-89937157D01*
X104337799Y-89937157D01*
X104214338Y-89949317D01*
X104095621Y-89985329D01*
X103986211Y-90043810D01*
X103890312Y-90122512D01*
X103811610Y-90218411D01*
X103753129Y-90327821D01*
X103717117Y-90446538D01*
X103704957Y-90569999D01*
X102006000Y-90569999D01*
X102006000Y-76434738D01*
X113619000Y-76434738D01*
X113619000Y-76805262D01*
X113691286Y-77168667D01*
X113833080Y-77510987D01*
X114038932Y-77819067D01*
X114300933Y-78081068D01*
X114609013Y-78286920D01*
X114951333Y-78428714D01*
X115314738Y-78501000D01*
X115685262Y-78501000D01*
X116048667Y-78428714D01*
X116390987Y-78286920D01*
X116699067Y-78081068D01*
X116961068Y-77819067D01*
X117166920Y-77510987D01*
X117308714Y-77168667D01*
X117381000Y-76805262D01*
X117381000Y-76434738D01*
X117308714Y-76071333D01*
X117166920Y-75729013D01*
X116961068Y-75420933D01*
X116699067Y-75158932D01*
X116390987Y-74953080D01*
X116048667Y-74811286D01*
X115685262Y-74739000D01*
X115314738Y-74739000D01*
X114951333Y-74811286D01*
X114609013Y-74953080D01*
X114300933Y-75158932D01*
X114038932Y-75420933D01*
X113833080Y-75729013D01*
X113691286Y-76071333D01*
X113619000Y-76434738D01*
X102006000Y-76434738D01*
X102006000Y-66724889D01*
X104619000Y-66724889D01*
X104619000Y-67115111D01*
X104695129Y-67497836D01*
X104844461Y-67858355D01*
X105061257Y-68182814D01*
X105337186Y-68458743D01*
X105661645Y-68675539D01*
X106022164Y-68824871D01*
X106404889Y-68901000D01*
X106795111Y-68901000D01*
X107177836Y-68824871D01*
X107538355Y-68675539D01*
X107862814Y-68458743D01*
X108138743Y-68182814D01*
X108355539Y-67858355D01*
X108504871Y-67497836D01*
X108581000Y-67115111D01*
X108581000Y-66724889D01*
X108504871Y-66342164D01*
X108355539Y-65981645D01*
X108138743Y-65657186D01*
X107862814Y-65381257D01*
X107538355Y-65164461D01*
X107177836Y-65015129D01*
X106795111Y-64939000D01*
X106404889Y-64939000D01*
X106022164Y-65015129D01*
X105661645Y-65164461D01*
X105337186Y-65381257D01*
X105061257Y-65657186D01*
X104844461Y-65981645D01*
X104695129Y-66342164D01*
X104619000Y-66724889D01*
X102006000Y-66724889D01*
X102006000Y-63373000D01*
X139573000Y-63373000D01*
X139573000Y-93980000D01*
G37*
X139573000Y-93980000D02*
X139575440Y-94004776D01*
X139582667Y-94028601D01*
X139594403Y-94050557D01*
X139601893Y-94060647D01*
X142065693Y-97057847D01*
X142083312Y-97075437D01*
X142104023Y-97089252D01*
X142127032Y-97098761D01*
X142151454Y-97103598D01*
X142163948Y-97104200D01*
X164033348Y-97078800D01*
X169619000Y-97078800D01*
X169619000Y-97451711D01*
X169695129Y-97834436D01*
X169844461Y-98194955D01*
X170061257Y-98519414D01*
X170337186Y-98795343D01*
X170661645Y-99012139D01*
X171022164Y-99161471D01*
X171404889Y-99237600D01*
X171795111Y-99237600D01*
X172177836Y-99161471D01*
X172538355Y-99012139D01*
X172862814Y-98795343D01*
X173138743Y-98519414D01*
X173355539Y-98194955D01*
X173504871Y-97834436D01*
X173581000Y-97451711D01*
X173581000Y-97078800D01*
X176224522Y-97078800D01*
X176260790Y-97146653D01*
X176311526Y-97208474D01*
X176373347Y-97259210D01*
X176443879Y-97296910D01*
X176520410Y-97320125D01*
X176580059Y-97326000D01*
X176580060Y-97326000D01*
X176600000Y-97327964D01*
X176619941Y-97326000D01*
X186194000Y-97326000D01*
X186194001Y-121514000D01*
X102006000Y-121514000D01*
X102006000Y-116724889D01*
X104619000Y-116724889D01*
X104619000Y-117115111D01*
X104695129Y-117497836D01*
X104844461Y-117858355D01*
X105061257Y-118182814D01*
X105337186Y-118458743D01*
X105661645Y-118675539D01*
X106022164Y-118824871D01*
X106404889Y-118901000D01*
X106795111Y-118901000D01*
X107177836Y-118824871D01*
X107538355Y-118675539D01*
X107862814Y-118458743D01*
X108138743Y-118182814D01*
X108355539Y-117858355D01*
X108504871Y-117497836D01*
X108581000Y-117115111D01*
X108581000Y-116724889D01*
X108504871Y-116342164D01*
X108355539Y-115981645D01*
X108138743Y-115657186D01*
X107862814Y-115381257D01*
X107538355Y-115164461D01*
X107177836Y-115015129D01*
X106795111Y-114939000D01*
X106404889Y-114939000D01*
X106022164Y-115015129D01*
X105661645Y-115164461D01*
X105337186Y-115381257D01*
X105061257Y-115657186D01*
X104844461Y-115981645D01*
X104695129Y-116342164D01*
X104619000Y-116724889D01*
X102006000Y-116724889D01*
X102006000Y-113170000D01*
X174387157Y-113170000D01*
X174387157Y-114670000D01*
X174394513Y-114744689D01*
X174416299Y-114816508D01*
X174451678Y-114882696D01*
X174499289Y-114940711D01*
X174557304Y-114988322D01*
X174623492Y-115023701D01*
X174695311Y-115045487D01*
X174770000Y-115052843D01*
X176270000Y-115052843D01*
X176344689Y-115045487D01*
X176416508Y-115023701D01*
X176470410Y-114994889D01*
X179889000Y-114994889D01*
X179889000Y-115385111D01*
X179965129Y-115767836D01*
X180114461Y-116128355D01*
X180331257Y-116452814D01*
X180607186Y-116728743D01*
X180931645Y-116945539D01*
X181292164Y-117094871D01*
X181674889Y-117171000D01*
X182065111Y-117171000D01*
X182447836Y-117094871D01*
X182808355Y-116945539D01*
X183132814Y-116728743D01*
X183408743Y-116452814D01*
X183625539Y-116128355D01*
X183774871Y-115767836D01*
X183851000Y-115385111D01*
X183851000Y-114994889D01*
X183774871Y-114612164D01*
X183625539Y-114251645D01*
X183408743Y-113927186D01*
X183132814Y-113651257D01*
X182808355Y-113434461D01*
X182447836Y-113285129D01*
X182065111Y-113209000D01*
X181674889Y-113209000D01*
X181292164Y-113285129D01*
X180931645Y-113434461D01*
X180607186Y-113651257D01*
X180331257Y-113927186D01*
X180114461Y-114251645D01*
X179965129Y-114612164D01*
X179889000Y-114994889D01*
X176470410Y-114994889D01*
X176482696Y-114988322D01*
X176540711Y-114940711D01*
X176588322Y-114882696D01*
X176623701Y-114816508D01*
X176645487Y-114744689D01*
X176652843Y-114670000D01*
X176652843Y-113170000D01*
X176645487Y-113095311D01*
X176623701Y-113023492D01*
X176588322Y-112957304D01*
X176540711Y-112899289D01*
X176482696Y-112851678D01*
X176416508Y-112816299D01*
X176344689Y-112794513D01*
X176270000Y-112787157D01*
X174770000Y-112787157D01*
X174695311Y-112794513D01*
X174623492Y-112816299D01*
X174557304Y-112851678D01*
X174499289Y-112899289D01*
X174451678Y-112957304D01*
X174416299Y-113023492D01*
X174394513Y-113095311D01*
X174387157Y-113170000D01*
X102006000Y-113170000D01*
X102006000Y-111268606D01*
X174389000Y-111268606D01*
X174389000Y-111491394D01*
X174432464Y-111709900D01*
X174517721Y-111915729D01*
X174641495Y-112100970D01*
X174799030Y-112258505D01*
X174984271Y-112382279D01*
X175190100Y-112467536D01*
X175408606Y-112511000D01*
X175631394Y-112511000D01*
X175849900Y-112467536D01*
X176055729Y-112382279D01*
X176240970Y-112258505D01*
X176398505Y-112100970D01*
X176522279Y-111915729D01*
X176607536Y-111709900D01*
X176651000Y-111491394D01*
X176651000Y-111268606D01*
X176607536Y-111050100D01*
X176522279Y-110844271D01*
X176398505Y-110659030D01*
X176240970Y-110501495D01*
X176055729Y-110377721D01*
X175849900Y-110292464D01*
X175631394Y-110249000D01*
X175408606Y-110249000D01*
X175190100Y-110292464D01*
X174984271Y-110377721D01*
X174799030Y-110501495D01*
X174641495Y-110659030D01*
X174517721Y-110844271D01*
X174432464Y-111050100D01*
X174389000Y-111268606D01*
X102006000Y-111268606D01*
X102006000Y-109998606D01*
X171849000Y-109998606D01*
X171849000Y-110221394D01*
X171892464Y-110439900D01*
X171977721Y-110645729D01*
X172101495Y-110830970D01*
X172259030Y-110988505D01*
X172444271Y-111112279D01*
X172650100Y-111197536D01*
X172868606Y-111241000D01*
X173091394Y-111241000D01*
X173309900Y-111197536D01*
X173515729Y-111112279D01*
X173700970Y-110988505D01*
X173858505Y-110830970D01*
X173982279Y-110645729D01*
X174067536Y-110439900D01*
X174111000Y-110221394D01*
X174111000Y-109998606D01*
X174067536Y-109780100D01*
X173982279Y-109574271D01*
X173858505Y-109389030D01*
X173700970Y-109231495D01*
X173515729Y-109107721D01*
X173309900Y-109022464D01*
X173091394Y-108979000D01*
X172868606Y-108979000D01*
X172650100Y-109022464D01*
X172444271Y-109107721D01*
X172259030Y-109231495D01*
X172101495Y-109389030D01*
X171977721Y-109574271D01*
X171892464Y-109780100D01*
X171849000Y-109998606D01*
X102006000Y-109998606D01*
X102006000Y-108920000D01*
X103702054Y-108920000D01*
X103720995Y-109112310D01*
X103777089Y-109297229D01*
X103868182Y-109467651D01*
X103990772Y-109617028D01*
X104140149Y-109739618D01*
X104310571Y-109830711D01*
X104495490Y-109886805D01*
X104639613Y-109901000D01*
X105285987Y-109901000D01*
X105430110Y-109886805D01*
X105615029Y-109830711D01*
X105785451Y-109739618D01*
X105934828Y-109617028D01*
X106057418Y-109467651D01*
X106148511Y-109297229D01*
X106204605Y-109112310D01*
X106223546Y-108920000D01*
X106204696Y-108728606D01*
X174389000Y-108728606D01*
X174389000Y-108951394D01*
X174432464Y-109169900D01*
X174517721Y-109375729D01*
X174641495Y-109560970D01*
X174799030Y-109718505D01*
X174984271Y-109842279D01*
X175190100Y-109927536D01*
X175408606Y-109971000D01*
X175631394Y-109971000D01*
X175849900Y-109927536D01*
X176055729Y-109842279D01*
X176240970Y-109718505D01*
X176398505Y-109560970D01*
X176522279Y-109375729D01*
X176607536Y-109169900D01*
X176651000Y-108951394D01*
X176651000Y-108728606D01*
X176607536Y-108510100D01*
X176522279Y-108304271D01*
X176398505Y-108119030D01*
X176240970Y-107961495D01*
X176055729Y-107837721D01*
X175849900Y-107752464D01*
X175631394Y-107709000D01*
X175408606Y-107709000D01*
X175190100Y-107752464D01*
X174984271Y-107837721D01*
X174799030Y-107961495D01*
X174641495Y-108119030D01*
X174517721Y-108304271D01*
X174432464Y-108510100D01*
X174389000Y-108728606D01*
X106204696Y-108728606D01*
X106204605Y-108727690D01*
X106148511Y-108542771D01*
X106057418Y-108372349D01*
X105934828Y-108222972D01*
X105785451Y-108100382D01*
X105615029Y-108009289D01*
X105430110Y-107953195D01*
X105285987Y-107939000D01*
X104639613Y-107939000D01*
X104495490Y-107953195D01*
X104310571Y-108009289D01*
X104140149Y-108100382D01*
X103990772Y-108222972D01*
X103868182Y-108372349D01*
X103777089Y-108542771D01*
X103720995Y-108727690D01*
X103702054Y-108920000D01*
X102006000Y-108920000D01*
X102006000Y-106569999D01*
X103704957Y-106569999D01*
X103704957Y-107270001D01*
X103717117Y-107393462D01*
X103753129Y-107512179D01*
X103811610Y-107621589D01*
X103890312Y-107717488D01*
X103986211Y-107796190D01*
X104095621Y-107854671D01*
X104214338Y-107890683D01*
X104337799Y-107902843D01*
X105587801Y-107902843D01*
X105711262Y-107890683D01*
X105829979Y-107854671D01*
X105939389Y-107796190D01*
X106035288Y-107717488D01*
X106113990Y-107621589D01*
X106172471Y-107512179D01*
X106188722Y-107458606D01*
X171849000Y-107458606D01*
X171849000Y-107681394D01*
X171892464Y-107899900D01*
X171977721Y-108105729D01*
X172101495Y-108290970D01*
X172259030Y-108448505D01*
X172444271Y-108572279D01*
X172650100Y-108657536D01*
X172868606Y-108701000D01*
X173091394Y-108701000D01*
X173309900Y-108657536D01*
X173515729Y-108572279D01*
X173700970Y-108448505D01*
X173858505Y-108290970D01*
X173982279Y-108105729D01*
X174067536Y-107899900D01*
X174111000Y-107681394D01*
X174111000Y-107458606D01*
X174067536Y-107240100D01*
X173982279Y-107034271D01*
X173858505Y-106849030D01*
X173700970Y-106691495D01*
X173515729Y-106567721D01*
X173309900Y-106482464D01*
X173091394Y-106439000D01*
X172868606Y-106439000D01*
X172650100Y-106482464D01*
X172444271Y-106567721D01*
X172259030Y-106691495D01*
X172101495Y-106849030D01*
X171977721Y-107034271D01*
X171892464Y-107240100D01*
X171849000Y-107458606D01*
X106188722Y-107458606D01*
X106208483Y-107393462D01*
X106220643Y-107270001D01*
X106220643Y-106569999D01*
X106208483Y-106446538D01*
X106172471Y-106327821D01*
X106113990Y-106218411D01*
X106089530Y-106188606D01*
X174389000Y-106188606D01*
X174389000Y-106411394D01*
X174432464Y-106629900D01*
X174517721Y-106835729D01*
X174641495Y-107020970D01*
X174799030Y-107178505D01*
X174984271Y-107302279D01*
X175190100Y-107387536D01*
X175408606Y-107431000D01*
X175631394Y-107431000D01*
X175849900Y-107387536D01*
X176055729Y-107302279D01*
X176240970Y-107178505D01*
X176398505Y-107020970D01*
X176522279Y-106835729D01*
X176607536Y-106629900D01*
X176651000Y-106411394D01*
X176651000Y-106188606D01*
X176607536Y-105970100D01*
X176522279Y-105764271D01*
X176398505Y-105579030D01*
X176240970Y-105421495D01*
X176055729Y-105297721D01*
X175849900Y-105212464D01*
X175631394Y-105169000D01*
X175408606Y-105169000D01*
X175190100Y-105212464D01*
X174984271Y-105297721D01*
X174799030Y-105421495D01*
X174641495Y-105579030D01*
X174517721Y-105764271D01*
X174432464Y-105970100D01*
X174389000Y-106188606D01*
X106089530Y-106188606D01*
X106035288Y-106122512D01*
X105939389Y-106043810D01*
X105829979Y-105985329D01*
X105711262Y-105949317D01*
X105587801Y-105937157D01*
X104337799Y-105937157D01*
X104214338Y-105949317D01*
X104095621Y-105985329D01*
X103986211Y-106043810D01*
X103890312Y-106122512D01*
X103811610Y-106218411D01*
X103753129Y-106327821D01*
X103717117Y-106446538D01*
X103704957Y-106569999D01*
X102006000Y-106569999D01*
X102006000Y-104918606D01*
X171849000Y-104918606D01*
X171849000Y-105141394D01*
X171892464Y-105359900D01*
X171977721Y-105565729D01*
X172101495Y-105750970D01*
X172259030Y-105908505D01*
X172444271Y-106032279D01*
X172650100Y-106117536D01*
X172868606Y-106161000D01*
X173091394Y-106161000D01*
X173309900Y-106117536D01*
X173515729Y-106032279D01*
X173700970Y-105908505D01*
X173858505Y-105750970D01*
X173982279Y-105565729D01*
X174067536Y-105359900D01*
X174111000Y-105141394D01*
X174111000Y-104918606D01*
X174067536Y-104700100D01*
X173982279Y-104494271D01*
X173858505Y-104309030D01*
X173700970Y-104151495D01*
X173515729Y-104027721D01*
X173309900Y-103942464D01*
X173091394Y-103899000D01*
X172868606Y-103899000D01*
X172650100Y-103942464D01*
X172444271Y-104027721D01*
X172259030Y-104151495D01*
X172101495Y-104309030D01*
X171977721Y-104494271D01*
X171892464Y-104700100D01*
X171849000Y-104918606D01*
X102006000Y-104918606D01*
X102006000Y-103564889D01*
X179889000Y-103564889D01*
X179889000Y-103955111D01*
X179965129Y-104337836D01*
X180114461Y-104698355D01*
X180331257Y-105022814D01*
X180607186Y-105298743D01*
X180931645Y-105515539D01*
X181292164Y-105664871D01*
X181674889Y-105741000D01*
X182065111Y-105741000D01*
X182447836Y-105664871D01*
X182808355Y-105515539D01*
X183132814Y-105298743D01*
X183408743Y-105022814D01*
X183625539Y-104698355D01*
X183774871Y-104337836D01*
X183851000Y-103955111D01*
X183851000Y-103564889D01*
X183774871Y-103182164D01*
X183625539Y-102821645D01*
X183408743Y-102497186D01*
X183132814Y-102221257D01*
X182808355Y-102004461D01*
X182447836Y-101855129D01*
X182065111Y-101779000D01*
X181674889Y-101779000D01*
X181292164Y-101855129D01*
X180931645Y-102004461D01*
X180607186Y-102221257D01*
X180331257Y-102497186D01*
X180114461Y-102821645D01*
X179965129Y-103182164D01*
X179889000Y-103564889D01*
X102006000Y-103564889D01*
X102006000Y-100920000D01*
X103702054Y-100920000D01*
X103720995Y-101112310D01*
X103777089Y-101297229D01*
X103868182Y-101467651D01*
X103990772Y-101617028D01*
X104140149Y-101739618D01*
X104310571Y-101830711D01*
X104495490Y-101886805D01*
X104639613Y-101901000D01*
X105285987Y-101901000D01*
X105430110Y-101886805D01*
X105615029Y-101830711D01*
X105785451Y-101739618D01*
X105934828Y-101617028D01*
X106057418Y-101467651D01*
X106148511Y-101297229D01*
X106204605Y-101112310D01*
X106223546Y-100920000D01*
X106204605Y-100727690D01*
X106148511Y-100542771D01*
X106057418Y-100372349D01*
X105934828Y-100222972D01*
X105785451Y-100100382D01*
X105615029Y-100009289D01*
X105430110Y-99953195D01*
X105285987Y-99939000D01*
X104639613Y-99939000D01*
X104495490Y-99953195D01*
X104310571Y-100009289D01*
X104140149Y-100100382D01*
X103990772Y-100222972D01*
X103868182Y-100372349D01*
X103777089Y-100542771D01*
X103720995Y-100727690D01*
X103702054Y-100920000D01*
X102006000Y-100920000D01*
X102006000Y-98569999D01*
X103704957Y-98569999D01*
X103704957Y-99270001D01*
X103717117Y-99393462D01*
X103753129Y-99512179D01*
X103811610Y-99621589D01*
X103890312Y-99717488D01*
X103986211Y-99796190D01*
X104095621Y-99854671D01*
X104214338Y-99890683D01*
X104337799Y-99902843D01*
X105587801Y-99902843D01*
X105711262Y-99890683D01*
X105829979Y-99854671D01*
X105939389Y-99796190D01*
X106035288Y-99717488D01*
X106113990Y-99621589D01*
X106172471Y-99512179D01*
X106208483Y-99393462D01*
X106220643Y-99270001D01*
X106220643Y-98569999D01*
X106208483Y-98446538D01*
X106172471Y-98327821D01*
X106113990Y-98218411D01*
X106035288Y-98122512D01*
X105939389Y-98043810D01*
X105829979Y-97985329D01*
X105711262Y-97949317D01*
X105587801Y-97937157D01*
X104337799Y-97937157D01*
X104214338Y-97949317D01*
X104095621Y-97985329D01*
X103986211Y-98043810D01*
X103890312Y-98122512D01*
X103811610Y-98218411D01*
X103753129Y-98327821D01*
X103717117Y-98446538D01*
X103704957Y-98569999D01*
X102006000Y-98569999D01*
X102006000Y-92920000D01*
X103702054Y-92920000D01*
X103720995Y-93112310D01*
X103777089Y-93297229D01*
X103868182Y-93467651D01*
X103990772Y-93617028D01*
X104140149Y-93739618D01*
X104310571Y-93830711D01*
X104495490Y-93886805D01*
X104639613Y-93901000D01*
X105285987Y-93901000D01*
X105430110Y-93886805D01*
X105615029Y-93830711D01*
X105785451Y-93739618D01*
X105934828Y-93617028D01*
X106057418Y-93467651D01*
X106148511Y-93297229D01*
X106204605Y-93112310D01*
X106223546Y-92920000D01*
X106204605Y-92727690D01*
X106148511Y-92542771D01*
X106057418Y-92372349D01*
X105934828Y-92222972D01*
X105785451Y-92100382D01*
X105615029Y-92009289D01*
X105430110Y-91953195D01*
X105285987Y-91939000D01*
X104639613Y-91939000D01*
X104495490Y-91953195D01*
X104310571Y-92009289D01*
X104140149Y-92100382D01*
X103990772Y-92222972D01*
X103868182Y-92372349D01*
X103777089Y-92542771D01*
X103720995Y-92727690D01*
X103702054Y-92920000D01*
X102006000Y-92920000D01*
X102006000Y-90569999D01*
X103704957Y-90569999D01*
X103704957Y-91270001D01*
X103717117Y-91393462D01*
X103753129Y-91512179D01*
X103811610Y-91621589D01*
X103890312Y-91717488D01*
X103986211Y-91796190D01*
X104095621Y-91854671D01*
X104214338Y-91890683D01*
X104337799Y-91902843D01*
X105587801Y-91902843D01*
X105711262Y-91890683D01*
X105829979Y-91854671D01*
X105939389Y-91796190D01*
X106035288Y-91717488D01*
X106113990Y-91621589D01*
X106172471Y-91512179D01*
X106208483Y-91393462D01*
X106220643Y-91270001D01*
X106220643Y-90569999D01*
X106208483Y-90446538D01*
X106172471Y-90327821D01*
X106113990Y-90218411D01*
X106035288Y-90122512D01*
X105939389Y-90043810D01*
X105829979Y-89985329D01*
X105711262Y-89949317D01*
X105587801Y-89937157D01*
X104337799Y-89937157D01*
X104214338Y-89949317D01*
X104095621Y-89985329D01*
X103986211Y-90043810D01*
X103890312Y-90122512D01*
X103811610Y-90218411D01*
X103753129Y-90327821D01*
X103717117Y-90446538D01*
X103704957Y-90569999D01*
X102006000Y-90569999D01*
X102006000Y-76434738D01*
X113619000Y-76434738D01*
X113619000Y-76805262D01*
X113691286Y-77168667D01*
X113833080Y-77510987D01*
X114038932Y-77819067D01*
X114300933Y-78081068D01*
X114609013Y-78286920D01*
X114951333Y-78428714D01*
X115314738Y-78501000D01*
X115685262Y-78501000D01*
X116048667Y-78428714D01*
X116390987Y-78286920D01*
X116699067Y-78081068D01*
X116961068Y-77819067D01*
X117166920Y-77510987D01*
X117308714Y-77168667D01*
X117381000Y-76805262D01*
X117381000Y-76434738D01*
X117308714Y-76071333D01*
X117166920Y-75729013D01*
X116961068Y-75420933D01*
X116699067Y-75158932D01*
X116390987Y-74953080D01*
X116048667Y-74811286D01*
X115685262Y-74739000D01*
X115314738Y-74739000D01*
X114951333Y-74811286D01*
X114609013Y-74953080D01*
X114300933Y-75158932D01*
X114038932Y-75420933D01*
X113833080Y-75729013D01*
X113691286Y-76071333D01*
X113619000Y-76434738D01*
X102006000Y-76434738D01*
X102006000Y-66724889D01*
X104619000Y-66724889D01*
X104619000Y-67115111D01*
X104695129Y-67497836D01*
X104844461Y-67858355D01*
X105061257Y-68182814D01*
X105337186Y-68458743D01*
X105661645Y-68675539D01*
X106022164Y-68824871D01*
X106404889Y-68901000D01*
X106795111Y-68901000D01*
X107177836Y-68824871D01*
X107538355Y-68675539D01*
X107862814Y-68458743D01*
X108138743Y-68182814D01*
X108355539Y-67858355D01*
X108504871Y-67497836D01*
X108581000Y-67115111D01*
X108581000Y-66724889D01*
X108504871Y-66342164D01*
X108355539Y-65981645D01*
X108138743Y-65657186D01*
X107862814Y-65381257D01*
X107538355Y-65164461D01*
X107177836Y-65015129D01*
X106795111Y-64939000D01*
X106404889Y-64939000D01*
X106022164Y-65015129D01*
X105661645Y-65164461D01*
X105337186Y-65381257D01*
X105061257Y-65657186D01*
X104844461Y-65981645D01*
X104695129Y-66342164D01*
X104619000Y-66724889D01*
X102006000Y-66724889D01*
X102006000Y-63373000D01*
X139573000Y-63373000D01*
X139573000Y-93980000D01*
M02*
