G04 #@! TF.GenerationSoftware,KiCad,Pcbnew,(5.1.5)-3*
G04 #@! TF.CreationDate,2020-05-07T22:08:26-06:00*
G04 #@! TF.ProjectId,GarageDoorPowerBoard,47617261-6765-4446-9f6f-72506f776572,rev?*
G04 #@! TF.SameCoordinates,Original*
G04 #@! TF.FileFunction,Soldermask,Top*
G04 #@! TF.FilePolarity,Negative*
%FSLAX46Y46*%
G04 Gerber Fmt 4.6, Leading zero omitted, Abs format (unit mm)*
G04 Created by KiCad (PCBNEW (5.1.5)-3) date 2020-05-07 22:08:26*
%MOMM*%
%LPD*%
G04 APERTURE LIST*
%ADD10C,0.100000*%
G04 APERTURE END LIST*
D10*
G36*
X106975256Y-115311298D02*
G01*
X107081579Y-115332447D01*
X107277425Y-115413569D01*
X107376147Y-115454461D01*
X107382042Y-115456903D01*
X107652451Y-115637585D01*
X107882415Y-115867549D01*
X108063097Y-116137958D01*
X108187553Y-116438421D01*
X108251000Y-116757391D01*
X108251000Y-117082609D01*
X108187553Y-117401579D01*
X108063097Y-117702042D01*
X107882415Y-117972451D01*
X107652451Y-118202415D01*
X107382042Y-118383097D01*
X107081579Y-118507553D01*
X106975256Y-118528702D01*
X106762611Y-118571000D01*
X106437389Y-118571000D01*
X106224744Y-118528702D01*
X106118421Y-118507553D01*
X105817958Y-118383097D01*
X105547549Y-118202415D01*
X105317585Y-117972451D01*
X105136903Y-117702042D01*
X105012447Y-117401579D01*
X104949000Y-117082609D01*
X104949000Y-116757391D01*
X105012447Y-116438421D01*
X105136903Y-116137958D01*
X105317585Y-115867549D01*
X105547549Y-115637585D01*
X105817958Y-115456903D01*
X105823854Y-115454461D01*
X105922575Y-115413569D01*
X106118421Y-115332447D01*
X106224744Y-115311298D01*
X106437389Y-115269000D01*
X106762611Y-115269000D01*
X106975256Y-115311298D01*
G37*
G36*
X182245256Y-113581298D02*
G01*
X182351579Y-113602447D01*
X182652042Y-113726903D01*
X182922451Y-113907585D01*
X183152415Y-114137549D01*
X183333097Y-114407958D01*
X183441887Y-114670599D01*
X183457553Y-114708422D01*
X183521000Y-115027389D01*
X183521000Y-115352611D01*
X183484864Y-115534278D01*
X183457553Y-115671579D01*
X183333097Y-115972042D01*
X183152415Y-116242451D01*
X182922451Y-116472415D01*
X182652042Y-116653097D01*
X182351579Y-116777553D01*
X182245256Y-116798702D01*
X182032611Y-116841000D01*
X181707389Y-116841000D01*
X181494744Y-116798702D01*
X181388421Y-116777553D01*
X181087958Y-116653097D01*
X180817549Y-116472415D01*
X180587585Y-116242451D01*
X180406903Y-115972042D01*
X180282447Y-115671579D01*
X180255136Y-115534278D01*
X180219000Y-115352611D01*
X180219000Y-115027389D01*
X180282447Y-114708422D01*
X180298114Y-114670599D01*
X180406903Y-114407958D01*
X180587585Y-114137549D01*
X180817549Y-113907585D01*
X181087958Y-113726903D01*
X181388421Y-113602447D01*
X181494744Y-113581298D01*
X181707389Y-113539000D01*
X182032611Y-113539000D01*
X182245256Y-113581298D01*
G37*
G36*
X161309468Y-114253565D02*
G01*
X161348138Y-114265296D01*
X161383777Y-114284346D01*
X161415017Y-114309983D01*
X161440654Y-114341223D01*
X161459704Y-114376862D01*
X161471435Y-114415532D01*
X161476000Y-114461888D01*
X161476000Y-115538112D01*
X161471435Y-115584468D01*
X161459704Y-115623138D01*
X161440654Y-115658777D01*
X161415017Y-115690017D01*
X161383777Y-115715654D01*
X161348138Y-115734704D01*
X161309468Y-115746435D01*
X161263112Y-115751000D01*
X160611888Y-115751000D01*
X160565532Y-115746435D01*
X160526862Y-115734704D01*
X160491223Y-115715654D01*
X160459983Y-115690017D01*
X160434346Y-115658777D01*
X160415296Y-115623138D01*
X160403565Y-115584468D01*
X160399000Y-115538112D01*
X160399000Y-114461888D01*
X160403565Y-114415532D01*
X160415296Y-114376862D01*
X160434346Y-114341223D01*
X160459983Y-114309983D01*
X160491223Y-114284346D01*
X160526862Y-114265296D01*
X160565532Y-114253565D01*
X160611888Y-114249000D01*
X161263112Y-114249000D01*
X161309468Y-114253565D01*
G37*
G36*
X159434468Y-114253565D02*
G01*
X159473138Y-114265296D01*
X159508777Y-114284346D01*
X159540017Y-114309983D01*
X159565654Y-114341223D01*
X159584704Y-114376862D01*
X159596435Y-114415532D01*
X159601000Y-114461888D01*
X159601000Y-115538112D01*
X159596435Y-115584468D01*
X159584704Y-115623138D01*
X159565654Y-115658777D01*
X159540017Y-115690017D01*
X159508777Y-115715654D01*
X159473138Y-115734704D01*
X159434468Y-115746435D01*
X159388112Y-115751000D01*
X158736888Y-115751000D01*
X158690532Y-115746435D01*
X158651862Y-115734704D01*
X158616223Y-115715654D01*
X158584983Y-115690017D01*
X158559346Y-115658777D01*
X158540296Y-115623138D01*
X158528565Y-115584468D01*
X158524000Y-115538112D01*
X158524000Y-114461888D01*
X158528565Y-114415532D01*
X158540296Y-114376862D01*
X158559346Y-114341223D01*
X158584983Y-114309983D01*
X158616223Y-114284346D01*
X158651862Y-114265296D01*
X158690532Y-114253565D01*
X158736888Y-114249000D01*
X159388112Y-114249000D01*
X159434468Y-114253565D01*
G37*
G36*
X164554591Y-114478085D02*
G01*
X164588569Y-114488393D01*
X164619890Y-114505134D01*
X164647339Y-114527661D01*
X164669866Y-114555110D01*
X164686607Y-114586431D01*
X164696915Y-114620409D01*
X164701000Y-114661890D01*
X164701000Y-115338110D01*
X164696915Y-115379591D01*
X164686607Y-115413569D01*
X164669866Y-115444890D01*
X164647339Y-115472339D01*
X164619890Y-115494866D01*
X164588569Y-115511607D01*
X164554591Y-115521915D01*
X164513110Y-115526000D01*
X163911890Y-115526000D01*
X163870409Y-115521915D01*
X163836431Y-115511607D01*
X163805110Y-115494866D01*
X163777661Y-115472339D01*
X163755134Y-115444890D01*
X163738393Y-115413569D01*
X163728085Y-115379591D01*
X163724000Y-115338110D01*
X163724000Y-114661890D01*
X163728085Y-114620409D01*
X163738393Y-114586431D01*
X163755134Y-114555110D01*
X163777661Y-114527661D01*
X163805110Y-114505134D01*
X163836431Y-114488393D01*
X163870409Y-114478085D01*
X163911890Y-114474000D01*
X164513110Y-114474000D01*
X164554591Y-114478085D01*
G37*
G36*
X166129591Y-114478085D02*
G01*
X166163569Y-114488393D01*
X166194890Y-114505134D01*
X166222339Y-114527661D01*
X166244866Y-114555110D01*
X166261607Y-114586431D01*
X166271915Y-114620409D01*
X166276000Y-114661890D01*
X166276000Y-115338110D01*
X166271915Y-115379591D01*
X166261607Y-115413569D01*
X166244866Y-115444890D01*
X166222339Y-115472339D01*
X166194890Y-115494866D01*
X166163569Y-115511607D01*
X166129591Y-115521915D01*
X166088110Y-115526000D01*
X165486890Y-115526000D01*
X165445409Y-115521915D01*
X165411431Y-115511607D01*
X165380110Y-115494866D01*
X165352661Y-115472339D01*
X165330134Y-115444890D01*
X165313393Y-115413569D01*
X165303085Y-115379591D01*
X165299000Y-115338110D01*
X165299000Y-114661890D01*
X165303085Y-114620409D01*
X165313393Y-114586431D01*
X165330134Y-114555110D01*
X165352661Y-114527661D01*
X165380110Y-114505134D01*
X165411431Y-114488393D01*
X165445409Y-114478085D01*
X165486890Y-114474000D01*
X166088110Y-114474000D01*
X166129591Y-114478085D01*
G37*
G36*
X176321000Y-114721000D02*
G01*
X174719000Y-114721000D01*
X174719000Y-113119000D01*
X176321000Y-113119000D01*
X176321000Y-114721000D01*
G37*
G36*
X173213642Y-111879781D02*
G01*
X173359414Y-111940162D01*
X173359416Y-111940163D01*
X173490608Y-112027822D01*
X173602178Y-112139392D01*
X173609412Y-112150219D01*
X173689838Y-112270586D01*
X173750219Y-112416358D01*
X173781000Y-112571107D01*
X173781000Y-112728893D01*
X173750219Y-112883642D01*
X173689838Y-113029414D01*
X173689837Y-113029416D01*
X173602178Y-113160608D01*
X173490608Y-113272178D01*
X173359416Y-113359837D01*
X173359415Y-113359838D01*
X173359414Y-113359838D01*
X173213642Y-113420219D01*
X173058893Y-113451000D01*
X172901107Y-113451000D01*
X172746358Y-113420219D01*
X172600586Y-113359838D01*
X172600585Y-113359838D01*
X172600584Y-113359837D01*
X172469392Y-113272178D01*
X172357822Y-113160608D01*
X172270163Y-113029416D01*
X172270162Y-113029414D01*
X172209781Y-112883642D01*
X172179000Y-112728893D01*
X172179000Y-112571107D01*
X172209781Y-112416358D01*
X172270162Y-112270586D01*
X172350588Y-112150219D01*
X172357822Y-112139392D01*
X172469392Y-112027822D01*
X172600584Y-111940163D01*
X172600586Y-111940162D01*
X172746358Y-111879781D01*
X172901107Y-111849000D01*
X173058893Y-111849000D01*
X173213642Y-111879781D01*
G37*
G36*
X175753642Y-110609781D02*
G01*
X175899414Y-110670162D01*
X175899416Y-110670163D01*
X176030608Y-110757822D01*
X176142178Y-110869392D01*
X176149412Y-110880219D01*
X176229838Y-111000586D01*
X176290219Y-111146358D01*
X176321000Y-111301107D01*
X176321000Y-111458893D01*
X176290219Y-111613642D01*
X176229838Y-111759414D01*
X176229837Y-111759416D01*
X176142178Y-111890608D01*
X176030608Y-112002178D01*
X175899416Y-112089837D01*
X175899415Y-112089838D01*
X175899414Y-112089838D01*
X175753642Y-112150219D01*
X175598893Y-112181000D01*
X175441107Y-112181000D01*
X175286358Y-112150219D01*
X175140586Y-112089838D01*
X175140585Y-112089838D01*
X175140584Y-112089837D01*
X175009392Y-112002178D01*
X174897822Y-111890608D01*
X174810163Y-111759416D01*
X174810162Y-111759414D01*
X174749781Y-111613642D01*
X174719000Y-111458893D01*
X174719000Y-111301107D01*
X174749781Y-111146358D01*
X174810162Y-111000586D01*
X174890588Y-110880219D01*
X174897822Y-110869392D01*
X175009392Y-110757822D01*
X175140584Y-110670163D01*
X175140586Y-110670162D01*
X175286358Y-110609781D01*
X175441107Y-110579000D01*
X175598893Y-110579000D01*
X175753642Y-110609781D01*
G37*
G36*
X173213642Y-109339781D02*
G01*
X173359414Y-109400162D01*
X173359416Y-109400163D01*
X173490608Y-109487822D01*
X173602178Y-109599392D01*
X173609412Y-109610219D01*
X173689838Y-109730586D01*
X173750219Y-109876358D01*
X173781000Y-110031107D01*
X173781000Y-110188893D01*
X173750219Y-110343642D01*
X173689838Y-110489414D01*
X173689837Y-110489416D01*
X173602178Y-110620608D01*
X173490608Y-110732178D01*
X173359416Y-110819837D01*
X173359415Y-110819838D01*
X173359414Y-110819838D01*
X173213642Y-110880219D01*
X173058893Y-110911000D01*
X172901107Y-110911000D01*
X172746358Y-110880219D01*
X172600586Y-110819838D01*
X172600585Y-110819838D01*
X172600584Y-110819837D01*
X172469392Y-110732178D01*
X172357822Y-110620608D01*
X172270163Y-110489416D01*
X172270162Y-110489414D01*
X172209781Y-110343642D01*
X172179000Y-110188893D01*
X172179000Y-110031107D01*
X172209781Y-109876358D01*
X172270162Y-109730586D01*
X172350588Y-109610219D01*
X172357822Y-109599392D01*
X172469392Y-109487822D01*
X172600584Y-109400163D01*
X172600586Y-109400162D01*
X172746358Y-109339781D01*
X172901107Y-109309000D01*
X173058893Y-109309000D01*
X173213642Y-109339781D01*
G37*
G36*
X175753642Y-108069781D02*
G01*
X175899414Y-108130162D01*
X175899416Y-108130163D01*
X176030608Y-108217822D01*
X176142178Y-108329392D01*
X176227740Y-108457446D01*
X176229838Y-108460586D01*
X176290219Y-108606358D01*
X176321000Y-108761107D01*
X176321000Y-108918893D01*
X176290219Y-109073642D01*
X176250167Y-109170336D01*
X176229837Y-109219416D01*
X176142178Y-109350608D01*
X176030608Y-109462178D01*
X175899416Y-109549837D01*
X175899415Y-109549838D01*
X175899414Y-109549838D01*
X175753642Y-109610219D01*
X175598893Y-109641000D01*
X175441107Y-109641000D01*
X175286358Y-109610219D01*
X175140586Y-109549838D01*
X175140585Y-109549838D01*
X175140584Y-109549837D01*
X175009392Y-109462178D01*
X174897822Y-109350608D01*
X174810163Y-109219416D01*
X174789833Y-109170336D01*
X174749781Y-109073642D01*
X174719000Y-108918893D01*
X174719000Y-108761107D01*
X174749781Y-108606358D01*
X174810162Y-108460586D01*
X174812260Y-108457446D01*
X174897822Y-108329392D01*
X175009392Y-108217822D01*
X175140584Y-108130163D01*
X175140586Y-108130162D01*
X175286358Y-108069781D01*
X175441107Y-108039000D01*
X175598893Y-108039000D01*
X175753642Y-108069781D01*
G37*
G36*
X105301655Y-108272140D02*
G01*
X105365418Y-108278420D01*
X105456204Y-108305960D01*
X105488136Y-108315646D01*
X105601225Y-108376094D01*
X105700354Y-108457446D01*
X105781706Y-108556575D01*
X105842154Y-108669664D01*
X105842155Y-108669668D01*
X105879380Y-108792382D01*
X105891949Y-108920000D01*
X105879380Y-109047618D01*
X105871485Y-109073643D01*
X105842154Y-109170336D01*
X105781706Y-109283425D01*
X105700354Y-109382554D01*
X105601225Y-109463906D01*
X105488136Y-109524354D01*
X105456204Y-109534040D01*
X105365418Y-109561580D01*
X105301655Y-109567860D01*
X105269774Y-109571000D01*
X104655826Y-109571000D01*
X104623945Y-109567860D01*
X104560182Y-109561580D01*
X104469396Y-109534040D01*
X104437464Y-109524354D01*
X104324375Y-109463906D01*
X104225246Y-109382554D01*
X104143894Y-109283425D01*
X104083446Y-109170336D01*
X104054115Y-109073643D01*
X104046220Y-109047618D01*
X104033651Y-108920000D01*
X104046220Y-108792382D01*
X104083445Y-108669668D01*
X104083446Y-108669664D01*
X104143894Y-108556575D01*
X104225246Y-108457446D01*
X104324375Y-108376094D01*
X104437464Y-108315646D01*
X104469396Y-108305960D01*
X104560182Y-108278420D01*
X104623945Y-108272140D01*
X104655826Y-108269000D01*
X105269774Y-108269000D01*
X105301655Y-108272140D01*
G37*
G36*
X173213642Y-106799781D02*
G01*
X173359414Y-106860162D01*
X173359416Y-106860163D01*
X173490608Y-106947822D01*
X173602178Y-107059392D01*
X173609412Y-107070219D01*
X173689838Y-107190586D01*
X173750219Y-107336358D01*
X173781000Y-107491107D01*
X173781000Y-107648893D01*
X173750219Y-107803642D01*
X173689838Y-107949414D01*
X173689837Y-107949416D01*
X173602178Y-108080608D01*
X173490608Y-108192178D01*
X173359416Y-108279837D01*
X173359415Y-108279838D01*
X173359414Y-108279838D01*
X173213642Y-108340219D01*
X173058893Y-108371000D01*
X172901107Y-108371000D01*
X172746358Y-108340219D01*
X172600586Y-108279838D01*
X172600585Y-108279838D01*
X172600584Y-108279837D01*
X172469392Y-108192178D01*
X172357822Y-108080608D01*
X172270163Y-107949416D01*
X172270162Y-107949414D01*
X172209781Y-107803642D01*
X172179000Y-107648893D01*
X172179000Y-107491107D01*
X172209781Y-107336358D01*
X172270162Y-107190586D01*
X172350588Y-107070219D01*
X172357822Y-107059392D01*
X172469392Y-106947822D01*
X172600584Y-106860163D01*
X172600586Y-106860162D01*
X172746358Y-106799781D01*
X172901107Y-106769000D01*
X173058893Y-106769000D01*
X173213642Y-106799781D01*
G37*
G36*
X105729042Y-106273404D02*
G01*
X105766137Y-106284657D01*
X105800315Y-106302925D01*
X105830281Y-106327519D01*
X105854875Y-106357485D01*
X105873143Y-106391663D01*
X105884396Y-106428758D01*
X105888800Y-106473474D01*
X105888800Y-107366526D01*
X105884396Y-107411242D01*
X105873143Y-107448337D01*
X105854875Y-107482515D01*
X105830281Y-107512481D01*
X105800315Y-107537075D01*
X105766137Y-107555343D01*
X105729042Y-107566596D01*
X105684326Y-107571000D01*
X104241274Y-107571000D01*
X104196558Y-107566596D01*
X104159463Y-107555343D01*
X104125285Y-107537075D01*
X104095319Y-107512481D01*
X104070725Y-107482515D01*
X104052457Y-107448337D01*
X104041204Y-107411242D01*
X104036800Y-107366526D01*
X104036800Y-106473474D01*
X104041204Y-106428758D01*
X104052457Y-106391663D01*
X104070725Y-106357485D01*
X104095319Y-106327519D01*
X104125285Y-106302925D01*
X104159463Y-106284657D01*
X104196558Y-106273404D01*
X104241274Y-106269000D01*
X105684326Y-106269000D01*
X105729042Y-106273404D01*
G37*
G36*
X175753642Y-105529781D02*
G01*
X175899414Y-105590162D01*
X175899416Y-105590163D01*
X176030608Y-105677822D01*
X176142178Y-105789392D01*
X176149412Y-105800219D01*
X176229838Y-105920586D01*
X176290219Y-106066358D01*
X176321000Y-106221107D01*
X176321000Y-106378893D01*
X176290219Y-106533642D01*
X176287482Y-106540249D01*
X176229837Y-106679416D01*
X176142178Y-106810608D01*
X176030608Y-106922178D01*
X175899416Y-107009837D01*
X175899415Y-107009838D01*
X175899414Y-107009838D01*
X175753642Y-107070219D01*
X175598893Y-107101000D01*
X175441107Y-107101000D01*
X175286358Y-107070219D01*
X175140586Y-107009838D01*
X175140585Y-107009838D01*
X175140584Y-107009837D01*
X175009392Y-106922178D01*
X174897822Y-106810608D01*
X174810163Y-106679416D01*
X174752518Y-106540249D01*
X174749781Y-106533642D01*
X174719000Y-106378893D01*
X174719000Y-106221107D01*
X174749781Y-106066358D01*
X174810162Y-105920586D01*
X174890588Y-105800219D01*
X174897822Y-105789392D01*
X175009392Y-105677822D01*
X175140584Y-105590163D01*
X175140586Y-105590162D01*
X175286358Y-105529781D01*
X175441107Y-105499000D01*
X175598893Y-105499000D01*
X175753642Y-105529781D01*
G37*
G36*
X173213642Y-104259781D02*
G01*
X173359414Y-104320162D01*
X173359416Y-104320163D01*
X173490608Y-104407822D01*
X173602178Y-104519392D01*
X173617312Y-104542042D01*
X173689838Y-104650586D01*
X173750219Y-104796358D01*
X173781000Y-104951107D01*
X173781000Y-105108893D01*
X173750219Y-105263642D01*
X173689838Y-105409414D01*
X173689837Y-105409416D01*
X173602178Y-105540608D01*
X173490608Y-105652178D01*
X173359416Y-105739837D01*
X173359415Y-105739838D01*
X173359414Y-105739838D01*
X173213642Y-105800219D01*
X173058893Y-105831000D01*
X172901107Y-105831000D01*
X172746358Y-105800219D01*
X172600586Y-105739838D01*
X172600585Y-105739838D01*
X172600584Y-105739837D01*
X172469392Y-105652178D01*
X172357822Y-105540608D01*
X172270163Y-105409416D01*
X172270162Y-105409414D01*
X172209781Y-105263642D01*
X172179000Y-105108893D01*
X172179000Y-104951107D01*
X172209781Y-104796358D01*
X172270162Y-104650586D01*
X172342688Y-104542042D01*
X172357822Y-104519392D01*
X172469392Y-104407822D01*
X172600584Y-104320163D01*
X172600586Y-104320162D01*
X172746358Y-104259781D01*
X172901107Y-104229000D01*
X173058893Y-104229000D01*
X173213642Y-104259781D01*
G37*
G36*
X182245256Y-102151298D02*
G01*
X182351579Y-102172447D01*
X182652042Y-102296903D01*
X182922451Y-102477585D01*
X183152415Y-102707549D01*
X183333097Y-102977958D01*
X183333098Y-102977960D01*
X183349824Y-103018341D01*
X183457553Y-103278421D01*
X183521000Y-103597391D01*
X183521000Y-103922609D01*
X183457553Y-104241579D01*
X183333097Y-104542042D01*
X183152415Y-104812451D01*
X182922451Y-105042415D01*
X182652042Y-105223097D01*
X182351579Y-105347553D01*
X182245256Y-105368702D01*
X182032611Y-105411000D01*
X181707389Y-105411000D01*
X181494744Y-105368702D01*
X181388421Y-105347553D01*
X181087958Y-105223097D01*
X180817549Y-105042415D01*
X180587585Y-104812451D01*
X180406903Y-104542042D01*
X180282447Y-104241579D01*
X180219000Y-103922609D01*
X180219000Y-103597391D01*
X180282447Y-103278421D01*
X180390176Y-103018341D01*
X180406902Y-102977960D01*
X180406903Y-102977958D01*
X180587585Y-102707549D01*
X180817549Y-102477585D01*
X181087958Y-102296903D01*
X181388421Y-102172447D01*
X181494744Y-102151298D01*
X181707389Y-102109000D01*
X182032611Y-102109000D01*
X182245256Y-102151298D01*
G37*
G36*
X159268604Y-101728347D02*
G01*
X159305144Y-101739432D01*
X159338821Y-101757433D01*
X159368341Y-101781659D01*
X159392567Y-101811179D01*
X159410568Y-101844856D01*
X159421653Y-101881396D01*
X159426000Y-101925538D01*
X159426000Y-102874462D01*
X159421653Y-102918604D01*
X159410568Y-102955144D01*
X159392567Y-102988821D01*
X159368341Y-103018341D01*
X159338821Y-103042567D01*
X159305144Y-103060568D01*
X159268604Y-103071653D01*
X159224462Y-103076000D01*
X157775538Y-103076000D01*
X157731396Y-103071653D01*
X157694856Y-103060568D01*
X157661179Y-103042567D01*
X157631659Y-103018341D01*
X157607433Y-102988821D01*
X157589432Y-102955144D01*
X157578347Y-102918604D01*
X157574000Y-102874462D01*
X157574000Y-101925538D01*
X157578347Y-101881396D01*
X157589432Y-101844856D01*
X157607433Y-101811179D01*
X157631659Y-101781659D01*
X157661179Y-101757433D01*
X157694856Y-101739432D01*
X157731396Y-101728347D01*
X157775538Y-101724000D01*
X159224462Y-101724000D01*
X159268604Y-101728347D01*
G37*
G36*
X161768604Y-101728347D02*
G01*
X161805144Y-101739432D01*
X161838821Y-101757433D01*
X161868341Y-101781659D01*
X161892567Y-101811179D01*
X161910568Y-101844856D01*
X161921653Y-101881396D01*
X161926000Y-101925538D01*
X161926000Y-102874462D01*
X161921653Y-102918604D01*
X161910568Y-102955144D01*
X161892567Y-102988821D01*
X161868341Y-103018341D01*
X161838821Y-103042567D01*
X161805144Y-103060568D01*
X161768604Y-103071653D01*
X161724462Y-103076000D01*
X160275538Y-103076000D01*
X160231396Y-103071653D01*
X160194856Y-103060568D01*
X160161179Y-103042567D01*
X160131659Y-103018341D01*
X160107433Y-102988821D01*
X160089432Y-102955144D01*
X160078347Y-102918604D01*
X160074000Y-102874462D01*
X160074000Y-101925538D01*
X160078347Y-101881396D01*
X160089432Y-101844856D01*
X160107433Y-101811179D01*
X160131659Y-101781659D01*
X160161179Y-101757433D01*
X160194856Y-101739432D01*
X160231396Y-101728347D01*
X160275538Y-101724000D01*
X161724462Y-101724000D01*
X161768604Y-101728347D01*
G37*
G36*
X166768604Y-101728347D02*
G01*
X166805144Y-101739432D01*
X166838821Y-101757433D01*
X166868341Y-101781659D01*
X166892567Y-101811179D01*
X166910568Y-101844856D01*
X166921653Y-101881396D01*
X166926000Y-101925538D01*
X166926000Y-102874462D01*
X166921653Y-102918604D01*
X166910568Y-102955144D01*
X166892567Y-102988821D01*
X166868341Y-103018341D01*
X166838821Y-103042567D01*
X166805144Y-103060568D01*
X166768604Y-103071653D01*
X166724462Y-103076000D01*
X165275538Y-103076000D01*
X165231396Y-103071653D01*
X165194856Y-103060568D01*
X165161179Y-103042567D01*
X165131659Y-103018341D01*
X165107433Y-102988821D01*
X165089432Y-102955144D01*
X165078347Y-102918604D01*
X165074000Y-102874462D01*
X165074000Y-101925538D01*
X165078347Y-101881396D01*
X165089432Y-101844856D01*
X165107433Y-101811179D01*
X165131659Y-101781659D01*
X165161179Y-101757433D01*
X165194856Y-101739432D01*
X165231396Y-101728347D01*
X165275538Y-101724000D01*
X166724462Y-101724000D01*
X166768604Y-101728347D01*
G37*
G36*
X164268604Y-101728347D02*
G01*
X164305144Y-101739432D01*
X164338821Y-101757433D01*
X164368341Y-101781659D01*
X164392567Y-101811179D01*
X164410568Y-101844856D01*
X164421653Y-101881396D01*
X164426000Y-101925538D01*
X164426000Y-102874462D01*
X164421653Y-102918604D01*
X164410568Y-102955144D01*
X164392567Y-102988821D01*
X164368341Y-103018341D01*
X164338821Y-103042567D01*
X164305144Y-103060568D01*
X164268604Y-103071653D01*
X164224462Y-103076000D01*
X162775538Y-103076000D01*
X162731396Y-103071653D01*
X162694856Y-103060568D01*
X162661179Y-103042567D01*
X162631659Y-103018341D01*
X162607433Y-102988821D01*
X162589432Y-102955144D01*
X162578347Y-102918604D01*
X162574000Y-102874462D01*
X162574000Y-101925538D01*
X162578347Y-101881396D01*
X162589432Y-101844856D01*
X162607433Y-101811179D01*
X162631659Y-101781659D01*
X162661179Y-101757433D01*
X162694856Y-101739432D01*
X162731396Y-101728347D01*
X162775538Y-101724000D01*
X164224462Y-101724000D01*
X164268604Y-101728347D01*
G37*
G36*
X105288090Y-100270804D02*
G01*
X105365418Y-100278420D01*
X105456204Y-100305960D01*
X105488136Y-100315646D01*
X105601225Y-100376094D01*
X105700354Y-100457446D01*
X105781706Y-100556575D01*
X105842154Y-100669664D01*
X105842155Y-100669668D01*
X105879380Y-100792382D01*
X105891949Y-100920000D01*
X105879380Y-101047618D01*
X105851840Y-101138404D01*
X105842154Y-101170336D01*
X105781706Y-101283425D01*
X105700354Y-101382554D01*
X105601225Y-101463906D01*
X105488136Y-101524354D01*
X105456204Y-101534040D01*
X105365418Y-101561580D01*
X105301655Y-101567860D01*
X105269774Y-101571000D01*
X104655826Y-101571000D01*
X104623945Y-101567860D01*
X104560182Y-101561580D01*
X104469396Y-101534040D01*
X104437464Y-101524354D01*
X104324375Y-101463906D01*
X104225246Y-101382554D01*
X104143894Y-101283425D01*
X104083446Y-101170336D01*
X104073760Y-101138404D01*
X104046220Y-101047618D01*
X104033651Y-100920000D01*
X104046220Y-100792382D01*
X104083445Y-100669668D01*
X104083446Y-100669664D01*
X104143894Y-100556575D01*
X104225246Y-100457446D01*
X104324375Y-100376094D01*
X104437464Y-100315646D01*
X104469396Y-100305960D01*
X104560182Y-100278420D01*
X104637510Y-100270804D01*
X104655826Y-100269000D01*
X105269774Y-100269000D01*
X105288090Y-100270804D01*
G37*
G36*
X159268604Y-98928347D02*
G01*
X159305144Y-98939432D01*
X159338821Y-98957433D01*
X159368341Y-98981659D01*
X159392567Y-99011179D01*
X159410568Y-99044856D01*
X159421653Y-99081396D01*
X159426000Y-99125538D01*
X159426000Y-100074462D01*
X159421653Y-100118604D01*
X159410568Y-100155144D01*
X159392567Y-100188821D01*
X159368341Y-100218341D01*
X159338821Y-100242567D01*
X159305144Y-100260568D01*
X159268604Y-100271653D01*
X159224462Y-100276000D01*
X157775538Y-100276000D01*
X157731396Y-100271653D01*
X157694856Y-100260568D01*
X157661179Y-100242567D01*
X157631659Y-100218341D01*
X157607433Y-100188821D01*
X157589432Y-100155144D01*
X157578347Y-100118604D01*
X157574000Y-100074462D01*
X157574000Y-99125538D01*
X157578347Y-99081396D01*
X157589432Y-99044856D01*
X157607433Y-99011179D01*
X157631659Y-98981659D01*
X157661179Y-98957433D01*
X157694856Y-98939432D01*
X157731396Y-98928347D01*
X157775538Y-98924000D01*
X159224462Y-98924000D01*
X159268604Y-98928347D01*
G37*
G36*
X161768604Y-98928347D02*
G01*
X161805144Y-98939432D01*
X161838821Y-98957433D01*
X161868341Y-98981659D01*
X161892567Y-99011179D01*
X161910568Y-99044856D01*
X161921653Y-99081396D01*
X161926000Y-99125538D01*
X161926000Y-100074462D01*
X161921653Y-100118604D01*
X161910568Y-100155144D01*
X161892567Y-100188821D01*
X161868341Y-100218341D01*
X161838821Y-100242567D01*
X161805144Y-100260568D01*
X161768604Y-100271653D01*
X161724462Y-100276000D01*
X160275538Y-100276000D01*
X160231396Y-100271653D01*
X160194856Y-100260568D01*
X160161179Y-100242567D01*
X160131659Y-100218341D01*
X160107433Y-100188821D01*
X160089432Y-100155144D01*
X160078347Y-100118604D01*
X160074000Y-100074462D01*
X160074000Y-99125538D01*
X160078347Y-99081396D01*
X160089432Y-99044856D01*
X160107433Y-99011179D01*
X160131659Y-98981659D01*
X160161179Y-98957433D01*
X160194856Y-98939432D01*
X160231396Y-98928347D01*
X160275538Y-98924000D01*
X161724462Y-98924000D01*
X161768604Y-98928347D01*
G37*
G36*
X164268604Y-98928347D02*
G01*
X164305144Y-98939432D01*
X164338821Y-98957433D01*
X164368341Y-98981659D01*
X164392567Y-99011179D01*
X164410568Y-99044856D01*
X164421653Y-99081396D01*
X164426000Y-99125538D01*
X164426000Y-100074462D01*
X164421653Y-100118604D01*
X164410568Y-100155144D01*
X164392567Y-100188821D01*
X164368341Y-100218341D01*
X164338821Y-100242567D01*
X164305144Y-100260568D01*
X164268604Y-100271653D01*
X164224462Y-100276000D01*
X162775538Y-100276000D01*
X162731396Y-100271653D01*
X162694856Y-100260568D01*
X162661179Y-100242567D01*
X162631659Y-100218341D01*
X162607433Y-100188821D01*
X162589432Y-100155144D01*
X162578347Y-100118604D01*
X162574000Y-100074462D01*
X162574000Y-99125538D01*
X162578347Y-99081396D01*
X162589432Y-99044856D01*
X162607433Y-99011179D01*
X162631659Y-98981659D01*
X162661179Y-98957433D01*
X162694856Y-98939432D01*
X162731396Y-98928347D01*
X162775538Y-98924000D01*
X164224462Y-98924000D01*
X164268604Y-98928347D01*
G37*
G36*
X166768604Y-98928347D02*
G01*
X166805144Y-98939432D01*
X166838821Y-98957433D01*
X166868341Y-98981659D01*
X166892567Y-99011179D01*
X166910568Y-99044856D01*
X166921653Y-99081396D01*
X166926000Y-99125538D01*
X166926000Y-100074462D01*
X166921653Y-100118604D01*
X166910568Y-100155144D01*
X166892567Y-100188821D01*
X166868341Y-100218341D01*
X166838821Y-100242567D01*
X166805144Y-100260568D01*
X166768604Y-100271653D01*
X166724462Y-100276000D01*
X165275538Y-100276000D01*
X165231396Y-100271653D01*
X165194856Y-100260568D01*
X165161179Y-100242567D01*
X165131659Y-100218341D01*
X165107433Y-100188821D01*
X165089432Y-100155144D01*
X165078347Y-100118604D01*
X165074000Y-100074462D01*
X165074000Y-99125538D01*
X165078347Y-99081396D01*
X165089432Y-99044856D01*
X165107433Y-99011179D01*
X165131659Y-98981659D01*
X165161179Y-98957433D01*
X165194856Y-98939432D01*
X165231396Y-98928347D01*
X165275538Y-98924000D01*
X166724462Y-98924000D01*
X166768604Y-98928347D01*
G37*
G36*
X105729042Y-98273404D02*
G01*
X105766137Y-98284657D01*
X105800315Y-98302925D01*
X105830281Y-98327519D01*
X105854875Y-98357485D01*
X105873143Y-98391663D01*
X105884396Y-98428758D01*
X105888800Y-98473474D01*
X105888800Y-99366526D01*
X105884396Y-99411242D01*
X105873143Y-99448337D01*
X105854875Y-99482515D01*
X105830281Y-99512481D01*
X105800315Y-99537075D01*
X105766137Y-99555343D01*
X105729042Y-99566596D01*
X105684326Y-99571000D01*
X104241274Y-99571000D01*
X104196558Y-99566596D01*
X104159463Y-99555343D01*
X104125285Y-99537075D01*
X104095319Y-99512481D01*
X104070725Y-99482515D01*
X104052457Y-99448337D01*
X104041204Y-99411242D01*
X104036800Y-99366526D01*
X104036800Y-98473474D01*
X104041204Y-98428758D01*
X104052457Y-98391663D01*
X104070725Y-98357485D01*
X104095319Y-98327519D01*
X104125285Y-98302925D01*
X104159463Y-98284657D01*
X104196558Y-98273404D01*
X104241274Y-98269000D01*
X105684326Y-98269000D01*
X105729042Y-98273404D01*
G37*
G36*
X171975256Y-95647898D02*
G01*
X172081579Y-95669047D01*
X172382042Y-95793503D01*
X172652451Y-95974185D01*
X172882415Y-96204149D01*
X173063097Y-96474558D01*
X173187553Y-96775021D01*
X173251000Y-97093991D01*
X173251000Y-97419209D01*
X173187553Y-97738179D01*
X173063097Y-98038642D01*
X172882415Y-98309051D01*
X172652451Y-98539015D01*
X172382042Y-98719697D01*
X172081579Y-98844153D01*
X171975256Y-98865302D01*
X171762611Y-98907600D01*
X171437389Y-98907600D01*
X171224744Y-98865302D01*
X171118421Y-98844153D01*
X170817958Y-98719697D01*
X170547549Y-98539015D01*
X170317585Y-98309051D01*
X170136903Y-98038642D01*
X170012447Y-97738179D01*
X169949000Y-97419209D01*
X169949000Y-97093991D01*
X170012447Y-96775021D01*
X170136903Y-96474558D01*
X170317585Y-96204149D01*
X170547549Y-95974185D01*
X170817958Y-95793503D01*
X171118421Y-95669047D01*
X171224744Y-95647898D01*
X171437389Y-95605600D01*
X171762611Y-95605600D01*
X171975256Y-95647898D01*
G37*
G36*
X105301655Y-92272140D02*
G01*
X105365418Y-92278420D01*
X105456204Y-92305960D01*
X105488136Y-92315646D01*
X105601225Y-92376094D01*
X105700354Y-92457446D01*
X105781706Y-92556575D01*
X105842154Y-92669664D01*
X105842155Y-92669668D01*
X105879380Y-92792382D01*
X105891949Y-92920000D01*
X105879380Y-93047618D01*
X105851840Y-93138404D01*
X105842154Y-93170336D01*
X105781706Y-93283425D01*
X105700354Y-93382554D01*
X105601225Y-93463906D01*
X105488136Y-93524354D01*
X105456204Y-93534040D01*
X105365418Y-93561580D01*
X105301655Y-93567860D01*
X105269774Y-93571000D01*
X104655826Y-93571000D01*
X104623945Y-93567860D01*
X104560182Y-93561580D01*
X104469396Y-93534040D01*
X104437464Y-93524354D01*
X104324375Y-93463906D01*
X104225246Y-93382554D01*
X104143894Y-93283425D01*
X104083446Y-93170336D01*
X104073760Y-93138404D01*
X104046220Y-93047618D01*
X104033651Y-92920000D01*
X104046220Y-92792382D01*
X104083445Y-92669668D01*
X104083446Y-92669664D01*
X104143894Y-92556575D01*
X104225246Y-92457446D01*
X104324375Y-92376094D01*
X104437464Y-92315646D01*
X104469396Y-92305960D01*
X104560182Y-92278420D01*
X104623945Y-92272140D01*
X104655826Y-92269000D01*
X105269774Y-92269000D01*
X105301655Y-92272140D01*
G37*
G36*
X105729042Y-90273404D02*
G01*
X105766137Y-90284657D01*
X105800315Y-90302925D01*
X105830281Y-90327519D01*
X105854875Y-90357485D01*
X105873143Y-90391663D01*
X105884396Y-90428758D01*
X105888800Y-90473474D01*
X105888800Y-91366526D01*
X105884396Y-91411242D01*
X105873143Y-91448337D01*
X105854875Y-91482515D01*
X105830281Y-91512481D01*
X105800315Y-91537075D01*
X105766137Y-91555343D01*
X105729042Y-91566596D01*
X105684326Y-91571000D01*
X104241274Y-91571000D01*
X104196558Y-91566596D01*
X104159463Y-91555343D01*
X104125285Y-91537075D01*
X104095319Y-91512481D01*
X104070725Y-91482515D01*
X104052457Y-91448337D01*
X104041204Y-91411242D01*
X104036800Y-91366526D01*
X104036800Y-90473474D01*
X104041204Y-90428758D01*
X104052457Y-90391663D01*
X104070725Y-90357485D01*
X104095319Y-90327519D01*
X104125285Y-90302925D01*
X104159463Y-90284657D01*
X104196558Y-90273404D01*
X104241274Y-90269000D01*
X105684326Y-90269000D01*
X105729042Y-90273404D01*
G37*
G36*
X162051000Y-90971000D02*
G01*
X158949000Y-90971000D01*
X158949000Y-87869000D01*
X162051000Y-87869000D01*
X162051000Y-90971000D01*
G37*
G36*
X171686425Y-81982760D02*
G01*
X171686428Y-81982761D01*
X171686429Y-81982761D01*
X171865693Y-82037140D01*
X171865696Y-82037142D01*
X171865697Y-82037142D01*
X172030903Y-82125446D01*
X172175712Y-82244288D01*
X172294554Y-82389097D01*
X172382858Y-82554303D01*
X172382860Y-82554307D01*
X172437239Y-82733571D01*
X172437240Y-82733575D01*
X172455601Y-82920000D01*
X172437240Y-83106425D01*
X172437239Y-83106428D01*
X172437239Y-83106429D01*
X172382860Y-83285693D01*
X172382858Y-83285696D01*
X172382858Y-83285697D01*
X172294554Y-83450903D01*
X172175712Y-83595712D01*
X172030903Y-83714554D01*
X171865697Y-83802858D01*
X171865693Y-83802860D01*
X171686429Y-83857239D01*
X171686428Y-83857239D01*
X171686425Y-83857240D01*
X171546718Y-83871000D01*
X169653282Y-83871000D01*
X169513575Y-83857240D01*
X169513572Y-83857239D01*
X169513571Y-83857239D01*
X169334307Y-83802860D01*
X169334303Y-83802858D01*
X169169097Y-83714554D01*
X169024288Y-83595712D01*
X168905446Y-83450903D01*
X168817142Y-83285697D01*
X168817142Y-83285696D01*
X168817140Y-83285693D01*
X168762761Y-83106429D01*
X168762761Y-83106428D01*
X168762760Y-83106425D01*
X168744399Y-82920000D01*
X168762760Y-82733575D01*
X168762761Y-82733571D01*
X168817140Y-82554307D01*
X168817142Y-82554303D01*
X168905446Y-82389097D01*
X169024288Y-82244288D01*
X169169097Y-82125446D01*
X169334303Y-82037142D01*
X169334304Y-82037142D01*
X169334307Y-82037140D01*
X169513571Y-81982761D01*
X169513572Y-81982761D01*
X169513575Y-81982760D01*
X169653282Y-81969000D01*
X171546718Y-81969000D01*
X171686425Y-81982760D01*
G37*
G36*
X172310915Y-78472934D02*
G01*
X172343424Y-78482795D01*
X172373382Y-78498809D01*
X172399641Y-78520359D01*
X172421191Y-78546618D01*
X172437205Y-78576576D01*
X172447066Y-78609085D01*
X172451000Y-78649029D01*
X172451000Y-80190971D01*
X172447066Y-80230915D01*
X172437205Y-80263424D01*
X172421191Y-80293382D01*
X172399641Y-80319641D01*
X172373382Y-80341191D01*
X172343424Y-80357205D01*
X172310915Y-80367066D01*
X172270971Y-80371000D01*
X168929029Y-80371000D01*
X168889085Y-80367066D01*
X168856576Y-80357205D01*
X168826618Y-80341191D01*
X168800359Y-80319641D01*
X168778809Y-80293382D01*
X168762795Y-80263424D01*
X168752934Y-80230915D01*
X168749000Y-80190971D01*
X168749000Y-78649029D01*
X168752934Y-78609085D01*
X168762795Y-78576576D01*
X168778809Y-78546618D01*
X168800359Y-78520359D01*
X168826618Y-78498809D01*
X168856576Y-78482795D01*
X168889085Y-78472934D01*
X168929029Y-78469000D01*
X172270971Y-78469000D01*
X172310915Y-78472934D01*
G37*
G36*
X115802585Y-75098802D02*
G01*
X115952410Y-75128604D01*
X116234674Y-75245521D01*
X116488705Y-75415259D01*
X116704741Y-75631295D01*
X116874479Y-75885326D01*
X116991396Y-76167590D01*
X117051000Y-76467240D01*
X117051000Y-76772760D01*
X116991396Y-77072410D01*
X116874479Y-77354674D01*
X116704741Y-77608705D01*
X116488705Y-77824741D01*
X116234674Y-77994479D01*
X115952410Y-78111396D01*
X115802585Y-78141198D01*
X115652761Y-78171000D01*
X115347239Y-78171000D01*
X115197415Y-78141198D01*
X115047590Y-78111396D01*
X114765326Y-77994479D01*
X114511295Y-77824741D01*
X114295259Y-77608705D01*
X114125521Y-77354674D01*
X114008604Y-77072410D01*
X113949000Y-76772760D01*
X113949000Y-76467240D01*
X114008604Y-76167590D01*
X114125521Y-75885326D01*
X114295259Y-75631295D01*
X114511295Y-75415259D01*
X114765326Y-75245521D01*
X115047590Y-75128604D01*
X115197415Y-75098802D01*
X115347239Y-75069000D01*
X115652761Y-75069000D01*
X115802585Y-75098802D01*
G37*
G36*
X115802585Y-67098802D02*
G01*
X115952410Y-67128604D01*
X116234674Y-67245521D01*
X116488705Y-67415259D01*
X116704741Y-67631295D01*
X116874479Y-67885326D01*
X116991396Y-68167590D01*
X117051000Y-68467240D01*
X117051000Y-68772760D01*
X116991396Y-69072410D01*
X116874479Y-69354674D01*
X116704741Y-69608705D01*
X116488705Y-69824741D01*
X116234674Y-69994479D01*
X115952410Y-70111396D01*
X115802585Y-70141198D01*
X115652761Y-70171000D01*
X115347239Y-70171000D01*
X115197415Y-70141198D01*
X115047590Y-70111396D01*
X114765326Y-69994479D01*
X114511295Y-69824741D01*
X114295259Y-69608705D01*
X114125521Y-69354674D01*
X114008604Y-69072410D01*
X113949000Y-68772760D01*
X113949000Y-68467240D01*
X114008604Y-68167590D01*
X114125521Y-67885326D01*
X114295259Y-67631295D01*
X114511295Y-67415259D01*
X114765326Y-67245521D01*
X115047590Y-67128604D01*
X115197415Y-67098802D01*
X115347239Y-67069000D01*
X115652761Y-67069000D01*
X115802585Y-67098802D01*
G37*
G36*
X160802585Y-67098802D02*
G01*
X160952410Y-67128604D01*
X161234674Y-67245521D01*
X161488705Y-67415259D01*
X161704741Y-67631295D01*
X161874479Y-67885326D01*
X161991396Y-68167590D01*
X162051000Y-68467240D01*
X162051000Y-68772760D01*
X161991396Y-69072410D01*
X161874479Y-69354674D01*
X161704741Y-69608705D01*
X161488705Y-69824741D01*
X161234674Y-69994479D01*
X160952410Y-70111396D01*
X160802585Y-70141198D01*
X160652761Y-70171000D01*
X160347239Y-70171000D01*
X160197415Y-70141198D01*
X160047590Y-70111396D01*
X159765326Y-69994479D01*
X159511295Y-69824741D01*
X159295259Y-69608705D01*
X159125521Y-69354674D01*
X159008604Y-69072410D01*
X158949000Y-68772760D01*
X158949000Y-68467240D01*
X159008604Y-68167590D01*
X159125521Y-67885326D01*
X159295259Y-67631295D01*
X159511295Y-67415259D01*
X159765326Y-67245521D01*
X160047590Y-67128604D01*
X160197415Y-67098802D01*
X160347239Y-67069000D01*
X160652761Y-67069000D01*
X160802585Y-67098802D01*
G37*
G36*
X171975256Y-65311298D02*
G01*
X172081579Y-65332447D01*
X172382042Y-65456903D01*
X172652451Y-65637585D01*
X172882415Y-65867549D01*
X173063097Y-66137958D01*
X173187553Y-66438421D01*
X173251000Y-66757391D01*
X173251000Y-67082609D01*
X173187553Y-67401579D01*
X173063097Y-67702042D01*
X172882415Y-67972451D01*
X172652451Y-68202415D01*
X172382042Y-68383097D01*
X172081579Y-68507553D01*
X171975256Y-68528702D01*
X171762611Y-68571000D01*
X171437389Y-68571000D01*
X171224744Y-68528702D01*
X171118421Y-68507553D01*
X170817958Y-68383097D01*
X170547549Y-68202415D01*
X170317585Y-67972451D01*
X170136903Y-67702042D01*
X170012447Y-67401579D01*
X169949000Y-67082609D01*
X169949000Y-66757391D01*
X170012447Y-66438421D01*
X170136903Y-66137958D01*
X170317585Y-65867549D01*
X170547549Y-65637585D01*
X170817958Y-65456903D01*
X171118421Y-65332447D01*
X171224744Y-65311298D01*
X171437389Y-65269000D01*
X171762611Y-65269000D01*
X171975256Y-65311298D01*
G37*
G36*
X106975256Y-65311298D02*
G01*
X107081579Y-65332447D01*
X107382042Y-65456903D01*
X107652451Y-65637585D01*
X107882415Y-65867549D01*
X108063097Y-66137958D01*
X108187553Y-66438421D01*
X108251000Y-66757391D01*
X108251000Y-67082609D01*
X108187553Y-67401579D01*
X108063097Y-67702042D01*
X107882415Y-67972451D01*
X107652451Y-68202415D01*
X107382042Y-68383097D01*
X107081579Y-68507553D01*
X106975256Y-68528702D01*
X106762611Y-68571000D01*
X106437389Y-68571000D01*
X106224744Y-68528702D01*
X106118421Y-68507553D01*
X105817958Y-68383097D01*
X105547549Y-68202415D01*
X105317585Y-67972451D01*
X105136903Y-67702042D01*
X105012447Y-67401579D01*
X104949000Y-67082609D01*
X104949000Y-66757391D01*
X105012447Y-66438421D01*
X105136903Y-66137958D01*
X105317585Y-65867549D01*
X105547549Y-65637585D01*
X105817958Y-65456903D01*
X106118421Y-65332447D01*
X106224744Y-65311298D01*
X106437389Y-65269000D01*
X106762611Y-65269000D01*
X106975256Y-65311298D01*
G37*
M02*
